<svg viewBox="0 0 315 280" xmlns="http://www.w3.org/2000/svg" xmlns:xlink="http://www.w3.org/1999/xlink"><defs><path id="a" d="M.753.576h156.316V148H.753z"/><path id="c" d="M.287.743H26.9v26.614H.287z"/><path id="e" d="M.58.035h44.03V44.06H.58z"/></defs><g fill="none" fill-rule="evenodd"><path d="M148.49 103.311c7.507 27.623-9.09 46.74-35.478 53.91-26.388 7.17-55.586-5.762-63.092-33.384-7.506-27.623 15.199-61.13 42.54-60.704 30.154.47 48.525 12.556 56.03 40.178" fill="#F0F6F7"/><g transform="translate(74 131.257)"><mask id="b" fill="#fff"><use xlink:href="#a"/></mask><path d="M154.29 62.256c11.52 42.4-13.955 71.743-54.46 82.75-40.508 11.007-85.327-8.844-96.849-51.243C-8.539 51.362 26.312-.071 68.282.582c46.286.72 74.486 19.274 86.007 61.674" fill="#7CB1E5" mask="url(#b)"/></g><path d="M299.574 69.043c10.412 38.314-12.61 64.83-49.212 74.777-36.603 9.945-77.103-7.991-87.515-46.306-10.412-38.314 21.082-84.792 59.008-84.201 41.825.65 67.308 17.416 77.719 55.73" fill="#F0F6F7"/><path d="M134.235 33.716c-7.172 4.106-9.91 11.692-12.808 19.724-3.284 9.102-6.68 18.515-17.086 22.453-1.773.669-11.07 3.833-20.216.246-5.4-2.118-8.598-4.668-11.796-9.408C47.601 30.08 22.515 41.55 15.414 45.936c-7.52 4.648-12.476 11.84-13.953 20.252-1.953 11.126 2.32 23.708 12.358 36.384 3.738 4.719 8.645 9.249 13.391 13.631 7.566 6.986 14.714 13.583 15.408 19.621.778 6.766-2.144 10.75-6.187 16.266-3.57 4.87-8.015 10.933-11.488 21.223-2.822 8.362-6.687 19.814-3.513 30.568 2.968 10.059 12.191 19.435 25.303 25.723 15.804 7.58 33.764 8.947 46.873 3.567 10.031-4.115 13.147-10.237 18.31-20.381 4.277-8.403 9.601-18.862 21.068-32.723 13.031-15.752 23.557-23.266 32.845-29.896 10.464-7.47 18.73-13.369 26.194-28.315 11.713-23.449 13.323-43.695 4.785-60.177-6.89-13.3-20.855-24.416-36.444-29.009-4.552-1.341-8.97-2.007-13.038-2.007-5.04 0-9.543 1.023-13.09 3.053zM46.301 230.505c-13.366-6.41-22.78-16.012-25.83-26.341-3.264-11.057.66-22.682 3.525-31.172 3.522-10.436 8.017-16.567 11.628-21.493 3.91-5.332 6.733-9.184 6-15.561-.65-5.668-7.666-12.144-15.093-19-4.773-4.408-9.71-8.965-13.495-13.744C2.816 90.286-1.527 77.43.476 66.015c1.527-8.696 6.645-16.13 14.413-20.929 5.9-3.646 15.358-7.373 26.92-4.437 11.316 2.877 21.864 11.463 31.348 25.522 3.073 4.553 6.144 7.002 11.333 9.038 8.803 3.453 17.785.396 19.497-.252 9.975-3.775 13.291-12.967 16.5-21.857 2.831-7.848 5.76-15.964 13.252-20.252 6.742-3.859 16.3-4.264 26.908-1.137 15.841 4.667 30.038 15.974 37.05 29.508 8.692 16.782 7.084 37.333-4.779 61.084-7.577 15.168-15.932 21.132-26.508 28.682-9.238 6.594-19.708 14.068-32.655 29.718-11.398 13.777-16.693 24.181-20.948 32.541-5.086 9.993-8.447 16.596-18.822 20.853-5.427 2.226-11.663 3.322-18.233 3.322-9.605 0-19.92-2.343-29.45-6.914z" fill="#E8ECEF"/><path d="M166.467 14.74c.896 0 1.79.341 2.473 1.025l16.851 16.853a3.497 3.497 0 1 1-4.945 4.947L163.994 20.71a3.496 3.496 0 0 1 2.473-5.97m-92.096-1.875a8.996 8.996 0 1 1 12.722 12.722 8.996 8.996 0 0 1-12.722-12.722" fill="#7CB1E5"/><g transform="translate(233 -.743)"><mask id="d" fill="#fff"><use xlink:href="#c"/></mask><path d="M8.353 8.81c2.892-2.89 7.594-2.89 10.482-.002 2.889 2.89 2.889 7.591-.002 10.482-2.89 2.891-7.592 2.891-10.482.002-2.89-2.889-2.89-7.59.002-10.482M4.18 4.637c-5.19 5.193-5.192 13.636-.001 18.827 5.19 5.192 13.636 5.19 18.827-.002 5.192-5.19 5.194-13.635.002-18.827C17.817-.555 9.373-.554 4.18 4.637" fill="#7CB1E5" mask="url(#d)"/></g><g transform="translate(270 24.257)"><mask id="f" fill="#fff"><use xlink:href="#e"/></mask><path d="M3.096 14.653l7.391 7.391L3.09 29.44a8.557 8.557 0 0 0 0 12.11 8.558 8.558 0 0 0 12.11 0l7.396-7.397 7.396 7.396a8.557 8.557 0 0 0 12.109 0 8.557 8.557 0 0 0 0-12.109l-7.397-7.396 7.391-7.39a8.557 8.557 0 0 0 0-12.11 8.557 8.557 0 0 0-12.108 0l-7.391 7.39-7.391-7.39a8.558 8.558 0 0 0-12.109 0 8.558 8.558 0 0 0 0 12.11" fill="#7CB1E5" mask="url(#f)"/></g><path d="M232.173 211.484c5.037-5.037 13.23-5.037 18.27.003 5.034 5.034 5.034 13.226-.003 18.264-5.038 5.037-13.23 5.037-18.264.003-5.04-5.041-5.04-13.233-.003-18.27m-6.115-6.114c-8.407 8.407-8.405 22.09.003 30.499 8.408 8.408 22.086 8.404 30.494-.003 8.407-8.408 8.41-22.086.003-30.493-8.408-8.41-22.092-8.411-30.5-.003" fill="#7CB1E5"/><path d="M193.81 33.875c0 8.796 7.132 15.926 15.928 15.926 8.796 0 15.927-7.13 15.927-15.926s-7.131-15.927-15.927-15.927-15.927 7.131-15.927 15.927" fill="#C0D0D8"/><path d="M195.091 33.872c0 4.849 2.346 9.135 5.968 11.802a14.566 14.566 0 0 0 8.678 2.852 14.89 14.89 0 0 0 4.35-.656c5.97-1.854 10.297-7.423 10.297-13.998 0-2.29-.527-4.45-1.462-6.375a14.583 14.583 0 0 0-5.077-5.82 14.855 14.855 0 0 0-1.59-.926 14.64 14.64 0 0 0-6.518-1.525 14.627 14.627 0 0 0-13.648 9.348 14.372 14.372 0 0 0-.998 5.298" fill="#EFF4F4"/><path d="M209.738 34.614a.735.735 0 0 0 .573-.273l4.844-5.972a.738.738 0 0 0-1.146-.93l-4.844 5.971a.738.738 0 0 0 .573 1.204" fill="#808791"/><path d="M206.863 33.875a2.875 2.875 0 1 0 5.749 0 2.875 2.875 0 0 0-5.75 0" fill="#C0D0D8"/><path d="M217.137 43.148a.737.737 0 0 0 .558-1.222l-7.4-8.534a.737.737 0 1 0-1.115.966l7.399 8.535a.736.736 0 0 0 .558.255" fill="#C0D0D8"/><path d="M91.788 55.916l26.308 76.524a2.469 2.469 0 0 0 3.137 1.533l42.791-14.71a2.471 2.471 0 0 0 1.533-3.139L139.25 39.6a2.476 2.476 0 0 0-3.14-1.54L93.317 52.771a2.476 2.476 0 0 0-1.529 3.145" fill="#C7D8E2"/><path d="M89.863 56.578l26.308 76.524a2.47 2.47 0 0 0 3.137 1.533l42.79-14.71a2.47 2.47 0 0 0 1.534-3.139l-26.307-76.524a2.477 2.477 0 0 0-3.141-1.54L91.392 53.433a2.476 2.476 0 0 0-1.53 3.145" fill="#DCE8EF"/><path d="M95.308 58.346l9.999 29.066.002.01 8.148 23.728.002.01 3.714 10.776.872 2.542a1.331 1.331 0 0 0 1.696.828l20.44-7.031 15.834-5.442a1.338 1.338 0 0 0 .837-1.698l-9.703-28.23-13.033-37.902a1.334 1.334 0 0 0-1.62-.855c-.03.007-.058.013-.085.03l-6.18 2.126-13.756 4.733-16.33 5.61a1.332 1.332 0 0 0-.837 1.699" fill="#F0F7F7"/><path d="M140.013 125.27a2.323 2.323 0 1 0-1.512-4.393 2.323 2.323 0 0 0 1.512 4.394M129.522 43.75a.945.945 0 1 0-.615-1.784.945.945 0 0 0 .615 1.785" fill="#C7D8E2"/><path d="M120.956 107.467l1.053-.362-1.575-4.584a8.465 8.465 0 0 1 .4-6.51l2.9-5.938a3.802 3.802 0 0 0-1.746-5.079l-5.938-2.9a8.47 8.47 0 0 1-4.32-4.887l-1.575-4.584-1.053.363 1.576 4.584a9.574 9.574 0 0 0 4.883 5.525l5.94 2.9a2.688 2.688 0 0 1 1.233 3.589l-2.9 5.939a9.562 9.562 0 0 0-.453 7.36l1.575 4.584zm22.085-7.592l1.053-.362-1.576-4.585a9.576 9.576 0 0 0-4.884-5.525l-5.939-2.9a2.688 2.688 0 0 1-1.234-3.589l2.9-5.938a9.569 9.569 0 0 0 .454-7.36l-1.576-4.585-1.052.362 1.576 4.584a8.474 8.474 0 0 1-.402 6.51l-2.9 5.938a3.802 3.802 0 0 0 1.746 5.08l5.938 2.9a8.467 8.467 0 0 1 4.32 4.886l1.576 4.584z" fill="#CEE8EF"/><path d="M108.953 74.15c.12 0 .242-.02.362-.06l23.435-8.056a1.115 1.115 0 0 0-.725-2.107l-23.434 8.057a1.115 1.115 0 0 0 .362 2.167m11.855 34.481c.12 0 .242-.02.362-.061l23.435-8.056a1.114 1.114 0 0 0-.725-2.107l-23.434 8.057a1.115 1.115 0 0 0 .362 2.167" fill="#B2CAD3"/><path d="M130.528 74.219l-4.367 8.945a.833.833 0 0 1-1.114.383l-8.945-4.368a.833.833 0 0 1 .095-1.536l13.312-4.576a.832.832 0 0 1 1.019 1.152m3.978 23.989l-3.814-1.862a.832.832 0 0 0-1.114.383l-1.863 3.813c-.325.667.317 1.395 1.02 1.153l5.676-1.95c.701-.242.761-1.21.095-1.537m-6.205-4.223a.904.904 0 1 0 1.71-.586.904.904 0 0 0-1.71.586m-1.288-3.745a.906.906 0 1 0 1.713-.59.906.906 0 0 0-1.713.59m-1.287-3.744a.906.906 0 1 0 1.713-.59.906.906 0 0 0-1.713.59" fill="#799DD3"/><path d="M117.173 121.936l.872 2.542a1.33 1.33 0 0 0 1.695.828l20.441-7.031 6.968-35.37-13.034-37.902a1.332 1.332 0 0 0-1.619-.855l-15.323 77.788zm-11.866-34.524l.002.01 8.148 23.728 12.775-64.846-13.757 4.733z" fill="#FFF"/><path d="M95.91 123.862l-2.163 22.317a2.197 2.197 0 0 0 1.975 2.4l30.58 2.966a2.197 2.197 0 0 0 2.4-1.975l2.165-22.317a2.197 2.197 0 0 0-1.976-2.4l-30.58-2.966a2.196 2.196 0 0 0-2.4 1.975" fill="#CAD3DB"/><path d="M95.427 120.05l-3.582 22.134a2.196 2.196 0 0 0 1.82 2.52l30.327 4.908a2.197 2.197 0 0 0 2.522-1.819l3.581-22.134a2.195 2.195 0 0 0-1.818-2.52l-30.329-4.908a2.196 2.196 0 0 0-2.52 1.819" fill="#D8E1EA"/><path d="M95.427 120.05l-.795 4.91 34.67 5.611.793-4.912a2.195 2.195 0 0 0-1.818-2.52l-30.329-4.908a2.196 2.196 0 0 0-2.52 1.819" fill="#ED9558"/><path fill="#FFF" d="M94.373 126.557l34.67 5.609.258-1.595-34.669-5.611z"/><path d="M119.29 124.386a2.63 2.63 0 1 0 5.192.84 2.63 2.63 0 0 0-5.192-.84m-18.4-2.976a2.63 2.63 0 1 0 5.193.84 2.63 2.63 0 0 0-5.192-.84" fill="#C97841"/><path d="M121.888 126.604c.867 0 1.63-.628 1.772-1.511l.623-3.845a1.798 1.798 0 0 0-1.488-2.062 1.79 1.79 0 0 0-2.061 1.488l-.622 3.845a1.796 1.796 0 0 0 1.776 2.085m-18.399-2.977c.867 0 1.63-.628 1.772-1.51l.623-3.846a1.797 1.797 0 0 0-1.488-2.062 1.793 1.793 0 0 0-2.061 1.487l-.622 3.846a1.796 1.796 0 0 0 1.776 2.085" fill="#5C81B7"/><path fill="#A5BDD6" d="M120.761 136.586l3.372.546.464-2.864-3.373-.546zm-23.295-3.769l3.373.546.464-2.864-3.373-.546zm5.824.942l3.373.546.463-2.864-3.373-.546zm5.824.942l3.373.546.463-2.864-3.372-.546zm5.823.943l3.373.546.464-2.864-3.373-.546zm5.07 5.596l3.373.546.464-2.864-3.373-.546zm-23.294-3.77l3.373.547.464-2.864-3.373-.546zm5.824.943l3.372.546.464-2.864-3.373-.546zm5.823.943l3.374.546.463-2.864-3.373-.546zm5.824.942l3.373.546.463-2.864-3.372-.546zm5.07 5.597l3.373.546.464-2.864-3.373-.546zm-23.294-3.77l3.373.546.463-2.864-3.372-.546zm5.824.943l3.372.546.465-2.864-3.373-.546zm5.824.942l3.373.546.463-2.864-3.373-.546zm5.823.942l3.373.546.463-2.864-3.372-.546z"/><path d="M259.88 108.034a6.976 6.976 0 1 0 13.95 0 6.976 6.976 0 0 0-13.95 0m-26.42-43.071c0 1.01.821 1.833 1.831 1.833a1.835 1.835 0 0 0 1.833-1.833c0-1.01-.822-1.832-1.833-1.832-1.01 0-1.832.822-1.832 1.832m-2 0a3.836 3.836 0 0 1 3.832-3.832 3.837 3.837 0 0 1 3.833 3.832 3.838 3.838 0 0 1-3.833 3.833 3.837 3.837 0 0 1-3.832-3.833" fill="#C4CBD6"/><path d="M261.156 69.334l9.202 18.022a2.03 2.03 0 0 1-.885 2.73l-34.713 17.726a2.03 2.03 0 0 1-2.73-.885l-9.203-18.022a2.042 2.042 0 0 1-.09-1.64c.178-.456.505-.851.976-1.091l34.713-17.725c.469-.24.98-.273 1.454-.15a2.041 2.041 0 0 1 1.276 1.035" fill="#6F7475"/><path d="M259.88 68.299l-8.689 19.16a7.077 7.077 0 0 1-7.839 4.004l-20.616-4.198c.178-.457.505-.852.976-1.091l34.713-17.726c.47-.238.981-.272 1.454-.15" fill="#8A9596"/><path d="M237.432 56.855l-5.526 12.986a1.417 1.417 0 0 1-1.858.749l-25.013-10.645a1.417 1.417 0 0 1-.749-1.858l5.527-12.986a1.42 1.42 0 0 1 1.857-.748l25.014 10.645a1.418 1.418 0 0 1 .748 1.857" fill="#ED9558"/><path d="M237.415 55.709l-14.14 3.923a4.935 4.935 0 0 1-5.649-2.404l-6.976-12.91c.324-.108.681-.11 1.02.035l25.014 10.645c.338.144.585.403.731.71" fill="#FFC197"/><path d="M215.794 78.904h1.287v1.288a1.054 1.054 0 1 0 2.11 0v-1.287h1.288a1.054 1.054 0 0 0 0-2.11h-1.289v-1.287a1.054 1.054 0 1 0-2.109 0v1.288h-1.287a1.054 1.054 0 1 0 0 2.108" fill="#B5B5B5"/><path d="M252.097 192.347c0 5.765 4.688 10.452 10.456 10.452 5.761 0 10.449-4.687 10.449-10.452s-4.688-10.452-10.449-10.452c-5.768 0-10.456 4.687-10.456 10.452m-6.997 0c0-9.622 7.831-17.45 17.453-17.45s17.446 7.828 17.446 17.45-7.824 17.45-17.446 17.45c-9.622 0-17.453-7.828-17.453-17.45" fill="#F0F6F7"/><path d="M275.786 156.83a.5.5 0 0 0 .5-.5c0-5.12-.557-10.226-1.652-15.177a69.414 69.414 0 0 0-7.34-19.128.5.5 0 0 0-.87.492 68.39 68.39 0 0 1 7.233 18.853 69.285 69.285 0 0 1 1.63 14.96.5.5 0 0 0 .5.5m-2.287 17.725a.5.5 0 0 0 .483-.372 69.387 69.387 0 0 0 1.316-6.085.501.501 0 0 0-.987-.168 68.386 68.386 0 0 1-1.295 5.997.498.498 0 0 0 .483.628" fill="#C8CDCE"/><path d="M141.72 156.33c0 35.751 28.981 64.732 64.733 64.732 35.751 0 64.733-28.98 64.733-64.732 0-35.75-28.982-64.733-64.733-64.733-35.752 0-64.733 28.982-64.733 64.733" fill="#C8CDCE"/><path d="M148.016 156.326c0 19.324 9.374 36.451 23.82 47.09a58.074 58.074 0 0 0 14.14 7.658 56.15 56.15 0 0 0 7.023 2.136 58.09 58.09 0 0 0 13.45 1.56c6.048 0 11.88-.913 17.364-2.618 23.8-7.392 41.08-29.592 41.08-55.826a58.172 58.172 0 0 0-5.82-25.443 58.674 58.674 0 0 0-20.27-23.226 56.593 56.593 0 0 0-6.355-3.676 57.843 57.843 0 0 0-15.247-5.103 58.815 58.815 0 0 0-10.751-.986c-32.272 0-58.434 26.163-58.434 58.434" fill="#B5B5B5"/><path d="M149.54 156.327c0 18.82 9.13 35.5 23.2 45.86a56.556 56.556 0 0 0 13.77 7.46 54.6 54.6 0 0 0 6.84 2.08c4.21 1 8.59 1.52 13.1 1.52 5.89 0 11.57-.89 16.91-2.55 23.18-7.2 40.01-28.82 40.01-54.37a56.64 56.64 0 0 0-5.67-24.78 57.115 57.115 0 0 0-19.74-22.62 54.868 54.868 0 0 0-6.19-3.58c-4.62-2.3-9.61-4-14.85-4.97a57.288 57.288 0 0 0-10.47-.96c-31.43 0-56.91 25.48-56.91 56.91" fill="#EFF4F4"/><path d="M193.35 211.727c4.21 1 8.59 1.52 13.1 1.52 5.89 0 11.57-.89 16.91-2.55l34.34-79.15c-4.45-9.19-11.3-17-19.74-22.62l-44.61 102.8zm-20.61-9.54c4.19 3.09 8.82 5.61 13.77 7.46l45.26-104.3c-4.62-2.3-9.61-4-14.85-4.97l-44.18 101.81z" fill="#FFF"/><path d="M206.45 159.331a3 3 0 0 0 1.394-5.659l-30.558-15.984a3.001 3.001 0 0 0-2.781 5.317l30.558 15.983c.445.233.92.343 1.388.343" fill="#ED9558"/><path d="M194.77 156.33c0 6.452 5.23 11.683 11.684 11.683 6.452 0 11.682-5.23 11.682-11.683 0-6.453-5.23-11.684-11.682-11.684-6.454 0-11.684 5.231-11.684 11.684" fill="#6F7475"/><path d="M206.45 159.33a2.999 2.999 0 0 0 2.556-1.424l24.066-38.984a3 3 0 0 0-5.105-3.15L203.9 154.753a3.001 3.001 0 0 0 2.55 4.576" fill="#6F7475"/><path d="M141.72 156.327c0 21.36 10.35 40.31 26.3 52.1l28.801-113.364c.231-.914.349-1.854.349-2.797-31.35 4.491-55.45 31.46-55.45 64.061" fill="#C8CDCE"/><path d="M233.433 224.197h-53.956a1.566 1.566 0 1 1 0-3.135h53.956a1.567 1.567 0 0 1 0 3.135m-75.892 2.334h-28.645a1.568 1.568 0 0 1 0-3.135h28.645a1.566 1.566 0 1 1 0 3.136" fill="#E2E2E2"/><path fill="#D6DDEA" d="M148.09 219.87l1.334-8.294-3.73-1.128-.594 8.79z"/><path d="M144.958 218.35a1.347 1.347 0 0 0-.674.283c-1.32 1.096-5.332 3.055-7.39 3.353-2.208.318-2.322 1.41.785 1.41 3.105 0 5.383-.276 6.766-.241 1.385.035 1.026.242 4.43.242 2.614 0 1.796-3.333.861-4.883-.285-.472-.668-.74-1.236-.658l-3.542.494z" fill="#ED9558"/><path fill="#D6DDEA" d="M160.1 212.138l-5.206-6.593-3.354 1.987 6.073 6.38z"/><path d="M156.863 213.416a1.341 1.341 0 0 0-.246.688c-.086 1.713-1.412 6.09-2.95 7.493-1.584 1.447-.562 1.8 1.99.594 2.81-1.325 3.437-4.152 4.399-5.148.962-.996.87-.59 3.174-3.1 1.768-1.924-1.24-3.576-3.014-3.935-.54-.11-.997-.008-1.321.465l-2.032 2.943z" fill="#ED9558"/><path d="M162.402 72.285s1.019 6.792-.951 9.916c-1.97 3.125-2.253 3.6-2.253 3.6" fill="#ED8C62"/><path d="M157.397 88.837c.56.33 1.189.49 1.8.49 1.2 0 2.37-.61 3.03-1.72.04-.05.39-.64 2.21-3.52 1.28-2.03 1.689-4.8 1.75-7.23.08-2.38-.19-4.43-.29-5.1a3.526 3.526 0 0 0-4.021-2.96 3.52 3.52 0 0 0-2.97 4.01c.15 1.02.23 2.19.23 3.31 0 1.14-.08 2.23-.27 3.06-.1.48-.23.87-.4 1.14-2.01 3.19-2.3 3.68-2.3 3.68-1 1.67-.45 3.84 1.23 4.84" fill="#FFAF84"/><path d="M170.437 127.707c-.74-10.13 2.67-35.3 4.42-45.32a2.49 2.49 0 0 0-2.45-2.91h-20.821c-1.12 0-2.11.75-2.4 1.84-2.38 9.09-3.9 46.39-3.9 46.39h25.15z" fill="#E8E8E8"/><path d="M136.036 106.597c.351-1.89 2.67-6.77 5.28-11.87 2.77-5.41 5.862-11.07 7.29-13.64a2.989 2.989 0 0 1 4.06-1.17 2.99 2.99 0 0 1 1.17 4.06c-2.199 3.97-4.47 8.2-6.43 11.98-2.24 4.31-4.422 6.978-5.302 9.098 1.625 1.417 5.625 1.508 8.825 1.317.875-.102 4.264-.342 6.522 1.73.882.809 1.912 2.27 1.806 4.629-.072 1.603-.306 2.264-1.736 2.96-.577.28-1.358.359-2 .28-1.637-.2-1.78-1.093-1.796-3.015-.01-1.347-.703-2.73-.703-2.734 0 0-4.832 1.183-8.875 1.687-4.044.505-5.67-.282-7.15-1.952a3.95 3.95 0 0 1-.96-3.36" fill="#FFAF84"/><path d="M169.341 144.075s3.063-5.616 1.093-16.368h-25.146s-.356 8.183.22 16.368h23.833z" fill="#3962A8"/><path d="M141.317 94.727l2.93.59 3.16.64c1.96-3.78 4.23-8.01 6.43-11.98a2.989 2.989 0 0 0-5.23-2.89c-1.43 2.57-4.52 8.23-7.29 13.64" fill="#ED8C62"/><path d="M169.637 81.817c.39-1.6 2.02-2.58 3.619-2.18 7.211 1.77 12.221 3.41 15.711 4.87 8.02 3.38 7.949 5.88 7.92 7.17-.039 1.46-.323 4.28-17.628 10.586-.012.497.548 2.48.893 3.116.786 1.451-.032 2.842-.893 4.25-.294.48-.956 1.062-1.8 1.062-1.061 0-2.382-1.345-2.563-2.466-.655-4.034-.542-6.406-.343-6.878l.004-.009.005-.013c.017-.04.045-.076.063-.116.066-.135.133-.269.218-.394.052-.076.115-.14.174-.212.064-.078.123-.16.196-.232.115-.114.242-.213.373-.306.023-.017.041-.037.065-.052.204-.138.423-.247.654-.332 5.855-2.409 11.329-6.306 13.731-8.034-.839-.48-2.04-1.04-3.509-1.63-3.71-1.49-9.14-3.21-14.701-4.58a2.998 2.998 0 0 1-2.189-3.62" fill="#FFAF84"/><path d="M140.847 93.427l4.01.77 3.149.6h.011l2.66.51c3.43-6.73 4.25-8.27 4.38-10.57.14-2.6-.561-3.89-2.25-4.82a3.5 3.5 0 0 0-4.76 1.36c-.041.08-3.721 5.31-7.2 12.15" fill="#E8E8E8"/><path d="M129.897 177.347c.37 2.47 1.71 5.12 3.58 8.39 3.14 5.45 7.94 11.48 12.25 16.55 3 3.53 5.75 6.59 7.52 8.67.77.89 1.35 1.6 1.7 2.09l3.55-4.6c-1.32-1.86-2.55-4.37-4.09-6.71l-.12-.18c-2.9-4.37-5.97-9.3-8.46-13.78-.1-.15-.18-.3-.26-.45-2.63-4.74-4.58-8.94-4.95-11.4-.66-4.39 5.889-18.05 12.37-30.1.74-1.38 1.48-2.74 2.21-4.06.25-.45.389-.95.42-1.46.19-2.22-1.44-4.77-3.42-5.86-2.43-1.34-5.571-2.03-6.91.4-2.74 4.97-17.01 31.76-15.39 42.5" fill="#3962A8"/><path d="M145.727 202.287c3 3.53 5.75 6.59 7.52 8.67.28-2.46.58-5.13.879-7.83.06-.52.11-1.04.16-1.57-2.9-4.37-5.97-9.3-8.46-13.78-.11 4.43-.12 9.61-.1 14.51" fill="#2D548C"/><path d="M146.376 178.696c1.231-10.06 9.68-37.088 10.99-40.067 1.11-2.54 7.21-3.081 9.76-1.962a5.019 5.019 0 0 1 2.58 6.62c-3.39 7.73-13.037 28.375-13.997 35.684-.56 4.371-1.312 13.156-2.692 20.645a1699.1 1699.1 0 0 1-2.66 14.02c-.62 3.21-.624 2.624-.683 2.944l-6.027-.92s1.278-25.1 2.73-36.964" fill="#3962A8"/><path d="M171.827 85.437c5.56 1.37 10.99 3.09 14.7 4.58l2.44-5.51c-3.49-1.46-8.5-3.1-15.71-4.87-1.6-.4-3.23.58-3.62 2.18a2.997 2.997 0 0 0 2.19 3.62" fill="#ED8C62"/><path d="M173.211 79.552c-1.914-.276-3.293.629-3.807 2.493-.514 1.862.775 3.326 2.442 4.305 2.051 1.205 2.74 1.432 11.372 4.403l4.798-6.656c-11.034-4.265-11.602-4.082-14.805-4.545" fill="#E8E8E8"/><path d="M158.867 79.177a11.164 11.164 0 0 0 7.32-2.32c.08-2.38-.19-4.43-.29-5.1a3.525 3.525 0 0 0-4.02-2.96 3.52 3.52 0 0 0-2.97 4.01c.15 1.02.23 2.19.23 3.31 0 1.14-.08 2.23-.27 3.06" fill="#ED8C62"/><path d="M148.862 66.621c1.41 6.476 5.027 11.23 11.229 11.23 6.202 0 10.119-4.692 11.229-11.23 1.039-6.114-5.057-12.108-11.26-12.108-6.2 0-12.517 6.048-11.198 12.108" fill="#FFAF84"/><path d="M148.019 216.614l.028-.179c1.7-10.517 4.27-26.411 5.573-36.406.949-7.279 9.956-28.92 13.346-36.643.026-.058.043-.117.059-.173.009-.031.016-.061.028-.09.55-1.49 2.22-7.018.632-15.696l-.492.09c1.566 8.553-.07 13.974-.61 15.43-.014.042-.027.087-.04.13-.01.036-.018.072-.034.107-3.4 7.743-12.428 29.444-13.386 36.78-1.3 9.988-3.87 25.877-5.57 36.393l-.028.178.494.08z" fill="#658BC1"/><path d="M156.097 79.477c0 1.51.6 4.06 4.58 4.06 2.899 0 6.54-1.23 7.88-3.56l.29-.5h-12.75z" fill="#C8D6DB"/><path d="M167.689 79.475c-1.062 1.851-4.25 3.06-7.011 3.06s-3.578-1.37-3.578-3.06h10.589z" fill="#FFAF84"/><path d="M152.568 110.847c0-.031-.15-1.73 1.602-4.21l-1.635-.971c-2.075 3.077-1.867 5.307-1.867 5.452l1.9-.271z" fill="#82AACE"/><path d="M153.863 105.695c-.94-.436-2.184-.232-2.78.454-.596.686-.318 1.595.62 2.031.94.436 2.184.233 2.78-.454.597-.686.318-1.595-.62-2.031" fill="#4E7CAF"/><path d="M149.147 58.305c3.375-5.458 11.74-5.917 13.37-5.833.862.043 2.71.536 3.532 1.828a13.36 13.36 0 0 0-.006-1.682c.737.904.856 1.652.719 2.232.502-.663.86-1.404.86-1.404.148.954-.126 1.484-.488 1.794 2.283.533 5.2 3.763 4.2 10.388-.436 2.888-6.944.68-8.791-2.215-1.238 1.983-3.694 2.401-3.694 2.401.864-.857 1.598-2.133 2.186-3.413-3.468 2.123-8.108 4.408-8.637 5.821 0 0-1-2.268-.25-3.709 0 0-2.752.685-3.1 3.435 0 0-3.515-3.798.099-9.643" fill="#424344"/><path fill="#658BC1" d="M155.004 144.52l2.748-17.008-.494-.08-2.748 17.008z"/><path d="M155.275 141.29l.077-.495c-.011-.002-1.055-.175-1.625-.963-.334-.46-.445-1.049-.332-1.749l1.74-10.776-.493-.08-1.741 10.776c-.135.84.008 1.554.424 2.127.696.956 1.899 1.151 1.95 1.16" fill="#658BC1"/><path d="M171.72 65.974a3.917 3.917 0 0 1-.043 3.307c-.565 1.178-2.277 1.112-2.812-.08l-1.455-3.239c-.535-1.192.555-2.515 1.811-2.154a3.917 3.917 0 0 1 2.498 2.166" fill="#FFAF84"/></g></svg>