<svg xmlns="http://www.w3.org/2000/svg" viewBox="0 0 414.1 288.7"><style>.st1{fill:#c3ecfe}.st2{fill:none;stroke:#c3ecfe;stroke-width:1.0564;stroke-miterlimit:10}.st3{fill:#599fd2}.st5{fill:#88d2ff}.st6{fill:#9bdfff}.st7{fill:#c0edff}.st8{fill:none;stroke:#a1dbff;stroke-width:1.0564;stroke-miterlimit:10}.st10{fill:#fe7d90}.st15{fill:#e8505b}.st17{fill:#b03d44}.st18{fill:#3e89cc}.st19{fill:#fff}.st21{opacity:.25}.st21,.st23{fill:#0964af}.st24{opacity:.15}.st25{fill:none;stroke:#0964af;stroke-width:2.1128;stroke-linecap:round;stroke-linejoin:round;stroke-miterlimit:10}.st26{opacity:.45;fill:#5ab5e2}.st27{opacity:.35;fill:#bdeeff}.st28{fill:#ffbe9d}.st29{fill:#170d54}.st30{fill:#f2a181}.st31{fill:#ffccb0}.st32{fill:#57c6f2}.st33{fill:#1b227a}.st34{fill:#eaeaea}.st35{fill:#e5f8ff}.st36,.st43{stroke-linecap:round;stroke-linejoin:round}.st36{stroke:#a1d2f0;stroke-width:.5282}.st36,.st43,.st45{fill:none;stroke-miterlimit:10}.st43{stroke:#fff;stroke-width:1.0564}.st45{stroke-linecap:round;stroke-linejoin:round;stroke:#fe7d90;stroke-width:2.1128}.st47{fill:#c2ebff}</style><path class="st1" d="M388.2 193.6c-5.6-20.1 12.2-20.9 12.6-46.9.2-10.6-5.7-21.4-19.6-26.4-6.9-2.4-13.7-4.1-19.8-8-13.9-8.8-13.7-25.6-17.5-40-8.4-31.5-40.5-56.5-73-55.6-23.5.6-44.7 1.3-66 21.2-14.6 13.6-24.1 30.4-37.7 44.4-14.4 14.9-31.9 22-51.6 26.8-18.6 4.5-38.9 9.9-53.1 23.4-13.4 12.7-11.4 26.1-5.7 41.7 6.3 17.2-7.4 29-21.7 35.7C23 215.6 7 215.1 1.4 228.6c-6.1 14.7 12 14.9 28.7 14.9 16.8 0 233.7-1.3 294.4.5 16.3.5 68.4 4.9 75.8-15.4 4.8-13.7-8.2-20.9-12.1-35z" opacity=".35"/><path class="st2" d="M406.8 187.3c-12.1 28.2-35.5 51.2-63.5 63.7"/><path class="st1" d="M403.3 194.8c4.2-3.5 7.1-8.6 8-14.1.2-1.3.3-2.9-.6-3.9-.2-.3-.6-.5-.9-.5-.6-.1-1.1.4-1.5.8-2.1 2.4-2.8 5.6-3.2 8.8-.5 3.2-1.2 5.5-1.8 8.9m-5.8 9.6c2.5-4.9 3.1-10.7 1.8-16.1-.3-1.3-.9-2.7-2.1-3.3-.3-.2-.7-.2-1.1-.1-.6.2-.9.8-1.1 1.4-1 3-.4 6.3.5 9.3 1 3.1 1.3 5.5 2 8.8m-8.5 11.9c3.1-4.6 4.4-10.3 3.7-15.7-.2-1.3-.6-2.8-1.7-3.5-.3-.2-.7-.3-1.1-.3-.6.1-1 .7-1.2 1.2-1.4 2.9-1.1 6.2-.6 9.3.6 3.1.6 5.5.9 9m-9.7 10.3c3.1-4.6 4.4-10.3 3.7-15.7-.2-1.3-.6-2.8-1.7-3.5-.3-.2-.7-.3-1.1-.3-.6.1-1 .7-1.2 1.2-1.4 2.9-1.1 6.2-.6 9.3.6 3.2.6 5.6.9 9m-14.6 12c3.5-4.2 5.5-9.8 5.3-15.3 0-1.3-.3-2.9-1.3-3.7-.3-.2-.7-.4-1-.4-.6 0-1 .6-1.3 1.1-1.6 2.7-1.8 6.1-1.6 9.2.2 3.2 0 5.6-.1 9.1m-11.4 7.6c3.5-3.8 5.7-9 6.2-14.5.1-1.3.1-2.9-.7-3.8-.2-.3-.5-.5-.8-.5-.5 0-.9.4-1.3.9-1.7 2.5-2.2 5.8-2.3 9-.2 3.1-.7 5.5-1.1 8.9m41.3-37.5c5.6.9 11.6-.2 16.6-3.2 1.2-.7 2.5-1.7 2.8-3.1.1-.4.1-.8-.2-1.1-.3-.5-1-.6-1.6-.6-3.3 0-6.4 1.6-9.3 3.4-2.7 1.8-5.1 2.8-8.3 4.6m-6.8 8.9c5.2 2.2 11.3 2.5 16.9.9 1.4-.4 2.8-1.1 3.4-2.3.2-.3.2-.7.1-1.1-.2-.6-.8-.8-1.4-1-3.2-.8-6.6 0-9.8 1.1-3.2 1-5.7 1.5-9.2 2.4M377.6 228c4.7 3.2 10.6 4.8 16.4 4.2 1.4-.1 3-.5 3.8-1.6.2-.3.4-.7.3-1-.1-.6-.7-1-1.2-1.3-2.9-1.4-6.5-1.3-9.8-.9-3.4.5-5.9.4-9.5.6m-14.3 12.1c5.3 2.1 11.4 2.3 16.9.5 1.4-.4 2.8-1.1 3.4-2.4.2-.4.2-.7.1-1.1-.2-.6-.9-.8-1.5-1-3.2-.8-6.6.1-9.8 1.3-3.1 1.2-5.6 1.7-9.1 2.7m-11.6 6.9c3.7 4.2 9.1 7.2 14.9 8.1 1.4.2 3 .3 4.1-.6.3-.2.5-.6.6-.9.1-.6-.4-1.1-.9-1.5-2.5-2.1-6-2.9-9.3-3.2-3.4-.5-5.8-1.2-9.4-1.9"/><path class="st3" d="M338.3 128c-.1 0-.3-.1-.3-.3l-.1-1.5c0-.2.1-.3.3-.3.2 0 .3.1.3.3l.1 1.5c0 .1-.1.3-.3.3z"/><path class="st1" d="M345.1 196.5l-4 .3-4.5-64.3 2-.1 2-.1zm-6.4-69.4h-.8l-1.3 5.4 4-.2z"/><path class="st2" d="M120.1 143.1c7.1 38.7 34.1 73.3 70 89.5"/><path class="st1" d="M121.9 151.2c-3.3-4.4-5-10-4.7-15.5.1-1.3.4-2.8 1.5-3.6.3-.2.7-.4 1-.3.6.1 1 .6 1.3 1.1 1.5 2.8 1.5 6.1 1.2 9.3-.4 3.1-.2 5.5-.3 9m3.4 10.6c-1.3-5.3-.7-11.2 1.9-16.1.6-1.2 1.5-2.5 2.8-2.7.4-.1.8-.1 1.1.1.5.3.7 1 .7 1.6.3 3.2-1 6.2-2.6 9-1.6 2.7-2.4 5-3.9 8.1m5.6 13.4c-2-5.1-2-11-.1-16.2.5-1.3 1.2-2.6 2.4-3.1.4-.1.7-.2 1.1 0 .5.2.8.9.9 1.5.7 3.1-.3 6.3-1.5 9.2-1.1 3-1.7 5.3-2.8 8.6m7.2 12.3c-2-5.1-2-11-.1-16.2.5-1.3 1.2-2.6 2.4-3.1.4-.1.7-.2 1.1 0 .5.2.8.9.9 1.5.7 3.1-.3 6.3-1.5 9.2-1.2 3-1.7 5.3-2.8 8.6m11.6 14.9c-2.5-4.9-3.1-10.7-1.8-16.1.3-1.3.9-2.7 2.1-3.3.3-.2.7-.2 1.1-.1.6.2.9.8 1.1 1.4 1 3 .4 6.3-.5 9.3-1 3-1.3 5.4-2 8.8m9.4 10c-2.5-4.4-3.6-10.1-2.8-15.5.2-1.3.6-2.8 1.6-3.6.3-.2.6-.3.9-.3.5.1.8.6 1 1.2 1.1 2.8.8 6.1.3 9.2-.6 3.2-.6 5.6-1 9m-31.9-45.8c-5.7-.3-11.3-2.8-15.5-6.8-1-1-2.1-2.2-2-3.6 0-.4.1-.8.4-1 .4-.4 1.1-.4 1.7-.2 3.2.7 5.9 3 8.3 5.4 2.3 2.3 4.4 3.8 7.1 6.2m4.7 10.2c-5.6 1-11.6 0-16.7-2.9-1.2-.7-2.5-1.7-2.8-3-.1-.4-.1-.8.1-1.1.3-.5 1-.6 1.6-.6 3.3-.1 6.5 1.5 9.3 3.2 2.9 1.8 5.2 2.7 8.5 4.4m7.6 12.5c-5.3 2.1-11.4 2.3-16.9.5-1.4-.4-2.8-1.1-3.4-2.4-.2-.4-.2-.7-.1-1.1.2-.6.9-.8 1.5-1 3.2-.8 6.6.1 9.8 1.3 3.1 1.2 5.6 1.6 9.1 2.7m11.3 14.9c-5.6.9-11.6-.3-16.6-3.3-1.2-.7-2.5-1.7-2.7-3.1-.1-.4 0-.8.2-1.1.3-.5 1-.6 1.6-.6 3.3 0 6.4 1.6 9.2 3.4 2.7 1.9 5.1 2.9 8.3 4.7m9.7 9.3c-4.6 3.3-10.5 5-16.3 4.5-1.4-.1-3-.4-3.8-1.5-.2-.3-.4-.7-.4-1 .1-.6.6-1 1.2-1.3 2.9-1.5 6.5-1.5 9.8-1.1 3.3.4 5.8.3 9.5.4"/><path class="st2" d="M50.2 197.2c39.3-1.8 79.1 16.8 102.9 48.1"/><path class="st1" d="M58.5 197.1c-5-2.3-10.9-2.7-16.1-1.1-1.3.4-2.7 1-3.2 2.3-.1.3-.2.7-.1 1.1.2.6.8.8 1.4 1 3 .9 6.3.1 9.3-1 3-1 5.4-1.4 8.7-2.3m11.2 1c-5.5-.1-11 1.9-15.2 5.4-1 .9-2.1 2-2 3.3 0 .4.1.8.4 1 .4.4 1.1.4 1.7.4 3.1-.4 5.8-2.4 8.2-4.6 2.1-2.1 4.1-3.4 6.9-5.5m14.3 2.4c-5.5-.8-11.2.5-15.8 3.5-1.1.7-2.3 1.7-2.4 3.1 0 .4 0 .8.2 1.1.4.5 1 .6 1.6.6 3.2 0 6.1-1.7 8.7-3.5s4.7-3 7.7-4.8m13.6 4.3c-5.5-.8-11.2.5-15.8 3.5-1.1.7-2.3 1.7-2.4 3.1 0 .4 0 .8.2 1.1.4.5 1 .6 1.6.6 3.2 0 6.1-1.7 8.7-3.5 2.5-2 4.7-3 7.7-4.8m17.1 7.9c-5.3-1.3-11.2-.7-16.1 1.9-1.2.6-2.5 1.5-2.7 2.8-.1.4-.1.8.1 1.1.3.5 1 .7 1.6.7 3.2.3 6.2-1 9-2.6 2.7-1.6 4.9-2.4 8.1-3.9m11.8 6.9c-4.9-1.5-10.6-1.2-15.7.8-1.3.5-2.6 1.2-3.1 2.3-.1.3-.2.7-.1 1 .2.5.8.7 1.4.7 3 .4 6.2-.6 9.1-1.8 2.8-1.2 5.2-1.8 8.4-3m-51.8-20.8c-1.6-5.4-5.3-10.3-10.1-13.6-1.2-.8-2.6-1.5-4-1.2-.4.1-.7.3-.9.6-.3.5-.1 1.2.2 1.7 1.4 3 4.2 5.1 7.1 6.8s4.7 3.6 7.7 5.7m11.1 2.3c-.3-5.7-2.7-11.3-6.6-15.6-1-1.1-2.2-2.1-3.6-2.1-.4 0-.8.1-1 .4-.4.4-.4 1.1-.3 1.7.6 3.2 2.9 6 5.2 8.3 2.4 2.4 3.9 4.5 6.3 7.3m13.8 4.6c.9-5.6-.3-11.6-3.3-16.6-.7-1.2-1.7-2.5-3.1-2.7-.4-.1-.8 0-1.1.2-.5.3-.6 1-.6 1.6 0 3.3 1.6 6.4 3.5 9.2 1.8 2.8 2.8 5.1 4.6 8.3m17.1 7.6c-.4-5.6-2.9-11.2-6.9-15.4-1-1-2.2-2-3.6-2-.4 0-.8.1-1 .4-.4.4-.4 1.1-.2 1.7.7 3.2 3 5.9 5.4 8.2 2.3 2.4 3.8 4.4 6.3 7.1m11.2 7.4c2.2-5.2 2.5-11.3.8-16.9-.4-1.4-1.1-2.8-2.3-3.4-.3-.2-.7-.2-1.1-.1-.6.2-.8.9-1 1.5-.8 3.2 0 6.6 1.1 9.8 1.1 3.1 1.6 5.6 2.5 9.1"/><path class="st1" d="M174.5 213.8c-5.7-5.3-13.7-8-21.5-7.3-5.3.5-11 3.3-12.1 8.5-.6 2.5-.4 5.7-2.7 6.7-2.3.9-4.5-1.4-6.8-2.2-3.9-1.3-8.3 3.1-7 7 .6 1.8 2.1 3.3 2 5.2-.2 2.5-3.3 3.9-5.8 3.5-2.5-.4-4.7-1.9-7.2-2.5-2.5-.6-5.6 0-6.5 2.4-.8 2.1.6 5-1.1 6.5-.7.7-1.8.8-2.7.9-21.3 2-44.8 5.8-42.4 9.6.7 1 2.3.7 3.5.7 45.3-.7 86.5-1.4 131.9 0"/><path d="M179.8 127.5c-3.2 9-12.6 19.1-23.4 19.1-12.2 0-15.2-9.9-18.8-13-8.8-7.7-14.2-9.5-25.4-11.4-7.3-1.2-15-11.4-13.1-21.5 3.4-18.4 36.7-27.2 45.1-40.7 6.9-11 6.5-17.5 18.5-25.4" fill="none" stroke="#a1dbff" stroke-width="1.056" stroke-miterlimit="10" stroke-dasharray="2.641"/><path class="st5" d="M325.6 142.6l13.4 52.7-2.5.6-16.7-51.9"/><path class="st6" d="M313.1 143.8c-6.9 1.8-14.2-3.6-16.3-11.9-2.1-8.3 1.7-16.5 8.6-18.2 6.9-1.8 14.2 3.6 16.3 11.9 2.2 8.2-1.7 16.4-8.6 18.2zm-6.4-25.5c-4.3 1.1-6.6 6.7-5.2 12.4 1.5 5.8 6.2 9.5 10.5 8.4 4.3-1.1 6.6-6.7 5.2-12.4s-6.2-9.5-10.5-8.4z"/><path class="st7" d="M320.2 129.1c.2.9 4.1 16 4.1 16 .2.8-.3 1.6-1.1 1.8-.8.2-1.6-.3-1.8-1.1l-.5-1.8s-2.1-4.6-8.1-2.7c0 0 7.1-.9 7.3-.9.3.1-.1-12.2.1-11.3z"/><path class="st6" d="M323.8 149.3c-2.1.5-4.2-.7-4.7-2.8 0 0-.2-1.3-.7-2-.8-1.1-2.3-1.5-5.2-.8l-.7-4.1c1.5-.5 2.6-1.2 3.8-1.1.6-.1 1.2-.1 1.6-.2v-4.1c0-1.3 1.7-2.8 1.7-3.8 0-1.7-1.8-3.5.4-3.7l2.1-.3 4.6 18.1c.4 2.1-.8 4.3-2.9 4.8z"/><path class="st5" d="M327.6 142.1v54.4h2.6l3.3-54.4"/><path class="st6" d="M327.1 124.7c0-8.6 5.8-15.5 12.8-15.5 7.1 0 12.9 7 12.9 15.5 0 8.6-5.8 15.5-12.8 15.5-7.2 0-12.9-7-12.9-15.5zm4.7 0c0 5.9 3.6 10.8 8.1 10.8s8.1-4.8 8.1-10.8c0-5.9-3.6-10.8-8.1-10.8s-8.1 4.8-8.1 10.8z"/><path class="st7" d="M329.4 127.7v16.5c0 .8.7 1.5 1.5 1.5s1.5-.7 1.5-1.5v-1.9s.9-5 7.2-4.6c0 0-7.1.9-7.3 1-.2.1-2.9-11.9-2.9-11z"/><path class="st6" d="M331 148.2c2.1 0 3.9-1.7 3.9-3.9 0 0-.1-1.3.2-2.1.5-1.2 1.9-2 4.9-2l-.3-4.1c-1.6-.1-2.8-.5-4-.1-.6.1-1.2.2-1.6.2l-1-4c-.3-1.3-2.4-2.3-2.6-3.2-.4-1.7.9-3.8-1.3-3.5l-2.1.2v18.7c0 2 1.7 3.8 3.9 3.8z"/><path class="st8" d="M257.9 65.3c.1-.4.2-.9.3-1.3"/><path d="M259.1 61.5c3.8-9.6 14.5-19.2 30.6-15.5 11.7 2.7 14.8 13.7 21.1 20.8 4.7 5.3 11.3 9.6 13.4 17 5 17.1-1.8 35.7-14 41.5-6.7 3.2-23.5 1.8-32.1-1.2" fill="none" stroke="#a1dbff" stroke-width="1.056" stroke-miterlimit="10" stroke-dasharray="2.6719,2.6719"/><path class="st8" d="M276.8 123.6c-.4-.2-.8-.4-1.2-.5"/><path class="st5" d="M350.5 186.9l-6.8-1.2 10.6-58.6c.1-.6.7-1.1 1.4-.9l4.5.8c.6.1 1.1.7.9 1.4l-10.6 58.5z"/><path class="st10" d="M360.1 133.7l-6.8-1.2 1-5.4c.1-.6.7-1.1 1.4-.9l4.5.8c.6.1 1.1.7.9 1.4l-1 5.3z"/><path class="st3" d="M352.84 134.514l.374-2.067 6.888 1.244-.373 2.067z" opacity=".5"/><path class="st1" d="M368.5 135.575l11.163 4.4-23.799 60.377-11.163-4.4z"/><path d="M375.2 140.5l3.7 1.4m-5 1.7l3.7 1.5m-4.9 1.6l3.7 1.5m-6.7 1l5.5 2.1m-5 1.7l3.7 1.5m-4.9 1.7l3.7 1.4m-4.9 1.7l3.6 1.4m-6.7 1l5.5 2.2m-4.9 1.7l3.7 1.4m-4.9 1.7l3.6 1.5m-4.9 1.6l3.7 1.5m-6.7 1l5.5 2.1m-5 1.7l3.7 1.5m-4.9 1.7l3.7 1.4m-4.9 1.7l3.7 1.4m-6.8 1l5.5 2.2m-4.9 1.7l3.7 1.4m-4.9 1.7l3.6 1.5m-4.9 1.6l3.7 1.5" fill="none" stroke="#ccf3ff" stroke-width="1.056" stroke-miterlimit="10"/><path class="st6" d="M364 255.5h-55.7l-9.4-84.2c-.1-1.1.7-2 1.8-2h70.8c1.1 0 1.9.9 1.8 2l-9.3 84.2z"/><path d="M294.2 259.2c33.5.5 67.1.9 100.6 1.4 1.1 0 4.7-1.1-1.4-5-5.2-3.3-21.5-.3-21.5-.3s3.8-1.5 3.8-3.5-1.5-3.7-3.3-4.5c-1.8-.8-3.8-.9-5.8-.8-4 .2-8 1.1-11.7 2.6 1.6-1 2.1-3.4 1-4.9-1.1-1.5-3.5-1.8-4.9-.6 2.5-3.4 6.4-18.5-5.5-25.1-15-8.3-26.3-1.5-28.8 3.5-1.2-4.9-6.9-8.7-10.6-9.6-8.5-2.1-14-1.5-21.9 2.2-2.8 1.3-6.6 5.8-8.4 8.2-2.9 3.9-3.4 9-3.5 13.8-.1 3.6-.1 7.3 0 10.9" fill="#ccf3ff"/><path d="M313.8 264.5c0 1.7-33.8 3.1-75.4 3.1s-75.4-1.4-75.4-3.1c0-1.7 33.8-3.1 75.4-3.1s75.4 1.4 75.4 3.1z" fill="#e9e8ee"/><path class="st15" d="M239.8 45c-4.2 0-7.6 3.4-7.6 7.6v9.7h15.1v-9.7c0-4.3-3.4-7.6-7.5-7.6zm0 11.9c-2.3 0-4.2-1.9-4.2-4.2s1.9-4.2 4.2-4.2c2.3 0 4.2 1.9 4.2 4.2s-1.9 4.2-4.2 4.2z"/><path class="st17" d="M244 52.6c0-2.3-1.9-4.2-4.2-4.2-.2 0-.4 0-.6.1.6-.2.7-.4 1.7-.4 2.3 0 4.2 1.9 4.2 4.2 0 2.1-1.1 3.3-2.7 3.7.9-.8 1.6-2.1 1.6-3.4zm-9.5 8.7v-9.7c0-2.6 1.1-5 3.2-6.3-3.2.9-5.5 3.8-5.5 7.3v9.7h15.1v-1h-12.8z" opacity=".45"/><path class="st18" d="M299.9 264.5H176.7c-5.4 0-9.7-4.4-9.7-9.7V72.5c0-5.4 4.4-9.7 9.7-9.7h123.2c5.4 0 9.7 4.4 9.7 9.7v182.3c.1 5.3-4.3 9.7-9.7 9.7z"/><path class="st1" d="M175.2 70.7h126.2v185.9H175.2z"/><path class="st19" d="M180.1 76.3h116.5v174.6H180.1z"/><path class="st15" d="M284.2 73.7h-91.8v-5.9c0-3.9 3.1-7 7-7h77.8c3.9 0 7 3.1 7 7v5.9z"/><path d="M196 71.8v-5.5c0-2.1.9-4 2.3-5.3-3.3.7-5.8 3.7-5.8 7.2v5.5h91.8v-1.9H196z" opacity=".45" fill="#b03d44"/><circle class="st21" cx="203.4" cy="100.3" r="15"/><ellipse transform="rotate(-76.814 203.428 100.335)" cx="203.4" cy="100.3" rx="17.4" ry="17.4" fill="none" stroke="#fe7d90" stroke-width="1.056" stroke-miterlimit="10"/><path class="st19" d="M206.4 100.6c1.5-1 2.4-2.6 2.4-4.5 0-3-2.4-5.4-5.4-5.4-3 0-5.4 2.4-5.4 5.4 0 1.9 1 3.5 2.4 4.5-3.4.8-5.9 3.8-5.9 7.4v4.5c2.5 1.8 5.5 2.9 8.8 2.9 3.3 0 6.3-1.1 8.8-2.9V108c.1-3.6-2.4-6.6-5.7-7.4z"/><path class="st23" d="M227.7 86.5l.7 1.5 1.7.2-1.2 1.2.3 1.6-1.5-.8-1.4.8.2-1.6-1.1-1.2 1.6-.2zm7.1 0l.7 1.5 1.6.2-1.1 1.2.2 1.6-1.4-.8-1.5.8.3-1.6-1.2-1.2 1.7-.2zm7.1 0l.7 1.5 1.6.2-1.2 1.2.3 1.6-1.4-.8-1.5.8.3-1.6-1.2-1.2 1.6-.2zm7.1 0l.7 1.5 1.6.2-1.2 1.2.3 1.6-1.4-.8-1.5.8.3-1.6-1.2-1.2 1.6-.2zm7 0l.8 1.5 1.6.2-1.2 1.2.3 1.6-1.5-.8-1.4.8.3-1.6-1.2-1.2 1.6-.2z"/><g class="st24"><path class="st25" d="M226.1 94.9h15.1m33.8 6h11.5m-60.4 0h44m-44 6.1h60.4m-19.2 6h19.2m-60.4 0h36.4m-16.3-18.1h40.3"/></g><ellipse transform="rotate(-22.72 203.405 142.634)" class="st21" cx="203.4" cy="142.6" rx="15" ry="15"/><path class="st19" d="M206.4 142.9c1.5-1 2.4-2.6 2.4-4.5 0-3-2.4-5.4-5.4-5.4-3 0-5.4 2.4-5.4 5.4 0 1.9 1 3.5 2.4 4.5-3.4.8-5.9 3.8-5.9 7.4v4.5c2.5 1.8 5.5 2.9 8.8 2.9 3.3 0 6.3-1.1 8.8-2.9v-4.5c.1-3.7-2.4-6.7-5.7-7.4z"/><path class="st23" d="M227.7 128.8l.7 1.5 1.7.2-1.2 1.2.3 1.6-1.5-.8-1.4.8.2-1.6-1.1-1.2 1.6-.2zm7.1 0l.7 1.5 1.6.2-1.1 1.2.2 1.6-1.4-.8-1.5.8.3-1.6-1.2-1.2 1.7-.2zm7.1 0l.7 1.5 1.6.2-1.2 1.2.3 1.6-1.4-.8-1.5.8.3-1.6-1.2-1.2 1.6-.2z"/><path class="st21" d="M249 128.8l.7 1.5 1.6.2-1.2 1.2.3 1.6-1.4-.8-1.5.8.3-1.6-1.2-1.2 1.6-.2zm7 0l.8 1.5 1.6.2-1.2 1.2.3 1.6-1.5-.8-1.4.8.3-1.6-1.2-1.2 1.6-.2z"/><g class="st24"><path class="st25" d="M226.1 137.2h26.8m-10.9 6h44.5m-60.4 0H237m-10.9 6h60.4m-12.4 6.1h12.4m-60.4 0h43.3m-11.5-18.1h28.6"/></g><ellipse transform="rotate(-67.611 203.4 184.924)" class="st21" cx="203.4" cy="184.9" rx="15" ry="15"/><path class="st19" d="M206.4 185.1c1.5-1 2.4-2.6 2.4-4.5 0-3-2.4-5.4-5.4-5.4-3 0-5.4 2.4-5.4 5.4 0 1.9 1 3.5 2.4 4.5-3.4.8-5.9 3.8-5.9 7.4v4.5c2.5 1.8 5.5 2.9 8.8 2.9 3.3 0 6.3-1.1 8.8-2.9v-4.5c.1-3.6-2.4-6.6-5.7-7.4z"/><path class="st23" d="M227.7 171.1l.7 1.5 1.7.2-1.2 1.2.3 1.6-1.5-.8-1.4.8.2-1.6-1.1-1.2 1.6-.2zm7.1 0l.7 1.5 1.6.2-1.1 1.2.2 1.6-1.4-.8-1.5.8.3-1.6-1.2-1.2 1.7-.2zm7.1 0l.7 1.5 1.6.2-1.2 1.2.3 1.6-1.4-.8-1.5.8.3-1.6-1.2-1.2 1.6-.2zm7.1 0l.7 1.5 1.6.2-1.2 1.2.3 1.6-1.4-.8-1.5.8.3-1.6-1.2-1.2 1.6-.2z"/><path class="st21" d="M256 171.1l.8 1.5 1.6.2-1.2 1.2.3 1.6-1.5-.8-1.4.8.3-1.6-1.2-1.2 1.6-.2z"/><g class="st24"><path class="st25" d="M226.1 179.5h15.1m12.6 6h32.7m-60.4 0h22.7m-22.7 6h60.4m-46.6 6.1h46.6m-60.4 0h9m11.1-18.1h40.3"/></g><circle class="st21" cx="203.4" cy="227.2" r="15"/><path class="st19" d="M206.4 227.4c1.5-1 2.4-2.6 2.4-4.5 0-3-2.4-5.4-5.4-5.4-3 0-5.4 2.4-5.4 5.4 0 1.9 1 3.5 2.4 4.5-3.4.8-5.9 3.8-5.9 7.4v4.5c2.5 1.8 5.5 2.9 8.8 2.9 3.3 0 6.3-1.1 8.8-2.9v-4.5c.1-3.6-2.4-6.6-5.7-7.4z"/><path class="st23" d="M227.7 213.4l.7 1.5 1.7.2-1.2 1.2.3 1.6-1.5-.8-1.4.8.2-1.6-1.1-1.2 1.6-.2zm7.1 0l.7 1.5 1.6.2-1.1 1.2.2 1.6-1.4-.8-1.5.8.3-1.6-1.2-1.2 1.7-.2zm7.1 0l.7 1.5 1.6.2-1.2 1.2.3 1.6-1.4-.8-1.5.8.3-1.6-1.2-1.2 1.6-.2zm7.1 0l.7 1.5 1.6.2-1.2 1.2.3 1.6-1.4-.8-1.5.8.3-1.6-1.2-1.2 1.6-.2zm7 0l.8 1.5 1.6.2-1.2 1.2.3 1.6-1.5-.8-1.4.8.3-1.6-1.2-1.2 1.6-.2z"/><g class="st24"><path class="st25" d="M286.5 239.9h-15.1m-33.8-6.1h-11.5m60.4 0h-43.9m43.9-6h-60.4m19.2-6h-19.2m60.4 0h-36.4m16.4 18.1h-40.4"/></g><path class="st26" d="M249.5 181.6c4.1 2.8 8.8 4.3 13.7 4.3 1.4 0 2.8-.1 4.2-.4 3.5-.6 6.6-2 9.4-3.9l8.9 10.8c0 .4 0 .7.1 1.1.2 1 .9 2 1.9 2.3.3.1.6.1.7.4.1.1.1.3.1.4.1.8.9 1.3 1.7 1.2l6.6 8c0 .4.2.8.5 1 .2.1.5.2.5.5 0 .1 0 .2-.1.3-.1.3 0 .8.3 1 .3.2.7.3 1 .1 0 .7.7 1.4 1.4 1.5l6.8 8.2c.5.6 1.3 1 2.1 1h.3v-6.5l-4.9-5.9.2-.2c.3-.3.5-.5.9-.8l.1.3s1.5-.5 3.7-1.3v-4.9c-2.8 1.7-5 3.1-5 3.1v.1c-.1 0-.1 0-.2.1-.3.1-1.5 0-2.6 0l-6.7-8c1.2-.3 2.9-.8 4.6-1.4h.1c.2-.1.4-.1.7-.2.1 0 .2-.1.2-.1.2-.1.4-.1.5-.2.1 0 .2-.1.3-.1.2-.1.3-.1.5-.2.1 0 .2-.1.3-.1.2-.1.3-.1.5-.2.1 0 .2-.1.3-.1.2-.1.3-.1.5-.2.1 0 .2-.1.3-.1.2-.1.3-.1.5-.2.1 0 .2-.1.2-.1.2-.1.4-.2.7-.3h.1c.2-.1.5-.2.7-.3.1 0 .1-.1.2-.1.2-.1.3-.2.5-.2.1 0 .2-.1.2-.1.1-.1.3-.1.4-.2.1 0 .2-.1.2-.1.1-.1.2-.1.3-.2.1 0 .2-.1.2-.1.1-.1.2-.1.3-.2.1 0 .1-.1.2-.1.1-.1.2-.1.3-.2.1 0 .1-.1.2-.1.1-.1.2-.1.3-.2l.1-.1v-26.4c-.1.1-.3.2-.4.4-2.7 2.9-4.6 21.3-4.6 22-.1.5-7.7 4.9-11.5 7.1 0-.5-.2-1.1-.5-1.4-.4-.4-.9-.7-1.5-.9h-.2l-10-12.1c.7-.8 1.4-1.6 2-2.5 3.7-5.3 5.1-11.6 4-17.9-1.1-6.3-4.6-11.8-9.9-15.5-5.3-3.7-11.6-5.1-17.9-4-6.3 1.1-11.8 4.6-15.5 9.9-7.5 10.6-4.9 25.6 6 33.2zm-1.6-30.3c2.9-4.1 7.1-6.8 12-7.7 1.1-.2 2.2-.3 3.3-.3 3.8 0 7.5 1.2 10.6 3.4 4.1 2.9 6.8 7.1 7.7 12 .9 4.9-.2 9.9-3.1 13.9-2.9 4.1-7.1 6.8-12 7.7-4.9.9-9.9-.2-13.9-3.1-8.4-5.9-10.5-17.5-4.6-25.9z"/><path class="st27" d="M120.1 267.9c0 .9-9.5 1.6-21.1 1.6-11.7 0-21.1-.7-21.1-1.6 0-.9 9.5-1.6 21.1-1.6 11.6 0 21.1.7 21.1 1.6z"/><path class="st28" d="M126.4 185.2s2.3 2.7 2.8 2.9c.3.1 2.1.4 2.6.5.2 0 .4.1.6.2.2.1.4.3.5.4l1.2 1.5c.1.1.2.3.3.4.1.2.1.4.2.6.3 1.1.5 2.3.7 3.5v.2c-.1.1-.3.1-.4 0l-.3-.3v.3c-.2.1-.4 0-.6-.1-.8-.5-1.6-1.1-2-2-.1-.2-.2-.3-.3-.5-.4-.4-.9-.4-1.4-.5-.4-.1-.9-.2-1.3-.4-.8-.3-.9-1.3-.9-1.4 0-.1-.1-.2-.2-.2-.5-.4-2.5-1.9-2.5-1.9"/><path class="st29" d="M99.1 126.9c1.1.3 1.7 1.7 2.1 2.7.5 1.2.7 2.4.8 3.7.1.9.2 1.8-.2 2.6-.2.4-.4.8-.7 1.1-.2.2-.3.4-.5.5-.2.1-.5.2-.7.1-.3-.1-.5-.5-.6-.9-.6-2.3-1.3-4.6-2.6-6.7"/><path class="st30" d="M100.3 134.2c0-.7.8-1.2 1.5-.5.6.6.7 1.8.7 2.7 0 1.1-.8 1.3-1.5 1.4"/><path class="st31" d="M108.3 259.8s0 2.3-.1 3.1c-.2.8-2.7.5-3 .1-.2-.5.1-4.2.1-4.2"/><path class="st15" d="M104.4 263.7c-.1.8-.1 2.4-.1 2.4l2.6.6.3-.5s.7.6 1.6.8c.6.2 1.9.3 2.5.2 2.2-.1 3.7-.8 3.8-1.1.3-1.3-2.6-1.2-3.2-1.2-1.7-.1-2.8-1.4-3.2-2.2-.2-.6-.1-.8-.5-.7 0 0-.3 0-.6.4-.4.5-1 .9-1.7.7-.4-.1-.7-.3-1-.6.2.2-.4.4-.5 1.2z"/><path class="st18" d="M103.2 232.1c.3-4-3-9.3-3-9.3s8.7-4.8 8.8-6.2c0 0 1.2 8.2 1.6 11 .7 5-1.8 33.6-1.8 33.6s-1.8.5-4.2.1c0 0-.4-11-2.3-18.5-.7-3.6.6-9.7.9-10.7z"/><path class="st18" d="M102.5 186.3c3.2 7.3 6.8 30.7 7.6 38.7.4 3.4-2.5 7.4-5.8 4.3-4-3.7-9.5-20.6-11.5-23.6s-9.5-5.7-4.4-20.9"/><path class="st31" d="M88 260s-.3 3.2-.4 4c-.1.8-2.7.7-3 .3-.3-.4-.2-4.2-.2-4.2"/><path class="st15" d="M83.8 264.9c-.1.8.1 2.2.1 2.2l3 .2.2-.5s.9.6 1.7.6l2.5.2c1.8.1 2.9 0 3-.4.3-1.3-1.9-1.4-2.5-1.5-1.6-.1-3.4-1-3.7-1.9-.2-.6-.1-.8-.5-.7 0 0-.3 0-.5.4-.4.6-1 .9-1.6.7-.4-.1-.7-.3-1-.6 0 .2-.6.4-.7 1.3z"/><path class="st18" d="M94.4 231.6c-.6 2.8-7.9 1.8-7.8-.7.2-3.6-2.3-8.1-3.2-25.1-.1-1.9-2-2.2-2.8-7.5-.8-5.3 2.4-11.1 2.4-11.1l11.3-1.6s4.4 9.8 3.5 19.6c-.9 9.9-2.7 23.1-3.4 26.4z"/><path class="st18" d="M86.7 230.3s-2.6 5.1-2.9 8.8c-.4 5.4.1 23.2.1 23.2s2.8.6 4.3.2c0 0 6.5-31.5 6.8-34.9.2-3.5-8.3 2.7-8.3 2.7z"/><path class="st32" d="M106.9 152.1c-1.3-1.5-5.4-3.9-10.8-3.7-3.7.1-14 .7-15.1 3.2-.6 1.3-1.2 14.4-.4 18.9.6 3.4 2.3 11.8 2.3 13.9 0 2-1.1 2.9-.6 3.5 1.1 1.3 9 1.9 12.6 1.9 3.3 0 8.8-.9 9.1-1.9.4-1.6-.6-1.5-.8-3.1-.1-1.6-.9-12.4 0-13.9 1.5-2.5 3-9 3.1-10.9.3-1.9 1.9-6.4.6-7.9z"/><path class="st26" d="M83.6 162.7c-.4.8-3 5.1-3 5.1l-.1.5c.1.9.2 1.7.3 2.3.6 3.4 2.3 11.8 2.3 13.9 0 2-1.1 2.9-.6 3.5.5.5 2 .9 3.9 1.2-.4-.5-.8-1-.9-1.3-.2-.6.8-.4 1-.9.2-.5-2.3-10.3-2.9-15.1-.6-4.7.4-10 0-9.2z"/><path class="st28" d="M99.3 143.8s0 4.5.2 4.7c.2.2 1.1.6 1.1.6s-.6 3.9-1.6 3.6c-1-.3-7.5-3.6-7.5-3.6s.9-.4.9-.7c0-.4-.9-7.5-.9-7.5"/><path class="st28" d="M94.8 127.4c.9.3 3.4-.3 4.1.8.7 1 1.3 3.5 1.6 4.2.5 1.4.9 2.8 1.2 4.3.5 1.8 1.3 5.2-.5 6.8-.5.4-.8.6-1.4.7-.9.2-1.7.3-2.6.5-1.3.2-2.8.5-4.1.1-1.8-.6-2.7-3-3.2-4.6l-2.6-9.4 7.5-3.4z"/><path class="st33" d="M99.3 153.8s.4 16.7 1 26.8l-2.4 3.4-1.7-4.2s-.7-12.2 1.6-25.8l1.5-.2zm.5-1.4l-.1.2c-.1.4-.3.8-.5 1.2l-1.5.1s-1-.5-1.2-1.1c-.1-.6 1.7-1.5 1.7-1.5l.2.1c.6.2 1.1.5 1.4 1z"/><path class="st34" d="M92.3 146.9s-1.3.9-2 2.1c.8 1.8 3.1 4.8 5 6.2.9-2.4 3.1-3.8 3.1-3.8s-5.6-1.2-6.1-4.5zm6 4.4s1.9.7 3 2.8c0 0 .4-2.8-.4-5.3 0 0-1-1.7-1.4-1.7.1 2.1-1.2 4.2-1.2 4.2z"/><path class="st32" d="M105.8 151.2c3.3 1.8 9 20.8 9.6 21 .6.2 13.5 15.3 13.5 15.3l-2 2.8s-13-9.4-16.7-13.6c-2.6-2.9-7.6-15.9-7.6-15.9s-.1-11.5 3.2-9.6z"/><path class="st26" d="M111.4 175.9c-1.3-1.1-5.4-13.2-5.4-13.2l-1 4.1c1.6 3.8 3.7 8.3 5.1 9.8 3.7 4.1 16.7 13.6 16.7 13.6l.8-1.1c.1.1-14.9-12-16.2-13.2z"/><path class="st10" d="M89 182.7l-19.7 3.7c-.5.1-.9.6-.7 1.2l2.6 13.6c.1.5.6.8 1.1.7l19.7-3.7c.5-.1.9-.6.7-1.2L90 183.4c-.1-.5-.6-.8-1-.7z"/><path class="st35" d="M88.7 183.7l-18.8 3.6 2.6 13.5 18.8-3.5z"/><path class="st36" d="M89.2 196.6l-2-11.6m.3 11.9l-2.1-11.5m-.5 12l-2.1-11.5m-.5 12.1l-2-11.6m-.5 12.1L77.5 187m-.3 12l-2.3-11.5m-.2 12L72.3 188"/><path class="st28" d="M78.5 192.6l1.2 2.4c.3.5 2.3 2.3 3.2 3.7.4.7.8 1.4.7 2.2-.1.8-.8 1.5-1.6 1.4-.2 0-.5-.2-.6 0-.1.1-.1.2-.2.3-.2.3-.5.5-.9.4-.3 0-.6-.3-.7-.7-.5.5-1.4.5-2 0 .3-.3.5-.6.5-1-.1-.4-.4-.7-.6-1-.4-.5-.6-1.2-.6-1.9 0-.5.1-1 .2-1.4.1-1-.1-2-.6-2.9"/><path class="st32" d="M84.5 160.8c-.6 2.1-9.7 16.1-9.7 16.1l4.9 17.7-2.8 1.7s-8.6-14.3-8.7-18.4c0-4 6.3-18.9 10.9-24.9 1.5-1.9 4.4-2.9 4.4-2.9"/><path class="st33" d="M89 138.4c.6-.3 1.1-.7 1.4-.1.2.3.3.7.7.8.3.1.7-.2.8-.6.1-.4 0-.7-.1-1.1-.2-.8-.5-1.5-.7-2.3-.2-.8-.5-1.6-.2-2.3.2-.4.4-.7.7-.9 1-.8 2.3-1.3 3.5-1.5 1.3-.3 2.6-.4 3.8-.8.5-.2 1-.4 1.5-.7.7-.6 1-1.5 1-2.4 0-.9-.3-1.7-.7-2.5-.1.3-.2.6-.4.9-.2-.4-.4-.8-.7-1.1-.4 2.1-9.1 1.4-11.1 2.3-1.4.6-2.6 1-2.5 3.3 0 .1-.2.3-.3.4-1.3 1.1-1.8 2.5-1.9 4.6-.2 2.5 1.3 5.3 2.7 7.4.4.5.6.9 1.1 1.3.5.4 1.4.6 2 .5s1.9-.1 1.9-.7c0-.5-1-1.3-1.2-1.6"/><path class="st28" d="M91.3 140.8s.1.4-.2.8c-.2.3-.7.3-1 .1-.9-.3-1.6-1.2-1.7-2.1-.2-1.1.4-2.2 1.4-1.9.6.2 1 .8.9 1.4"/><path class="st30" d="M99.3 144.2l-2.8.5s.9 1 2.8 1"/><path d="M105.6 232c.5-1.7-.9-4.2-1.6-6.2-.7-1.9-6-17.3-6-17.3l-1.2 6.2c1.1 2.7 2.3 5.5 3.5 8 .5 1 .9 1.9 1.4 2.7.8 1.9 1.7 4.4 1.6 6.6-.3 1-1.6 7.1-.8 10.6 1.8 7.5 2.3 18.5 2.3 18.5.5.1.9.1 1.3.2-.2-2.7-.4-7.5-.4-8.5 0-1.3-1.7-9.1-1.6-12.1 0-3 .9-7 1.5-8.7z" fill="#2679c4"/><path class="st10" d="M92.2 192.9l-1.7.4-1.2-6.3 1.7-.4z"/><path class="st10" d="M94.6 189.2c-.2-.8-1-1.4-1.8-1.2l-2 .4.6 3s1.6-.3 2-.4c.8-.2 1.3-1 1.2-1.8zm-2.4.4c-.1-.5.2-.9.7-1 .5-.1.9.2 1 .7.1.5-.2.9-.7 1-.5.1-1-.2-1-.7z"/><ellipse class="st27" cx="153.3" cy="280.2" rx="21.9" ry="2"/><path class="st26" d="M180.3 161.4l-13.5-1.8v27l7.3 1c.6.1 1.2-.3 1.4-.9l5.8-23.9c.2-.7-.3-1.3-1-1.4z"/><path class="st32" d="M163.3 158.3l-4.8 21.3c-.1.6.3 1.2.8 1.2l15.1 2.2c.5.1 1-.3 1.1-.8l4.8-21.3c.1-.6-.3-1.2-.8-1.2l-15.1-2.2c-.5-.1-1 .3-1.1.8z"/><path class="st35" d="M164.3 159l-4.7 20.4 15 2.1 4.7-20.4z"/><path class="st36" d="M177.7 162.6l-12.8-1.8m12.3 3.8l-12.7-1.9m7.4 3.5L164 165m7.4 2.8l-8-1.1m7.4 2.8l-8-1.2m10.9 10.3l-7.9-1.1"/><path class="st30" d="M157.5 179.9c.9-.4 1.5-1.1 2.1-1.9l1.8-2.1c.2-.3.5-.6.5-1-1-.1-1.7 1.2-2.7 1.3.5-1.7 1.1-3.3 2-4.7.2-.4.4-.8.3-1.2-1.1.4-2 1.2-2.8 2-.6.6-1.1 1.2-1.5 1.9-1.3 2-2.1 4.3-2.7 6.7"/><path class="st28" d="M153.2 197l-10.8-9.1s-5 6.8-3.1 13.4c.9 3.2 2.1 4.8 2.6 6.4.5 1.4 3.7 21.7 3.5 23.2-.2 1.5-2 5.6-2.6 10-.8 5.2-.7 22.3-1.3 26.8-.6 4.5 3.6 5.3 3.8 3.8 2-13.1 7.2-33.5 7.9-40 .6-6.7.3-18.7 0-34.5z"/><path class="st30" d="M153.2 209.9l-4.7 10.8c2 3.3 3.1 7.3 3.3 11.3.1 2.1-.1 4.2 0 6.2 0 .1 0 .3.1.5.6-3.1 1.1-5.6 1.3-7.3.5-4.6.5-12 .4-21.5h-.4z"/><path class="st28" d="M145.9 267.2s-1 4.7-.7 5.4c.3.6 1.2 2.4 2.2 3 1 .7 3.4 1.5 3.5 1.7.2.3.2.7-.1 1-.9.7-2.3 1-3.3.8-3.1-.5-3.5-1.9-5.3-2.1-.3 0-.9.4-1.8 0s-1.3-1.3-1.2-2c.1-1.3.9-2.4 1.4-3.4.5-1 .9-5.4.9-5.4"/><path class="st33" d="M151.1 278.5c.2-.4.3-1 .1-1.1-.3-.2-1.3-.9-2-1.2-.6-.3-1.6-.5-1.2-.3.3.2-.3.9-.9.8-2-.1-3.4-1.4-4.5-1.7-1.6-.4-2.3-2.3-2.4-2.6-.3.2-1 1.7-1.2 2.2-.1.4-.4 1.2-.2 1.7.1.3.3.9.2 1.6 0 0 .3.2 1.2.4.5.1 1.2 0 1.2 0l.1-1s.4 0 1 .1 1.5.6 1.5.7c.2.3.4.8.7.9.8.4 1.6.6 2.6.6 2.2.2 3.4-.5 3.8-1.1z"/><path class="st28" d="M167.9 278.3c-.2-.3-2.7-.7-3.9-1.2-1.1-.5-2.5-2-2.7-2.6-.3-.6-.2-3.9-.2-5.2.2-9.3 2-32.1 2.2-37.5.4-9.5-.8-19.3-4.4-34.5l-13.6-10.4s-3.8 7.1-2.5 13.8c.7 3.9 4 4.5 4.5 6 .6 1.5 8.8 26.1 8.8 26.1s-1.6 5.3-1.7 11.1c-.1 5 2.2 20 2.6 25.7 0 1.1.2 3.8-.1 4.6-.4 1-1.4 2.3-1.4 3.6 0 .8.6 1.5 1.5 1.8 1 .3 1.5-.3 1.8-.3 1.9-.1 2.4 1.2 5.8 1.2 1 0 2.5-.6 3.3-1.4.3-.1.2-.6 0-.8z"/><path class="st33" d="M168.2 279.4c.2-.4.2-1-.1-1.1-.3-.1-1.5-.7-2.2-.8-.7-.2-1.7-.3-1.3-.1.4.1-.2.9-.8 1-2 .2-3.7-.9-4.9-.9-1.7-.1-2.4-1.9-2.5-2.2-.3.2-1.1 1.9-1.2 2.4-.1.5-.2 1.3 0 1.7.1.3.4.9.4 1.6 0 0 .4.2 1.3.2.6 0 1.3-.2 1.3-.2v-1s.5-.1 1-.1c.6 0 1.3.3 1.7.6.3.2.6.6.9.7 1 .2 1.6.3 2.7.2 2.2-.4 3.4-1.2 3.7-2zm-25.5-92.6c-.9 1-4.2 6.5-4.2 10.9 0 4.5 1.5 7.3 1.7 8.2 1 6.8 2 15 2 15.5 0 .4 3.9 3 9.1 2.7 9.6-.6 13.3-3.1 13.3-3.1s-.5-16.5-1.9-24.6c-.7-4.1-4-10.6-4-10.6"/><path class="st28" d="M133.9 169s1.5 7.7 2 9c.4 1.4 2.4 10 4.3 9.9 1.9-.2 12.3-8.8 12.3-8.8l-1.5-2.9-9.2 4.4s-.8-9.9-1.6-12.3"/><path class="st30" d="M137.5 173.7c1 3.4 3 7 3.6 9.7.1.5 6.5-1.8 6.5-4.2"/><path class="st15" d="M140.1 158.3s-3 .3-4.6 1.5c-3.9 3-.9 13.9-.9 13.9s-.2.6 2.4.4c2.6-.1 4.8-.9 4.8-.9l-.8-8.9"/><path class="st17" d="M136.7 164.5s-.3 6.4.8 9.7c1.1 0 2.2-.3 2.2-.3l-3-9.4z"/><path class="st28" d="M154.7 138.2c1.8 2.4 1.5 5.7 1 8.7-.2 1.5-.5 3-.7 4.5-.1.7-.3 1.5-.8 1.9-.6.5-1.4.5-2.1.4v3.7c-2.1.1-4.2.1-6.4 0 0-.9-.2-1.7-.6-2.5-1 0-1.7-1.1-2.1-2-.5-1.1-.8-2.3-1.1-3.4-.4-1.5-.9-3.1-.9-4.7s.3-3.2 1.3-4.5c.7-.8 1.6-1.4 2.6-1.9 1.3-.7 2.9-1.2 4.3-.6"/><path class="st33" d="M152.5 149.5c-.3-1.2-.2-2 .2-2.8.1-.3.3-.5.6-.7.3-.2.8-.3 1.1-.1.2.1.4.3.6.5.4-1.7.5-3.5.4-5.2-.2-2.8-1.9-4.9-4.3-5.9-4.5-1.8-11 0-12.8 4.4-1.4 3.3-.7 8.1 2 10.9 2.3 2.5 5.7 2.8 8.8 2.3 1.6-.3 4-.1 4.9-2.3.1-.2-.1-.3-.2-.3-.8.2-1.3-.6-1.3-.8z"/><path class="st33" d="M152.8 143.6c.2.3.1.6.3.9.3.5.6.6 1.1.8.8.4.6 1.5.6 2 .6-.4.7-1.4.8-2 .2-.6.3-1.2.4-1.8.2-.6.5-1.1.5-1.7.2-2.1-1.1-4.5-2.7-5.7-1.2-.9-2.9-.8-4.2 0-.5.4-1 .9-1.2 1.5-.1.3-.2.6 0 .8"/><path class="st17" d="M142.6 158.4c.1-.7.3-1.6 1-1.9.2-.1.4-.1.6-.1 2.1-.2 4.2-.3 6.2-.3.9 0 1.8.1 2.5.4 1.2.6 1.9 1.9 2.5 3.1"/><path class="st15" d="M160.1 185c-.3-.4-1-.9-1.2-1.4-.6-1.1-1.1-5.9-.9-7.1.2-1.3 1.4-2 1.9-4.9.7-3.7-.9-6.6-1.7-7.9-1.2-1.8-.5-1.7-.9-3.9-.1-.4-.2-.8-.4-1.1-.3-.3-2.1-1.1-2.4-1.1-3.4-.5-5.3-.1-8.7 0-1.7.1-3.4.3-5 .6-1.8.4-3.4.9-3.8 3.4-.6 3.8-.1 7.7 1.1 11.4.8 2.4 5.4 10.8 4.2 12.4-.3.4-.9 1.1-1 1.5-.3 1.7 3.5 2.3 5.2 2.4 2.5.2 5.3.1 7.8 0 1.9-.1 6-.7 6.3-3.1 0-.5-.2-.9-.5-1.2z"/><path class="st17" d="M159.4 172.3c0 .7-.4 1.6-.5 1.9-.5.2-2.4.6-3.4.2-.2-2.2-1.6-6.6-1.6-6.6s5.5 3.9 5.5 4.5z"/><path class="st33" d="M143.7 151.5c-1.3-.4-2.7.4-3.6 1.4-1 1.2-1.4 3-.5 4.3.3.5.8.8 1.4 1.1 1.5.9 3.4 1.4 5.1.9 1.7-.4 3.2-2 3.2-3.7 0-1.6-1.2-2.9-2.4-4"/><path class="st28" d="M157 170.7s6.2 15 8.9 15c2 0 6.8-13.9 6.8-13.9l-3-1.4-3.4 5.8-3.4-10.8"/><path class="st28" d="M169.1 171.5s1-1.6.9-2.7c0-.4-.3-2.5-.1-2.9.2-.4.7-1.7 1-2 .3-.3 1.4-.7 1.6-.5.3.2.6-.7 1-.6.4.1.8.4.8.8s.6.5.7.8c.1.3 0 .5.1.8.1.2.4.1.5.7.1.5 0 .5 0 .8 0 .3.3.2.2.7s-.4 1.1-.7 1.7c-.3.5-.9 1.2-1.7 1.7-.4.2-.6.7-1 1.4"/><path class="st33" d="M170.7 159.9c-.1-.1-.3-.3-.5-.1-.2.2-.2.5-.1.6.1.1 1.8 4.2 1.8 4.2s.1.2.4-.1c.3-.3.2-.4.2-.4s-1.7-4.1-1.8-4.2z"/><path class="st30" d="M172.7 163.7c-.4.6-.8.8-1.1 1.2-.3.3-.3.4-.6.7.6 0 .5-.4 1.2-.9.3-.2.7-.5.7-.9 0-.1-.1-.2-.2-.1z"/><path class="st15" d="M151.3 157.3c1.6.1 6.3-.7 9 2 2.2 2.3 3.5 8.3 4.3 10.8-2.2 2.2-4.3 4-7.6 3.3-.1-.1-1.8-5.3-3-5.8"/><path class="st29" d="M153.1 224c-.6-4-4.4-16.2-4.6-16.6-2.1-1.6-3.4-3.2-4.1-4.6-.5 2.7.8 5.3 1.9 7.8 2 4.3 3.2 9 4.9 13.5"/><path class="st32" d="M312.9 161.6c-2.7 2.9-4.6 21.3-4.6 22-.1.7-13.6 8.3-13.6 8.3l1.9 2.2s14.4-3.6 17-6.8c2.2-2.7 7.3-24.4 7.3-24.4s-3.5-6.1-8-1.3z"/><ellipse class="st27" cx="333.9" cy="286" rx="40.2" ry="2.8"/><path class="st28" d="M354.2 271.3s1.1 2.1 1.7 2.8c.6.7 3-.8 3-1.4 0-.5-2.1-3.9-2.1-3.9"/><path class="st33" d="M359.9 272.9c.5.7 1.4 2.2 1.4 2.2l-2.1 1.9-.6-.2s-.4 1-1 1.6c-.5.5-1.6 1.2-2.2 1.5-2.1 1-3.9 1.1-4.1.9-1-1.1 1.8-2.4 2.3-2.7 1.5-1 1.9-2.7 1.8-3.7-.1-.7-.3-.8.1-.9 0 0 .3-.1.7.1.6.3 1.4.3 1.9-.2.3-.3.6-.6.6-1 0-.1.7-.2 1.2.5z"/><path class="st28" d="M314.6 278.6s-.5 1.3-.5 2.2c.1.9 2.9.9 3.3.5.3-.4.5-4.4.5-4.4"/><path class="st33" d="M318.2 282c0 .9-.3 2.4-.3 2.4h-3.3l-.2-.5s-1.1.5-1.9.5h-2.8c-2 0-3.2-.2-3.2-.6-.2-1.4 2.2-1.4 2.8-1.4 1.8 0 3.8-.8 4.2-1.7.3-.6.2-.8.5-.7 0 0 .3.1.6.5.3.6 1 1 1.7.9.4-.1.8-.2 1.1-.5.1 0 .8.2.8 1.1z"/><path class="st15" d="M331.4 218.8c0 .1-2.7-2.9-2.7-2.8-1.1 5.4-6 23.3-7.6 28-.2.7-1.5 2.1-2.6 2.3-2.4.6-6.3-.2-6.6-4.8 0-.5.1-1.1 0-1.7-.7-7.1 6.1-38.4 6.3-40.4.2-2 4.1-.6 5.2-.9 5.5-1.9 9.4 12.8 8 20.3z"/><path class="st15" d="M321.4 246.4c-1.1-3.3.6-7.2.6-7.2s-9.5-7.3-10-2.8c0 .4-.4 3.4-.4 5.1 0 6.1 2.1 25.3 2 37.1v.8s1.6.3 4.4.3h.4c.8-7.3 2.5-17.3 3.3-27.3.1-2.6-.1-5.4-.3-6zm24.1-1.5c-1.9-2.4-3.9-3.4-4.5-5.2-1.4-4.2-1-21.1-1.1-25.8.4-1 4-10.6-3.4-17.6 0 0-6.7 2.9-12 3.2-4.2.3-6.3-.1-6.3-.1s4 6 4.2 8.6c.4 4.5 8.8 31.7 9.5 33.2 1.5 3.4 3.1 4.7 3.6 5.4 3.7 4.9 12.5 15.1 19.1 24.9l.4.6s1.3-.5 3.8-2.2c-3.5-6.4-7.2-17.5-13.3-25z"/><path class="st32" d="M312.9 161.6c1.3-1.5 7-3.9 12.7-3.7 3.9.1 16.2 1.4 17.4 4 .6 1.3.5 14-.3 18.6-.7 3.5-2.7 12.6-2.7 14.7s1.1 3 .6 3.6c-1.2 1.4-10 2-13.8 2-3.4 0-9.1-.9-9.4-2-.4-1.6.7-1.6.8-3.2.1-1.7.9-12.8 0-14.4-1.6-2.6-4-9.8-4.1-11.8-.2-2-2.5-6.3-1.2-7.8z"/><path class="st28" d="M322.3 153.1s0 4.7-.2 4.9c-.2.2-1.1.6-1.1.6s.7 4.1 1.7 3.8c1-.3 7.8-3.7 7.8-3.7s-1-.4-1-.8.9-7.8.9-7.8"/><path class="st29" d="M324.1 137.6c-.8-.6-2-.6-2.9-.2-.9.4-1.6 1.3-2 2.3-.4.9-.5 2 0 2.9-.7.2-1.1 1-1.1 1.7 0 .8.5 1.5.9 2.2.4.6 1.2 1 1.9.8.5-.1.9-.5 1.2-.9.3-.4.5-.9.7-1.4.9-2.2 1.5-4.6 1.9-6.9"/><path class="st28" d="M327 136c-1 .3-3.6-.3-4.3.8-.7 1.1-1.3 3.7-1.6 4.4-.5 1.4-.9 2.9-1.3 4.4-.5 1.9-1.8 5.5.1 7.1.5.5 1.2.5 1.9.6.9.2 1.8.3 2.7.5 1.4.2 2.9.5 4.3.1 1.8-.6 2.8-3.1 3.3-4.8l2.7-9.8-7.8-3.3z"/><path class="st28" d="M331 150.1s-.1.5.3.8c.3.3.8.2 1.1 0 .9-.4 1.5-1.4 1.5-2.4.1-1.2-.7-2.2-1.7-1.8-.6.2-.9 1-.8 1.6"/><path class="st33" d="M333.5 144.8c-.3 1-1.1 3.2-2 3-.9-.2.4-3.7 1.1-5-1.1 0-2.5-.2-2.9-1.2-.1-.2-.2-.5-.4-.6-.2 0-.4.1-.5.2-.8.5-1.8 0-2.5-.7-.1-.2-.3-.3-.5-.3-.1 0-.2.1-.3.2-1.3.9-4.7.9-4.7-.7-1.1.6-1.8-.8-1.8-1.8.1-.9.8-2.5 2.3-2.5-.1-1.2.8-1.9 1.8-2.6.9-.7 2.1-1 3.3-1.1 1.8-.1 3.9.7 4.6 2.4 0 .1.1.3.2.3.1.1.3 0 .4 0 1.4-.4 3-.2 4.1.8s1.4 2.7.6 3.9c1.1.3 1.7 1.5 1.5 2.6-.2 1.1-.9 2-1.6 2.8 1.2.4 1.6 2 1 3-.6 1.1-2.1 1.7-3.3 1.5.3-1.1-.2-2.4-1.3-2.6m-10.2 17.1s-.4 17.3-1.1 27.8l2.5 3.5 1.7-4.4s.7-12.7-1.7-26.8l-1.4-.1z"/><path class="st29" d="M321.8 162l.1.2c.1.4.3.9.5 1.3l1.6.1s1.1-.6 1.2-1.2c.1-.6-1.7-1.6-1.7-1.6l-.2.1c-.6.3-1.1.6-1.5 1.1z"/><path class="st34" d="M329.6 156.2s1.3 1 2.1 2.1c-.8 1.8-3.2 5-5.2 6.4-.9-2.5-3.2-4-3.2-4s5.8-1 6.3-4.5z"/><path class="st34" d="M323.4 160.9s-1.9.8-3.1 2.9c0 0-.4-2.9.4-5.5 0 0 1-1.8 1.5-1.8-.2 2.1 1.2 4.4 1.2 4.4z"/><path class="st17" d="M321.4 246.4c-.3-.8-.4-1.6-.4-2.4 0 0 0-.1.1-.1 1.1-3.2 3.7-12.3 5.6-19.6l-3-10.5s-1.8 21.4-2.4 23c-.6 1.5-2.4 6.5-2.2 7.6.2 1.1 1.3 3 1.2 4.7-.2 1.7-.2 16.8-.2 16.9.6-4.4 1.2-9 1.5-13.7.2-2.5 0-5.3-.2-5.9z"/><g fill="none" stroke="#1b227a" stroke-width="5.282" stroke-miterlimit="10"><ellipse transform="rotate(-32.435 266.875 159.974)" cx="266.9" cy="160" rx="21.3" ry="21.3"/><path stroke-linecap="round" stroke-linejoin="round" d="M281.3 176.5l31.8 38.3"/></g><path class="st28" d="M310.8 200.6s-1.8.5-2.7.8c-.6.2-3.4-.1-5 .2-.8.2-1.6.5-2.1 1.1-.5.6-.5 1.7.1 2.2.2.1.5.2.5.5 0 .1 0 .2-.1.3-.1.3 0 .8.3 1 .3.2.7.3 1 .1 0 .8.7 1.4 1.4 1.5 0-.4.1-.9.4-1.1.3-.2.8-.2 1.2-.2.7-.1 1.4-.4 1.9-.9.4-.4.6-.8.9-1.2.7-.8 1.6-1.3 2.6-1.6"/><path class="st26" d="M343.1 161.8c-.1-.1-.1-.2-.2-.3l-8.2 8c-1.9 5.2-5.8 18.8-5.8 18.8s-3.7 1.7-6.1 3c-.6.3-2.4 1.5-4.5 3 0 .6-.1 1.1-.1 1.4-.1 1.7-.4 1.7.1 3.3 0 1.1-.4 2.7-.7 4.3 6.1-1.6 18.8-5.5 19.2-5.8.7-.4 4.4-15.4 6.6-24.5.3-5.6.1-10.2-.3-11.2z"/><path class="st32" d="M334.7 168.6c-.8 2.2-4.8 21.2-4.8 21.2s-3.9 1-6.4 2.3c-1.9 1-15.2 9.3-15.2 9.3l1.3 3.1s23.7-8.4 24.7-9c1-.6 10.5-24.6 10.5-28.8 0-2.5-2-5.1-2-5.1"/><path class="st28" d="M294 195.9c-.8.1-1.6-.5-1.7-1.2 0-.2 0-.3-.1-.4-.1-.2-.5-.3-.7-.4-1-.3-1.6-1.3-1.9-2.3-.1-.5-.2-1.1 0-1.6s.6-1 1.1-1.2h.3c.1 0 .2.1.2.2.3.4.5.9.7 1.4.1.4.2.8.5 1 .2.1.5.2.7.3.5.2.7.7.8 1.2.3.6-.1 2.3.1 3m2.8-4.9c.1-.6-.1-1.3-.5-1.7-.4-.4-.9-.7-1.5-.9-.1-.1-.3-.1-.4 0-.1.1 0 .2 0 .3.2.4.7.5.9.9.1.1.1.3.2.4.2.5.7.9 1.3 1"/><path class="st26" d="M316.9 178.4s-2.2-5.6-2.7-7.9c-1.1 5.5-.7 15-1.6 15.8-.9.8-9.9 6-9.9 6 4.3-1.3 9.5-3.3 10.9-5 .8-1 2.1-4.7 3.3-8.9z"/><path class="st30" d="M322.3 153.5s3.8.8 4.5.7c.7-.1-1.5 1.2-1.9 1.2-.4 0-2.6-.3-2.6-.3v-1.6z"/><path d="M170.1 22.3c0-.1-5.3 3.2-5.3 3.2l1.4 9 2.6-6.8 6.9-1.3 9.9-9.3-15.5 5.2z" fill="#80cfff"/><path fill="#a4e1ff" d="M185.6 17.2l-19.4 17.3 2.6-6.7z"/><path class="st1" d="M185.6 17.2l-25.7 5.4 4.9 2.9 20.8-8.3-16.8 10.6 8.3 5.1z"/><path class="st29" d="M91.5 136.4c.1.1.5.1.6.1.2 0 .1.1.9.9.6.6 1.5.7 3.1 0 1.2-.6.9-1.5 1-2 0-.5.1-.6.3-.6.2-.1.3 0 .6.3.3.4.9 1.3 2.2 1 1-.2 1.4-.7 1.4-1.4.1-1.2.1-1.2.2-1.3.1-.1 0-.6-.1-.8-.1-.2-.9-.1-1.6.2-.8.2-2 .6-2.3.9-.4.3-.3.5-.6.6-.2.1-.3-.1-.8-.2s-2.6.6-3.3.8c-.8.2-1.8.7-1.8.9 0 .2.1.4.2.6zm6.7-2.1c0-.3.3-.4 1.2-.7s1.3-.5 1.5-.4c.2.1.4.5.3 1.2-.1.8-.2 1.2-1 1.4-.8.2-1.3-.1-1.6-.5-.2-.5-.4-.9-.4-1zm-5.5 1.4c.1-.2 1.3-.5 2.2-.7.9-.2 1.2-.3 1.4 0 .1.1.2.5.2 1s0 1-1.4 1.4c-1 .3-1.5.1-2-.5-.4-.6-.5-1-.4-1.2z"/><path class="st1" d="M119.8 77.8h38.7c2.5 0 4.5 2 4.5 4.5v25.1c0 2.5-2 4.5-4.5 4.5h-38.7c-2.5 0-4.5-2-4.5-4.5V82.3c0-2.5 2-4.5 4.5-4.5z"/><path class="st1" d="M157.7 100.9l11.4-3.2-10.2-2.7"/><path class="st21" d="M139.414 94.69h-7.1v-1.6h7.1zm-.031-2.487h-12.2v-1.6h12.2zm17.218 9.657h-34.9v-2h34.9zm0 3.04h-34.9v-2h34.9zm-17.218-15.084h-12.2v-1.6h12.2zm-.008-2.486h-4.5v-1.6h4.5zm2.925 3.47c0 3.9 3.2 7.2 7.2 7.2 3.9 0 7.2-3.2 7.2-7.2 0-3.9-3.2-7.2-7.2-7.2-4 .1-7.2 3.3-7.2 7.2z"/><path d="M148.1 90.9c-.7-.5-1.2-1.3-1.2-2.2 0-1.4 1.2-2.6 2.6-2.6 1.4 0 2.6 1.2 2.6 2.6 0 .9-.5 1.7-1.2 2.2 1.6.4 2.8 1.8 2.8 3.5v2.1c-1.2.9-2.6 1.4-4.2 1.4s-3-.5-4.2-1.4v-2.1c0-1.7 1.2-3.1 2.8-3.5z" opacity=".19" fill="#0964af"/><path class="st10" d="M119.8 66.8c-1 2.6-3.9 3.8-6.5 2.8s-3.8-3.9-2.8-6.5 3.9-3.8 6.5-2.8 3.8 3.9 2.8 6.5z"/><path class="st43" d="M113.1 64.3l1.1 2.5 3.7-2.3"/><path class="st10" d="M312.5 26.1c1.1 2.5-.1 5.4-2.6 6.5-2.5 1.1-5.4-.1-6.5-2.6-1.1-2.5.1-5.4 2.6-6.5 2.5-1.1 5.5.1 6.5 2.6z"/><path class="st43" d="M306 29.1l2.6 1 1-4.3"/><ellipse transform="rotate(-80.741 361.141 200.086)" cx="361.2" cy="200.1" rx="15.3" ry="15.3" fill="#fff" stroke="#fe7d90" stroke-width="2.113" stroke-linecap="round" stroke-linejoin="round" stroke-miterlimit="10"/><circle class="st45" cx="361.2" cy="200.1" r="10.7"/><path class="st45" d="M367.2 200.1c0 3.3-2.7 6.1-6.1 6.1-3.3 0-6.1-2.7-6.1-6.1 0-3.3 2.7-6.1 6.1-6.1 3.4 0 6.1 2.7 6.1 6.1z"/><circle class="st10" cx="361.2" cy="200.1" r="2.6"/><path d="M361.2 200.1l19.7-19.8m3.2.4h-3.5v-3.6m1.7 5.3h-3.5v-3.5m1.7 5.3H377v-3.5m-12.4 19.5H361v-3.5" stroke="#2f3f91" stroke-width="1.056" fill="none" stroke-miterlimit="10"/><path class="st10" d="M40.9 150c0 1-.8 1.8-1.8 1.8s-1.8-.8-1.8-1.8.8-1.8 1.8-1.8c.9 0 1.8.8 1.8 1.8zm345-40.2c0 1-.8 1.8-1.8 1.8s-1.8-.8-1.8-1.8.8-1.8 1.8-1.8 1.8.8 1.8 1.8zM214 41.1c0 1-.8 1.8-1.8 1.8s-1.8-.8-1.8-1.8.8-1.8 1.8-1.8 1.8.8 1.8 1.8zm-60.9 35.3c-.3 0-.6-.3-.6-.6v-4.1c0-.3.3-.6.6-.6s.6.3.6.6v4.1c0 .3-.2.6-.6.6z"/><path class="st10" d="M155.2 74.3h-4.1c-.3 0-.6-.3-.6-.6s.3-.6.6-.6h4.1c.3 0 .6.3.6.6 0 .4-.3.6-.6.6zM52.4 233.1c-.3 0-.6-.3-.6-.6v-4.1c0-.3.3-.6.6-.6s.6.3.6.6v4.1c0 .3-.3.6-.6.6z"/><path class="st10" d="M54.4 231h-4.1c-.3 0-.6-.3-.6-.6s.3-.6.6-.6h4.1c.3 0 .6.3.6.6 0 .4-.2.6-.6.6zm346.8-59.4c-.3 0-.6-.3-.6-.6v-4.1c0-.3.3-.6.6-.6s.6.3.6.6v4.1c0 .3-.3.6-.6.6z"/><path class="st10" d="M403.3 169.5h-4.1c-.3 0-.6-.3-.6-.6s.3-.6.6-.6h4.1c.3 0 .6.3.6.6-.1.3-.3.6-.6.6z"/><path class="st6" d="M265.124 6.237l25.33 8.442-5.502 16.507-25.33-8.442zM290.5 14.6l-25.4-8.4L281.2 0z"/><path class="st19" d="M267.992 5.79l20.302 6.767-5.723 17.171-20.302-6.767z"/><path class="st47" d="M265.1 6.2l-5.5 16.5 15.2-3.5zm25.4 8.4L285 31.1l-10.2-11.9z"/><path class="st47" d="M285 31.1l-25.4-8.4 16.2-6.2z"/><path class="st6" d="M259.6 22.7l3.9-1.8c1.3-.6 2.6-1.1 4-1.7 2.7-1.1 5.3-2.2 8-3.2l.4-.2.2.4c1.5 2.4 3 4.9 4.5 7.4.7 1.2 1.5 2.5 2.2 3.7.7 1.3 1.4 2.5 2.1 3.8-.9-1.2-1.7-2.4-2.5-3.5L280 24c-1.6-2.4-3.2-4.8-4.7-7.3l.6.2-8.1 3c-1.4.5-2.7.9-4.1 1.4-1.3.5-2.7 1-4.1 1.4z"/></svg>