<svg xmlns="http://www.w3.org/2000/svg" viewBox="0 0 342.7 264.4"><style>.st0{fill:#eae6ff}.st1{fill:#cdccff}.st4{fill:#8784ef}.st5{fill:#9aa3f4}.st6{fill:none;stroke:#9aa3f4;stroke-width:1.5;stroke-miterlimit:10}.st7{fill:#4a41a3}.st8{fill:#5851bc}.st10{opacity:.35}.st11{fill:#fff}.st13{fill:#fca70c}.st14{fill:#b1affd}.st15{opacity:.15}.st16{opacity:.26}.st17{opacity:.62}.st18{fill:#d5dbda}.st19{fill:#efefef}.st21{fill:#cfcfff}.st23{fill:#a4a4f7}.st24{opacity:.35;fill:#5851bc}.st30{fill:#5045af}.st31{fill:#ffb9b0}.st32{fill:#7762ef}.st35{fill:#8484ef}.st36{fill:#c4c4f7}.st37{fill:#bbbbf2}.st39{fill:#ed9c80}.st40{fill:#38287c}.st41{fill:#453087}.st43{fill:#7a74d1}.st46{fill:#483a99}.st47{fill:#d5d2ff}.st48{opacity:.45;fill:#fff}.st50{fill:#f2a181}.st53{fill:#6960c4}.st55{fill:#ffbe9d}.st56{fill:#3b2e7a}.st59{opacity:.3}.st60{fill:#3939d3}.st61{fill:#fefefe}</style><path class="st0" d="M339.9 158.2c-5.9-16.5-15.3-21.6-24.1-32.2-10.8-13-18.2-22.4-15.3-39C305 59.8 307-8.1 234.9.8c-25.8 3.2-46.2 23-61.1 42.7-12.6 16.8-35.4 18.3-53.7 22.2C97.7 70.5 74.8 77.8 54 88.5 11.2 110.4-1.6 142 .2 182.4c.5 12.2 2.3 31.4 22.9 53.9 27.8 30.3 68.2 34.4 116.9 20.5 11.1-3.2 21.7-8.2 32.6-12 11.4-3.9 23.2-6.5 35.2-7.6 27.9-2.7 56.9 2.2 83.7-6.2 14.2-4.4 27.2-12.5 37.4-23.2 12.7-13.5 17.3-32.1 11-49.6z"/><path class="st1" d="M23 220.5c0 4 50.6 7.2 113 7.2s113-3.2 113-7.2-50.6-7.2-113-7.2-113 3.2-113 7.2z"/><path class="st1" d="M92 229.4c0 2.5-12.8 4.5-28.7 4.5-15.8 0-28.7-2-28.7-4.5s12.8-4.5 28.7-4.5c15.8 0 28.7 2 28.7 4.5z"/><ellipse class="st1" cx="282.8" cy="230.3" rx="48.1" ry="3.6"/><path fill="#d7d7ff" d="M34.3 170.9l-1.9 25.9h24.7l-1.7-26z"/><path class="st0" d="M39.2 173.2c0-.4.4-.7.8-.7.5 0 .8.3.8.7 0 .4-.4.7-.8.7s-.8-.4-.8-.7zm.8-.5c-.3 0-.6.2-.6.4s.3.4.6.4.6-.2.6-.4-.2-.4-.6-.4zm-.7.5zm8.3-.1h.1-.1c0-.2.1-.3.2-.5.2-.2.4-.3.6-.3.5 0 .8.3.8.7 0 .2-.1.4-.3.5-.2.1-.4.2-.6.2-.3.1-.7-.2-.7-.6zm.9-.4c-.2 0-.3.1-.5.2-.1.1-.1.1-.1.3 0 .2.3.4.6.4.2 0 .3-.1.4-.1.1-.1.2-.2.2-.3-.1-.3-.3-.5-.6-.5z"/><path class="st0" d="M44 178.4h.2c1.5-.1 2.7-.5 3.5-1.5 1.3-1.5 1-3.7 1-3.8 0-.1-.2-.3-.3-.2-.1 0-.3.2-.2.3 0 0 .3 2-.9 3.4-.7.8-1.7 1.2-3.1 1.3-1.3 0-2.3-.3-3-1-1.2-1.3-.9-3.5-.9-3.6 0-.1-.1-.3-.2-.3s-.3.1-.3.2-.3 2.5 1 4c.7.7 1.8 1.2 3.2 1.2z"/><path fill="#bdc6f9" d="M45.9 178.1L43 197.4l26.8-.1-2.7-19.2z"/><path class="st4" d="M36 210.6c-3 0-5.4 2.4-5.4 5.4s2.4 5.4 5.4 5.4c3 0 5.4-2.4 5.4-5.4s-2.4-5.4-5.4-5.4zm0 8c-1.4 0-2.5-1.1-2.5-2.5s1.1-2.5 2.5-2.5 2.5 1.1 2.5 2.5-1.1 2.5-2.5 2.5z"/><path class="st5" d="M35.1 210.6c-3 0-5.4 2.4-5.4 5.4s2.4 5.4 5.4 5.4c3 0 5.4-2.4 5.4-5.4s-2.4-5.4-5.4-5.4zm0 8c-1.4 0-2.5-1.1-2.5-2.5s1.1-2.5 2.5-2.5 2.5 1.1 2.5 2.5-1.1 2.5-2.5 2.5z"/><path class="st4" d="M66.7 210.6c-3 0-5.4 2.4-5.4 5.4s2.4 5.4 5.4 5.4c3 0 5.4-2.4 5.4-5.4s-2.4-5.4-5.4-5.4zm0 8c-1.4 0-2.5-1.1-2.5-2.5s1.1-2.5 2.5-2.5 2.5 1.1 2.5 2.5-1.1 2.5-2.5 2.5z"/><path class="st5" d="M65.8 210.6c-3 0-5.4 2.4-5.4 5.4s2.4 5.4 5.4 5.4c3 0 5.4-2.4 5.4-5.4s-2.4-5.4-5.4-5.4zm0 8c-1.4 0-2.5-1.1-2.5-2.5s1.1-2.5 2.5-2.5 2.5 1.1 2.5 2.5-1.1 2.5-2.5 2.5z"/><path class="st6" d="M107.7 149.6H91.4c-1.7 0-3.3.9-4.2 2.3l-9.9 15.9"/><path class="st6" d="M33.4 196.9h36.5c1.9 0 3.6-1.4 3.9-3.3l3.8-23.6c.4-2.4-1.5-4.6-3.9-4.6H29.6c-2.4 0-4.3 2.2-3.9 4.6l3.8 23.6c.3 1.9 2 3.3 3.9 3.3zm18.3-31.4v31.4m24.1-15.7H27.5m38.6-15.7L63 196.9m-25-31.4l2.8 31.4"/><path class="st6" d="M73 195.5l5.9 8.8c1.6 2.4-.1 5.6-3 5.6H27.5"/><path class="st7" d="M150 199.7h50.1v13.5H150z"/><path class="st8" d="M252.8 204.1H97.9c-5.2 0-9.4-4.2-9.4-9.4V88.6c0-5.2 4.2-9.4 9.4-9.4h154.9c5.2 0 9.4 4.2 9.4 9.4v106.1c0 5.2-4.2 9.4-9.4 9.4z"/><path d="M251 192.1H99.1c-3.2 0-5.8-2.6-5.8-5.8V89.5c0-3.2 2.6-5.8 5.8-5.8H251c3.2 0 5.8 2.6 5.8 5.8v96.8c0 3.2-2.6 5.8-5.8 5.8z" fill="#c4c3fc"/><path class="st8" d="M221.6 220.5h-93.1v-1.2c0-4 3.3-7.3 7.3-7.3h78.5c4 0 7.3 3.3 7.3 7.3v1.2z"/><g class="st10"><path class="st11" d="M241.7 168.1H137.4c-2.8 0-5-2.2-5-5V96.2c0-2.8 2.2-5 5-5h104.3c2.8 0 5 2.2 5 5V163c0 2.8-2.2 5.1-5 5.1z"/></g><g opacity=".25"><path class="st13" d="M143.3 147.3h5v12.5h-5z"/><path class="st14" d="M154.5 136.4h5v23.5h-5z"/><path class="st13" d="M165.7 138.8h5v21.1h-5z"/><path class="st14" d="M176.9 126.9h5v32.9h-5z"/><g class="st15"><path class="st16" d="M154.5 136.4h2.3v23.5h-2.3z"/></g><g class="st15"><path class="st16" d="M143.3 147.3h2.3v12.5h-2.3z"/></g><g class="st17"><path class="st16" d="M176.9 126.9h2.3v32.9h-2.3z"/></g><g class="st15"><path class="st16" d="M165.7 138.8h2.3v21.1h-2.3z"/></g><path class="st18" d="M184.5 163.3H140v-47.5h.7v46.8h43.8z"/><path class="st18" d="M144.6 141.5l-.5-.5 11.7-10.5 10.8 2.4 11.7-13.1.5.5-12 13.3-10.8-2.3z"/><path class="st18" d="M179.7 122.2l-3.3-3.1 4.2-1.2z"/><path class="st14" d="M188.8 146.5h3.4v3.4h-3.4z"/><path class="st13" d="M188.8 152.5h3.4v3.4h-3.4z"/><path class="st19" d="M193.1 153.9h10.8v1.9h-10.8zm0-6h10.8v1.9h-10.8z"/><path class="st14" d="M208.9 146.5h3.4v3.4h-3.4z"/><path class="st13" d="M208.9 152.5h3.4v3.4h-3.4z"/><path class="st19" d="M213.2 153.9H224v1.9h-10.8zm0-6H224v1.9h-10.8z"/><path class="st14" d="M227 146.5h3.4v3.4H227z"/><path class="st13" d="M227 152.5h3.4v3.4H227z"/><path class="st19" d="M231.4 153.9h7.1v1.9h-7.1zm0-6h7.1v1.9h-7.1zm-42-34.1h49.1v.9h-49.1zm-49.4-11h98.5v2H140zm49.3 13.8h49.2v.9h-49.2zm0-5.6h49.2v.9h-49.2zm0 8.3h49.2v.9h-49.2zm0 2.8h49.2v.9h-49.2zm0 2.8h49.2v.9h-49.2zm0 2.8h49.2v.9h-49.2zm0 2.7h49.2v.9h-49.2zm0 2.8h49.2v.9h-49.2zm6 2.8h43.2v.9h-43.2z"/><path d="M241.7 91.2H137.4c-2.8 0-5 2.2-5 5v4.4h114.3v-4.4c0-2.8-2.2-5-5-5z" fill="#7a7ae5"/><path class="st21" d="M232 96.1c0 .8-.6 1.4-1.4 1.4s-1.4-.6-1.4-1.4.6-1.4 1.4-1.4 1.4.6 1.4 1.4z"/><circle class="st21" cx="236.5" cy="96.1" r="1.4"/><circle class="st21" cx="242.4" cy="96.1" r="1.4"/></g><path d="M211.3 185.1H107c-2.8 0-5-2.2-5-5v-66.8c0-2.8 2.2-5 5-5h104.3c2.8 0 5 2.2 5 5V180c.1 2.8-2.2 5.1-5 5.1z" opacity=".55" fill="#c4c3fc"/><path class="st11" d="M213.7 182.1H109.4c-2.8 0-5-2.2-5-5v-66.8c0-2.8 2.2-5 5-5h104.3c2.8 0 5 2.2 5 5v66.8c0 2.7-2.3 5-5 5z"/><path class="st13" d="M115.2 161.4h5v12.5h-5z"/><path class="st14" d="M126.4 150.4h5v23.5h-5z"/><path class="st13" d="M137.7 152.8h5v21.1h-5z"/><path class="st14" d="M148.9 140.9h5v32.9h-5z"/><g class="st15"><path class="st16" d="M126.4 150.4h2.3v23.5h-2.3z"/></g><g class="st15"><path class="st16" d="M115.2 161.4h2.3v12.5h-2.3z"/></g><g class="st17"><path class="st16" d="M148.9 140.9h2.3v32.9h-2.3z"/></g><g class="st15"><path class="st16" d="M137.7 152.8h2.3v21.1h-2.3z"/></g><path class="st18" d="M156.5 177.3h-44.6v-43.2h.7v42.5h43.9z"/><path class="st18" d="M116.5 155.5l-.5-.5 11.7-10.5 10.8 2.4 11.7-13.1.5.5-12 13.3-10.8-2.3z"/><path class="st18" d="M151.6 136.2l-3.3-3.1 4.3-1.2z"/><path class="st14" d="M160.7 160.5h3.4v3.4h-3.4z"/><path class="st13" d="M160.7 166.5h3.4v3.4h-3.4z"/><path class="st19" d="M165.1 167.9h10.8v1.9h-10.8zm0-6h10.8v1.9h-10.8z"/><path class="st14" d="M180.8 160.5h3.4v3.4h-3.4z"/><path class="st13" d="M180.8 166.5h3.4v3.4h-3.4z"/><path class="st19" d="M185.2 167.9H196v1.9h-10.8zm0-6H196v1.9h-10.8z"/><path class="st14" d="M198.9 160.5h3.4v3.4h-3.4z"/><path class="st13" d="M198.9 166.5h3.4v3.4h-3.4z"/><path class="st19" d="M203.3 167.9h7.1v1.9h-7.1zm0-6h7.1v1.9h-7.1zm-41.9-34.1h49.1v.9h-49.1zm-49.5-11h98.5v2h-98.5zm49.3 13.8h49.2v.9h-49.2zm0-5.6h49.2v.9h-49.2zm0 8.3h49.2v.9h-49.2zm0 2.8h49.2v.9h-49.2zm0 2.8h49.2v.9h-49.2zm0 2.8h49.2v.9h-49.2zm0 2.7h49.2v.9h-49.2zm0 2.8h49.2v.9h-49.2zm6 2.8h43.2v.9h-43.2z"/><path class="st23" d="M213.7 105.2H109.4c-2.8 0-5 2.2-5 5v4.4h114.3v-4.4c0-2.7-2.3-5-5-5z"/><path class="st21" d="M204 110.1c0 .8-.6 1.4-1.4 1.4-.8 0-1.4-.6-1.4-1.4 0-.8.6-1.4 1.4-1.4.7-.1 1.4.6 1.4 1.4zm5.9 0c0 .8-.6 1.4-1.4 1.4-.8 0-1.4-.6-1.4-1.4 0-.8.6-1.4 1.4-1.4.7-.1 1.4.6 1.4 1.4zm5.8 0c0 .8-.6 1.4-1.4 1.4-.8 0-1.4-.6-1.4-1.4 0-.8.6-1.4 1.4-1.4.8-.1 1.4.6 1.4 1.4z"/><path class="st24" d="M252.3 79.3h-26.8c.2 8.7.3 17.4.4 26 0 1.3 0 2.7-.5 3.9-.4 0-.2.1-.3.7-1.1 1.8-3.2 2.7-5.3 3.2v.3c-.2.2-.3.5-.2.8.1.3 1.7.7 3.8.5.6-.1 1.8-.4 2.3-.6l.9-.6c.3 0 .5-.1.8-.2l.1.1 2.4-1s-.3-1.5-.5-2.3c0-.2-.1-.3-.2-.4 2-5.4 3.6-11 4.7-16.7-.4 7.1-3 21.4-3.2 21.9-.3.8-1.4 2-3 2.1-.6 0-3.4-.1-3.1 1.2.1.3 1.5 1 3.6 1.1.6 0 1.8-.1 2.4-.2.8-.2 1.5-.8 1.5-.8l.3.4 2.5-.6v-1.5c0-.8-.5-1.5-.5-1.5v-1.4l1.4-.2s2.8-9.1 4.2-12.3c.6-1.3 1.2-2.5 1.5-3.9.4-1.6.5-3.2.6-4.9.2-3 .8-5.9 1.6-8.8.1-.2.1-.4.2-.5.2-.2.6-.3.9-.3 3.6-.3 5.2.3 7.5-.4 3-.9 3.3-2.3 3.4-2.3-.9-.6-2.1-.8-3.4-.8z"/><g class="st10"><path class="st8" d="M262.2 139.2v-31.1c-4.6 6.1-9.2 11.5-13.8 17.6-2 2.6-9.9 11.3-4.5 14.8 1.4.9 3.8.9 4.9.9 4.3.3 8.5-.9 12.7-2.1.2 0 .4 0 .7-.1z"/></g><path class="st24" d="M262.2 145.9l-2.6.2v-.1l-2 .2-.6-1.7c-.3-1-1.5-1.7-2.5-1.6-1.1.1-1.6.9-1.3 1.9.1.3.4 1.1.6 1.7l-2.1.2v.1l-4.3.3c-.7 0-1.7.9-1.5 1.5v.3l3.8 10.6-.1 44.7h4.4l8.3-32.1v-26.2zm-6.8-.4c-.6 0-1.2-.4-1.4-.9-.2-.5.1-1 .7-1.1.6 0 1.2.4 1.4.9.2.6-.1 1.1-.7 1.1zm-156-18.1c-1 1.1-2.1 3.4-2.6 4.3-.5 1-1 1.5-2.4 2.2-1.9.9-4 1.7-5.9 2.5v5.1c4-2.4 7.6-4.6 7.7-4.7 3.1 1.2 5.6-1.4 6.4-3.2.4-.8-.2-1.2-.2-1.5 0-.2.2-1.4.2-1.5-.2-1.1-3.1-.1-2.9-.6.1-.4.5-1.3 1.2-1.8 1.4-1 2.5-2 2.5-2.4 0-.8-3.6 1.3-4 1.6z"/><path d="M314.9 231.3h-53.6c-3.8 0-6.9-3.1-6.9-6.9v-64.2c0-3.8 3.1-6.9 6.9-6.9h53.6c3.8 0 6.9 3.1 6.9 6.9v64.2c0 3.8-3.1 6.9-6.9 6.9z" fill="#a2a7f4"/><path d="M315.9 177.4h-53.5c-1 0-1.8-.8-1.8-1.8v-12.5c0-1 .8-1.8 1.8-1.8h53.5c1 0 1.8.8 1.8 1.8v12.5c0 1-.8 1.8-1.8 1.8zm-42.4 15.9h-11.1c-1 0-1.8-.8-1.8-1.8v-6.6c0-1 .8-1.8 1.8-1.8h11.1c1 0 1.8.8 1.8 1.8v6.6c0 1-.8 1.8-1.8 1.8zm21.2 0h-11.1c-1 0-1.8-.8-1.8-1.8v-6.6c0-1 .8-1.8 1.8-1.8h11.1c1 0 1.8.8 1.8 1.8v6.6c0 1-.8 1.8-1.8 1.8zm21.2 0h-11.1c-1 0-1.8-.8-1.8-1.8v-6.6c0-1 .8-1.8 1.8-1.8h11.1c1 0 1.8.8 1.8 1.8v6.6c0 1-.8 1.8-1.8 1.8zm-42.4 16.4h-11.1c-1 0-1.8-.8-1.8-1.8v-6.6c0-1 .8-1.8 1.8-1.8h11.1c1 0 1.8.8 1.8 1.8v6.6c0 1-.8 1.8-1.8 1.8zm21.2 0h-11.1c-1 0-1.8-.8-1.8-1.8v-6.6c0-1 .8-1.8 1.8-1.8h11.1c1 0 1.8.8 1.8 1.8v6.6c0 1-.8 1.8-1.8 1.8zM273.5 226h-11.1c-1 0-1.8-.8-1.8-1.8v-6.6c0-1 .8-1.8 1.8-1.8h11.1c1 0 1.8.8 1.8 1.8v6.6c0 1-.8 1.8-1.8 1.8zm21.2 0h-11.1c-1 0-1.8-.8-1.8-1.8v-6.6c0-1 .8-1.8 1.8-1.8h11.1c1 0 1.8.8 1.8 1.8v6.6c0 1-.8 1.8-1.8 1.8zm21.2 0h-11.1c-1 0-1.8-.8-1.8-1.8v-23c0-1 .8-1.8 1.8-1.8h11.1c1 0 1.8.8 1.8 1.8v23c0 1-.8 1.8-1.8 1.8z" fill="#9090f4"/><path d="M259.5 162.1c0-1 .8-1.8 1.8-1.8h53.5c1 0 1.8.8 1.8 1.8v12.5c0 1-.8 1.8-1.8 1.8h-53.5m11.2 15.9h-11.1c-1 0-1.8-.8-1.8-1.8v-6.6c0-1 .8-1.8 1.8-1.8h11.1c1 0 1.8.8 1.8 1.8v6.6c-.1 1-.9 1.8-1.8 1.8zm21.2 0h-11.1c-1 0-1.8-.8-1.8-1.8v-6.6c0-1 .8-1.8 1.8-1.8h11.1c1 0 1.8.8 1.8 1.8v6.6c-.1 1-.9 1.8-1.8 1.8zm21.2 0h-11.1c-1 0-1.8-.8-1.8-1.8v-6.6c0-1 .8-1.8 1.8-1.8h11.1c1 0 1.8.8 1.8 1.8v6.6c-.1 1-.9 1.8-1.8 1.8zm-42.4 16.3h-11.1c-1 0-1.8-.8-1.8-1.8v-6.6c0-1 .8-1.8 1.8-1.8h11.1c1 0 1.8.8 1.8 1.8v6.6c-.1 1-.9 1.8-1.8 1.8zm21.2 0h-11.1c-1 0-1.8-.8-1.8-1.8v-6.6c0-1 .8-1.8 1.8-1.8h11.1c1 0 1.8.8 1.8 1.8v6.6c-.1 1-.9 1.8-1.8 1.8zM272.5 225h-11.1c-1 0-1.8-.8-1.8-1.8v-6.6c0-1 .8-1.8 1.8-1.8h11.1c1 0 1.8.8 1.8 1.8v6.6c-.1 1-.9 1.8-1.8 1.8zm21.2 0h-11.1c-1 0-1.8-.8-1.8-1.8v-6.6c0-1 .8-1.8 1.8-1.8h11.1c1 0 1.8.8 1.8 1.8v6.6c-.1 1-.9 1.8-1.8 1.8z" fill="#e2deff"/><path class="st13" d="M314.9 225h-11.1c-1 0-1.8-.8-1.8-1.8v-23c0-1 .8-1.8 1.8-1.8h11.1c1 0 1.8.8 1.8 1.8v23c-.1 1-.9 1.8-1.8 1.8z"/><path d="M303 224.2v-23c0-1 .8-1.8 1.8-1.8h11.1c.2 0 .4 0 .6.1-.3-.7-.9-1.2-1.7-1.2h-11.1c-1 0-1.8.8-1.8 1.8v23c0 .8.5 1.4 1.2 1.7-.1-.1-.1-.3-.1-.6z" fill="#f9c110"/><path class="st24" d="M254.3 171.6l1.8 4.8h7.6s-.5 20.6-.6 24.4c0 3.9 3.2 30.5 3.2 30.5h4.4l-.5-33.5 6.2-17.2s4.7 23 6.6 26.9c1.9 3.9 12.4 23.9 12.4 23.9h4l-10.3-44.1-4.4-15.3-22.3-10.4-8 .8"/><path class="st13" d="M103.2 188.7l-3.5 36.6h34.6l-3.3-36.6z"/><path class="st8" d="M109.2 192.1c0-.6.6-1.1 1.3-1.1.7 0 1.3.5 1.3 1.1 0 .6-.6 1.1-1.3 1.1-.7 0-1.3-.5-1.3-1.1zm1.3-.7c-.5 0-.9.3-.9.7 0 .4.4.7.9.7s.9-.3.9-.7c0-.4-.4-.7-.9-.7zm-1.1.7zm12.7-.1h.2-.2c0-.3.1-.5.3-.7.2-.2.6-.4 1-.4.7 0 1.3.5 1.3 1.1 0 .3-.1.6-.4.8-.2.2-.6.3-.9.3-.7 0-1.3-.5-1.3-1.1zm1.3-.6c-.3 0-.5.1-.7.3-.1.1-.2.2-.2.4 0 .4.4.7.9.7.2 0 .5-.1.6-.2.2-.1.2-.3.2-.5.1-.4-.3-.7-.8-.7z"/><path class="st8" d="M116.6 200.1h.4c2.4-.1 4.2-.8 5.4-2.3 2-2.4 1.5-5.7 1.5-5.8 0-.2-.2-.4-.5-.4-.2 0-.4.2-.4.5 0 0 .4 3.1-1.3 5.1-1 1.2-2.6 1.9-4.8 2-2.1.1-3.6-.5-4.6-1.6-1.9-2.1-1.4-5.4-1.4-5.5 0-.2-.1-.4-.4-.5-.2 0-.4.1-.5.4 0 .2-.5 3.8 1.6 6.2 1.2 1.2 2.9 1.9 5 1.9z"/><path class="st30" d="M69.1 106.4c1.3 2.3.2 5.5 1.5 7.8.5.9 1.5 1.7 1.7 2.7.2.9-.1 1.9-.8 2.4-.7.6-1.7.6-2.5.2-.2-.1-.3-.2-.5-.3-.7-.2-1.3.4-1.8.8-.7.5-1.6.7-2.4.4-1-.3-1.7-1.4-2-2.4-1-2.9-.3-6.1.6-9 .4-1.5 1.1-3.1 2.5-3.6"/><path class="st31" d="M100.3 131c0 .3.5.6.2 1.3-.7 1.5-3 3.6-5.7 2.6-.1 0-15 8.6-16.1 8.6-1.1 0-9-7.4-11.5-16.5-.6-2.2-.4-4.7 1.7-5.8 0 0 1.7.4 2.8 2.5 1.7 3.2 6.8 13.8 7.9 14.2 1.4-.9 8.2-3 13.7-5.3 1.2-.5 1.7-1 2.1-1.8.4-.8 1.4-2.7 2.3-3.6.3-.3 3.6-2.1 3.6-1.5 0 .3-1 1.2-2.2 2-.6.4-.9 1.2-1.1 1.5-.2.4 2.3-.4 2.6.5-.1.2-.3 1.1-.3 1.3z"/><path class="st32" d="M68.2 120.9c1.9.5 3.5 1.7 4.4 3.4.2.4.4.9.6 1.4.8 2 1.9 3.8 2.7 5.9-1.1.9-2.4 1.3-3.5 1.7-1 .4-2.2.5-3.3.4-.2 0-.4 0-.5-.1-.2-.1-.4-.3-.6-.5-.3-.4-.7-.8-1-1.2-.3-.3-.5-.7-.7-1.1-.2-.6 0-1.2.2-1.8"/><g class="st10"><path class="st32" d="M70.1 126.4c-.1-.1-.1-.2-.3-.2-.2-.1-.4.1-.5.2-.1.2-.1.4-.1.6 0 .8.1 1.6.4 2.4l-.3 4.3c1 .1 2.1-.1 3-.4.5-.2 1-.3 1.5-.6-.5-2.3-2.1-4.4-3.7-6.3z"/></g><path class="st31" d="M63.5 116.7s-.1 2.7.4 2.8c.8.3 1.7.5 1.7.5v5.5l-7.3-1.1-5.1-2.8s5.3-1.7 5.3-2.3c0-.5-.3-3.5-.3-3.5m-6 80.6c-2 9.5-1.1 22.6-1.5 29.8.1 0 2.7.4 2.7.4s6.2-30.2 7.3-36c.1-.4.1-.8.1-1.1.3-4.4-3.7-4.6-5.9-1-.4.6-.7 1.2-1 1.9-.1.3-.2.6-.4.9-.4.9-.7 2-1 3v.1c-.1.3-.2.6-.2.9v.1c.1.4 0 .7-.1 1z"/><path class="st31" d="M64 162.2c-.1.8-.5 4.5-1 9-.4 3.7-.9 7.9-1.3 11.2-.3 2.5-.5 4.5-.6 5.4 0 .6-.1 1.1-.2 1.6-.9 4.4-4 4.6-5.8 3.6-.3-.1-.5-.3-.7-.5-.4-.4-.7-.8-.8-1.3-.1-.9-.2-2.1-.3-3.6-.2-2.8-.4-6.5-.6-10-.2-4.4-.3-8.5-.4-10.9v-.4c0-7.3 6.6-11.9 10.8-9.6.1 0 .1 0 .1.1.1 0 .1.1.2.1.5.3.6 1.4.6 2.6.1.9.1 1.9 0 2.7z"/><path class="st31" d="M53.9 189.6l-.5-1.9c0 .4.1 3.5-.6 6.6v.1c-.1.3-.1.6-.2.9v.1c-.1.5-.2.8-.2 1 0 .9 1.8-3 2.2-3.9.1-.1.1-.2.1-.2l-.5-2-.3-.7zm14.3 8.6c-.2 10 2.9 21.7 3.7 29 .1 0 2.5-.3 2.5-.3s.5-30.6.5-36.6c0-.4 0-.8-.1-1.2-.5-4.4-4.1-3.6-5.4.5-.2.7-.4 1.4-.6 2.2-.1.3-.1.6-.2 1-.2 1-.3 2.1-.4 3.3v.1c0 .3 0 .7-.1 1v.1c.1.2.1.6.1.9z"/><path class="st31" d="M70.3 194.2c-.3-.1-.5-.2-.7-.3-.5-.3-.8-.7-.9-1.1-.3-.9-.6-2.1-.9-3.5-.7-2.8-1.5-6.3-2.2-9.8-.9-4.3-1.7-8.4-2.2-10.8 0-.1-.4-1.8-.4-2-1.3-7.3 4.4-12 8.5-10.6.1 0 .1 0 .2.1.8.3 1.1 3.3 1.2 5.2.2 2 1.6 22.4 1.9 26.1.1.6.1 1.1.1 1.7-.1 4.5-2.8 5.5-4.6 5z"/><path class="st31" d="M68.5 191l-.8-1.8c.1.4.6 3.5.6 6.8v.1c0 .3 0 .7-.1 1v1.1c.1.9 1.1-3.4 1.4-4.4v-.2l-.8-1.9-.3-.7z"/><path d="M55.9 148.2s-5.3 6.8-4.8 13.6c.2 2.8.6 5.3.9 8.2 0 .4.7 6.4.5 6.4 0 0 11 3.4 21.7-1.1 0-.7.9-14.7-4.9-28-7 1.1-13.4.9-13.4.9z" fill="#5146af"/><path class="st32" d="M72.6 132.5c0 1.9-1.1 3.1-2.6 4.8-.2.3-.6 4.6-.8 7.5-.1 1.5.6 2.4 0 2.6-2.1 1.9-9.8 3.4-13.4.8.4-3.1-1-10-2-13.6-.1-.5-.3-1-.4-1.3-.9-2.7-2.5-11.2-1.3-11.6.2-.1.6-.2 1-.3 1.8-.6 4.6-1.5 4.6-1.5s1.6 4.7 5.8 5.3c2.3-.9 2.1-3.8 2-5.1.7.2 1.1.4 3.4 1.1.6.9.1 2.9 1.1 5.8.4.7 2.7 3.2 2.6 5.5z"/><path class="st31" d="M68.8 105.8s.4 5.1-.5 7.8c-.7 2-3.3 3.9-5.6 3.8-6.1 0-7.2-8.3-7.2-8.7 0-.4 9.1-3.9 9.1-3.9l4.2 1z"/><path class="st30" d="M80.5 230.1c-2.2.4-4.5-.2-5.5-.1-.8.1-2.8.7-3.6 0-.8-.7-.6-3.1.2-3.4 0 0 .2.1.6.1.5.1 1.5.1 2.6-.2 1.7.7 1.7 1 3.6 1.4.8.2 1.8.4 2.4.7.9.4 1 1.3-.3 1.5zm-23.6.9c-2.2-.4-3.6-1.6-4.5-1.7-.8-.1-2.8-.5-3-1.3-.2-.6.4-3.1 1.4-3.1 0 0 .2.1.5.3.5.3 1.3.6 2.5.7 1.3 1.2 1.3 1.5 2.9 2.5.7.4 1.5 1 2 1.5.7.5-.5 1.4-1.8 1.1z"/><path class="st31" d="M25 128.9l2-2.4 12.3 11s6-8 7.6-10.5c1.8-2.7 3.4-5.1 6.1-5.5.6.4-.2 10.2-.5 10.5-3.7 2.8-10.9 11.7-13.2 12.2-2.6.4-14.3-15.3-14.3-15.3z"/><path class="st32" d="M53.9 121s-2.5 0-3.6.9-6.2 9.1-6.2 9.1-.1 1.5 1.4 2.8c1.6 1.4 3.7 1.6 3.7 1.6s2.6-2.6 4-3.7c.9-.7 1 1.1 1 1.1l4.6-4.5-4.9-7.3z"/><path class="st30" d="M52.4 121.1c-.1-.1-.3-.2-.4-.2-.7-.4-1.4-.9-1.6-1.7-.4-1.2-.6-2.9 0-4 .4-.8 1.2-1.3 1.7-1.9.7-.9.9-2.2 1-3.4.1-1.2 0-2.4.2-3.5.4-2 1-3.9 2.5-5.1 2.4-2 7.4-3.3 10-1 .5.4.6.7 1.2.8.9.1 1.4.2 2.2.7.9.5 1.9 1.2 1.8 2.4-.1.8-1 2.1-1.7 2.4-.3.2-.6.2-.9.2-1 0-1.9-.7-2.9-.5-.5.1-1 .3-1.3.7-.4.5-.3 1.1-.7 1.5-.7.7-1.8.6-2.6 1.1-.1.1-.3.2-.4.3-.1.1-.1.3-.1.4v1.3c-.4-.2-.4-.8-.8-1-.3-.3-.8-.2-1.2.1-.3.3-.5.7-.6 1.1-.1.5.1 1 .2 1.5.3.9 1 1.7 1.6 1.1.4.6 0 1.7-.1 2.5 0 .6 0 1.7.5 2.1.5.4 1.3.1 1.3 1 0 .8-.8 1.5-1.6 1.6-.8.1-1.6-.2-2.4-.4-.8-.2-1.7-.4-2.4-.1-.5.2-.9.5-1.4.6-.2-.2-.7-.4-1.1-.6z"/><path class="st31" d="M30.1 129.3s-2.9-2.3-3.1-2.9-.2-1.3-.5-1.9c-.3-.9-1.1-1.6-2-2-.7-.3-.4-.5-1.1-.4-1.2.2-1.7 1.4-2.2 2.3-2 3.8 3.5 4.5 3.7 4.6.4 0 2.4 2.3 2.4 2.3"/><path class="st35" d="M21 127.4l2 1.3c.3.2.6.1.8-.2l4.3-7.3-2.6-1.4-4.7 6.8c-.1.3-.1.6.2.8z"/><path class="st36" d="M13.9 112l.7.5 2.8-4-.7-.5c-1-.7-2.4-.3-3.1.8-.8 1.1-.6 2.5.3 3.2z"/><path class="st36" d="M11.4 116.9l12.7 1.9 2.9-4.2-6.4-11.1z"/><path class="st37" d="M12.2 117l11.9 1.8 1.1-1.7-9.9-4.5z"/><path class="st36" d="M29.3 121.8c.7.5 1.7.2 2.2-.6l.5-.7c.5-.8.4-1.8-.3-2.2-.7-.5-1.7-.2-2.2.6l-.5.7c-.5.8-.4 1.8.3 2.2z"/><path class="st37" d="M29.5 118.9l-.5.7c-.5.8-.4 1.8.3 2.2.7.5 1.7.2 2.2-.6l.5-.7c0-.1.1-.1.1-.2-.5.6-1.4.8-2.1.4-.6-.4-.8-1.3-.4-2.1 0 .2 0 .2-.1.3z"/><path class="st23" d="M11 117.3c.4.3 1 .1 1.3-.3l8.7-12.6c.3-.5.2-1-.2-1.3-.4-.3-1-.1-1.3.3L10.9 116c-.4.4-.3 1 .1 1.3z"/><path class="st35" d="M21 103.2l-7.2 10.5c-.3.5-.9.6-1.3.3-.1-.1-.2-.1-.2-.2l-1.5 2.1c-.3.5-.2 1 .2 1.3.4.3 1 .1 1.3-.3l8.7-12.6c.2-.3.2-.8 0-1.1z"/><path class="st23" d="M25.2 121l.8.6c1.2.8 3 .4 3.9-1l.8-1.2c.9-1.4.7-3.2-.5-4l-.8-.6c-1.2-.8-3-.4-3.9 1l-.8 1.2c-.9 1.4-.7 3.2.5 4z"/><path class="st35" d="M24.8 116.9l-1.2 1.8c-.3.4-.2 1 .1 1.3l3.8 2.6c.4.3.9.1 1.2-.3l1.2-1.8c-.3.4-.9.6-1.2.3l-3.8-2.6c-.4-.3-.4-.8-.1-1.3z"/><path class="st31" d="M21.4 125.6c-.2-1.1.1-2.2.7-3 .2-.3.5-.5.7-.8.1-.1.2-.2.4-.3.3-.1.6 0 .9.2.3.2.6.4.8.8.2.5-.1.9-.6 1.2l-.1.1c0 .1 0 .2.1.2.2.3.3.7.3 1 0 .3-.3.6-.7.5-.1 0-.3-.1-.4 0v.1c0 .3 0 .6-.2.8 0 .1-.1.1-.2.1h-.2c-.2-.1-.5-.2-.7-.3"/><path class="st31" d="M27 126.5c-.1-.4-.2-1.1-.2-1.6 0-1.2-.7-2.3-1.7-2.9-.1 0-.2-.1-.3-.1-.1 0-.2.1-.2.3s0 .2.1.4c.1.4.6 1.1.5 1.4-.2.6-.4 1.2-.4 1.8 0 .5.3 1.4.9 1.5"/><path d="M12.3 97.4l2.6 6m-7.9-.7l5.2 4M3.7 110l6.5.6" fill="none" stroke="#c4c4f7" stroke-width=".75" stroke-linecap="round" stroke-linejoin="round" stroke-miterlimit="10"/><path class="st31" d="M211.5 46.9s-2.3-1.6-2.4-2.3c-.1-.7-1.7-3.5-2.2-4-.5-.6-3.3-1.5-3.8-1.6-.6-.1-3.9.2-3.5.7.4.5 2.6.3 3 .5l.4.2s-.4.6-.2.9-.7.9-.4 1.4c.3.6-.1.5.2 1.2.5 1 1.8 1.6 2.1 1.3.2.6 1.2 1.8 2.1 1.7.9-.1 3.1 2 3.1 2M247 35.2c.1 1.6 0 4.3.4 4.7.4.4 1.9.3 1.9.3s-5.2 6.5-5.6 6.2c-.5-.4-6.6-5.3-5.2-5.6 1.4-.3 2.7-.2 2.7-.9s-.1-1.4-.1-2.1"/><path class="st13" d="M252.9 70.1s-10.1 1.1-12.4 1.2c-2.3 0-2.2-1.2-2.2-1.2-.1-2.6-.6-8.6-1-10.6-.4-1.9-.6-2.6-1-4.4-.9-4-.8-4.8-1.7-9.8l6-4.8s.6 1.9 3.1 1.9c3.4 0 4.4-2.3 4.4-2.3l8.2 5.5.8 13.3-1 10.9"/><path class="st31" d="M247.1 33.7c-.2.8-.4 1.6-.7 2.3-.5 1.4-1.3 1.9-2.8 1.9-1 0-2.1 0-3.1.1-.8 0-1.8 0-2.4-.5-.6-.5-.6-1.5-.8-2.2-.2-1-.3-2-.4-2.9-.2-1.9-.3-3.9-.3-5.8 0-.3 0-.5.1-.8 0-.1.1-.2.1-.3.1-.1.2-.1.4-.1 1.9-.3 3.9-.4 5.8-.4 1.4 0 2.8.2 3.9 1s1.6 2.2 2.1 3.5c.1.2.1.5-.1.6"/><path class="st39" d="M224.5 106.1s.3 2 .6 2.7c.3.7 2.5.1 2.7-.4.1-.4-.7-3.7-.7-3.7"/><path class="st40" d="M228.6 108.9c.2.7.4 2.2.4 2.2l-2.2 1-.4-.3s-.6.7-1.2 1c-.5.2-1.6.5-2.2.6-2 .2-3.4-.2-3.5-.4-.5-1.1 2.1-1.4 2.6-1.6 1.5-.4 2.3-1.7 2.5-2.5.1-.6 0-.7.3-.7 0 0 .3 0 .6.3.4.4 1 .6 1.6.4.3-.1.6-.4.8-.7-.1-.1.5 0 .7.7z"/><path class="st41" d="M234.4 79.8c-3.5.7-7.9.7-11.5.3.5 1.4 1.7 3.2 2.2 5.3 1.5 6.6 2.1 15.5 2.5 21 0 0-.7 1.4-3.1.3-3.5-8.7-9.7-26.3-9.6-30.2.1-4.9 12.2-6 21.1-7.2"/><path class="st40" d="M250 70.1c2.8 2-15.5 9.7-15.5 9.7-2 .4-4 .6-6 .6-.2-.4-.4-.7-.4-1.1-.1-.5-.1-1.1-.1-1.6-.2-1-.9-1.9-1.8-2.5-.9-.5-2-.8-3-1-2.5-.4-6.8-.1-6.8-.1 5.5-4.1 16.8-4.6 22-4.9.9 1.6 11.2.6 11.6.9z"/><path class="st39" d="M230.3 110.7s0 2 .1 2.8c.1.7 2.5.5 2.7.1s-.1-3.8-.1-3.8"/><path class="st40" d="M233.8 114.2c.1.8.1 2.2.1 2.2l-2.4.6-.3-.4s-.7.6-1.4.8c-.5.1-1.7.3-2.2.2-2-.1-3.3-.7-3.4-1-.3-1.2 2.3-1.1 2.9-1.1 1.5-.1 2.6-1.2 2.9-2 .2-.6.1-.7.4-.6 0 0 .3 0 .5.4.3.5.9.8 1.5.6.3-.1.7-.2.9-.5-.1-.1.4.1.5.8z"/><path class="st41" d="M256.1 69.7s-5.6.6-12.4.4c-1.6 0-13.6 2.3-14.7 4.3-1.9 3.3 1.2 22.9.9 36.9 0 0 1.4 1.2 4 .1.6-6.9 4.7-23.1 1.9-30.6 6.6.9 11.9 1.7 18-.2 1.4-.5 2.5-1.5 3.1-3.3.5-2 .2-6-.8-7.6z"/><path class="st13" d="M240.5 40.5s-1.4.1-1.7.1c-1.2.1-2.4.3-3.6.7-1.6.6-2.8 2.1-4.1 3.3-1.3 1.1-7.9 7.5-9.2 7.7-1.2.2-12.1-7.2-12.1-7.2l-2.7 2.7s11.8 10.9 15.3 10.9c1.7 0 11.1-4.9 14.1-6.9l4-11.3z"/><path d="M222.5 56.5c-2.4.1-13.5-8.3-14.8-9.3l-.5.5s11.8 10.9 15.3 10.9c1.4 0 8.2-3.4 12.2-5.7l1-.6-.6-3.7c0 .1-10 7.8-12.6 7.9z" opacity=".25" fill="#ce4a30"/><path class="st23" d="M211.2 71.9h27l-4.8-15.8c-.3-.9-1.1-1.5-2-1.5h-23.6c-.9 0-1.6.9-1.3 1.7l4.7 15.6z"/><path class="st43" d="M210.9 71.9h26.6l-4.8-15.8c-.3-.9-1.1-1.5-2-1.5H207c-.9 0-1.6.9-1.3 1.7l4.6 15.1c.1.3.3.5.6.5z"/><path d="M252.4 48.1c-1.3 6.1-1.6 10.8-2 15.2-4.7 1.8-6.6 4.6-11.3 6.6 0 0-3.6-.6-4 .8-.2.8 4.3 1.4 4.3 1.4 4.3 0 15.6-3.1 16.3-3.3.8-.2 3-14.6 3.1-22.3 0-1.1 0-2.3-.7-3.2-.4-.5-.9-.8-1.4-1-3-1.5-5.2-2-8.6-2.2" fill="#ce4a30"/><path class="st31" d="M239.8 70.8c-.5-.6-1.4-.7-2.2-.7-.6 0-1.2.1-1.8.1-.3 0-.6.1-.6.4 0 .3 1.3 0 2 .2-1.4.1-2.8.2-4.2.1h-.5c-.2.1-.3.2-.3.4 0 .1.1.2.2.3.4.3.9.5 1.4.6 2.1.4 4.4.3 6.3-.6"/><path class="st13" d="M252.1 48c-.1 6.5-.6 9.5-.4 16-3.3.7-7.8 4.4-12.4 6.4 0 0-.3.9.2 1.7.4.1 15.6-3.6 16.8-4.7 1.1-1 2.5-13.2 2.6-21 0-1.1 0-2.3-.7-3.2-.4-.5-.9-.8-1.4-1-3-1.5-5.2-2-8.6-2.2"/><path d="M224.6 63.5c.1 1.4-1.5 2.5-3.7 2.5-2.1 0-3.9-1.1-4-2.5-.1-1.4 1.5-2.5 3.7-2.5s3.9 1.1 4 2.5z" opacity=".45" fill="none" stroke="#a4a4f7" stroke-miterlimit="10"/><ellipse transform="rotate(-87.767 220.762 63.51) scale(.99996)" class="st23" cx="220.8" cy="63.5" rx="1.4" ry="2.4"/><path class="st46" d="M242.4 29.6c-.1-.2-.6-.3-1.1-.2-.5.1-2 .2-2.3.5-.3.2-.3.4-.4.4-.2 0-.2-.1-.5-.3-.3-.2-1.2 0-1.7 0-.5.1-1.1.2-1 .4 0 .2.1.7.2.7.1.1.1.1.5 1 .2.5.6.9 1.3.7.9-.2.9-1.2 1-1.6.1-.4.1-.5.3-.5.1 0 .2 0 .4.4s.3 1.3 1.2 1.4c1.2.1 1.7-.3 1.9-1.1.2-1 .2-1 .3-1.1l.9.1v-.3c-.2 0-1-.4-1-.5zm-4.4 2.1c0 .5-.3 1-.9 1.1-.5.1-.8-.2-1.1-.9-.3-.6-.3-1.1-.2-1.3.1-.2.4-.2 1.1-.2.7 0 .9-.1 1 .2.1.1.2.6.1 1.1zm3.9-.6c-.1.8-.4 1.1-1.1 1.2-1.1.1-1.3-.3-1.4-.8-.2-.5-.2-.9-.2-1 0-.3.3-.4.9-.5.7-.1 1.6-.3 1.7-.1s.2.6.1 1.2z"/><path class="st46" d="M249.6 27.9c-.1-.6-.2-1.1-.3-1.6-.4-1.4-1.2-2.6-2.5-3.3-1.6-.9-3.9-1.1-5.6-.6-1 .3-1.4.8-1.9.8-.4 0-.9-.3-1.4-.5-4-1.5-3.4 2.5-2.9 3.6.2.5 1.1.8 1.2 1 .1.2.1 1.2.2 1.6.1.4.5.6.5.6v-1.4c.1-.5.2-.9.6-1.2.4-.3 1-.3 1.5-.4.5-.1 2.8.4 3 .5.8.6.9 2.1 1.2 3 .1.4.2.7.4.7.1-1.2.5-1.2 1.3-.8.4.2.6 1 .6 1.6 0 .8-.4 1.6-1.2 1.8-.3.1.6 1.7 1 2.1l.4.4c.1.1.3.1.5.2s.4.1.6.2c.3.1.5.1.8.1.4-.1.7-.6.8-1 .3-.7.7-1.3.9-2 .3-1.6.5-3.6.3-5.4z"/><path class="st47" d="M322.3 87.8h-51.1l6.1-4.5V61.1c0-1.8 1.5-3.3 3.3-3.3h41.6c1.8 0 3.3 1.5 3.3 3.3v23.3c.2 1.9-1.3 3.4-3.2 3.4z"/><path class="st48" d="M297.9 62.1h23.4v2.2h-23.4zm0 3.3h23.4v2.2h-23.4zm0 3.4h23.4V71h-23.4zm0 3.2h23.4v2.2h-23.4zm0 3.9h16.3v2.2h-16.3z"/><path d="M292.7 79.3h-7.9c-1.9 0-3.4-1.5-3.4-3.4V65.5c0-1.9 1.5-3.4 3.4-3.4h7.9c1.9 0 3.4 1.5 3.4 3.4v10.4c-.1 1.8-1.6 3.4-3.4 3.4z" fill="#a9adff"/><path class="st48" d="M281.4 81.4h14.7v1.8h-14.7z"/><path class="st11" d="M290.2 73.2h-5.3c-.3 0-.6-.2-.6-.5l-1-3.8c-.1-.4.2-.8.6-.8h7.4c.4 0 .8.4.6.8l-1 3.8c-.2.3-.4.5-.7.5z"/><path class="st11" d="M291.1 74.1h-6.4c-.1 0-.1-.1-.1-.1 0-.1.1-.1.1-.1h6.3l2.2-7.8c0-.1.1-.1.1-.1h1.4c.1 0 .1.1.1.1 0 .1-.1.1-.1.1h-1.3l-2.2 7.8c0 .1 0 .1-.1.1zm-5.4 1c0 .4-.3.8-.8.8-.4 0-.8-.3-.8-.8 0-.4.3-.8.8-.8.4.1.8.4.8.8z"/><circle class="st11" cx="290.5" cy="75.1" r=".8"/><path class="st47" d="M132.5 56.9h65.1l-7.8-5.8V15.5c0-2.3-1.9-4.3-4.3-4.3h-53.1c-2.3 0-4.3 1.9-4.3 4.3v37.1c.2 2.4 2.1 4.3 4.4 4.3z"/><path class="st11" d="M163.678 20.682h-29.8v-2.8h29.8zm0 4.306h-29.8v-2.8h29.8zm0 4.206h-29.8v-2.8h29.8zm0 4.187h-29.8v-2.8h29.8zm0 4.089h-29.8v-2.8h29.8zm0 7.56h-29.8v-2.8h29.8zm21.026 4.467h-50.8v-2.8h50.8z" opacity=".45"/><path class="st36" d="M170.3 39.7h10.1c2.4 0 4.3-1.9 4.3-4.3V22.2c0-2.4-1.9-4.3-4.3-4.3h-10.1c-2.4 0-4.3 1.9-4.3 4.3v13.2c0 2.4 1.9 4.3 4.3 4.3z"/><path class="st48" d="M184.694 44.83h-18.7v-2.3h18.7z"/><path class="st11" d="M173.5 32h6.8c.4 0 .7-.3.8-.6l1.3-4.8c.1-.5-.3-1.1-.8-1.1h-9.4c-.6 0-1 .5-.8 1.1l1.3 4.8c.1.4.4.6.8.6z"/><path class="st11" d="M172.3 33.1h8.2c.1 0 .2-.1.2-.2s-.1-.2-.2-.2h-8l-2.8-9.9c0-.1-.1-.1-.2-.1h-1.8c-.1 0-.2.1-.2.2s.1.2.2.2h1.7l2.8 9.9c0 .1 0 .1.1.1zm6.9 1.4c0 .5.4 1 1 1 .5 0 1-.4 1-1 0-.5-.4-1-1-1-.5 0-1 .4-1 1zm-7.2 0c0 .5.4 1 1 1 .5 0 1-.4 1-1 0-.5-.4-1-1-1-.5 0-1 .4-1 1z"/><ellipse class="st0" cx="283.1" cy="241.4" rx="28.7" ry="3"/><path class="st5" d="M267.7 237.1c-.2.5-1.4 1.6-3 2.3-1.6.7-5 1-3.1 1.7 1.9.6 4.1.2 5.2.1 1.1-.2 2.2-.2 3.5-.2 1.7 0 1.7-.1 1.5-2.1-.3-2.8-3.3-3.3-4.1-1.8zm31.3-1c-.1.5.7 2.2-.7 3.4-1.4 1.2-4.5 2.5-2.4 2.5s4.1-.4 5.1-1c1.1-.5.2-1.3 1.5-1.7 1.7-.5 1.4-1.8.5-2.6-1.2-2.6-3.7-2.3-4-.6z"/><path class="st7" d="M292.4 181.5s4.1-12.1-7.6-22.1c0 0-6.3 2.5-11.3 2.8-4 .2-6-.1-6-.1s-.3 10.8-.3 16.6l25.2 2.8zm-26.1 20.1c-.2-5.4 5.6-4.7 7.8-.7 4.5 8.4-1.7 27.6-2.5 36.8-.8.3-2.3.6-3.1.2-.6-.3-.9-1-.9-1 .2-11.2-1-29.5-1.3-35.3z"/><path class="st7" d="M273.9 202.4c-.7 2.2-8.2 4.5-7.6-3.5.3-3.6 1-23.3 1.1-25.2.1-1.9.5-4.7 1.4-5 4.6-1.7 12.7 4.3 11.5 11.4-.7 4.8-5 17.7-6.4 22.3zm11.8 3.1c-1.8-5.1 4.1-6 7.4-2.9 7.8 7.4 8.1 24.7 10 33.7-1.1.7-2.8 1-3.4 1-.6 0-.9-.5-.9-.5-3.1-10.7-11.1-25.8-13.1-31.3z"/><path class="st7" d="M293.5 203.8c.2 2.3-6 7.1-8.5-.6-1.1-3.4-5.8-23.6-6.3-25.4-.6-1.8-.4-5.6.3-6.2 3.6-3.3 11.7-.4 13.3 6.7 1 4.7.7 20.8 1.2 25.5z"/><path class="st50" d="M261.3 115.6c.2-.2.4-.4.6-.7 1.5-1.9 1.7-3.6 3.1-5.8.2-.3.5-1.2 1-1.9.5-.8 1.9-1.6 2.2-1.8.6-.3.1 1.1.1 1.1s.5-.8 1.1-.7c.2 0 .2 1.2.2 1.4 0 1.7-.4 3.3-1.1 4.8-.2.3-.4.7-.4 1.1.5 0 .9-.3 1.3-.6s.9-.6 1.4-.4l-.3.6c-.6 1.1-1.2 2.3-2.4 2.8-.7.3-1.4.4-2.1.7-1.2.6-1.8 2.1-3 2.7"/><path d="M268.3 116l-3.5-1.5c-.3-.1-.5-.5-.3-.8l3.1-7.5c.1-.3.5-.5.8-.3l3.5 1.5c.3.1.5.5.3.8l-3.1 7.5c-.1.3-.5.5-.8.3z" fill="#5e5dbb"/><path fill="#b4b4db" d="M268.105 106.292l3.967 1.66-3.242 7.75-3.967-1.66z"/><path class="st43" d="M272.1 123.3s-3 .2-5.7 1c-4.1 1.2-5.5 3.1-6.9 3.9 2.7-3.5 5.8-10.8 5.8-10.8s-3.7-3-4.1-2.3c-.4.7-15.8 18.7-15.4 21.7.2 1.2 2 2.4 3.6 2.3 4.4-.1 9.4-1.7 14.8-3.5 2.3-.8 3.1.9 3.1.9"/><path class="st53" d="M259.5 128.1s-1.9 3.9-2.5 4.2c-.6.3 1.4-.8 2.5-1.9 1.1-1.1 2.6-4.1 2.6-4.1-.6.2-2.6 1.8-2.6 1.8z"/><path class="st50" d="M265.6 109.2c.2.1.2.4.3.6.1.9.3 1.8-.1 2.6-.2.5-.6 1-1 1.3-.5.4-1 .8-1.6 1.1"/><path d="M272.2 102.7c-1 .3-1.6 1.6-1.9 2.5-.4 1.1-.6 2.3-.8 3.4-.1.8-.2 1.7.2 2.4.2.4.4.7.7 1 .1.2.3.4.5.5.2.1.4.2.7.1.3-.1.4-.5.5-.8.6-2.2 1.2-4.3 2.5-6.2" fill="#170d54"/><path class="st50" d="M271 109.5c0-.7-.7-1.1-1.4-.4-.5.6-.7 1.7-.7 2.5 0 1 .7 1.2 1.4 1.3"/><path class="st43" d="M264.2 126.8c1.3-1.5 5.3-3.9 10.7-3.7 3.7.1 13.8.7 15 3.2.6 1.3 1.2 14.3.4 18.8-.6 3.4-2.3 11.7-2.3 13.7s1.1 2.9.6 3.5c-1.1 1.3-8.9 1.9-12.5 1.9-3.2 0-8.7-.9-9-1.9-.4-1.5.6-1.5.8-3.1.1-1.6.5-12.1 0-13.8-1.1-3.1-1.6-8.1-2.4-10.4-.9-1.8-2.6-6.7-1.3-8.2z"/><path class="st53" d="M287.3 137.4c.4.8 3 5 3 5l.1.5c-.1.9-.2 1.6-.3 2.2-.6 3.4-2.3 11.7-2.3 13.7s1 2.8.6 3.5c-.9 1.2-15.5 3.9-14.8.6.1-.3 12.2-9.6 12.3-9.9.6-2.7 1.1-4.6 1.3-6.5.7-4.8-.3-10 .1-9.1z"/><path class="st55" d="M271.9 118.5s0 4.2-.2 4.4c-.2.2-1 .6-1 .6s.6 3.7 1.5 3.4c.9-.3 7-3.3 7-3.3s-.9-.4-.9-.7c0-.3.8-7 .8-7"/><path class="st55" d="M276.2 103.1c-.9.2-3.2-.2-3.9.7-.6 1-1.2 3.3-1.5 3.9-.5 1.3-.8 2.7-1.1 4-.5 1.7-1.2 4.9.5 6.3.5.4.7.6 1.3.7.8.1 1.6.3 2.4.5 1.2.2 2.6.5 3.8.1 1.6-.5 2.5-2.8 3-4.3l2.4-8.8-6.9-3.1z"/><path class="st56" d="M271.8 128.5s-.4 16.5-1 26.5l2.4 3.3 1.7-4.2s.7-12.1-1.6-25.6h-1.5z"/><path class="st56" d="M271.2 127.1l.1.2c.1.4.3.8.5 1.2l1.5.1s1-.5 1.1-1.1c.1-.6-1.7-1.5-1.7-1.5l-.2.1c-.5.2-.9.5-1.3 1z"/><path class="st11" d="M278.5 121.8s1 .6 1.7 1.7c-.8 1.8-2.5 4.9-4.4 6.3-.9-2.4-3-3.8-3-3.8s5.1-.9 5.7-4.2zm-5.7 4.2s-1.9.7-3 2.8c0 0-.4-2.8.4-5.2 0 0 1.2-1.6 1.6-1.6-.1 2 1 4 1 4z"/><path class="st50" d="M273 162.9c-1.8.3-2.5 1-3.6 2-.1.1-.2.2-.2.3 0 .1.2.2.3.2.9.1 1-.4 1.8-.7.5-.2 1.1-.5 1.6-.7"/><path d="M266.7 149.4l6.5 21c.2.6-.1 1-.7 1.1l-13.6 1.2c-.5 0-1-.4-1.1-.9l-7-20.6c-.2-.6.6-1.4 1.2-1.4l13.6-1.2c.5-.1 1 .3 1.1.8z" fill="#e9e6ff"/><path d="M266.3 150l6.4 20.6c.2.6-.1 1-.7 1.1l-13.6 1.2c-.5 0-1-.4-1.1-.9l-6.4-20.6c-.2-.6.1-1 .7-1.1l13.6-1.2c.4 0 .9.4 1.1.9z" fill="#e0d9ff"/><path class="st11" d="M255.4 149.3l.5 1.8 6.3-.6-.5-1.8z"/><path class="st11" d="M256.6 147.6c.1.4.6 2 .6 2l3-.3-.6-2c-.3-.9-1.2-1.5-2-1.5-.8.2-1.3.9-1 1.8zm.7 0c-.2-.5.1-.9.6-1 .5 0 1 .3 1.1.8.2.5-.1.9-.6 1-.5 0-1-.3-1.1-.8z"/><path class="st55" d="M278.2 161.4c-1.4.3-5.2 1.4-5.6 1.6-.5.2-2.1 1.4-2.4 1.8-1.4 1.4-.7 2.1-1.3 4.1v.3c0 .2.3.4.6.2.1.3.6.1.8-.2 0 .2.3.3.7.1.2-.1.2-.1.7-.6.4-.3.8-.6 1.6-.9.5-.2 1.1-.4 1.5-.7.6-.4 1.6-.5 2.1-2.1.1-.4.5-.6.8-.8.8-.5 1.6-1 2.3-1.5"/><path class="st43" d="M287 134.6c.6 2.2 3.1 17.2 3.1 17.2L275.9 162l1.2 3.1s17-5.7 18.4-9.6c1.3-3.9 1.3-21.5-3.4-27.7-1.5-2-4.5-3-4.5-3"/><path class="st50" d="M272.4 166.8c-.4.4-.8.7-1.1 1.1-.3.4-.6.8-1 1.1.2-.5.5-.9.9-1.3.2-.2.4-.4.6-.5.1-.2.4-.3.6-.4zm-.8-.9c-.3.2-.4.5-.6.7-.2.3-.4.5-.5.8-.3.6-.6 1.2-1 1.7.2-.6.5-1.2.8-1.8.2-.3.4-.6.6-.8.2-.2.4-.5.7-.6zm-.9-.8c-.2.3-.4.5-.6.8-.2.2-.3.5-.4.8l-.7 1.7c0-.6.2-1.3.5-1.8.1-.3.3-.6.5-.8l.7-.7z"/><path class="st56" d="M281.6 113.4c-.6-.3-1-.7-1.3-.1-.2.3-.3.7-.6.8-.3.1-.7-.2-.7-.5-.1-.3 0-.7.1-1 .2-.7.4-1.4.7-2.2.2-.7.4-1.5.2-2.2-.1-.3-.4-.6-.7-.9-.9-.8-2.1-1.2-3.3-1.4-1.2-.2-2.4-.4-3.6-.7-.5-.2-1-.4-1.4-.7-.6-.5-1-1.4-1-2.2 0-.8.3-1.6.7-2.3.1.3.2.6.4.8.1-.4.4-.7.7-1 .3 1.9 8.5 1.3 10.4 2.1 1.3.6 2.4 1 2.4 3.1 0 .1.2.2.3.3 1.2 1.1 1.7 2.4 1.8 4.3.2 2.4-1.2 4.9-2.6 6.9-.3.5-.5.8-1 1.2-.5.4-1.3.5-1.9.4-.6-.1-1.7-.1-1.8-.7 0-.4.9-1.2 1.2-1.5"/><path class="st55" d="M279.4 115.7s-.1.4.2.7c.2.3.7.2 1 .1.9-.3 1.5-1.1 1.6-2 .2-1-.4-2.1-1.3-1.8-.5.2-.9.8-.9 1.4"/><path class="st50" d="M271.9 118.9l2.6.5s-.9 1-2.6 1"/><g class="st59"><path class="st60" d="M66.8 74l3.5 1.8-1.8-4.3"/><path class="st60" d="M55.9 68.6c0 3.9 3.3 7 7.4 7s7.4-3.1 7.4-7-3.3-7-7.4-7-7.4 3.1-7.4 7z"/><path class="st61" d="M61.5 66.3v5c0 .4.4.7.8.5l4.3-2.5c.3-.2.3-.7 0-.9l-4.3-2.5c-.4-.3-.8 0-.8.4z"/></g><g class="st59"><path class="st60" d="M308.9 127.1l-3.5 1.8 1.8-4.3"/><path class="st60" d="M319.8 121.7c0 3.9-3.3 7-7.4 7-4.1 0-7.4-3.1-7.4-7s3.3-7 7.4-7c4.1 0 7.4 3.1 7.4 7z"/><path class="st61" d="M311.1 125c1.6 0 3.2 0 4.7-.1.5 0 .9-.7.3-1 .2-.1.5-.2.6-.5.1-.2 0-.6-.3-.6.6.1.8-.7.3-1 .2-.2.4-.4.5-.7 0-.3-.1-.6-.3-.7-.2-.1-.4-.1-.6-.1h-2c.2-1 .2-2.1-.3-2.9-.2-.3-.6-.6-.9-.4-.3.2-.2.7-.2 1 .1 1.2-.7 2.5-1.8 3.1-.1-.1 0 2.6 0 3.9zm-3-4h2.4v4h-2.4z"/></g><g class="st59"><path class="st60" d="M197 66.5l2.5-2.7-3.5.7"/><path class="st60" d="M187.5 67.2c0 2.8 2.4 5.1 5.4 5.1s5.4-2.3 5.4-5.1-2.4-5.1-5.4-5.1-5.4 2.3-5.4 5.1z"/><path class="st61" d="M191.8 69.6h3.1c.3 0 .6-.5.2-.7.2-.1.3-.2.4-.3.1-.2 0-.4-.2-.5.4.1.5-.5.2-.7.2-.1.3-.3.3-.5s0-.4-.2-.5c-.1-.1-.3-.1-.4-.1h-1.3c.1-.7.2-1.5-.2-2.1-.1-.2-.4-.4-.6-.3-.2.1-.2.5-.1.7 0 .9-.4 1.8-1.2 2.2v2.8zm-2-2.9h1.6v2.9h-1.6z"/></g><g class="st59"><path class="st60" d="M221.9 29.5c1.1-1.4 1.7-3.1 1.7-4.9 0-4.4-3.5-7.9-7.9-7.9s-7.9 3.5-7.9 7.9 3.5 7.9 7.9 7.9c1.6 0 3.1-.5 4.4-1.3l3.1 1.6-1.3-3.3z"/><path class="st11" d="M212.4 22.4c.8-.7 2-.7 2.7 0l.5.5.5-.5c.8-.8 2-.7 2.7 0 .7.8.7 2 0 2.7l-1.9 1.9c-.3.3-.7.5-1.1.5-.6.1-1.2-.1-1.7-.6l-1.9-1.9c-.6-.6-.6-1.8.2-2.6z"/></g></svg>