<svg xmlns="http://www.w3.org/2000/svg" viewBox="0 0 21 21"><defs><style>.cls-2{fill:#7fb335}.cls-3{fill:#73a62a}</style></defs><g id="Calque_2" data-name="Calque 2"><g id="Calque_1-2" data-name="Calque 1"><path d="M11.09 18.13a8.19 8.19 0 0 1-5.82-2.41 8.23 8.23 0 0 1 0-11.62C9.8-.43 19.9 0 20.33 0a.69.69 0 0 1 .67.67c0 .43.44 10.53-4.08 15.05a8.17 8.17 0 0 1-5.83 2.41z" fill="#88cc2a"/><path class="cls-2" d="M11.09 18.13a8.17 8.17 0 0 0 5.81-2.41C21.42 11.2 21 1.1 21 .67a.72.72 0 0 0-.2-.45L5.27 15.72a8.19 8.19 0 0 0 5.82 2.41z"/><path class="cls-2" d="M12.06 9.63a.69.69 0 0 1-.69-.69V4.09a.69.69 0 0 1 .69-.68.68.68 0 0 1 .68.68v4.85a.68.68 0 0 1-.68.69z"/><path class="cls-3" d="M16.9 9.63h-4.84a.69.69 0 0 1 0-1.38h4.84a.69.69 0 0 1 0 1.38z"/><path class="cls-2" d="M7.7 14a.69.69 0 0 1-.7-.7V8.46a.69.69 0 1 1 1.37 0v4.84a.69.69 0 0 1-.67.7z"/><path class="cls-3" d="M12.54 14H7.7a.69.69 0 0 1-.7-.7.68.68 0 0 1 .69-.68h4.84a.68.68 0 0 1 .69.68.69.69 0 0 1-.68.7z"/><path class="cls-2" d="M.69 21a.7.7 0 0 1-.49-.2.68.68 0 0 1 0-1L15.93 4.1a.68.68 0 0 1 1 0 .67.67 0 0 1 0 1L1.17 20.8a.69.69 0 0 1-.48.2z"/><path class="cls-3" d="M.69 21a.69.69 0 0 0 .48-.2L16.9 5.06a.67.67 0 0 0 0-1L.2 20.8a.7.7 0 0 0 .49.2z"/></g></g></svg>