<svg xmlns="http://www.w3.org/2000/svg" viewBox="0 0 663.13 447.86"><g data-name="Calque 2"><g opacity=".4" data-name="Calque 1"><path fill="#d5e6db" d="M535.59 377.15l27.84-29.99 99.7 100.7-127.54-70.71z"/><path fill="#6f9aac" d="M661.49 446.6l-125.9-69.45 28.59 4.71 97.31 64.74z"/><path d="M663.13 447.86l-98.95-66-2 40.26 100.95 25.74zm-99.7-100.7l-2.17-36.2 101.87 136.9-99.7-100.7z" fill="#fff"/><path d="M.93.36c14.15 36.5 53.42 77.15 96.73 71.7 17.47-2.2 33.24-12.27 40-29.4 8.58-21.65-11.62-34-30.52-21.82-31 20.07-40.14 70.91-28.47 102.38 6.76 18.2 22 31.85 42.22 31.54 32.32-.49 43.48-25.8 60.47-48.66 21.14-28.42 55.56-91.49 98.94-81.75 30.46 6.84 44.28 47.12 43.44 74.62-1 32.35-16.77 64.12-39.06 87.12-33.12 34.18-84 44.48-103 93.31-8.21 21.06-1.36 39.92 18.73 50.64 18.29 9.75 36.4 2.24 54.51-3.36a628.73 628.73 0 0 0 71.83-27.29c22.39-10.07 37.82-34.18 30.14-59.28-2-6.51-8-12.35-14.76-11.83-5.12.4-9.44 4.29-11.8 8.86-17.13 33.27 4.63 59.8 36.47 70.45 28.66 9.58 62.17 9.37 88-7.69 8.33-5.5 20.49-14.87 30.06-5.47 7 6.9 3.71 19.56-.95 26.74-10.49 16.12-31.89 38.4-2.45 50.2 7.48 3 15.74 3.31 23.8 3.3 9.54 0 20.08-.48 29.34 2.09" fill="none" stroke="#fff" stroke-miterlimit="10" stroke-width="2" stroke-dasharray="5"/></g></g></svg>