<svg xmlns="http://www.w3.org/2000/svg" viewBox="0 0 22.25 22.25"><defs><style>.cls-1{fill:#8e8e8e}</style></defs><g id="Calque_2" data-name="Calque 2"><g id="Calque_1-2" data-name="Calque 1"><path class="cls-1" d="M11.12 22.25a11.13 11.13 0 1 1 11.13-11.13 11.14 11.14 0 0 1-11.13 11.13zm0-20.83a9.71 9.71 0 1 0 9.71 9.7 9.71 9.71 0 0 0-9.71-9.7z"/><path class="cls-1" d="M11.12 16.57a5.45 5.45 0 1 1 5.45-5.45 5.45 5.45 0 0 1-5.45 5.45zm0-9.47a4 4 0 1 0 4 4 4 4 0 0 0-4-4z"/><path class="cls-1" d="M13 10.65a1.41 1.41 0 0 1-1.4-1.42 1.68 1.68 0 0 1 .06-.4 1.9 1.9 0 0 0-.54-.07 2.37 2.37 0 1 0 2.37 2.36 1.88 1.88 0 0 0-.07-.53 1.68 1.68 0 0 1-.42.06z"/></g></g></svg>