<svg xmlns="http://www.w3.org/2000/svg" viewBox="0 0 39.57 38"><g data-name="Calque 2"><path d="M16.35 0v16.35a34.76 34.76 0 0 1-1 8.32 21.05 21.05 0 0 1-3 6.85 15.2 15.2 0 0 1-5 4.71A14.21 14.21 0 0 1 .15 38v-7.37a6.52 6.52 0 0 0 4.12-1.25 9.36 9.36 0 0 0 2.65-3.31 15.16 15.16 0 0 0 1.4-4.64 36.73 36.73 0 0 0 .37-5.08H0V0zm23.22 0v16.35a34.76 34.76 0 0 1-1 8.32 21.26 21.26 0 0 1-2.94 6.85 15.33 15.33 0 0 1-5 4.71A14.19 14.19 0 0 1 23.37 38v-7.37a6.5 6.5 0 0 0 4.12-1.25 9.36 9.36 0 0 0 2.65-3.31 15.16 15.16 0 0 0 1.4-4.64 36.73 36.73 0 0 0 .37-5.08h-8.69V0z" fill="#dfc6f4" data-name="Calque 1"/></g></svg>