<svg xmlns="http://www.w3.org/2000/svg" viewBox="0 0 39.57 38"><g data-name="Calque 2"><path d="M23.22 38V21.65a34.76 34.76 0 0 1 1-8.32 21.26 21.26 0 0 1 2.94-6.85 15.33 15.33 0 0 1 5-4.71A14.16 14.16 0 0 1 39.42 0v7.37a6.5 6.5 0 0 0-4.12 1.25 9.36 9.36 0 0 0-2.65 3.31 14.89 14.89 0 0 0-1.4 4.64 35.24 35.24 0 0 0-.37 5.08h8.69V38zM0 38V21.65a34.76 34.76 0 0 1 1-8.32 21.26 21.26 0 0 1 2.9-6.85 15.33 15.33 0 0 1 5-4.71A14.16 14.16 0 0 1 16.2 0v7.37a6.5 6.5 0 0 0-4.12 1.25 9.25 9.25 0 0 0-2.65 3.31A14.89 14.89 0 0 0 8 16.57a35.24 35.24 0 0 0-.37 5.08h8.69V38z" fill="#dfc6f4" data-name="Calque 1"/></g></svg>