<!-- Generator: Adobe Illustrator 23.0.3, SVG Export Plug-In  -->
<svg version="1.1" xmlns="http://www.w3.org/2000/svg" xmlns:xlink="http://www.w3.org/1999/xlink" x="0px" y="0px" viewBox="0 0 342.7 264.4" style="enable-background:new 0 0 342.7 264.4;" xml:space="preserve">
<style type="text/css">
	.st0{fill:#EAE6FF;}
	.st1{fill:#CDCCFF;}
	.st2{fill:#D7D7FF;}
	.st3{fill:#BDC6F9;}
	.st4{fill:#8784EF;}
	.st5{fill:#9AA3F4;}
	.st6{fill:none;stroke:#9AA3F4;stroke-width:1.5;stroke-miterlimit:10;}
	.st7{fill:#4A41A3;}
	.st8{fill:#5851BC;}
	.st9{fill:#C4C3FC;}
	.st10{opacity:0.35;}
	.st11{fill:#FFFFFF;}
	.st12{opacity:0.25;}
	.st13{fill:#FCA70C;}
	.st14{fill:#B1AFFD;}
	.st15{opacity:0.15;}
	.st16{opacity:0.26;}
	.st17{opacity:0.62;}
	.st18{fill:#D5DBDA;}
	.st19{fill:#EFEFEF;}
	.st20{fill:#7A7AE5;}
	.st21{fill:#CFCFFF;}
	.st22{opacity:0.55;fill:#C4C3FC;}
	.st23{fill:#A4A4F7;}
	.st24{opacity:0.35;fill:#5851BC;}
	.st25{fill:#A2A7F4;}
	.st26{fill:#9090F4;}
	.st27{opacity:0.45;}
	.st28{fill:#E2DEFF;}
	.st29{fill:#F9C110;}
	.st30{fill:#5045AF;}
	.st31{fill:#FFB9B0;}
	.st32{fill:#7762EF;}
	.st33{fill:#5146AF;}
	.st34{fill:#F2F2F2;}
	.st35{fill:#8484EF;}
	.st36{fill:#C4C4F7;}
	.st37{fill:#BBBBF2;}
	.st38{fill:none;stroke:#C4C4F7;stroke-width:0.75;stroke-linecap:round;stroke-linejoin:round;stroke-miterlimit:10;}
	.st39{fill:#ED9C80;}
	.st40{fill:#38287C;}
	.st41{fill:#453087;}
	.st42{opacity:0.25;fill:#CE4A30;}
	.st43{fill:#7A74D1;}
	.st44{fill:#CE4A30;}
	.st45{opacity:0.45;fill:none;stroke:#A4A4F7;stroke-miterlimit:10;}
	.st46{fill:#483A99;}
	.st47{fill:#D5D2FF;}
	.st48{opacity:0.45;fill:#FFFFFF;}
	.st49{fill:#A9ADFF;}
	.st50{fill:#F2A181;}
	.st51{fill:#5E5DBB;}
	.st52{fill:#B4B4DB;}
	.st53{fill:#6960C4;}
	.st54{fill:#170D54;}
	.st55{fill:#FFBE9D;}
	.st56{fill:#3B2E7A;}
	.st57{fill:#E9E6FF;}
	.st58{fill:#E0D9FF;}
	.st59{opacity:0.3;}
	.st60{fill:#3939D3;}
	.st61{fill:#FEFEFE;}
</style>
<defs>
</defs>
<g>
	<g>
		<g>
			<path class="st0" d="M339.9,158.2c-5.9-16.5-15.3-21.6-24.1-32.2c-10.8-13-18.2-22.4-15.3-39C305,59.8,307-8.1,234.9,0.8
				c-25.8,3.2-46.2,23-61.1,42.7c-12.6,16.8-35.4,18.3-53.7,22.2C97.7,70.5,74.8,77.8,54,88.5C11.2,110.4-1.6,142,0.2,182.4
				c0.5,12.2,2.3,31.4,22.9,53.9c27.8,30.3,68.2,34.4,116.9,20.5c11.1-3.2,21.7-8.2,32.6-12c11.4-3.9,23.2-6.5,35.2-7.6
				c27.9-2.7,56.9,2.2,83.7-6.2c14.2-4.4,27.2-12.5,37.4-23.2C341.6,194.3,346.2,175.7,339.9,158.2z"/>
		</g>
		<g>
			<path class="st1" d="M23,220.5c0,4,50.6,7.2,113,7.2c62.4,0,113-3.2,113-7.2c0-4-50.6-7.2-113-7.2C73.6,213.3,23,216.5,23,220.5z
				"/>
		</g>
		<path class="st1" d="M92,229.4c0,2.5-12.8,4.5-28.7,4.5c-15.8,0-28.7-2-28.7-4.5c0-2.5,12.8-4.5,28.7-4.5
			C79.1,224.9,92,226.9,92,229.4z"/>
		<ellipse class="st1" cx="282.8" cy="230.3" rx="48.1" ry="3.6"/>
		<g>
			<polygon class="st2" points="34.3,170.9 32.4,196.8 57.1,196.8 55.4,170.8 			"/>
			<g>
				<g>
					<path class="st0" d="M39.2,173.2L39.2,173.2c0-0.4,0.4-0.7,0.8-0.7c0,0,0,0,0,0c0.5,0,0.8,0.3,0.8,0.7c0,0.4-0.4,0.7-0.8,0.7
						c0,0,0,0,0,0C39.6,173.9,39.2,173.5,39.2,173.2z M40,172.7c-0.3,0-0.6,0.2-0.6,0.4c0,0.2,0.3,0.4,0.6,0.4c0,0,0,0,0,0
						c0.3,0,0.6-0.2,0.6-0.4C40.6,172.9,40.4,172.7,40,172.7L40,172.7z M39.3,173.2L39.3,173.2L39.3,173.2z"/>
				</g>
				<g>
					<path class="st0" d="M47.6,173.1l0.1,0L47.6,173.1c0-0.2,0.1-0.3,0.2-0.5c0.2-0.2,0.4-0.3,0.6-0.3c0,0,0,0,0,0
						c0.5,0,0.8,0.3,0.8,0.7c0,0.2-0.1,0.4-0.3,0.5c-0.2,0.1-0.4,0.2-0.6,0.2c0,0,0,0,0,0C48,173.8,47.6,173.5,47.6,173.1z
						 M48.5,172.7c-0.2,0-0.3,0.1-0.5,0.2c-0.1,0.1-0.1,0.1-0.1,0.3l0,0c0,0.2,0.3,0.4,0.6,0.4h0c0.2,0,0.3-0.1,0.4-0.1
						c0.1-0.1,0.2-0.2,0.2-0.3C49,172.9,48.8,172.7,48.5,172.7C48.5,172.7,48.5,172.7,48.5,172.7z"/>
				</g>
				<path class="st0" d="M44,178.4c0.1,0,0.2,0,0.2,0c1.5-0.1,2.7-0.5,3.5-1.5c1.3-1.5,1-3.7,1-3.8c0-0.1-0.2-0.3-0.3-0.2
					c-0.1,0-0.3,0.2-0.2,0.3c0,0,0.3,2-0.9,3.4c-0.7,0.8-1.7,1.2-3.1,1.3c-1.3,0-2.3-0.3-3-1c-1.2-1.3-0.9-3.5-0.9-3.6
					c0-0.1-0.1-0.3-0.2-0.3c-0.1,0-0.3,0.1-0.3,0.2c0,0.1-0.3,2.5,1,4C41.5,177.9,42.6,178.4,44,178.4z"/>
			</g>
			<polygon class="st3" points="45.9,178.1 43,197.4 69.8,197.3 67.1,178.1 			"/>
			<g>
				<path class="st4" d="M36,210.6c-3,0-5.4,2.4-5.4,5.4s2.4,5.4,5.4,5.4c3,0,5.4-2.4,5.4-5.4S39,210.6,36,210.6z M36,218.6
					c-1.4,0-2.5-1.1-2.5-2.5c0-1.4,1.1-2.5,2.5-2.5c1.4,0,2.5,1.1,2.5,2.5C38.5,217.5,37.4,218.6,36,218.6z"/>
				<path class="st5" d="M35.1,210.6c-3,0-5.4,2.4-5.4,5.4s2.4,5.4,5.4,5.4c3,0,5.4-2.4,5.4-5.4S38.1,210.6,35.1,210.6z M35.1,218.6
					c-1.4,0-2.5-1.1-2.5-2.5c0-1.4,1.1-2.5,2.5-2.5c1.4,0,2.5,1.1,2.5,2.5C37.6,217.5,36.5,218.6,35.1,218.6z"/>
				<path class="st4" d="M66.7,210.6c-3,0-5.4,2.4-5.4,5.4s2.4,5.4,5.4,5.4c3,0,5.4-2.4,5.4-5.4S69.7,210.6,66.7,210.6z M66.7,218.6
					c-1.4,0-2.5-1.1-2.5-2.5c0-1.4,1.1-2.5,2.5-2.5c1.4,0,2.5,1.1,2.5,2.5C69.2,217.5,68.1,218.6,66.7,218.6z"/>
				<path class="st5" d="M65.8,210.6c-3,0-5.4,2.4-5.4,5.4s2.4,5.4,5.4,5.4c3,0,5.4-2.4,5.4-5.4S68.8,210.6,65.8,210.6z M65.8,218.6
					c-1.4,0-2.5-1.1-2.5-2.5c0-1.4,1.1-2.5,2.5-2.5c1.4,0,2.5,1.1,2.5,2.5C68.3,217.5,67.2,218.6,65.8,218.6z"/>
				<g>
					<path class="st6" d="M107.7,149.6H91.4c-1.7,0-3.3,0.9-4.2,2.3l-9.9,15.9"/>
					<path class="st6" d="M33.4,196.9h36.5c1.9,0,3.6-1.4,3.9-3.3l3.8-23.6c0.4-2.4-1.5-4.6-3.9-4.6H29.6c-2.4,0-4.3,2.2-3.9,4.6
						l3.8,23.6C29.8,195.5,31.5,196.9,33.4,196.9z"/>
					<line class="st6" x1="51.7" y1="165.5" x2="51.7" y2="196.9"/>
					<line class="st6" x1="75.8" y1="181.2" x2="27.5" y2="181.2"/>
					<line class="st6" x1="66.1" y1="165.5" x2="63" y2="196.9"/>
					<line class="st6" x1="38" y1="165.5" x2="40.8" y2="196.9"/>
					<path class="st6" d="M73,195.5l5.9,8.8c1.6,2.4-0.1,5.6-3,5.6H27.5"/>
				</g>
			</g>
		</g>
		<g>
			<rect x="150" y="199.7" class="st7" width="50.1" height="13.5"/>
			<path class="st8" d="M252.8,204.1H97.9c-5.2,0-9.4-4.2-9.4-9.4V88.6c0-5.2,4.2-9.4,9.4-9.4h154.9c5.2,0,9.4,4.2,9.4,9.4v106.1
				C262.2,199.9,258,204.1,252.8,204.1z"/>
			<path class="st9" d="M251,192.1H99.1c-3.2,0-5.8-2.6-5.8-5.8V89.5c0-3.2,2.6-5.8,5.8-5.8H251c3.2,0,5.8,2.6,5.8,5.8v96.8
				C256.8,189.5,254.2,192.1,251,192.1z"/>
			<path class="st8" d="M221.6,220.5h-93.1v-1.2c0-4,3.3-7.3,7.3-7.3h78.5c4,0,7.3,3.3,7.3,7.3V220.5z"/>
			<g class="st10">
				<g>
					<g>
						<path class="st11" d="M241.7,168.1H137.4c-2.8,0-5-2.2-5-5V96.2c0-2.8,2.2-5,5-5h104.3c2.8,0,5,2.2,5,5V163
							C246.7,165.8,244.5,168.1,241.7,168.1z"/>
					</g>
				</g>
			</g>
			<g class="st12">
				<g>
					<g>
						<g>
							<g>
								<rect x="143.3" y="147.3" class="st13" width="5" height="12.5"/>
							</g>
						</g>
					</g>
					<g>
						<g>
							<g>
								<rect x="154.5" y="136.4" class="st14" width="5" height="23.5"/>
							</g>
						</g>
					</g>
					<g>
						<g>
							<g>
								<rect x="165.7" y="138.8" class="st13" width="5" height="21.1"/>
							</g>
						</g>
					</g>
					<g>
						<g>
							<g>
								<rect x="176.9" y="126.9" class="st14" width="5" height="32.9"/>
							</g>
						</g>
					</g>
					<g class="st15">
						<g>
							<g>
								<rect x="154.5" y="136.4" class="st16" width="2.3" height="23.5"/>
							</g>
						</g>
					</g>
					<g class="st15">
						<g>
							<g>
								<rect x="143.3" y="147.3" class="st16" width="2.3" height="12.5"/>
							</g>
						</g>
					</g>
					<g class="st17">
						<g>
							<g>
								<rect x="176.9" y="126.9" class="st16" width="2.3" height="32.9"/>
							</g>
						</g>
					</g>
					<g class="st15">
						<g>
							<g>
								<rect x="165.7" y="138.8" class="st16" width="2.3" height="21.1"/>
							</g>
						</g>
					</g>
					<g>
						<g>
							<g>
								<polygon class="st18" points="184.5,163.3 140,163.3 140,115.8 140.7,115.8 140.7,162.6 184.5,162.6 								"/>
							</g>
						</g>
					</g>
					<g>
						<g>
							<g>
								<polygon class="st18" points="144.6,141.5 144.1,141 155.8,130.5 166.6,132.9 178.3,119.8 178.8,120.3 166.8,133.6 
									156,131.3 								"/>
							</g>
						</g>
					</g>
					<g>
						<g>
							<g>
								<polygon class="st18" points="179.7,122.2 176.4,119.1 180.6,117.9 								"/>
							</g>
						</g>
					</g>
					<g>
						<g>
							<g>
								<g>
									<rect x="188.8" y="146.5" class="st14" width="3.4" height="3.4"/>
								</g>
							</g>
						</g>
						<g>
							<g>
								<g>
									<rect x="188.8" y="152.5" class="st13" width="3.4" height="3.4"/>
								</g>
							</g>
						</g>
						<g>
							<g>
								<g>
									<rect x="193.1" y="153.9" class="st19" width="10.8" height="1.9"/>
								</g>
							</g>
						</g>
						<g>
							<g>
								<g>
									<rect x="193.1" y="147.9" class="st19" width="10.8" height="1.9"/>
								</g>
							</g>
						</g>
					</g>
					<g>
						<g>
							<g>
								<g>
									<rect x="208.9" y="146.5" class="st14" width="3.4" height="3.4"/>
								</g>
							</g>
						</g>
						<g>
							<g>
								<g>
									<rect x="208.9" y="152.5" class="st13" width="3.4" height="3.4"/>
								</g>
							</g>
						</g>
						<g>
							<g>
								<g>
									<rect x="213.2" y="153.9" class="st19" width="10.8" height="1.9"/>
								</g>
							</g>
						</g>
						<g>
							<g>
								<g>
									<rect x="213.2" y="147.9" class="st19" width="10.8" height="1.9"/>
								</g>
							</g>
						</g>
					</g>
					<g>
						<g>
							<g>
								<g>
									<rect x="227" y="146.5" class="st14" width="3.4" height="3.4"/>
								</g>
							</g>
						</g>
						<g>
							<g>
								<g>
									<rect x="227" y="152.5" class="st13" width="3.4" height="3.4"/>
								</g>
							</g>
						</g>
						<g>
							<g>
								<g>
									<rect x="231.4" y="153.9" class="st19" width="7.1" height="1.9"/>
								</g>
							</g>
						</g>
						<g>
							<g>
								<g>
									<rect x="231.4" y="147.9" class="st19" width="7.1" height="1.9"/>
								</g>
							</g>
						</g>
					</g>
					<g>
						<g>
							<g>
								<g>
									<rect x="189.4" y="113.8" class="st19" width="49.1" height="0.9"/>
								</g>
							</g>
						</g>
						<g>
							<g>
								<g>
									<rect x="140" y="102.8" class="st19" width="98.5" height="2"/>
								</g>
							</g>
						</g>
						<g>
							<g>
								<g>
									<rect x="189.3" y="116.6" class="st19" width="49.2" height="0.9"/>
								</g>
							</g>
						</g>
						<g>
							<g>
								<g>
									<rect x="189.3" y="111" class="st19" width="49.2" height="0.9"/>
								</g>
							</g>
						</g>
						<g>
							<g>
								<g>
									<rect x="189.3" y="119.3" class="st19" width="49.2" height="0.9"/>
								</g>
							</g>
						</g>
						<g>
							<g>
								<g>
									<rect x="189.3" y="122.1" class="st19" width="49.2" height="0.9"/>
								</g>
							</g>
						</g>
						<g>
							<g>
								<g>
									<rect x="189.3" y="124.9" class="st19" width="49.2" height="0.9"/>
								</g>
							</g>
						</g>
						<g>
							<g>
								<g>
									<rect x="189.3" y="127.7" class="st19" width="49.2" height="0.9"/>
								</g>
							</g>
						</g>
						<g>
							<g>
								<g>
									<rect x="189.3" y="130.4" class="st19" width="49.2" height="0.9"/>
								</g>
							</g>
						</g>
						<g>
							<g>
								<g>
									<rect x="189.3" y="133.2" class="st19" width="49.2" height="0.9"/>
								</g>
							</g>
						</g>
						<g>
							<g>
								<g>
									<rect x="195.3" y="136" class="st19" width="43.2" height="0.9"/>
								</g>
							</g>
						</g>
					</g>
				</g>
				<path class="st20" d="M241.7,91.2H137.4c-2.8,0-5,2.2-5,5v4.4h114.3v-4.4C246.7,93.4,244.5,91.2,241.7,91.2z"/>
				<path class="st21" d="M232,96.1c0,0.8-0.6,1.4-1.4,1.4s-1.4-0.6-1.4-1.4s0.6-1.4,1.4-1.4S232,95.3,232,96.1z"/>
				<circle class="st21" cx="236.5" cy="96.1" r="1.4"/>
				<circle class="st21" cx="242.4" cy="96.1" r="1.4"/>
			</g>
			<g>
				<g>
					<g>
						<g>
							<path class="st22" d="M211.3,185.1H107c-2.8,0-5-2.2-5-5v-66.8c0-2.8,2.2-5,5-5h104.3c2.8,0,5,2.2,5,5V180
								C216.4,182.8,214.1,185.1,211.3,185.1z"/>
						</g>
					</g>
				</g>
				<g>
					<g>
						<g>
							<path class="st11" d="M213.7,182.1H109.4c-2.8,0-5-2.2-5-5v-66.8c0-2.8,2.2-5,5-5h104.3c2.8,0,5,2.2,5,5v66.8
								C218.7,179.8,216.4,182.1,213.7,182.1z"/>
						</g>
					</g>
				</g>
				<g>
					<g>
						<g>
							<g>
								<rect x="115.2" y="161.4" class="st13" width="5" height="12.5"/>
							</g>
						</g>
					</g>
					<g>
						<g>
							<g>
								<rect x="126.4" y="150.4" class="st14" width="5" height="23.5"/>
							</g>
						</g>
					</g>
					<g>
						<g>
							<g>
								<rect x="137.7" y="152.8" class="st13" width="5" height="21.1"/>
							</g>
						</g>
					</g>
					<g>
						<g>
							<g>
								<rect x="148.9" y="140.9" class="st14" width="5" height="32.9"/>
							</g>
						</g>
					</g>
					<g class="st15">
						<g>
							<g>
								<rect x="126.4" y="150.4" class="st16" width="2.3" height="23.5"/>
							</g>
						</g>
					</g>
					<g class="st15">
						<g>
							<g>
								<rect x="115.2" y="161.4" class="st16" width="2.3" height="12.5"/>
							</g>
						</g>
					</g>
					<g class="st17">
						<g>
							<g>
								<rect x="148.9" y="140.9" class="st16" width="2.3" height="32.9"/>
							</g>
						</g>
					</g>
					<g class="st15">
						<g>
							<g>
								<rect x="137.7" y="152.8" class="st16" width="2.3" height="21.1"/>
							</g>
						</g>
					</g>
					<g>
						<g>
							<g>
								<polygon class="st18" points="156.5,177.3 111.9,177.3 111.9,134.1 112.6,134.1 112.6,176.6 156.5,176.6 								"/>
							</g>
						</g>
					</g>
					<g>
						<g>
							<g>
								<polygon class="st18" points="116.5,155.5 116,155 127.7,144.5 138.5,146.9 150.2,133.8 150.7,134.3 138.7,147.6 
									127.9,145.3 								"/>
							</g>
						</g>
					</g>
					<g>
						<g>
							<g>
								<polygon class="st18" points="151.6,136.2 148.3,133.1 152.6,131.9 								"/>
							</g>
						</g>
					</g>
					<g>
						<g>
							<g>
								<g>
									<rect x="160.7" y="160.5" class="st14" width="3.4" height="3.4"/>
								</g>
							</g>
						</g>
						<g>
							<g>
								<g>
									<rect x="160.7" y="166.5" class="st13" width="3.4" height="3.4"/>
								</g>
							</g>
						</g>
						<g>
							<g>
								<g>
									<rect x="165.1" y="167.9" class="st19" width="10.8" height="1.9"/>
								</g>
							</g>
						</g>
						<g>
							<g>
								<g>
									<rect x="165.1" y="161.9" class="st19" width="10.8" height="1.9"/>
								</g>
							</g>
						</g>
					</g>
					<g>
						<g>
							<g>
								<g>
									<rect x="180.8" y="160.5" class="st14" width="3.4" height="3.4"/>
								</g>
							</g>
						</g>
						<g>
							<g>
								<g>
									<rect x="180.8" y="166.5" class="st13" width="3.4" height="3.4"/>
								</g>
							</g>
						</g>
						<g>
							<g>
								<g>
									<rect x="185.2" y="167.9" class="st19" width="10.8" height="1.9"/>
								</g>
							</g>
						</g>
						<g>
							<g>
								<g>
									<rect x="185.2" y="161.9" class="st19" width="10.8" height="1.9"/>
								</g>
							</g>
						</g>
					</g>
					<g>
						<g>
							<g>
								<g>
									<rect x="198.9" y="160.5" class="st14" width="3.4" height="3.4"/>
								</g>
							</g>
						</g>
						<g>
							<g>
								<g>
									<rect x="198.9" y="166.5" class="st13" width="3.4" height="3.4"/>
								</g>
							</g>
						</g>
						<g>
							<g>
								<g>
									<rect x="203.3" y="167.9" class="st19" width="7.1" height="1.9"/>
								</g>
							</g>
						</g>
						<g>
							<g>
								<g>
									<rect x="203.3" y="161.9" class="st19" width="7.1" height="1.9"/>
								</g>
							</g>
						</g>
					</g>
					<g>
						<g>
							<g>
								<g>
									<rect x="161.4" y="127.8" class="st19" width="49.1" height="0.9"/>
								</g>
							</g>
						</g>
						<g>
							<g>
								<g>
									<rect x="111.9" y="116.8" class="st19" width="98.5" height="2"/>
								</g>
							</g>
						</g>
						<g>
							<g>
								<g>
									<rect x="161.2" y="130.6" class="st19" width="49.2" height="0.9"/>
								</g>
							</g>
						</g>
						<g>
							<g>
								<g>
									<rect x="161.2" y="125" class="st19" width="49.2" height="0.9"/>
								</g>
							</g>
						</g>
						<g>
							<g>
								<g>
									<rect x="161.2" y="133.3" class="st19" width="49.2" height="0.9"/>
								</g>
							</g>
						</g>
						<g>
							<g>
								<g>
									<rect x="161.2" y="136.1" class="st19" width="49.2" height="0.9"/>
								</g>
							</g>
						</g>
						<g>
							<g>
								<g>
									<rect x="161.2" y="138.9" class="st19" width="49.2" height="0.9"/>
								</g>
							</g>
						</g>
						<g>
							<g>
								<g>
									<rect x="161.2" y="141.7" class="st19" width="49.2" height="0.9"/>
								</g>
							</g>
						</g>
						<g>
							<g>
								<g>
									<rect x="161.2" y="144.4" class="st19" width="49.2" height="0.9"/>
								</g>
							</g>
						</g>
						<g>
							<g>
								<g>
									<rect x="161.2" y="147.2" class="st19" width="49.2" height="0.9"/>
								</g>
							</g>
						</g>
						<g>
							<g>
								<g>
									<rect x="167.2" y="150" class="st19" width="43.2" height="0.9"/>
								</g>
							</g>
						</g>
					</g>
				</g>
				<path class="st23" d="M213.7,105.2H109.4c-2.8,0-5,2.2-5,5v4.4h114.3v-4.4C218.7,107.5,216.4,105.2,213.7,105.2z"/>
				<path class="st21" d="M204,110.1c0,0.8-0.6,1.4-1.4,1.4c-0.8,0-1.4-0.6-1.4-1.4c0-0.8,0.6-1.4,1.4-1.4
					C203.3,108.6,204,109.3,204,110.1z"/>
				<path class="st21" d="M209.9,110.1c0,0.8-0.6,1.4-1.4,1.4c-0.8,0-1.4-0.6-1.4-1.4c0-0.8,0.6-1.4,1.4-1.4
					C209.2,108.6,209.9,109.3,209.9,110.1z"/>
				<path class="st21" d="M215.7,110.1c0,0.8-0.6,1.4-1.4,1.4c-0.8,0-1.4-0.6-1.4-1.4c0-0.8,0.6-1.4,1.4-1.4
					C215.1,108.6,215.7,109.3,215.7,110.1z"/>
			</g>
			<path class="st24" d="M252.3,79.3h-26.8c0.2,8.7,0.3,17.4,0.4,26c0,1.3,0,2.7-0.5,3.9c0,0,0,0,0,0c-0.4,0-0.2,0.1-0.3,0.7
				c0,0,0,0,0,0c-1.1,1.8-3.2,2.7-5.3,3.2c0,0.1,0,0.2,0,0.3c-0.2,0.2-0.3,0.5-0.2,0.8c0.1,0.3,1.7,0.7,3.8,0.5
				c0.6-0.1,1.8-0.4,2.3-0.6c0.3-0.2,0.6-0.4,0.9-0.6c0.3,0,0.5-0.1,0.8-0.2l0.1,0.1l2.4-1c0,0-0.3-1.5-0.5-2.3
				c0-0.2-0.1-0.3-0.2-0.4c2-5.4,3.6-11,4.7-16.7c-0.4,7.1-3,21.4-3.2,21.9c-0.3,0.8-1.4,2-3,2.1c-0.6,0-3.4-0.1-3.1,1.2
				c0.1,0.3,1.5,1,3.6,1.1c0.6,0,1.8-0.1,2.4-0.2c0.8-0.2,1.5-0.8,1.5-0.8l0.3,0.4l2.5-0.6c0,0,0-0.7,0-1.5c0-0.8-0.5-1.5-0.5-1.5
				l0-1.4l1.4-0.2c0,0,2.8-9.1,4.2-12.3c0.6-1.3,1.2-2.5,1.5-3.9c0.4-1.6,0.5-3.2,0.6-4.9c0.2-3,0.8-5.9,1.6-8.8
				c0.1-0.2,0.1-0.4,0.2-0.5c0.2-0.2,0.6-0.3,0.9-0.3c3.6-0.3,5.2,0.3,7.5-0.4c3-0.9,3.3-2.3,3.4-2.3
				C254.8,79.5,253.6,79.3,252.3,79.3z"/>
			<g class="st10">
				<path class="st8" d="M262.2,139.2v-31.1c-4.6,6.1-9.2,11.5-13.8,17.6c-2,2.6-9.9,11.3-4.5,14.8c1.4,0.9,3.8,0.9,4.9,0.9
					c4.3,0.3,8.5-0.9,12.7-2.1C261.7,139.3,261.9,139.3,262.2,139.2z"/>
			</g>
			<path class="st24" d="M262.2,145.9l-2.6,0.2l0-0.1l-2,0.2l-0.6-1.7c-0.3-1-1.5-1.7-2.5-1.6c-1.1,0.1-1.6,0.9-1.3,1.9
				c0.1,0.3,0.4,1.1,0.6,1.7l-2.1,0.2l0,0.1l-4.3,0.3c-0.7,0-1.7,0.9-1.5,1.5l0,0.1c0,0.1,0,0.1,0,0.2l3.8,10.6l-0.1,44.7h4.4
				l8.3-32.1V145.9z M255.4,145.5c-0.6,0-1.2-0.4-1.4-0.9c-0.2-0.5,0.1-1,0.7-1.1c0.6,0,1.2,0.4,1.4,0.9
				C256.3,145,256,145.5,255.4,145.5z"/>
			<path class="st24" d="M99.4,127.4c-1,1.1-2.1,3.4-2.6,4.3c-0.5,1-1,1.5-2.4,2.2c-1.9,0.9-4,1.7-5.9,2.5v5.1
				c4-2.4,7.6-4.6,7.7-4.7c3.1,1.2,5.6-1.4,6.4-3.2c0.4-0.8-0.2-1.2-0.2-1.5c0-0.2,0.2-1.4,0.2-1.5c-0.2-1.1-3.1-0.1-2.9-0.6
				c0.1-0.4,0.5-1.3,1.2-1.8c1.4-1,2.5-2,2.5-2.4C103.4,125,99.8,127.1,99.4,127.4z"/>
		</g>
		<g>
			<path class="st25" d="M314.9,231.3h-53.6c-3.8,0-6.9-3.1-6.9-6.9v-64.2c0-3.8,3.1-6.9,6.9-6.9h53.6c3.8,0,6.9,3.1,6.9,6.9v64.2
				C321.8,228.2,318.7,231.3,314.9,231.3z"/>
			<g>
				<g>
					<path class="st26" d="M315.9,177.4h-53.5c-1,0-1.8-0.8-1.8-1.8v-12.5c0-1,0.8-1.8,1.8-1.8h53.5c1,0,1.8,0.8,1.8,1.8v12.5
						C317.7,176.6,316.9,177.4,315.9,177.4z"/>
					<path class="st26" d="M273.5,193.3h-11.1c-1,0-1.8-0.8-1.8-1.8v-6.6c0-1,0.8-1.8,1.8-1.8h11.1c1,0,1.8,0.8,1.8,1.8v6.6
						C275.3,192.5,274.5,193.3,273.5,193.3z"/>
					<path class="st26" d="M294.7,193.3h-11.1c-1,0-1.8-0.8-1.8-1.8v-6.6c0-1,0.8-1.8,1.8-1.8h11.1c1,0,1.8,0.8,1.8,1.8v6.6
						C296.5,192.5,295.7,193.3,294.7,193.3z"/>
					<path class="st26" d="M315.9,193.3h-11.1c-1,0-1.8-0.8-1.8-1.8v-6.6c0-1,0.8-1.8,1.8-1.8h11.1c1,0,1.8,0.8,1.8,1.8v6.6
						C317.7,192.5,316.9,193.3,315.9,193.3z"/>
					<path class="st26" d="M273.5,209.7h-11.1c-1,0-1.8-0.8-1.8-1.8v-6.6c0-1,0.8-1.8,1.8-1.8h11.1c1,0,1.8,0.8,1.8,1.8v6.6
						C275.3,208.9,274.5,209.7,273.5,209.7z"/>
					<path class="st26" d="M294.7,209.7h-11.1c-1,0-1.8-0.8-1.8-1.8v-6.6c0-1,0.8-1.8,1.8-1.8h11.1c1,0,1.8,0.8,1.8,1.8v6.6
						C296.5,208.9,295.7,209.7,294.7,209.7z"/>
					<path class="st26" d="M273.5,226h-11.1c-1,0-1.8-0.8-1.8-1.8v-6.6c0-1,0.8-1.8,1.8-1.8h11.1c1,0,1.8,0.8,1.8,1.8v6.6
						C275.3,225.2,274.5,226,273.5,226z"/>
					<path class="st26" d="M294.7,226h-11.1c-1,0-1.8-0.8-1.8-1.8v-6.6c0-1,0.8-1.8,1.8-1.8h11.1c1,0,1.8,0.8,1.8,1.8v6.6
						C296.5,225.2,295.7,226,294.7,226z"/>
				</g>
				<path class="st26" d="M315.9,226h-11.1c-1,0-1.8-0.8-1.8-1.8v-23c0-1,0.8-1.8,1.8-1.8h11.1c1,0,1.8,0.8,1.8,1.8v23
					C317.7,225.2,316.9,226,315.9,226z"/>
			</g>
			<g class="st27">
				<path class="st28" d="M259.5,162.1c0-1,0.8-1.8,1.8-1.8h53.5c1,0,1.8,0.8,1.8,1.8v12.5c0,1-0.8,1.8-1.8,1.8h-53.5"/>
				<path class="st28" d="M272.5,192.3h-11.1c-1,0-1.8-0.8-1.8-1.8v-6.6c0-1,0.8-1.8,1.8-1.8h11.1c1,0,1.8,0.8,1.8,1.8v6.6
					C274.2,191.5,273.4,192.3,272.5,192.3z"/>
				<path class="st28" d="M293.7,192.3h-11.1c-1,0-1.8-0.8-1.8-1.8v-6.6c0-1,0.8-1.8,1.8-1.8h11.1c1,0,1.8,0.8,1.8,1.8v6.6
					C295.4,191.5,294.6,192.3,293.7,192.3z"/>
				<path class="st28" d="M314.9,192.3h-11.1c-1,0-1.8-0.8-1.8-1.8v-6.6c0-1,0.8-1.8,1.8-1.8h11.1c1,0,1.8,0.8,1.8,1.8v6.6
					C316.6,191.5,315.8,192.3,314.9,192.3z"/>
				<path class="st28" d="M272.5,208.6h-11.1c-1,0-1.8-0.8-1.8-1.8v-6.6c0-1,0.8-1.8,1.8-1.8h11.1c1,0,1.8,0.8,1.8,1.8v6.6
					C274.2,207.8,273.4,208.6,272.5,208.6z"/>
				<path class="st28" d="M293.7,208.6h-11.1c-1,0-1.8-0.8-1.8-1.8v-6.6c0-1,0.8-1.8,1.8-1.8h11.1c1,0,1.8,0.8,1.8,1.8v6.6
					C295.4,207.8,294.6,208.6,293.7,208.6z"/>
				<path class="st28" d="M272.5,225h-11.1c-1,0-1.8-0.8-1.8-1.8v-6.6c0-1,0.8-1.8,1.8-1.8h11.1c1,0,1.8,0.8,1.8,1.8v6.6
					C274.2,224.2,273.4,225,272.5,225z"/>
				<path class="st28" d="M293.7,225h-11.1c-1,0-1.8-0.8-1.8-1.8v-6.6c0-1,0.8-1.8,1.8-1.8h11.1c1,0,1.8,0.8,1.8,1.8v6.6
					C295.4,224.2,294.6,225,293.7,225z"/>
			</g>
			<path class="st13" d="M314.9,225h-11.1c-1,0-1.8-0.8-1.8-1.8v-23c0-1,0.8-1.8,1.8-1.8h11.1c1,0,1.8,0.8,1.8,1.8v23
				C316.6,224.2,315.8,225,314.9,225z"/>
			<path class="st29" d="M303,224.2v-23c0-1,0.8-1.8,1.8-1.8h11.1c0.2,0,0.4,0,0.6,0.1c-0.3-0.7-0.9-1.2-1.7-1.2h-11.1
				c-1,0-1.8,0.8-1.8,1.8v23c0,0.8,0.5,1.4,1.2,1.7C303,224.7,303,224.5,303,224.2z"/>
			<path class="st24" d="M254.3,171.6l1.8,4.8h7.6c0,0-0.5,20.6-0.6,24.4c0,3.9,3.2,30.5,3.2,30.5h4.4l-0.5-33.5l6.2-17.2
				c0,0,4.7,23,6.6,26.9c1.9,3.9,12.4,23.9,12.4,23.9h4l-10.3-44.1l-4.4-15.3l-22.3-10.4l-8,0.8"/>
		</g>
		<g>
			<polygon class="st13" points="103.2,188.7 99.7,225.3 134.3,225.3 131,188.7 			"/>
			<g>
				<g>
					<path class="st8" d="M109.2,192.1L109.2,192.1c0-0.6,0.6-1.1,1.3-1.1c0,0,0,0,0,0c0.7,0,1.3,0.5,1.3,1.1c0,0.6-0.6,1.1-1.3,1.1
						c0,0,0,0,0,0C109.8,193.2,109.2,192.7,109.2,192.1z M110.5,191.4c-0.5,0-0.9,0.3-0.9,0.7c0,0.4,0.4,0.7,0.9,0.7c0,0,0,0,0,0
						c0.5,0,0.9-0.3,0.9-0.7C111.4,191.7,111,191.4,110.5,191.4C110.5,191.4,110.5,191.4,110.5,191.4z M109.4,192.1L109.4,192.1
						L109.4,192.1z"/>
				</g>
				<g>
					<path class="st8" d="M122.1,192l0.2,0L122.1,192c0-0.3,0.1-0.5,0.3-0.7c0.2-0.2,0.6-0.4,1-0.4c0,0,0,0,0,0
						c0.7,0,1.3,0.5,1.3,1.1c0,0.3-0.1,0.6-0.4,0.8c-0.2,0.2-0.6,0.3-0.9,0.3c0,0,0,0,0,0C122.7,193.1,122.1,192.6,122.1,192z
						 M123.4,191.4c-0.3,0-0.5,0.1-0.7,0.3c-0.1,0.1-0.2,0.2-0.2,0.4l0,0c0,0.4,0.4,0.7,0.9,0.7c0,0,0,0,0,0c0.2,0,0.5-0.1,0.6-0.2
						c0.2-0.1,0.2-0.3,0.2-0.5C124.3,191.7,123.9,191.4,123.4,191.4C123.4,191.4,123.4,191.4,123.4,191.4z"/>
				</g>
			</g>
			<g>
				<path class="st8" d="M116.6,200.1c0.1,0,0.2,0,0.4,0c2.4-0.1,4.2-0.8,5.4-2.3c2-2.4,1.5-5.7,1.5-5.8c0-0.2-0.2-0.4-0.5-0.4
					c-0.2,0-0.4,0.2-0.4,0.5c0,0,0.4,3.1-1.3,5.1c-1,1.2-2.6,1.9-4.8,2c-2.1,0.1-3.6-0.5-4.6-1.6c-1.9-2.1-1.4-5.4-1.4-5.5
					c0-0.2-0.1-0.4-0.4-0.5c-0.2,0-0.4,0.1-0.5,0.4c0,0.2-0.5,3.8,1.6,6.2C112.8,199.4,114.5,200.1,116.6,200.1z"/>
			</g>
		</g>
		<g>
			<g>
				<path class="st30" d="M69.1,106.4c1.3,2.3,0.2,5.5,1.5,7.8c0.5,0.9,1.5,1.7,1.7,2.7c0.2,0.9-0.1,1.9-0.8,2.4
					c-0.7,0.6-1.7,0.6-2.5,0.2c-0.2-0.1-0.3-0.2-0.5-0.3c-0.7-0.2-1.3,0.4-1.8,0.8c-0.7,0.5-1.6,0.7-2.4,0.4c-1-0.3-1.7-1.4-2-2.4
					c-1-2.9-0.3-6.1,0.6-9c0.4-1.5,1.1-3.1,2.5-3.6"/>
			</g>
			<path class="st31" d="M100.3,131c0,0.3,0.5,0.6,0.2,1.3c-0.7,1.5-3,3.6-5.7,2.6c-0.1,0-15,8.6-16.1,8.6c-1.1,0-9-7.4-11.5-16.5
				c-0.6-2.2-0.4-4.7,1.7-5.8c0,0,1.7,0.4,2.8,2.5c1.7,3.2,6.8,13.8,7.9,14.2c1.4-0.9,8.2-3,13.7-5.3c1.2-0.5,1.7-1,2.1-1.8
				c0.4-0.8,1.4-2.7,2.3-3.6c0.3-0.3,3.6-2.1,3.6-1.5c0,0.3-1,1.2-2.2,2c-0.6,0.4-0.9,1.2-1.1,1.5c-0.2,0.4,2.3-0.4,2.6,0.5
				C100.5,129.9,100.3,130.8,100.3,131z"/>
			<g>
				<path class="st32" d="M68.2,120.9c1.9,0.5,3.5,1.7,4.4,3.4c0.2,0.4,0.4,0.9,0.6,1.4c0.8,2,1.9,3.8,2.7,5.9
					c-1.1,0.9-2.4,1.3-3.5,1.7c-1,0.4-2.2,0.5-3.3,0.4c-0.2,0-0.4,0-0.5-0.1c-0.2-0.1-0.4-0.3-0.6-0.5c-0.3-0.4-0.7-0.8-1-1.2
					c-0.3-0.3-0.5-0.7-0.7-1.1c-0.2-0.6,0-1.2,0.2-1.8"/>
			</g>
			<g class="st10">
				<path class="st32" d="M70.1,126.4c-0.1-0.1-0.1-0.2-0.3-0.2c-0.2-0.1-0.4,0.1-0.5,0.2c-0.1,0.2-0.1,0.4-0.1,0.6
					c0,0.8,0.1,1.6,0.4,2.4l-0.3,4.3c0,0,0,0,0,0c1,0.1,2.1-0.1,3-0.4c0.5-0.2,1-0.3,1.5-0.6C73.3,130.4,71.7,128.3,70.1,126.4z"/>
			</g>
			<path class="st31" d="M63.5,116.7c0,0-0.1,2.7,0.4,2.8c0.8,0.3,1.7,0.5,1.7,0.5l0,5.5l-7.3-1.1l-5.1-2.8c0,0,5.3-1.7,5.3-2.3
				c0-0.5-0.3-3.5-0.3-3.5"/>
			<g>
				<path class="st31" d="M52.2,196.4C52.2,196.4,52.2,196.4,52.2,196.4c-2,9.5-1.1,22.6-1.5,29.8c0.1,0,2.7,0.4,2.7,0.4
					s6.2-30.2,7.3-36c0.1-0.4,0.1-0.8,0.1-1.1c0.3-4.4-3.7-4.6-5.9-1c-0.4,0.6-0.7,1.2-1,1.9c-0.1,0.3-0.2,0.6-0.4,0.9l0,0
					c-0.4,0.9-0.7,2-1,3l0,0.1c-0.1,0.3-0.2,0.6-0.2,0.9l0,0.1C52.4,195.8,52.3,196.1,52.2,196.4z"/>
				<path class="st31" d="M64,162.2c-0.1,0.8-0.5,4.5-1,9c-0.4,3.7-0.9,7.9-1.3,11.2c-0.3,2.5-0.5,4.5-0.6,5.4
					c0,0.6-0.1,1.1-0.2,1.6v0c-0.9,4.4-4,4.6-5.8,3.6c-0.3-0.1-0.5-0.3-0.7-0.5c-0.4-0.4-0.7-0.8-0.8-1.3v0
					c-0.1-0.9-0.2-2.1-0.3-3.6v0c0,0,0,0,0,0l0,0c-0.2-2.8-0.4-6.5-0.6-10c-0.2-4.4-0.3-8.5-0.4-10.9c0-0.1,0-0.3,0-0.4
					c0-7.3,6.6-11.9,10.8-9.6c0.1,0,0.1,0,0.1,0.1c0.1,0,0.1,0.1,0.2,0.1c0.5,0.3,0.6,1.4,0.6,2.6C64.1,160.4,64.1,161.4,64,162.2z"
					/>
				<path class="st31" d="M53.9,189.6l-0.5-1.9c0,0,0,0,0,0c0,0.4,0.1,3.5-0.6,6.6l0,0.1c-0.1,0.3-0.1,0.6-0.2,0.9l0,0.1
					c-0.1,0.5-0.2,0.8-0.2,1c0,0,0,0,0,0c0,0.9,1.8-3,2.2-3.9c0.1-0.1,0.1-0.2,0.1-0.2l-0.5-2L53.9,189.6z"/>
			</g>
			<g>
				<path class="st31" d="M68.2,198.2C68.2,198.2,68.2,198.2,68.2,198.2c-0.2,10,2.9,21.7,3.7,29c0.1,0,2.5-0.3,2.5-0.3
					s0.5-30.6,0.5-36.6c0-0.4,0-0.8-0.1-1.2c-0.5-4.4-4.1-3.6-5.4,0.5c-0.2,0.7-0.4,1.4-0.6,2.2c-0.1,0.3-0.1,0.6-0.2,1l0,0
					c-0.2,1-0.3,2.1-0.4,3.3l0,0.1c0,0.3,0,0.7-0.1,1l0,0.1C68.2,197.5,68.2,197.9,68.2,198.2z"/>
				<path class="st31" d="M70.3,194.2c-0.3-0.1-0.5-0.2-0.7-0.3c-0.5-0.3-0.8-0.7-0.9-1.1l0,0c-0.3-0.9-0.6-2.1-0.9-3.5c0,0,0,0,0,0
					l0,0c-0.7-2.8-1.5-6.3-2.2-9.8c-0.9-4.3-1.7-8.4-2.2-10.8c0-0.1-0.4-1.8-0.4-2c-1.3-7.3,4.4-12,8.5-10.6c0.1,0,0.1,0,0.2,0.1
					c0.8,0.3,1.1,3.3,1.2,5.2c0.2,2,1.6,22.4,1.9,26.1c0.1,0.6,0.1,1.1,0.1,1.7C74.8,193.7,72.1,194.7,70.3,194.2z"/>
				<path class="st31" d="M68.5,191l-0.8-1.8c0,0,0,0,0,0c0.1,0.4,0.6,3.5,0.6,6.8l0,0.1c0,0.3,0,0.7-0.1,1l0,0.1c0,0.5,0,0.9,0,1
					c0,0,0,0,0,0c0.1,0.9,1.1-3.4,1.4-4.4c0-0.1,0-0.2,0-0.2l-0.8-1.9L68.5,191z"/>
			</g>
			<path class="st33" d="M55.9,148.2c0,0-5.3,6.8-4.8,13.6c0.2,2.8,0.6,5.3,0.9,8.2c0,0.4,0.7,6.4,0.5,6.4c0,0,11,3.4,21.7-1.1
				c0-0.7,0.9-14.7-4.9-28C62.3,148.4,55.9,148.2,55.9,148.2z"/>
			<path class="st32" d="M72.6,132.5c0,1.9-1.1,3.1-2.6,4.8c-0.2,0.3-0.6,4.6-0.8,7.5c-0.1,1.5,0.6,2.4,0,2.6
				c-2.1,1.9-9.8,3.4-13.4,0.8c0.4-3.1-1-10-2-13.6c-0.1-0.5-0.3-1-0.4-1.3c-0.9-2.7-2.5-11.2-1.3-11.6c0.2-0.1,0.6-0.2,1-0.3
				c1.8-0.6,4.6-1.5,4.6-1.5s1.6,4.7,5.8,5.3c2.3-0.9,2.1-3.8,2-5.1c0.7,0.2,1.1,0.4,3.4,1.1c0.6,0.9,0.1,2.9,1.1,5.8
				C70.4,127.7,72.7,130.2,72.6,132.5z"/>
			<path class="st31" d="M68.8,105.8c0,0,0.4,5.1-0.5,7.8c-0.7,2-3.3,3.9-5.6,3.8c-6.1,0-7.2-8.3-7.2-8.7c0-0.4,9.1-3.9,9.1-3.9
				L68.8,105.8z"/>
			<path class="st34" d="M69.5,156.6"/>
			<g>
				<path class="st30" d="M80.5,230.1c-2.2,0.4-4.5-0.2-5.5-0.1c-0.8,0.1-2.8,0.7-3.6,0c-0.8-0.7-0.6-3.1,0.2-3.4
					c0,0,0.2,0.1,0.6,0.1c0.5,0.1,1.5,0.1,2.6-0.2c1.7,0.7,1.7,1,3.6,1.4c0.8,0.2,1.8,0.4,2.4,0.7C81.7,229,81.8,229.9,80.5,230.1z"
					/>
			</g>
			<g>
				<path class="st30" d="M56.9,231c-2.2-0.4-3.6-1.6-4.5-1.7c-0.8-0.1-2.8-0.5-3-1.3c-0.2-0.6,0.4-3.1,1.4-3.1c0,0,0.2,0.1,0.5,0.3
					c0.5,0.3,1.3,0.6,2.5,0.7c1.3,1.2,1.3,1.5,2.9,2.5c0.7,0.4,1.5,1,2,1.5C59.4,230.4,58.2,231.3,56.9,231z"/>
			</g>
			<g>
				<path class="st31" d="M25,128.9l2-2.4l12.3,11c0,0,6-8,7.6-10.5c1.8-2.7,3.4-5.1,6.1-5.5c0.6,0.4-0.2,10.2-0.5,10.5
					c-3.7,2.8-10.9,11.7-13.2,12.2C36.7,144.6,25,128.9,25,128.9z"/>
				<path class="st32" d="M53.9,121c0,0-2.5,0-3.6,0.9c-1.1,0.9-6.2,9.1-6.2,9.1s-0.1,1.5,1.4,2.8c1.6,1.4,3.7,1.6,3.7,1.6
					s2.6-2.6,4-3.7c0.9-0.7,1,1.1,1,1.1l4.6-4.5L53.9,121z"/>
			</g>
			<g>
				<path class="st30" d="M52.4,121.1c-0.1-0.1-0.3-0.2-0.4-0.2c-0.7-0.4-1.4-0.9-1.6-1.7c-0.4-1.2-0.6-2.9,0-4
					c0.4-0.8,1.2-1.3,1.7-1.9c0.7-0.9,0.9-2.2,1-3.4c0.1-1.2,0-2.4,0.2-3.5c0.4-2,1-3.9,2.5-5.1c2.4-2,7.4-3.3,10-1
					c0.5,0.4,0.6,0.7,1.2,0.8c0.9,0.1,1.4,0.2,2.2,0.7c0.9,0.5,1.9,1.2,1.8,2.4c-0.1,0.8-1,2.1-1.7,2.4c-0.3,0.2-0.6,0.2-0.9,0.2
					c-1,0-1.9-0.7-2.9-0.5c-0.5,0.1-1,0.3-1.3,0.7c-0.4,0.5-0.3,1.1-0.7,1.5c-0.7,0.7-1.8,0.6-2.6,1.1c-0.1,0.1-0.3,0.2-0.4,0.3
					c-0.1,0.1-0.1,0.3-0.1,0.4c0,0.4,0,0.9,0,1.3c-0.4-0.2-0.4-0.8-0.8-1c-0.3-0.3-0.8-0.2-1.2,0.1c-0.3,0.3-0.5,0.7-0.6,1.1
					c-0.1,0.5,0.1,1,0.2,1.5c0.3,0.9,1,1.7,1.6,1.1c0.4,0.6,0,1.7-0.1,2.5c0,0.6,0,1.7,0.5,2.1c0.5,0.4,1.3,0.1,1.3,1
					c0,0.8-0.8,1.5-1.6,1.6c-0.8,0.1-1.6-0.2-2.4-0.4c-0.8-0.2-1.7-0.4-2.4-0.1c-0.5,0.2-0.9,0.5-1.4,0.6
					C53.3,121.5,52.8,121.3,52.4,121.1z"/>
			</g>
			<g>
				<path class="st31" d="M30.1,129.3c0,0-2.9-2.3-3.1-2.9s-0.2-1.3-0.5-1.9c-0.3-0.9-1.1-1.6-2-2c-0.7-0.3-0.4-0.5-1.1-0.4
					c-1.2,0.2-1.7,1.4-2.2,2.3c-2,3.8,3.5,4.5,3.7,4.6c0.4,0,2.4,2.3,2.4,2.3"/>
			</g>
			<g>
				<path class="st35" d="M21,127.4l2,1.3c0.3,0.2,0.6,0.1,0.8-0.2l4.3-7.3l-2.6-1.4l-4.7,6.8C20.7,126.9,20.7,127.2,21,127.4z"/>
				<g>
					<path class="st36" d="M13.9,112l0.7,0.5l2.8-4l-0.7-0.5c-1-0.7-2.4-0.3-3.1,0.8l0,0C12.8,109.9,13,111.3,13.9,112z"/>
					<polygon class="st36" points="11.4,116.9 24.1,118.8 27,114.6 20.6,103.5 					"/>
					<polygon class="st37" points="12.2,117 24.1,118.8 25.2,117.1 15.3,112.6 					"/>
					<path class="st36" d="M29.3,121.8L29.3,121.8c0.7,0.5,1.7,0.2,2.2-0.6l0.5-0.7c0.5-0.8,0.4-1.8-0.3-2.2l0,0
						c-0.7-0.5-1.7-0.2-2.2,0.6l-0.5,0.7C28.5,120.4,28.6,121.4,29.3,121.8z"/>
					<path class="st37" d="M29.5,118.9l-0.5,0.7c-0.5,0.8-0.4,1.8,0.3,2.2c0.7,0.5,1.7,0.2,2.2-0.6l0.5-0.7c0-0.1,0.1-0.1,0.1-0.2
						c-0.5,0.6-1.4,0.8-2.1,0.4c-0.6-0.4-0.8-1.3-0.4-2.1C29.6,118.8,29.6,118.8,29.5,118.9z"/>
					<path class="st23" d="M11,117.3L11,117.3c0.4,0.3,1,0.1,1.3-0.3l8.7-12.6c0.3-0.5,0.2-1-0.2-1.3l0,0c-0.4-0.3-1-0.1-1.3,0.3
						L10.9,116C10.5,116.4,10.6,117,11,117.3z"/>
					<path class="st35" d="M21,103.2l-7.2,10.5c-0.3,0.5-0.9,0.6-1.3,0.3c-0.1-0.1-0.2-0.1-0.2-0.2l-1.5,2.1c-0.3,0.5-0.2,1,0.2,1.3
						c0.4,0.3,1,0.1,1.3-0.3l8.7-12.6C21.2,104,21.2,103.5,21,103.2z"/>
					<path class="st23" d="M25.2,121l0.8,0.6c1.2,0.8,3,0.4,3.9-1l0.8-1.2c0.9-1.4,0.7-3.2-0.5-4l-0.8-0.6c-1.2-0.8-3-0.4-3.9,1
						l-0.8,1.2C23.8,118.4,24,120.2,25.2,121z"/>
					<path class="st35" d="M24.8,116.9l-1.2,1.8c-0.3,0.4-0.2,1,0.1,1.3l3.8,2.6c0.4,0.3,0.9,0.1,1.2-0.3l1.2-1.8
						c-0.3,0.4-0.9,0.6-1.2,0.3l-3.8-2.6C24.5,117.9,24.5,117.4,24.8,116.9z"/>
				</g>
			</g>
			<g>
				<path class="st31" d="M21.4,125.6c-0.2-1.1,0.1-2.2,0.7-3c0.2-0.3,0.5-0.5,0.7-0.8c0.1-0.1,0.2-0.2,0.4-0.3
					c0.3-0.1,0.6,0,0.9,0.2c0.3,0.2,0.6,0.4,0.8,0.8c0.2,0.5-0.1,0.9-0.6,1.2c0,0-0.1,0.1-0.1,0.1c0,0.1,0,0.2,0.1,0.2
					c0.2,0.3,0.3,0.7,0.3,1c0,0.3-0.3,0.6-0.7,0.5c-0.1,0-0.3-0.1-0.4,0c0,0,0,0.1,0,0.1c0,0.3,0,0.6-0.2,0.8c0,0.1-0.1,0.1-0.2,0.1
					c-0.1,0-0.1,0-0.2,0c-0.2-0.1-0.5-0.2-0.7-0.3"/>
			</g>
			<g>
				<path class="st31" d="M27,126.5c-0.1-0.4-0.2-1.1-0.2-1.6c0-1.2-0.7-2.3-1.7-2.9c-0.1,0-0.2-0.1-0.3-0.1c-0.1,0-0.2,0.1-0.2,0.3
					s0,0.2,0.1,0.4c0.1,0.4,0.6,1.1,0.5,1.4c-0.2,0.6-0.4,1.2-0.4,1.8c0,0.5,0.3,1.4,0.9,1.5"/>
			</g>
			<line class="st38" x1="12.3" y1="97.4" x2="14.9" y2="103.4"/>
			<line class="st38" x1="7" y1="102.7" x2="12.2" y2="106.7"/>
			<line class="st38" x1="3.7" y1="110" x2="10.2" y2="110.6"/>
		</g>
		<g>
			<g>
				<path class="st31" d="M211.5,46.9c0,0-2.3-1.6-2.4-2.3c-0.1-0.7-1.7-3.5-2.2-4c-0.5-0.6-3.3-1.5-3.8-1.6
					c-0.6-0.1-3.9,0.2-3.5,0.7c0.4,0.5,2.6,0.3,3,0.5c0.4,0.2,0.4,0.2,0.4,0.2s-0.4,0.6-0.2,0.9s-0.7,0.9-0.4,1.4
					c0.3,0.6-0.1,0.5,0.2,1.2c0.5,1,1.8,1.6,2.1,1.3c0.2,0.6,1.2,1.8,2.1,1.7c0.9-0.1,3.1,2,3.1,2"/>
				<g>
					<path class="st31" d="M247,35.2c0.1,1.6,0,4.3,0.4,4.7c0.4,0.4,1.9,0.3,1.9,0.3s-5.2,6.5-5.6,6.2c-0.5-0.4-6.6-5.3-5.2-5.6
						c1.4-0.3,2.7-0.2,2.7-0.9c0-0.7-0.1-1.4-0.1-2.1"/>
				</g>
				<path class="st13" d="M252.9,70.1c0,0-10.1,1.1-12.4,1.2c-2.3,0-2.2-1.2-2.2-1.2c-0.1-2.6-0.6-8.6-1-10.6
					c-0.4-1.9-0.6-2.6-1-4.4c-0.9-4-0.8-4.8-1.7-9.8l6-4.8c0,0,0.6,1.9,3.1,1.9c3.4,0,4.4-2.3,4.4-2.3l8.2,5.5l0.8,13.3l-1,10.9"/>
				<g>
					<path class="st31" d="M247.1,33.7c-0.2,0.8-0.4,1.6-0.7,2.3c-0.5,1.4-1.3,1.9-2.8,1.9c-1,0-2.1,0-3.1,0.1c-0.8,0-1.8,0-2.4-0.5
						c-0.6-0.5-0.6-1.5-0.8-2.2c-0.2-1-0.3-2-0.4-2.9c-0.2-1.9-0.3-3.9-0.3-5.8c0-0.3,0-0.5,0.1-0.8c0-0.1,0.1-0.2,0.1-0.3
						c0.1-0.1,0.2-0.1,0.4-0.1c1.9-0.3,3.9-0.4,5.8-0.4c1.4,0,2.8,0.2,3.9,1c1.1,0.8,1.6,2.2,2.1,3.5c0.1,0.2,0.1,0.5-0.1,0.6"/>
				</g>
				<g>
					<g>
						<path class="st39" d="M224.5,106.1c0,0,0.3,2,0.6,2.7c0.3,0.7,2.5,0.1,2.7-0.4c0.1-0.4-0.7-3.7-0.7-3.7"/>
						<path class="st40" d="M228.6,108.9c0.2,0.7,0.4,2.2,0.4,2.2l-2.2,1l-0.4-0.3c0,0-0.6,0.7-1.2,1c-0.5,0.2-1.6,0.5-2.2,0.6
							c-2,0.2-3.4-0.2-3.5-0.4c-0.5-1.1,2.1-1.4,2.6-1.6c1.5-0.4,2.3-1.7,2.5-2.5c0.1-0.6,0-0.7,0.3-0.7c0,0,0.3,0,0.6,0.3
							c0.4,0.4,1,0.6,1.6,0.4c0.3-0.1,0.6-0.4,0.8-0.7C227.8,108.1,228.4,108.2,228.6,108.9z"/>
					</g>
					<g>
						<g>
							<path class="st41" d="M234.4,79.8c-3.5,0.7-7.9,0.7-11.5,0.3c0.5,1.4,1.7,3.2,2.2,5.3c1.5,6.6,2.1,15.5,2.5,21
								c0,0-0.7,1.4-3.1,0.3c-3.5-8.7-9.7-26.3-9.6-30.2c0.1-4.9,12.2-6,21.1-7.2"/>
						</g>
						<g>
							<path class="st40" d="M250,70.1c2.8,2-15.5,9.7-15.5,9.7c-2,0.4-4,0.6-6,0.6c-0.2-0.4-0.4-0.7-0.4-1.1
								c-0.1-0.5-0.1-1.1-0.1-1.6c-0.2-1-0.9-1.9-1.8-2.5c-0.9-0.5-2-0.8-3-1c-2.5-0.4-6.8-0.1-6.8-0.1c5.5-4.1,16.8-4.6,22-4.9
								C239.3,70.8,249.6,69.8,250,70.1z"/>
						</g>
					</g>
					<g>
						<path class="st39" d="M230.3,110.7c0,0,0,2,0.1,2.8c0.1,0.7,2.5,0.5,2.7,0.1s-0.1-3.8-0.1-3.8"/>
						<path class="st40" d="M233.8,114.2c0.1,0.8,0.1,2.2,0.1,2.2l-2.4,0.6l-0.3-0.4c0,0-0.7,0.6-1.4,0.8c-0.5,0.1-1.7,0.3-2.2,0.2
							c-2-0.1-3.3-0.7-3.4-1c-0.3-1.2,2.3-1.1,2.9-1.1c1.5-0.1,2.6-1.2,2.9-2c0.2-0.6,0.1-0.7,0.4-0.6c0,0,0.3,0,0.5,0.4
							c0.3,0.5,0.9,0.8,1.5,0.6c0.3-0.1,0.7-0.2,0.9-0.5C233.2,113.3,233.7,113.5,233.8,114.2z"/>
					</g>
					<g>
						<path class="st41" d="M256.1,69.7c0,0-5.6,0.6-12.4,0.4c-1.6,0-13.6,2.3-14.7,4.3c-1.9,3.3,1.2,22.9,0.9,36.9
							c0,0,1.4,1.2,4,0.1c0.6-6.9,4.7-23.1,1.9-30.6c6.6,0.9,11.9,1.7,18-0.2c1.4-0.5,2.5-1.5,3.1-3.3
							C257.4,75.3,257.1,71.3,256.1,69.7z"/>
					</g>
				</g>
				<g>
					<path class="st13" d="M240.5,40.5c0,0-1.4,0.1-1.7,0.1c-1.2,0.1-2.4,0.3-3.6,0.7c-1.6,0.6-2.8,2.1-4.1,3.3
						c-1.3,1.1-7.9,7.5-9.2,7.7c-1.2,0.2-12.1-7.2-12.1-7.2l-2.7,2.7c0,0,11.8,10.9,15.3,10.9c1.7,0,11.1-4.9,14.1-6.9L240.5,40.5z"
						/>
					<path class="st42" d="M222.5,56.5c-2.4,0.1-13.5-8.3-14.8-9.3l-0.5,0.5c0,0,11.8,10.9,15.3,10.9c1.4,0,8.2-3.4,12.2-5.7l1-0.6
						l-0.6-3.7C235.1,48.7,225.1,56.4,222.5,56.5z"/>
				</g>
				<g>
					<path class="st23" d="M211.2,71.9h27l-4.8-15.8c-0.3-0.9-1.1-1.5-2-1.5h-23.6c-0.9,0-1.6,0.9-1.3,1.7L211.2,71.9z"/>
					<path class="st43" d="M210.9,71.9h26.6l-4.8-15.8c-0.3-0.9-1.1-1.5-2-1.5H207c-0.9,0-1.6,0.9-1.3,1.7l4.6,15.1
						C210.4,71.7,210.6,71.9,210.9,71.9z"/>
				</g>
				<g class="st12">
					<path class="st44" d="M252.4,48.1c-1.3,6.1-1.6,10.8-2,15.2c-4.7,1.8-6.6,4.6-11.3,6.6c0,0-3.6-0.6-4,0.8
						c-0.2,0.8,4.3,1.4,4.3,1.4c4.3,0,15.6-3.1,16.3-3.3c0.8-0.2,3-14.6,3.1-22.3c0-1.1,0-2.3-0.7-3.2c-0.4-0.5-0.9-0.8-1.4-1
						c-3-1.5-5.2-2-8.6-2.2"/>
				</g>
				<g>
					<path class="st31" d="M239.8,70.8c-0.5-0.6-1.4-0.7-2.2-0.7c-0.6,0-1.2,0.1-1.8,0.1c-0.3,0-0.6,0.1-0.6,0.4c0,0.3,1.3,0,2,0.2
						c-1.4,0.1-2.8,0.2-4.2,0.1c-0.2,0-0.3,0-0.5,0c-0.2,0.1-0.3,0.2-0.3,0.4c0,0.1,0.1,0.2,0.2,0.3c0.4,0.3,0.9,0.5,1.4,0.6
						c2.1,0.4,4.4,0.3,6.3-0.6"/>
				</g>
				<g>
					<path class="st13" d="M252.1,48c-0.1,6.5-0.6,9.5-0.4,16c-3.3,0.7-7.8,4.4-12.4,6.4c0,0-0.3,0.9,0.2,1.7
						c0.4,0.1,15.6-3.6,16.8-4.7c1.1-1,2.5-13.2,2.6-21c0-1.1,0-2.3-0.7-3.2c-0.4-0.5-0.9-0.8-1.4-1c-3-1.5-5.2-2-8.6-2.2"/>
				</g>
				<g>
					<path class="st45" d="M224.6,63.5c0.1,1.4-1.5,2.5-3.7,2.5c-2.1,0-3.9-1.1-4-2.5c-0.1-1.4,1.5-2.5,3.7-2.5
						S224.5,62.1,224.6,63.5z"/>
					
						<ellipse transform="matrix(3.896182e-02 -0.9992 0.9992 3.896182e-02 148.6976 281.6303)" class="st23" cx="220.8" cy="63.5" rx="1.4" ry="2.4"/>
				</g>
			</g>
			<path class="st46" d="M242.4,29.6c-0.1-0.2-0.6-0.3-1.1-0.2c-0.5,0.1-2,0.2-2.3,0.5c-0.3,0.2-0.3,0.4-0.4,0.4
				c-0.2,0-0.2-0.1-0.5-0.3c-0.3-0.2-1.2,0-1.7,0c-0.5,0.1-1.1,0.2-1,0.4c0,0.2,0.1,0.7,0.2,0.7c0.1,0.1,0.1,0.1,0.5,1
				c0.2,0.5,0.6,0.9,1.3,0.7c0.9-0.2,0.9-1.2,1-1.6c0.1-0.4,0.1-0.5,0.3-0.5c0.1,0,0.2,0,0.4,0.4c0.2,0.4,0.3,1.3,1.2,1.4
				c1.2,0.1,1.7-0.3,1.9-1.1c0.2-1,0.2-1,0.3-1.1c0,0,0.9,0.1,0.9,0.1l0-0.3C243.2,30.1,242.4,29.7,242.4,29.6z M238,31.7
				c0,0.5-0.3,1-0.9,1.1c-0.5,0.1-0.8-0.2-1.1-0.9c-0.3-0.6-0.3-1.1-0.2-1.3c0.1-0.2,0.4-0.2,1.1-0.2c0.7,0,0.9-0.1,1,0.2
				C238,30.7,238.1,31.2,238,31.7z M241.9,31.1c-0.1,0.8-0.4,1.1-1.1,1.2c-1.1,0.1-1.3-0.3-1.4-0.8c-0.2-0.5-0.2-0.9-0.2-1
				c0-0.3,0.3-0.4,0.9-0.5c0.7-0.1,1.6-0.3,1.7-0.1S242,30.5,241.9,31.1z"/>
			<g>
				<path class="st46" d="M249.6,27.9c-0.1-0.6-0.2-1.1-0.3-1.6c-0.4-1.4-1.2-2.6-2.5-3.3c-1.6-0.9-3.9-1.1-5.6-0.6
					c-1,0.3-1.4,0.8-1.9,0.8c-0.4,0-0.9-0.3-1.4-0.5c-4-1.5-3.4,2.5-2.9,3.6c0.2,0.5,1.1,0.8,1.2,1c0.1,0.2,0.1,1.2,0.2,1.6
					c0.1,0.4,0.5,0.6,0.5,0.6s0-1.3,0-1.4c0.1-0.5,0.2-0.9,0.6-1.2c0.4-0.3,1-0.3,1.5-0.4c0.5-0.1,2.8,0.4,3,0.5
					c0.8,0.6,0.9,2.1,1.2,3c0.1,0.4,0.2,0.7,0.4,0.7c0.1-1.2,0.5-1.2,1.3-0.8c0.4,0.2,0.6,1,0.6,1.6c0,0.8-0.4,1.6-1.2,1.8
					c-0.3,0.1,0.6,1.7,1,2.1c0.1,0.1,0.3,0.3,0.4,0.4c0.1,0.1,0.3,0.1,0.5,0.2c0.2,0.1,0.4,0.1,0.6,0.2c0.3,0.1,0.5,0.1,0.8,0.1
					c0.4-0.1,0.7-0.6,0.8-1c0.3-0.7,0.7-1.3,0.9-2C249.6,31.7,249.8,29.7,249.6,27.9z"/>
			</g>
		</g>
		<g>
			<path class="st47" d="M322.3,87.8h-51.1l6.1-4.5V61.1c0-1.8,1.5-3.3,3.3-3.3h41.6c1.8,0,3.3,1.5,3.3,3.3v23.3
				C325.7,86.3,324.2,87.8,322.3,87.8z"/>
			<g>
				<rect x="297.9" y="62.1" class="st48" width="23.4" height="2.2"/>
				<rect x="297.9" y="65.4" class="st48" width="23.4" height="2.2"/>
				<rect x="297.9" y="68.8" class="st48" width="23.4" height="2.2"/>
				<rect x="297.9" y="72" class="st48" width="23.4" height="2.2"/>
				<rect x="297.9" y="75.9" class="st48" width="16.3" height="2.2"/>
				<g>
					<path class="st49" d="M292.7,79.3h-7.9c-1.9,0-3.4-1.5-3.4-3.4V65.5c0-1.9,1.5-3.4,3.4-3.4h7.9c1.9,0,3.4,1.5,3.4,3.4v10.4
						C296,77.7,294.5,79.3,292.7,79.3z"/>
					<rect x="281.4" y="81.4" class="st48" width="14.7" height="1.8"/>
					<g>
						<path class="st11" d="M290.2,73.2h-5.3c-0.3,0-0.6-0.2-0.6-0.5l-1-3.8c-0.1-0.4,0.2-0.8,0.6-0.8h7.4c0.4,0,0.8,0.4,0.6,0.8
							l-1,3.8C290.7,73,290.5,73.2,290.2,73.2z"/>
						<g>
							<path class="st11" d="M291.1,74.1h-6.4c-0.1,0-0.1-0.1-0.1-0.1c0-0.1,0.1-0.1,0.1-0.1h6.3l2.2-7.8c0-0.1,0.1-0.1,0.1-0.1h1.4
								c0.1,0,0.1,0.1,0.1,0.1c0,0.1-0.1,0.1-0.1,0.1h-1.3l-2.2,7.8C291.2,74.1,291.2,74.1,291.1,74.1z"/>
						</g>
						<g>
							<path class="st11" d="M285.7,75.1c0,0.4-0.3,0.8-0.8,0.8c-0.4,0-0.8-0.3-0.8-0.8c0-0.4,0.3-0.8,0.8-0.8
								C285.3,74.4,285.7,74.7,285.7,75.1z"/>
							<circle class="st11" cx="290.5" cy="75.1" r="0.8"/>
						</g>
					</g>
				</g>
			</g>
		</g>
		<g>
			<path class="st47" d="M132.5,56.9h65.1l-7.8-5.8V15.5c0-2.3-1.9-4.3-4.3-4.3h-53.1c-2.3,0-4.3,1.9-4.3,4.3v37.1
				C128.3,55,130.2,56.9,132.5,56.9z"/>
			<g>
				<g class="st27">
					
						<rect x="133.9" y="17.9" transform="matrix(-1 -1.224647e-16 1.224647e-16 -1 297.578 38.5822)" class="st11" width="29.8" height="2.8"/>
					
						<rect x="133.9" y="22.1" transform="matrix(-1 -1.224647e-16 1.224647e-16 -1 297.578 47.0879)" class="st11" width="29.8" height="2.8"/>
					
						<rect x="133.9" y="26.4" transform="matrix(-1 -1.224647e-16 1.224647e-16 -1 297.578 55.5937)" class="st11" width="29.8" height="2.8"/>
					
						<rect x="133.9" y="30.5" transform="matrix(-1 -1.224647e-16 1.224647e-16 -1 297.578 63.8815)" class="st11" width="29.8" height="2.8"/>
					
						<rect x="133.9" y="34.7" transform="matrix(-1 -1.224647e-16 1.224647e-16 -1 297.578 72.1693)" class="st11" width="29.8" height="2.8"/>
					
						<rect x="133.9" y="42.2" transform="matrix(-1 -1.224647e-16 1.224647e-16 -1 297.578 87.2294)" class="st11" width="29.8" height="2.8"/>
					
						<rect x="133.9" y="46.7" transform="matrix(-1 -1.224647e-16 1.224647e-16 -1 318.6044 96.1975)" class="st11" width="50.8" height="2.8"/>
				</g>
				<g>
					<path class="st36" d="M170.3,39.7h10.1c2.4,0,4.3-1.9,4.3-4.3V22.2c0-2.4-1.9-4.3-4.3-4.3h-10.1c-2.4,0-4.3,1.9-4.3,4.3v13.2
						C166,37.8,167.9,39.7,170.3,39.7z"/>
					
						<rect x="166" y="42.4" transform="matrix(-1 -1.224647e-16 1.224647e-16 -1 350.6939 87.2294)" class="st48" width="18.7" height="2.3"/>
					<g>
						<path class="st11" d="M173.5,32h6.8c0.4,0,0.7-0.3,0.8-0.6l1.3-4.8c0.1-0.5-0.3-1.1-0.8-1.1h-9.4c-0.6,0-1,0.5-0.8,1.1
							l1.3,4.8C172.8,31.8,173.1,32,173.5,32z"/>
						<g>
							<path class="st11" d="M172.3,33.1h8.2c0.1,0,0.2-0.1,0.2-0.2c0-0.1-0.1-0.2-0.2-0.2h-8l-2.8-9.9c0-0.1-0.1-0.1-0.2-0.1h-1.8
								c-0.1,0-0.2,0.1-0.2,0.2c0,0.1,0.1,0.2,0.2,0.2h1.7l2.8,9.9C172.2,33.1,172.2,33.1,172.3,33.1z"/>
						</g>
						<g>
							<path class="st11" d="M179.2,34.5c0,0.5,0.4,1,1,1c0.5,0,1-0.4,1-1c0-0.5-0.4-1-1-1C179.7,33.5,179.2,33.9,179.2,34.5z"/>
							<path class="st11" d="M172,34.5c0,0.5,0.4,1,1,1c0.5,0,1-0.4,1-1c0-0.5-0.4-1-1-1C172.5,33.5,172,33.9,172,34.5z"/>
						</g>
					</g>
				</g>
			</g>
		</g>
		<g>
			<ellipse class="st0" cx="283.1" cy="241.4" rx="28.7" ry="3"/>
			<path class="st5" d="M267.7,237.1c-0.2,0.5-1.4,1.6-3,2.3c-1.6,0.7-5,1-3.1,1.7c1.9,0.6,4.1,0.2,5.2,0.1c1.1-0.2,2.2-0.2,3.5-0.2
				c1.7,0,1.7-0.1,1.5-2.1C271.5,236.1,268.5,235.6,267.7,237.1z"/>
			<path class="st5" d="M299,236.1c-0.1,0.5,0.7,2.2-0.7,3.4c-1.4,1.2-4.5,2.5-2.4,2.5c2.1,0,4.1-0.4,5.1-1c1.1-0.5,0.2-1.3,1.5-1.7
				c1.7-0.5,1.4-1.8,0.5-2.6C301.8,234.1,299.3,234.4,299,236.1z"/>
			<path class="st7" d="M292.4,181.5c0,0,4.1-12.1-7.6-22.1c0,0-6.3,2.5-11.3,2.8c-4,0.2-6-0.1-6-0.1s-0.3,10.8-0.3,16.6
				L292.4,181.5z"/>
			<path class="st7" d="M266.3,201.6c-0.2-5.4,5.6-4.7,7.8-0.7c4.5,8.4-1.7,27.6-2.5,36.8c-0.8,0.3-2.3,0.6-3.1,0.2
				c-0.6-0.3-0.9-1-0.9-1C267.8,225.7,266.6,207.4,266.3,201.6z"/>
			<path class="st7" d="M273.9,202.4c-0.7,2.2-8.2,4.5-7.6-3.5c0.3-3.6,1-23.3,1.1-25.2c0.1-1.9,0.5-4.7,1.4-5
				c4.6-1.7,12.7,4.3,11.5,11.4C279.6,184.9,275.3,197.8,273.9,202.4z"/>
			<path class="st7" d="M285.7,205.5c-1.8-5.1,4.1-6,7.4-2.9c7.8,7.4,8.1,24.7,10,33.7c-1.1,0.7-2.8,1-3.4,1c-0.6,0-0.9-0.5-0.9-0.5
				C295.7,226.1,287.7,211,285.7,205.5z"/>
			<path class="st7" d="M293.5,203.8c0.2,2.3-6,7.1-8.5-0.6c-1.1-3.4-5.8-23.6-6.3-25.4c-0.6-1.8-0.4-5.6,0.3-6.2
				c3.6-3.3,11.7-0.4,13.3,6.7C293.3,183,293,199.1,293.5,203.8z"/>
			<g>
				<g>
					<path class="st50" d="M261.3,115.6c0.2-0.2,0.4-0.4,0.6-0.7c1.5-1.9,1.7-3.6,3.1-5.8c0.2-0.3,0.5-1.2,1-1.9
						c0.5-0.8,1.9-1.6,2.2-1.8c0.6-0.3,0.1,1.1,0.1,1.1s0.5-0.8,1.1-0.7c0.2,0,0.2,1.2,0.2,1.4c0,1.7-0.4,3.3-1.1,4.8
						c-0.2,0.3-0.4,0.7-0.4,1.1c0.5,0,0.9-0.3,1.3-0.6c0.4-0.3,0.9-0.6,1.4-0.4c-0.1,0.2-0.2,0.4-0.3,0.6c-0.6,1.1-1.2,2.3-2.4,2.8
						c-0.7,0.3-1.4,0.4-2.1,0.7c-1.2,0.6-1.8,2.1-3,2.7"/>
				</g>
				<path class="st51" d="M268.3,116l-3.5-1.5c-0.3-0.1-0.5-0.5-0.3-0.8l3.1-7.5c0.1-0.3,0.5-0.5,0.8-0.3l3.5,1.5
					c0.3,0.1,0.5,0.5,0.3,0.8l-3.1,7.5C269,116,268.6,116.2,268.3,116z"/>
				
					<rect x="266.3" y="106.8" transform="matrix(0.9226 0.3859 -0.3859 0.9226 63.6304 -95.007)" class="st52" width="4.3" height="8.4"/>
				<path class="st43" d="M272.1,123.3c0,0-3,0.2-5.7,1c-4.1,1.2-5.5,3.1-6.9,3.9c2.7-3.5,5.8-10.8,5.8-10.8s-3.7-3-4.1-2.3
					c-0.4,0.7-15.8,18.7-15.4,21.7c0.2,1.2,2,2.4,3.6,2.3c4.4-0.1,9.4-1.7,14.8-3.5c2.3-0.8,3.1,0.9,3.1,0.9"/>
				<path class="st53" d="M259.5,128.1c0,0-1.9,3.9-2.5,4.2c-0.6,0.3,1.4-0.8,2.5-1.9c1.1-1.1,2.6-4.1,2.6-4.1
					C261.5,126.5,259.5,128.1,259.5,128.1z"/>
				<g>
					<path class="st50" d="M265.6,109.2c0.2,0.1,0.2,0.4,0.3,0.6c0.1,0.9,0.3,1.8-0.1,2.6c-0.2,0.5-0.6,1-1,1.3
						c-0.5,0.4-1,0.8-1.6,1.1"/>
				</g>
				<g>
					<path class="st54" d="M272.2,102.7c-1,0.3-1.6,1.6-1.9,2.5c-0.4,1.1-0.6,2.3-0.8,3.4c-0.1,0.8-0.2,1.7,0.2,2.4
						c0.2,0.4,0.4,0.7,0.7,1c0.1,0.2,0.3,0.4,0.5,0.5c0.2,0.1,0.4,0.2,0.7,0.1c0.3-0.1,0.4-0.5,0.5-0.8c0.6-2.2,1.2-4.3,2.5-6.2"/>
				</g>
				<g>
					<path class="st50" d="M271,109.5c0-0.7-0.7-1.1-1.4-0.4c-0.5,0.6-0.7,1.7-0.7,2.5c0,1,0.7,1.2,1.4,1.3"/>
				</g>
				<path class="st43" d="M264.2,126.8c1.3-1.5,5.3-3.9,10.7-3.7c3.7,0.1,13.8,0.7,15,3.2c0.6,1.3,1.2,14.3,0.4,18.8
					c-0.6,3.4-2.3,11.7-2.3,13.7c0,2,1.1,2.9,0.6,3.5c-1.1,1.3-8.9,1.9-12.5,1.9c-3.2,0-8.7-0.9-9-1.9c-0.4-1.5,0.6-1.5,0.8-3.1
					c0.1-1.6,0.5-12.1,0-13.8c-1.1-3.1-1.6-8.1-2.4-10.4C264.6,133.2,262.9,128.3,264.2,126.8z"/>
				<path class="st53" d="M287.3,137.4c0.4,0.8,3,5,3,5l0.1,0.5c-0.1,0.9-0.2,1.6-0.3,2.2c-0.6,3.4-2.3,11.7-2.3,13.7
					c0,2,1,2.8,0.6,3.5c-0.9,1.2-15.5,3.9-14.8,0.6c0.1-0.3,12.2-9.6,12.3-9.9c0.6-2.7,1.1-4.6,1.3-6.5
					C287.9,141.7,286.9,136.5,287.3,137.4z"/>
				<path class="st55" d="M271.9,118.5c0,0,0,4.2-0.2,4.4c-0.2,0.2-1,0.6-1,0.6s0.6,3.7,1.5,3.4c0.9-0.3,7-3.3,7-3.3
					s-0.9-0.4-0.9-0.7c0-0.3,0.8-7,0.8-7"/>
				<path class="st55" d="M276.2,103.1c-0.9,0.2-3.2-0.2-3.9,0.7c-0.6,1-1.2,3.3-1.5,3.9c-0.5,1.3-0.8,2.7-1.1,4
					c-0.5,1.7-1.2,4.9,0.5,6.3c0.5,0.4,0.7,0.6,1.3,0.7c0.8,0.1,1.6,0.3,2.4,0.5c1.2,0.2,2.6,0.5,3.8,0.1c1.6-0.5,2.5-2.8,3-4.3
					l2.4-8.8L276.2,103.1z"/>
				<path class="st56" d="M271.8,128.5c0,0-0.4,16.5-1,26.5l2.4,3.3l1.7-4.2c0,0,0.7-12.1-1.6-25.6L271.8,128.5z"/>
				<path class="st56" d="M271.2,127.1l0.1,0.2c0.1,0.4,0.3,0.8,0.5,1.2l0,0l1.5,0.1c0,0,1-0.5,1.1-1.1c0.1-0.6-1.7-1.5-1.7-1.5
					l-0.2,0.1C272,126.3,271.6,126.6,271.2,127.1L271.2,127.1z"/>
				<path class="st11" d="M278.5,121.8c0,0,1,0.6,1.7,1.7c-0.8,1.8-2.5,4.9-4.4,6.3c-0.9-2.4-3-3.8-3-3.8S277.9,125.1,278.5,121.8z"
					/>
				<path class="st11" d="M272.8,126c0,0-1.9,0.7-3,2.8c0,0-0.4-2.8,0.4-5.2c0,0,1.2-1.6,1.6-1.6C271.7,124,272.8,126,272.8,126z"/>
				<g>
					<g>
						<path class="st50" d="M273,162.9c-1.8,0.3-2.5,1-3.6,2c-0.1,0.1-0.2,0.2-0.2,0.3c0,0.1,0.2,0.2,0.3,0.2c0.9,0.1,1-0.4,1.8-0.7
							c0.5-0.2,1.1-0.5,1.6-0.7"/>
					</g>
					<g>
						<g>
							<path class="st57" d="M266.7,149.4l6.5,21c0.2,0.6-0.1,1-0.7,1.1l-13.6,1.2c-0.5,0-1-0.4-1.1-0.9l-7-20.6
								c-0.2-0.6,0.6-1.4,1.2-1.4l13.6-1.2C266.1,148.5,266.6,148.9,266.7,149.4z"/>
						</g>
						<g>
							<path class="st58" d="M266.3,150l6.4,20.6c0.2,0.6-0.1,1-0.7,1.1l-13.6,1.2c-0.5,0-1-0.4-1.1-0.9l-6.4-20.6
								c-0.2-0.6,0.1-1,0.7-1.1l13.6-1.2C265.6,149.1,266.1,149.5,266.3,150z"/>
						</g>
						<g>
							<polygon class="st11" points="255.4,149.3 255.9,151.1 262.2,150.5 261.7,148.7 							"/>
							<g>
								<g>
									<path class="st11" d="M256.6,147.6c0.1,0.4,0.6,2,0.6,2l3-0.3l-0.6-2c-0.3-0.9-1.2-1.5-2-1.5
										C256.8,146,256.3,146.7,256.6,147.6z M257.3,147.6c-0.2-0.5,0.1-0.9,0.6-1c0.5,0,1,0.3,1.1,0.8c0.2,0.5-0.1,0.9-0.6,1
										C257.9,148.4,257.4,148.1,257.3,147.6z"/>
								</g>
							</g>
						</g>
					</g>
					<g>
						<path class="st55" d="M278.2,161.4c-1.4,0.3-5.2,1.4-5.6,1.6c-0.5,0.2-2.1,1.4-2.4,1.8c-1.4,1.4-0.7,2.1-1.3,4.1
							c0,0.1,0,0.2,0,0.3c0,0.2,0.3,0.4,0.6,0.2c0.1,0.3,0.6,0.1,0.8-0.2c0,0.2,0.3,0.3,0.7,0.1c0.2-0.1,0.2-0.1,0.7-0.6
							c0.4-0.3,0.8-0.6,1.6-0.9c0.5-0.2,1.1-0.4,1.5-0.7c0.6-0.4,1.6-0.5,2.1-2.1c0.1-0.4,0.5-0.6,0.8-0.8c0.8-0.5,1.6-1,2.3-1.5"/>
					</g>
					<path class="st43" d="M287,134.6c0.6,2.2,3.1,17.2,3.1,17.2L275.9,162l1.2,3.1c0,0,17-5.7,18.4-9.6c1.3-3.9,1.3-21.5-3.4-27.7
						c-1.5-2-4.5-3-4.5-3"/>
					<g>
						<path class="st50" d="M272.4,166.8c-0.4,0.4-0.8,0.7-1.1,1.1c-0.3,0.4-0.6,0.8-1,1.1c0.2-0.5,0.5-0.9,0.9-1.3
							c0.2-0.2,0.4-0.4,0.6-0.5C271.9,167,272.2,166.9,272.4,166.8z"/>
					</g>
					<g>
						<path class="st50" d="M271.6,165.9c-0.3,0.2-0.4,0.5-0.6,0.7c-0.2,0.3-0.4,0.5-0.5,0.8c-0.3,0.6-0.6,1.2-1,1.7
							c0.2-0.6,0.5-1.2,0.8-1.8c0.2-0.3,0.4-0.6,0.6-0.8C271.1,166.3,271.3,166,271.6,165.9z"/>
					</g>
					<g>
						<path class="st50" d="M270.7,165.1c-0.2,0.3-0.4,0.5-0.6,0.8c-0.2,0.2-0.3,0.5-0.4,0.8l-0.7,1.7c0-0.6,0.2-1.3,0.5-1.8
							c0.1-0.3,0.3-0.6,0.5-0.8C270.3,165.5,270.5,165.3,270.7,165.1z"/>
					</g>
				</g>
				<g>
					<path class="st56" d="M281.6,113.4c-0.6-0.3-1-0.7-1.3-0.1c-0.2,0.3-0.3,0.7-0.6,0.8c-0.3,0.1-0.7-0.2-0.7-0.5
						c-0.1-0.3,0-0.7,0.1-1c0.2-0.7,0.4-1.4,0.7-2.2c0.2-0.7,0.4-1.5,0.2-2.2c-0.1-0.3-0.4-0.6-0.7-0.9c-0.9-0.8-2.1-1.2-3.3-1.4
						c-1.2-0.2-2.4-0.4-3.6-0.7c-0.5-0.2-1-0.4-1.4-0.7c-0.6-0.5-1-1.4-1-2.2c0-0.8,0.3-1.6,0.7-2.3c0.1,0.3,0.2,0.6,0.4,0.8
						c0.1-0.4,0.4-0.7,0.7-1c0.3,1.9,8.5,1.3,10.4,2.1c1.3,0.6,2.4,1,2.4,3.1c0,0.1,0.2,0.2,0.3,0.3c1.2,1.1,1.7,2.4,1.8,4.3
						c0.2,2.4-1.2,4.9-2.6,6.9c-0.3,0.5-0.5,0.8-1,1.2c-0.5,0.4-1.3,0.5-1.9,0.4c-0.6-0.1-1.7-0.1-1.8-0.7c0-0.4,0.9-1.2,1.2-1.5"/>
				</g>
				<g>
					<path class="st55" d="M279.4,115.7c0,0-0.1,0.4,0.2,0.7c0.2,0.3,0.7,0.2,1,0.1c0.9-0.3,1.5-1.1,1.6-2c0.2-1-0.4-2.1-1.3-1.8
						c-0.5,0.2-0.9,0.8-0.9,1.4"/>
				</g>
				<g>
					<path class="st50" d="M271.9,118.9l2.6,0.5c0,0-0.9,1-2.6,1"/>
				</g>
			</g>
		</g>
		<g class="st59">
			<g>
				<g>
					<polyline class="st60" points="66.8,74 70.3,75.8 68.5,71.5 					"/>
				</g>
				<path class="st60" d="M55.9,68.6c0,3.9,3.3,7,7.4,7s7.4-3.1,7.4-7c0-3.9-3.3-7-7.4-7S55.9,64.7,55.9,68.6z"/>
			</g>
			<path class="st61" d="M61.5,66.3v5c0,0.4,0.4,0.7,0.8,0.5l4.3-2.5c0.3-0.2,0.3-0.7,0-0.9l-4.3-2.5C61.9,65.6,61.5,65.9,61.5,66.3
				z"/>
		</g>
		<g class="st59">
			<g>
				<g>
					<polyline class="st60" points="308.9,127.1 305.4,128.9 307.2,124.6 					"/>
				</g>
				<path class="st60" d="M319.8,121.7c0,3.9-3.3,7-7.4,7c-4.1,0-7.4-3.1-7.4-7c0-3.9,3.3-7,7.4-7
					C316.5,114.7,319.8,117.8,319.8,121.7z"/>
			</g>
			<g>
				<g>
					<g>
						<path class="st61" d="M311.1,125c1.6,0,3.2,0,4.7-0.1c0.5,0,0.9-0.7,0.3-1c0.2-0.1,0.5-0.2,0.6-0.5c0.1-0.2,0-0.6-0.3-0.6
							c0.6,0.1,0.8-0.7,0.3-1c0.2-0.2,0.4-0.4,0.5-0.7c0-0.3-0.1-0.6-0.3-0.7c-0.2-0.1-0.4-0.1-0.6-0.1c-0.7,0-1.3,0-2,0
							c0.2-1,0.2-2.1-0.3-2.9c-0.2-0.3-0.6-0.6-0.9-0.4c-0.3,0.2-0.2,0.7-0.2,1c0.1,1.2-0.7,2.5-1.8,3.1
							C311,121,311.1,123.7,311.1,125z"/>
					</g>
				</g>
				<rect x="308.1" y="121" class="st61" width="2.4" height="4"/>
			</g>
		</g>
		<g class="st59">
			<g>
				<g>
					<polyline class="st60" points="197,66.5 199.5,63.8 196,64.5 					"/>
				</g>
				<path class="st60" d="M187.5,67.2c0,2.8,2.4,5.1,5.4,5.1s5.4-2.3,5.4-5.1c0-2.8-2.4-5.1-5.4-5.1S187.5,64.4,187.5,67.2z"/>
			</g>
			<g>
				<g>
					<g>
						<path class="st61" d="M191.8,69.6c1.1,0,2.1,0,3.1,0c0.3,0,0.6-0.5,0.2-0.7c0.2-0.1,0.3-0.2,0.4-0.3c0.1-0.2,0-0.4-0.2-0.5
							c0.4,0.1,0.5-0.5,0.2-0.7c0.2-0.1,0.3-0.3,0.3-0.5c0-0.2,0-0.4-0.2-0.5c-0.1-0.1-0.3-0.1-0.4-0.1c-0.4,0-0.9,0-1.3,0
							c0.1-0.7,0.2-1.5-0.2-2.1c-0.1-0.2-0.4-0.4-0.6-0.3c-0.2,0.1-0.2,0.5-0.1,0.7c0,0.9-0.4,1.8-1.2,2.2
							C191.8,66.7,191.8,68.6,191.8,69.6z"/>
					</g>
				</g>
				<rect x="189.8" y="66.7" class="st61" width="1.6" height="2.9"/>
			</g>
		</g>
		<g class="st59">
			<path class="st60" d="M221.9,29.5c1.1-1.4,1.7-3.1,1.7-4.9c0-4.4-3.5-7.9-7.9-7.9c-4.4,0-7.9,3.5-7.9,7.9c0,4.4,3.5,7.9,7.9,7.9
				c1.6,0,3.1-0.5,4.4-1.3l3.1,1.6L221.9,29.5z"/>
			<path class="st11" d="M212.4,22.4c0.8-0.7,2-0.7,2.7,0l0.5,0.5l0.5-0.5c0.8-0.8,2-0.7,2.7,0c0.7,0.8,0.7,2,0,2.7l-1.9,1.9
				c0,0,0,0,0,0c-0.3,0.3-0.7,0.5-1.1,0.5c-0.6,0.1-1.2-0.1-1.7-0.6l-1.9-1.9C211.6,24.4,211.6,23.2,212.4,22.4z"/>
		</g>
	</g>
</g>
</svg>
