<!-- Generator: Adobe Illustrator 23.0.3, SVG Export Plug-In  -->
<svg version="1.1" xmlns="http://www.w3.org/2000/svg" xmlns:xlink="http://www.w3.org/1999/xlink" x="0px" y="0px" viewBox="0 0 414.1 288.7" style="enable-background:new 0 0 414.1 288.7;" xml:space="preserve">
<style type="text/css">
	.st0{opacity:0.35;}
	.st1{fill:#C3ECFE;}
	.st2{fill:none;stroke:#C3ECFE;stroke-width:1.0564;stroke-miterlimit:10;}
	.st3{fill:#599FD2;}
	.st4{fill:none;stroke:#A1DBFF;stroke-width:1.0564;stroke-miterlimit:10;stroke-dasharray:2.641;}
	.st5{fill:#88D2FF;}
	.st6{fill:#9BDFFF;}
	.st7{fill:#C0EDFF;}
	.st8{fill:none;stroke:#A1DBFF;stroke-width:1.0564;stroke-miterlimit:10;}
	.st9{fill:none;stroke:#A1DBFF;stroke-width:1.0564;stroke-miterlimit:10;stroke-dasharray:2.6719,2.6719;}
	.st10{fill:#FE7D90;}
	.st11{opacity:0.5;}
	.st12{fill:none;stroke:#CCF3FF;stroke-width:1.0564;stroke-miterlimit:10;}
	.st13{fill:#CCF3FF;}
	.st14{fill:#E9E8EE;}
	.st15{fill:#E8505B;}
	.st16{opacity:0.45;}
	.st17{fill:#B03D44;}
	.st18{fill:#3E89CC;}
	.st19{fill:#FFFFFF;}
	.st20{opacity:0.45;fill:#B03D44;}
	.st21{opacity:0.25;fill:#0964AF;}
	.st22{fill:none;stroke:#FE7D90;stroke-width:1.0564;stroke-miterlimit:10;}
	.st23{fill:#0964AF;}
	.st24{opacity:0.15;}
	.st25{fill:none;stroke:#0964AF;stroke-width:2.1128;stroke-linecap:round;stroke-linejoin:round;stroke-miterlimit:10;}
	.st26{opacity:0.45;fill:#5AB5E2;}
	.st27{opacity:0.35;fill:#BDEEFF;}
	.st28{fill:#FFBE9D;}
	.st29{fill:#170D54;}
	.st30{fill:#F2A181;}
	.st31{fill:#FFCCB0;}
	.st32{fill:#57C6F2;}
	.st33{fill:#1B227A;}
	.st34{fill:#EAEAEA;}
	.st35{fill:#E5F8FF;}
	.st36{fill:none;stroke:#A1D2F0;stroke-width:0.5282;stroke-linecap:round;stroke-linejoin:round;stroke-miterlimit:10;}
	.st37{fill:#2679C4;}
	.st38{fill:none;stroke:#1B227A;stroke-width:5.282;stroke-miterlimit:10;}
	.st39{fill:none;stroke:#1B227A;stroke-width:5.282;stroke-linecap:round;stroke-linejoin:round;stroke-miterlimit:10;}
	.st40{fill:#80CFFF;}
	.st41{fill:#A4E1FF;}
	.st42{opacity:0.19;fill:#0964AF;}
	.st43{fill:none;stroke:#FFFFFF;stroke-width:1.0564;stroke-linecap:round;stroke-linejoin:round;stroke-miterlimit:10;}
	.st44{fill:#FFFFFF;stroke:#FE7D90;stroke-width:2.1128;stroke-linecap:round;stroke-linejoin:round;stroke-miterlimit:10;}
	.st45{fill:none;stroke:#FE7D90;stroke-width:2.1128;stroke-linecap:round;stroke-linejoin:round;stroke-miterlimit:10;}
	.st46{fill:none;stroke:#2F3F91;stroke-width:1.0564;stroke-miterlimit:10;}
	.st47{fill:#C2EBFF;}
</style>
<defs>
</defs>
<g>
	<g>
		<g class="st0">
			<path class="st1" d="M388.2,193.6c-5.6-20.1,12.2-20.9,12.6-46.9c0.2-10.6-5.7-21.4-19.6-26.4c-6.9-2.4-13.7-4.1-19.8-8
				c-13.9-8.8-13.7-25.6-17.5-40c-8.4-31.5-40.5-56.5-73-55.6c-23.5,0.6-44.7,1.3-66,21.2c-14.6,13.6-24.1,30.4-37.7,44.4
				c-14.4,14.9-31.9,22-51.6,26.8c-18.6,4.5-38.9,9.9-53.1,23.4c-13.4,12.7-11.4,26.1-5.7,41.7c6.3,17.2-7.4,29-21.7,35.7
				c-12.1,5.7-28.1,5.2-33.7,18.7c-6.1,14.7,12,14.9,28.7,14.9c16.8,0,233.7-1.3,294.4,0.5c16.3,0.5,68.4,4.9,75.8-15.4
				C405.1,214.9,392.1,207.7,388.2,193.6z"/>
		</g>
		<g>
			<path class="st2" d="M406.8,187.3c-12.1,28.2-35.5,51.2-63.5,63.7"/>
			<g>
				<g>
					<path class="st1" d="M403.3,194.8c4.2-3.5,7.1-8.6,8-14.1c0.2-1.3,0.3-2.9-0.6-3.9c-0.2-0.3-0.6-0.5-0.9-0.5
						c-0.6-0.1-1.1,0.4-1.5,0.8c-2.1,2.4-2.8,5.6-3.2,8.8C404.6,189.1,403.9,191.4,403.3,194.8"/>
				</g>
				<g>
					<path class="st1" d="M397.5,204.4c2.5-4.9,3.1-10.7,1.8-16.1c-0.3-1.3-0.9-2.7-2.1-3.3c-0.3-0.2-0.7-0.2-1.1-0.1
						c-0.6,0.2-0.9,0.8-1.1,1.4c-1,3-0.4,6.3,0.5,9.3C396.5,198.7,396.8,201.1,397.5,204.4"/>
				</g>
				<g>
					<path class="st1" d="M389,216.3c3.1-4.6,4.4-10.3,3.7-15.7c-0.2-1.3-0.6-2.8-1.7-3.5c-0.3-0.2-0.7-0.3-1.1-0.3
						c-0.6,0.1-1,0.7-1.2,1.2c-1.4,2.9-1.1,6.2-0.6,9.3C388.7,210.4,388.7,212.8,389,216.3"/>
				</g>
				<g>
					<path class="st1" d="M379.3,226.6c3.1-4.6,4.4-10.3,3.7-15.7c-0.2-1.3-0.6-2.8-1.7-3.5c-0.3-0.2-0.7-0.3-1.1-0.3
						c-0.6,0.1-1,0.7-1.2,1.2c-1.4,2.9-1.1,6.2-0.6,9.3C379,220.8,379,223.2,379.3,226.6"/>
				</g>
				<g>
					<path class="st1" d="M364.7,238.6c3.5-4.2,5.5-9.8,5.3-15.3c0-1.3-0.3-2.9-1.3-3.7c-0.3-0.2-0.7-0.4-1-0.4
						c-0.6,0-1,0.6-1.3,1.1c-1.6,2.7-1.8,6.1-1.6,9.2C365,232.7,364.8,235.1,364.7,238.6"/>
				</g>
				<g>
					<path class="st1" d="M353.3,246.2c3.5-3.8,5.7-9,6.2-14.5c0.1-1.3,0.1-2.9-0.7-3.8c-0.2-0.3-0.5-0.5-0.8-0.5
						c-0.5,0-0.9,0.4-1.3,0.9c-1.7,2.5-2.2,5.8-2.3,9C354.2,240.4,353.7,242.8,353.3,246.2"/>
				</g>
				<g>
					<path class="st1" d="M394.6,208.7c5.6,0.9,11.6-0.2,16.6-3.2c1.2-0.7,2.5-1.7,2.8-3.1c0.1-0.4,0.1-0.8-0.2-1.1
						c-0.3-0.5-1-0.6-1.6-0.6c-3.3,0-6.4,1.6-9.3,3.4C400.2,205.9,397.8,206.9,394.6,208.7"/>
				</g>
				<g>
					<path class="st1" d="M387.8,217.6c5.2,2.2,11.3,2.5,16.9,0.9c1.4-0.4,2.8-1.1,3.4-2.3c0.2-0.3,0.2-0.7,0.1-1.1
						c-0.2-0.6-0.8-0.8-1.4-1c-3.2-0.8-6.6,0-9.8,1.1C393.8,216.2,391.3,216.7,387.8,217.6"/>
				</g>
				<g>
					<path class="st1" d="M377.6,228c4.7,3.2,10.6,4.8,16.4,4.2c1.4-0.1,3-0.5,3.8-1.6c0.2-0.3,0.4-0.7,0.3-1
						c-0.1-0.6-0.7-1-1.2-1.3c-2.9-1.4-6.5-1.3-9.8-0.9C383.7,227.9,381.2,227.8,377.6,228"/>
				</g>
				<g>
					<path class="st1" d="M363.3,240.1c5.3,2.1,11.4,2.3,16.9,0.5c1.4-0.4,2.8-1.1,3.4-2.4c0.2-0.4,0.2-0.7,0.1-1.1
						c-0.2-0.6-0.9-0.8-1.5-1c-3.2-0.8-6.6,0.1-9.8,1.3C369.3,238.6,366.8,239.1,363.3,240.1"/>
				</g>
				<g>
					<path class="st1" d="M351.7,247c3.7,4.2,9.1,7.2,14.9,8.1c1.4,0.2,3,0.3,4.1-0.6c0.3-0.2,0.5-0.6,0.6-0.9
						c0.1-0.6-0.4-1.1-0.9-1.5c-2.5-2.1-6-2.9-9.3-3.2C357.7,248.4,355.3,247.7,351.7,247"/>
				</g>
			</g>
		</g>
		<g>
			<g>
				<path class="st3" d="M338.3,128c-0.1,0-0.3-0.1-0.3-0.3l-0.1-1.5c0-0.2,0.1-0.3,0.3-0.3c0.2,0,0.3,0.1,0.3,0.3l0.1,1.5
					C338.6,127.8,338.5,128,338.3,128C338.3,128,338.3,128,338.3,128z"/>
			</g>
			<g>
				<g>
					<polygon class="st1" points="345.1,196.5 341.1,196.8 336.6,132.5 338.6,132.4 340.6,132.3 					"/>
				</g>
			</g>
			<polygon class="st1" points="338.7,127.1 337.9,127.1 336.6,132.5 340.6,132.3 			"/>
		</g>
		<g>
			<path class="st2" d="M120.1,143.1c7.1,38.7,34.1,73.3,70,89.5"/>
			<g>
				<g>
					<path class="st1" d="M121.9,151.2c-3.3-4.4-5-10-4.7-15.5c0.1-1.3,0.4-2.8,1.5-3.6c0.3-0.2,0.7-0.4,1-0.3
						c0.6,0.1,1,0.6,1.3,1.1c1.5,2.8,1.5,6.1,1.2,9.3C121.8,145.3,122,147.7,121.9,151.2"/>
				</g>
				<g>
					<path class="st1" d="M125.3,161.8c-1.3-5.3-0.7-11.2,1.9-16.1c0.6-1.2,1.5-2.5,2.8-2.7c0.4-0.1,0.8-0.1,1.1,0.1
						c0.5,0.3,0.7,1,0.7,1.6c0.3,3.2-1,6.2-2.6,9C127.6,156.4,126.8,158.7,125.3,161.8"/>
				</g>
				<g>
					<path class="st1" d="M130.9,175.2c-2-5.1-2-11-0.1-16.2c0.5-1.3,1.2-2.6,2.4-3.1c0.4-0.1,0.7-0.2,1.1,0
						c0.5,0.2,0.8,0.9,0.9,1.5c0.7,3.1-0.3,6.3-1.5,9.2C132.6,169.6,132,171.9,130.9,175.2"/>
				</g>
				<g>
					<path class="st1" d="M138.1,187.5c-2-5.1-2-11-0.1-16.2c0.5-1.3,1.2-2.6,2.4-3.1c0.4-0.1,0.7-0.2,1.1,0
						c0.5,0.2,0.8,0.9,0.9,1.5c0.7,3.1-0.3,6.3-1.5,9.2C139.7,181.9,139.2,184.2,138.1,187.5"/>
				</g>
				<g>
					<path class="st1" d="M149.7,202.4c-2.5-4.9-3.1-10.7-1.8-16.1c0.3-1.3,0.9-2.7,2.1-3.3c0.3-0.2,0.7-0.2,1.1-0.1
						c0.6,0.2,0.9,0.8,1.1,1.4c1,3,0.4,6.3-0.5,9.3C150.7,196.6,150.4,199,149.7,202.4"/>
				</g>
				<g>
					<path class="st1" d="M159.1,212.4c-2.5-4.4-3.6-10.1-2.8-15.5c0.2-1.3,0.6-2.8,1.6-3.6c0.3-0.2,0.6-0.3,0.9-0.3
						c0.5,0.1,0.8,0.6,1,1.2c1.1,2.8,0.8,6.1,0.3,9.2C159.5,206.6,159.5,209,159.1,212.4"/>
				</g>
				<g>
					<path class="st1" d="M127.2,166.6c-5.7-0.3-11.3-2.8-15.5-6.8c-1-1-2.1-2.2-2-3.6c0-0.4,0.1-0.8,0.4-1c0.4-0.4,1.1-0.4,1.7-0.2
						c3.2,0.7,5.9,3,8.3,5.4C122.4,162.7,124.5,164.2,127.2,166.6"/>
				</g>
				<g>
					<path class="st1" d="M131.9,176.8c-5.6,1-11.6,0-16.7-2.9c-1.2-0.7-2.5-1.7-2.8-3c-0.1-0.4-0.1-0.8,0.1-1.1
						c0.3-0.5,1-0.6,1.6-0.6c3.3-0.1,6.5,1.5,9.3,3.2C126.3,174.2,128.6,175.1,131.9,176.8"/>
				</g>
				<g>
					<path class="st1" d="M139.5,189.3c-5.3,2.1-11.4,2.3-16.9,0.5c-1.4-0.4-2.8-1.1-3.4-2.4c-0.2-0.4-0.2-0.7-0.1-1.1
						c0.2-0.6,0.9-0.8,1.5-1c3.2-0.8,6.6,0.1,9.8,1.3C133.5,187.8,136,188.2,139.5,189.3"/>
				</g>
				<g>
					<path class="st1" d="M150.8,204.2c-5.6,0.9-11.6-0.3-16.6-3.3c-1.2-0.7-2.5-1.7-2.7-3.1c-0.1-0.4,0-0.8,0.2-1.1
						c0.3-0.5,1-0.6,1.6-0.6c3.3,0,6.4,1.6,9.2,3.4C145.2,201.4,147.6,202.4,150.8,204.2"/>
				</g>
				<g>
					<path class="st1" d="M160.5,213.5c-4.6,3.3-10.5,5-16.3,4.5c-1.4-0.1-3-0.4-3.8-1.5c-0.2-0.3-0.4-0.7-0.4-1
						c0.1-0.6,0.6-1,1.2-1.3c2.9-1.5,6.5-1.5,9.8-1.1C154.3,213.5,156.8,213.4,160.5,213.5"/>
				</g>
			</g>
		</g>
		<g>
			<path class="st2" d="M50.2,197.2c39.3-1.8,79.1,16.8,102.9,48.1"/>
			<g>
				<g>
					<path class="st1" d="M58.5,197.1c-5-2.3-10.9-2.7-16.1-1.1c-1.3,0.4-2.7,1-3.2,2.3c-0.1,0.3-0.2,0.7-0.1,1.1
						c0.2,0.6,0.8,0.8,1.4,1c3,0.9,6.3,0.1,9.3-1C52.8,198.4,55.2,198,58.5,197.1"/>
				</g>
				<g>
					<path class="st1" d="M69.7,198.1c-5.5-0.1-11,1.9-15.2,5.4c-1,0.9-2.1,2-2,3.3c0,0.4,0.1,0.8,0.4,1c0.4,0.4,1.1,0.4,1.7,0.4
						c3.1-0.4,5.8-2.4,8.2-4.6C64.9,201.5,66.9,200.2,69.7,198.1"/>
				</g>
				<g>
					<path class="st1" d="M84,200.5c-5.5-0.8-11.2,0.5-15.8,3.5c-1.1,0.7-2.3,1.7-2.4,3.1c0,0.4,0,0.8,0.2,1.1
						c0.4,0.5,1,0.6,1.6,0.6c3.2,0,6.1-1.7,8.7-3.5S81,202.3,84,200.5"/>
				</g>
				<g>
					<path class="st1" d="M97.6,204.8c-5.5-0.8-11.2,0.5-15.8,3.5c-1.1,0.7-2.3,1.7-2.4,3.1c0,0.4,0,0.8,0.2,1.1
						c0.4,0.5,1,0.6,1.6,0.6c3.2,0,6.1-1.7,8.7-3.5C92.4,207.6,94.6,206.6,97.6,204.8"/>
				</g>
				<g>
					<path class="st1" d="M114.7,212.7c-5.3-1.3-11.2-0.7-16.1,1.9c-1.2,0.6-2.5,1.5-2.7,2.8c-0.1,0.4-0.1,0.8,0.1,1.1
						c0.3,0.5,1,0.7,1.6,0.7c3.2,0.3,6.2-1,9-2.6C109.3,215,111.5,214.2,114.7,212.7"/>
				</g>
				<g>
					<path class="st1" d="M126.5,219.6c-4.9-1.5-10.6-1.2-15.7,0.8c-1.3,0.5-2.6,1.2-3.1,2.3c-0.1,0.3-0.2,0.7-0.1,1
						c0.2,0.5,0.8,0.7,1.4,0.7c3,0.4,6.2-0.6,9.1-1.8C120.9,221.4,123.3,220.8,126.5,219.6"/>
				</g>
				<g>
					<path class="st1" d="M74.7,198.8c-1.6-5.4-5.3-10.3-10.1-13.6c-1.2-0.8-2.6-1.5-4-1.2c-0.4,0.1-0.7,0.3-0.9,0.6
						c-0.3,0.5-0.1,1.2,0.2,1.7c1.4,3,4.2,5.1,7.1,6.8S71.7,196.7,74.7,198.8"/>
				</g>
				<g>
					<path class="st1" d="M85.8,201.1c-0.3-5.7-2.7-11.3-6.6-15.6c-1-1.1-2.2-2.1-3.6-2.1c-0.4,0-0.8,0.1-1,0.4
						c-0.4,0.4-0.4,1.1-0.3,1.7c0.6,3.2,2.9,6,5.2,8.3C81.9,196.2,83.4,198.3,85.8,201.1"/>
				</g>
				<g>
					<path class="st1" d="M99.6,205.7c0.9-5.6-0.3-11.6-3.3-16.6c-0.7-1.2-1.7-2.5-3.1-2.7c-0.4-0.1-0.8,0-1.1,0.2
						c-0.5,0.3-0.6,1-0.6,1.6c0,3.3,1.6,6.4,3.5,9.2C96.8,200.2,97.8,202.5,99.6,205.7"/>
				</g>
				<g>
					<path class="st1" d="M116.7,213.3c-0.4-5.6-2.9-11.2-6.9-15.4c-1-1-2.2-2-3.6-2c-0.4,0-0.8,0.1-1,0.4c-0.4,0.4-0.4,1.1-0.2,1.7
						c0.7,3.2,3,5.9,5.4,8.2C112.7,208.6,114.2,210.6,116.7,213.3"/>
				</g>
				<g>
					<path class="st1" d="M127.9,220.7c2.2-5.2,2.5-11.3,0.8-16.9c-0.4-1.4-1.1-2.8-2.3-3.4c-0.3-0.2-0.7-0.2-1.1-0.1
						c-0.6,0.2-0.8,0.9-1,1.5c-0.8,3.2,0,6.6,1.1,9.8C126.5,214.7,127,217.2,127.9,220.7"/>
				</g>
			</g>
		</g>
		<g>
			<path class="st1" d="M174.5,213.8c-5.7-5.3-13.7-8-21.5-7.3c-5.3,0.5-11,3.3-12.1,8.5c-0.6,2.5-0.4,5.7-2.7,6.7
				c-2.3,0.9-4.5-1.4-6.8-2.2c-3.9-1.3-8.3,3.1-7,7c0.6,1.8,2.1,3.3,2,5.2c-0.2,2.5-3.3,3.9-5.8,3.5c-2.5-0.4-4.7-1.9-7.2-2.5
				c-2.5-0.6-5.6,0-6.5,2.4c-0.8,2.1,0.6,5-1.1,6.5c-0.7,0.7-1.8,0.8-2.7,0.9c-21.3,2-44.8,5.8-42.4,9.6c0.7,1,2.3,0.7,3.5,0.7
				c45.3-0.7,86.5-1.4,131.9,0"/>
		</g>
		<path class="st4" d="M179.8,127.5c-3.2,9-12.6,19.1-23.4,19.1c-12.2,0-15.2-9.9-18.8-13c-8.8-7.7-14.2-9.5-25.4-11.4
			c-7.3-1.2-15-11.4-13.1-21.5c3.4-18.4,36.7-27.2,45.1-40.7c6.9-11,6.5-17.5,18.5-25.4"/>
		<g>
			<polyline class="st5" points="325.6,142.6 339,195.3 336.5,195.9 319.8,144 			"/>
			<g>
				<path class="st6" d="M313.1,143.8c-6.9,1.8-14.2-3.6-16.3-11.9c-2.1-8.3,1.7-16.5,8.6-18.2c6.9-1.8,14.2,3.6,16.3,11.9
					C323.9,133.8,320,142,313.1,143.8z M306.7,118.3c-4.3,1.1-6.6,6.7-5.2,12.4c1.5,5.8,6.2,9.5,10.5,8.4c4.3-1.1,6.6-6.7,5.2-12.4
					S311,117.2,306.7,118.3z"/>
			</g>
			<g>
				<path class="st7" d="M320.2,129.1c0.2,0.9,4.1,16,4.1,16c0.2,0.8-0.3,1.6-1.1,1.8l0,0c-0.8,0.2-1.6-0.3-1.8-1.1l-0.5-1.8
					c0,0-2.1-4.6-8.1-2.7c0,0,7.1-0.9,7.3-0.9C320.4,140.5,320,128.2,320.2,129.1z"/>
				<path class="st6" d="M323.8,149.3c-2.1,0.5-4.2-0.7-4.7-2.8c0,0-0.2-1.3-0.7-2c-0.8-1.1-2.3-1.5-5.2-0.8l-0.7-4.1
					c1.5-0.5,2.6-1.2,3.8-1.1c0.6-0.1,1.2-0.1,1.6-0.2c0-1.2,0-2.9,0-4.1c0-1.3,1.7-2.8,1.7-3.8c0-1.7-1.8-3.5,0.4-3.7l2.1-0.3
					l4.6,18.1C327.1,146.6,325.9,148.8,323.8,149.3z"/>
			</g>
			<g>
				<polyline class="st5" points="327.6,142.1 327.6,196.5 330.2,196.5 333.5,142.1 				"/>
				<g>
					<path class="st6" d="M327.1,124.7c0-8.6,5.8-15.5,12.8-15.5c7.1,0,12.9,7,12.9,15.5c0,8.6-5.8,15.5-12.8,15.5
						C332.8,140.2,327.1,133.2,327.1,124.7z M331.8,124.7c0,5.9,3.6,10.8,8.1,10.8c4.5,0,8.1-4.8,8.1-10.8c0-5.9-3.6-10.8-8.1-10.8
						C335.4,113.9,331.8,118.7,331.8,124.7z"/>
				</g>
				<g>
					<path class="st7" d="M329.4,127.7c0,0.9,0,16.5,0,16.5c0,0.8,0.7,1.5,1.5,1.5l0,0c0.8,0,1.5-0.7,1.5-1.5l0-1.9
						c0,0,0.9-5,7.2-4.6c0,0-7.1,0.9-7.3,1C332.1,138.8,329.4,126.8,329.4,127.7z"/>
					<path class="st6" d="M331,148.2c2.1,0,3.9-1.7,3.9-3.9c0,0-0.1-1.3,0.2-2.1c0.5-1.2,1.9-2,4.9-2l-0.3-4.1
						c-1.6-0.1-2.8-0.5-4-0.1c-0.6,0.1-1.2,0.2-1.6,0.2c-0.3-1.2-0.7-2.8-1-4c-0.3-1.3-2.4-2.3-2.6-3.2c-0.4-1.7,0.9-3.8-1.3-3.5
						l-2.1,0.2l0,18.7C327.1,146.4,328.8,148.2,331,148.2z"/>
				</g>
			</g>
		</g>
		<g>
			<g>
				<path class="st8" d="M257.9,65.3c0.1-0.4,0.2-0.9,0.3-1.3"/>
				<path class="st9" d="M259.1,61.5c3.8-9.6,14.5-19.2,30.6-15.5c11.7,2.7,14.8,13.7,21.1,20.8c4.7,5.3,11.3,9.6,13.4,17
					c5,17.1-1.8,35.7-14,41.5c-6.7,3.2-23.5,1.8-32.1-1.2"/>
				<path class="st8" d="M276.8,123.6c-0.4-0.2-0.8-0.4-1.2-0.5"/>
			</g>
		</g>
		<g>
			<g>
				<path class="st5" d="M350.5,186.9l-6.8-1.2l10.6-58.6c0.1-0.6,0.7-1.1,1.4-0.9l4.5,0.8c0.6,0.1,1.1,0.7,0.9,1.4L350.5,186.9z"/>
			</g>
			<g>
				<path class="st10" d="M360.1,133.7l-6.8-1.2l1-5.4c0.1-0.6,0.7-1.1,1.4-0.9l4.5,0.8c0.6,0.1,1.1,0.7,0.9,1.4L360.1,133.7z"/>
			</g>
			<g class="st11">
				<g>
					
						<rect x="355.4" y="130.6" transform="matrix(0.1777 -0.9841 0.9841 0.1777 161.1624 461.0555)" class="st3" width="2.1" height="7"/>
				</g>
			</g>
		</g>
		<g>
			
				<rect x="356.2" y="135.5" transform="matrix(0.9303 0.3667 -0.3667 0.9303 86.8147 -121.0988)" class="st1" width="12" height="64.9"/>
			<g>
				<line class="st12" x1="375.2" y1="140.5" x2="378.9" y2="141.9"/>
				<line class="st12" x1="373.9" y1="143.6" x2="377.6" y2="145.1"/>
				<line class="st12" x1="372.7" y1="146.7" x2="376.4" y2="148.2"/>
				<line class="st12" x1="369.7" y1="149.2" x2="375.2" y2="151.3"/>
				<line class="st12" x1="370.2" y1="153" x2="373.9" y2="154.5"/>
				<line class="st12" x1="369" y1="156.2" x2="372.7" y2="157.6"/>
				<line class="st12" x1="367.8" y1="159.3" x2="371.4" y2="160.7"/>
				<line class="st12" x1="364.7" y1="161.7" x2="370.2" y2="163.9"/>
				<line class="st12" x1="365.3" y1="165.6" x2="369" y2="167"/>
				<line class="st12" x1="364.1" y1="168.7" x2="367.7" y2="170.2"/>
				<line class="st12" x1="362.8" y1="171.8" x2="366.5" y2="173.3"/>
				<line class="st12" x1="359.8" y1="174.3" x2="365.3" y2="176.4"/>
				<line class="st12" x1="360.3" y1="178.1" x2="364" y2="179.6"/>
				<line class="st12" x1="359.1" y1="181.3" x2="362.8" y2="182.7"/>
				<line class="st12" x1="357.9" y1="184.4" x2="361.6" y2="185.8"/>
				<line class="st12" x1="354.8" y1="186.8" x2="360.3" y2="189"/>
				<line class="st12" x1="355.4" y1="190.7" x2="359.1" y2="192.1"/>
				<line class="st12" x1="354.2" y1="193.8" x2="357.8" y2="195.3"/>
				<line class="st12" x1="352.9" y1="196.9" x2="356.6" y2="198.4"/>
			</g>
		</g>
		<path class="st6" d="M364,255.5h-55.7l-9.4-84.2c-0.1-1.1,0.7-2,1.8-2h70.8c1.1,0,1.9,0.9,1.8,2L364,255.5z"/>
		<g>
			<path class="st13" d="M294.2,259.2c33.5,0.5,67.1,0.9,100.6,1.4c1.1,0,4.7-1.1-1.4-5c-5.2-3.3-21.5-0.3-21.5-0.3s3.8-1.5,3.8-3.5
				c0-2-1.5-3.7-3.3-4.5c-1.8-0.8-3.8-0.9-5.8-0.8c-4,0.2-8,1.1-11.7,2.6c1.6-1,2.1-3.4,1-4.9c-1.1-1.5-3.5-1.8-4.9-0.6
				c2.5-3.4,6.4-18.5-5.5-25.1c-15-8.3-26.3-1.5-28.8,3.5c-1.2-4.9-6.9-8.7-10.6-9.6c-8.5-2.1-14-1.5-21.9,2.2
				c-2.8,1.3-6.6,5.8-8.4,8.2c-2.9,3.9-3.4,9-3.5,13.8c-0.1,3.6-0.1,7.3,0,10.9"/>
		</g>
		<g>
			<path class="st14" d="M313.8,264.5c0,1.7-33.8,3.1-75.4,3.1s-75.4-1.4-75.4-3.1c0-1.7,33.8-3.1,75.4-3.1S313.8,262.8,313.8,264.5
				z"/>
			<g>
				<g>
					<path class="st15" d="M239.8,45c-4.2,0-7.6,3.4-7.6,7.6v9.7h15.1c0,0,0-7.7,0-9.7C247.3,48.3,243.9,45,239.8,45z M239.8,56.9
						c-2.3,0-4.2-1.9-4.2-4.2s1.9-4.2,4.2-4.2c2.3,0,4.2,1.9,4.2,4.2S242.1,56.9,239.8,56.9z"/>
				</g>
			</g>
			<g class="st16">
				<g>
					<path class="st17" d="M244,52.6c0-2.3-1.9-4.2-4.2-4.2c-0.2,0-0.4,0-0.6,0.1c0.6-0.2,0.7-0.4,1.7-0.4c2.3,0,4.2,1.9,4.2,4.2
						c0,2.1-1.1,3.3-2.7,3.7C243.3,55.2,244,53.9,244,52.6z M234.5,61.3v-9.7c0-2.6,1.1-5,3.2-6.3c-3.2,0.9-5.5,3.8-5.5,7.3v9.7
						h15.1c0,0,0-0.4,0-1H234.5z"/>
				</g>
			</g>
			<path class="st18" d="M299.9,264.5H176.7c-5.4,0-9.7-4.4-9.7-9.7V72.5c0-5.4,4.4-9.7,9.7-9.7h123.2c5.4,0,9.7,4.4,9.7,9.7v182.3
				C309.7,260.1,305.3,264.5,299.9,264.5z"/>
			<rect x="175.2" y="70.7" class="st1" width="126.2" height="185.9"/>
			<rect x="180.1" y="76.3" class="st19" width="116.5" height="174.6"/>
			<path class="st15" d="M284.2,73.7h-91.8v-5.9c0-3.9,3.1-7,7-7h77.8c3.9,0,7,3.1,7,7V73.7z"/>
			<path class="st20" d="M196,71.8v-5.5c0-2.1,0.9-4,2.3-5.3c-3.3,0.7-5.8,3.7-5.8,7.2v5.5h91.8v-1.9H196z"/>
			<g>
				<g>
					<circle class="st21" cx="203.4" cy="100.3" r="15"/>
					
						<ellipse transform="matrix(0.2281 -0.9736 0.9736 0.2281 59.3332 275.5026)" class="st22" cx="203.4" cy="100.3" rx="17.4" ry="17.4"/>
					<path class="st19" d="M206.4,100.6c1.5-1,2.4-2.6,2.4-4.5c0-3-2.4-5.4-5.4-5.4c-3,0-5.4,2.4-5.4,5.4c0,1.9,1,3.5,2.4,4.5
						c-3.4,0.8-5.9,3.8-5.9,7.4v4.5c2.5,1.8,5.5,2.9,8.8,2.9c3.3,0,6.3-1.1,8.8-2.9v-4.5C212.2,104.4,209.7,101.4,206.4,100.6z"/>
				</g>
				<g>
					<polygon class="st23" points="227.7,86.5 228.4,88 230.1,88.2 228.9,89.4 229.2,91 227.7,90.2 226.3,91 226.5,89.4 225.4,88.2 
						227,88 					"/>
					<polygon class="st23" points="234.8,86.5 235.5,88 237.1,88.2 236,89.4 236.2,91 234.8,90.2 233.3,91 233.6,89.4 232.4,88.2 
						234.1,88 					"/>
					<polygon class="st23" points="241.9,86.5 242.6,88 244.2,88.2 243,89.4 243.3,91 241.9,90.2 240.4,91 240.7,89.4 239.5,88.2 
						241.1,88 					"/>
					<polygon class="st23" points="249,86.5 249.7,88 251.3,88.2 250.1,89.4 250.4,91 249,90.2 247.5,91 247.8,89.4 246.6,88.2 
						248.2,88 					"/>
					<polygon class="st23" points="256,86.5 256.8,88 258.4,88.2 257.2,89.4 257.5,91 256,90.2 254.6,91 254.9,89.4 253.7,88.2 
						255.3,88 					"/>
					<g class="st24">
						<line class="st25" x1="226.1" y1="94.9" x2="241.2" y2="94.9"/>
						<line class="st25" x1="275" y1="100.9" x2="286.5" y2="100.9"/>
						<line class="st25" x1="226.1" y1="100.9" x2="270.1" y2="100.9"/>
						<line class="st25" x1="226.1" y1="107" x2="286.5" y2="107"/>
						<line class="st25" x1="267.3" y1="113" x2="286.5" y2="113"/>
						<line class="st25" x1="226.1" y1="113" x2="262.5" y2="113"/>
						<line class="st25" x1="246.2" y1="94.9" x2="286.5" y2="94.9"/>
					</g>
				</g>
				<g>
					
						<ellipse transform="matrix(0.9224 -0.3862 0.3862 0.9224 -39.3012 89.6233)" class="st21" cx="203.4" cy="142.6" rx="15" ry="15"/>
					<path class="st19" d="M206.4,142.9c1.5-1,2.4-2.6,2.4-4.5c0-3-2.4-5.4-5.4-5.4c-3,0-5.4,2.4-5.4,5.4c0,1.9,1,3.5,2.4,4.5
						c-3.4,0.8-5.9,3.8-5.9,7.4v4.5c2.5,1.8,5.5,2.9,8.8,2.9c3.3,0,6.3-1.1,8.8-2.9v-4.5C212.2,146.6,209.7,143.6,206.4,142.9z"/>
				</g>
				<g>
					<polygon class="st23" points="227.7,128.8 228.4,130.3 230.1,130.5 228.9,131.7 229.2,133.3 227.7,132.5 226.3,133.3 
						226.5,131.7 225.4,130.5 227,130.3 					"/>
					<polygon class="st23" points="234.8,128.8 235.5,130.3 237.1,130.5 236,131.7 236.2,133.3 234.8,132.5 233.3,133.3 
						233.6,131.7 232.4,130.5 234.1,130.3 					"/>
					<polygon class="st23" points="241.9,128.8 242.6,130.3 244.2,130.5 243,131.7 243.3,133.3 241.9,132.5 240.4,133.3 
						240.7,131.7 239.5,130.5 241.1,130.3 					"/>
					<polygon class="st21" points="249,128.8 249.7,130.3 251.3,130.5 250.1,131.7 250.4,133.3 249,132.5 247.5,133.3 247.8,131.7 
						246.6,130.5 248.2,130.3 					"/>
					<polygon class="st21" points="256,128.8 256.8,130.3 258.4,130.5 257.2,131.7 257.5,133.3 256,132.5 254.6,133.3 254.9,131.7 
						253.7,130.5 255.3,130.3 					"/>
					<g class="st24">
						<line class="st25" x1="226.1" y1="137.2" x2="252.9" y2="137.2"/>
						<line class="st25" x1="242" y1="143.2" x2="286.5" y2="143.2"/>
						<line class="st25" x1="226.1" y1="143.2" x2="237" y2="143.2"/>
						<line class="st25" x1="226.1" y1="149.2" x2="286.5" y2="149.2"/>
						<line class="st25" x1="274.1" y1="155.3" x2="286.5" y2="155.3"/>
						<line class="st25" x1="226.1" y1="155.3" x2="269.4" y2="155.3"/>
						<line class="st25" x1="257.9" y1="137.2" x2="286.5" y2="137.2"/>
					</g>
				</g>
				<g>
					
						<ellipse transform="matrix(0.3809 -0.9246 0.9246 0.3809 -45.0556 302.5508)" class="st21" cx="203.4" cy="184.9" rx="15" ry="15"/>
					<path class="st19" d="M206.4,185.1c1.5-1,2.4-2.6,2.4-4.5c0-3-2.4-5.4-5.4-5.4c-3,0-5.4,2.4-5.4,5.4c0,1.9,1,3.5,2.4,4.5
						c-3.4,0.8-5.9,3.8-5.9,7.4v4.5c2.5,1.8,5.5,2.9,8.8,2.9c3.3,0,6.3-1.1,8.8-2.9v-4.5C212.2,188.9,209.7,185.9,206.4,185.1z"/>
				</g>
				<g>
					<polygon class="st23" points="227.7,171.1 228.4,172.6 230.1,172.8 228.9,174 229.2,175.6 227.7,174.8 226.3,175.6 226.5,174 
						225.4,172.8 227,172.6 					"/>
					<polygon class="st23" points="234.8,171.1 235.5,172.6 237.1,172.8 236,174 236.2,175.6 234.8,174.8 233.3,175.6 233.6,174 
						232.4,172.8 234.1,172.6 					"/>
					<polygon class="st23" points="241.9,171.1 242.6,172.6 244.2,172.8 243,174 243.3,175.6 241.9,174.8 240.4,175.6 240.7,174 
						239.5,172.8 241.1,172.6 					"/>
					<polygon class="st23" points="249,171.1 249.7,172.6 251.3,172.8 250.1,174 250.4,175.6 249,174.8 247.5,175.6 247.8,174 
						246.6,172.8 248.2,172.6 					"/>
					<polygon class="st21" points="256,171.1 256.8,172.6 258.4,172.8 257.2,174 257.5,175.6 256,174.8 254.6,175.6 254.9,174 
						253.7,172.8 255.3,172.6 					"/>
					<g class="st24">
						<line class="st25" x1="226.1" y1="179.5" x2="241.2" y2="179.5"/>
						<line class="st25" x1="253.8" y1="185.5" x2="286.5" y2="185.5"/>
						<line class="st25" x1="226.1" y1="185.5" x2="248.8" y2="185.5"/>
						<line class="st25" x1="226.1" y1="191.5" x2="286.5" y2="191.5"/>
						<line class="st25" x1="239.9" y1="197.6" x2="286.5" y2="197.6"/>
						<line class="st25" x1="226.1" y1="197.6" x2="235.1" y2="197.6"/>
						<line class="st25" x1="246.2" y1="179.5" x2="286.5" y2="179.5"/>
					</g>
				</g>
				<g>
					<circle class="st21" cx="203.4" cy="227.2" r="15"/>
					<path class="st19" d="M206.4,227.4c1.5-1,2.4-2.6,2.4-4.5c0-3-2.4-5.4-5.4-5.4c-3,0-5.4,2.4-5.4,5.4c0,1.9,1,3.5,2.4,4.5
						c-3.4,0.8-5.9,3.8-5.9,7.4v4.5c2.5,1.8,5.5,2.9,8.8,2.9c3.3,0,6.3-1.1,8.8-2.9v-4.5C212.2,231.2,209.7,228.2,206.4,227.4z"/>
				</g>
				<g>
					<polygon class="st23" points="227.7,213.4 228.4,214.9 230.1,215.1 228.9,216.3 229.2,217.9 227.7,217.1 226.3,217.9 
						226.5,216.3 225.4,215.1 227,214.9 					"/>
					<polygon class="st23" points="234.8,213.4 235.5,214.9 237.1,215.1 236,216.3 236.2,217.9 234.8,217.1 233.3,217.9 
						233.6,216.3 232.4,215.1 234.1,214.9 					"/>
					<polygon class="st23" points="241.9,213.4 242.6,214.9 244.2,215.1 243,216.3 243.3,217.9 241.9,217.1 240.4,217.9 
						240.7,216.3 239.5,215.1 241.1,214.9 					"/>
					<polygon class="st23" points="249,213.4 249.7,214.9 251.3,215.1 250.1,216.3 250.4,217.9 249,217.1 247.5,217.9 247.8,216.3 
						246.6,215.1 248.2,214.9 					"/>
					<polygon class="st23" points="256,213.4 256.8,214.9 258.4,215.1 257.2,216.3 257.5,217.9 256,217.1 254.6,217.9 254.9,216.3 
						253.7,215.1 255.3,214.9 					"/>
					<g class="st24">
						<line class="st25" x1="286.5" y1="239.9" x2="271.4" y2="239.9"/>
						<line class="st25" x1="237.6" y1="233.8" x2="226.1" y2="233.8"/>
						<line class="st25" x1="286.5" y1="233.8" x2="242.6" y2="233.8"/>
						<line class="st25" x1="286.5" y1="227.8" x2="226.1" y2="227.8"/>
						<line class="st25" x1="245.3" y1="221.8" x2="226.1" y2="221.8"/>
						<line class="st25" x1="286.5" y1="221.8" x2="250.1" y2="221.8"/>
						<line class="st25" x1="266.5" y1="239.9" x2="226.1" y2="239.9"/>
					</g>
				</g>
			</g>
			<path class="st26" d="M249.5,181.6c4.1,2.8,8.8,4.3,13.7,4.3c1.4,0,2.8-0.1,4.2-0.4c3.5-0.6,6.6-2,9.4-3.9l8.9,10.8
				c0,0.4,0,0.7,0.1,1.1c0.2,1,0.9,2,1.9,2.3c0.3,0.1,0.6,0.1,0.7,0.4c0.1,0.1,0.1,0.3,0.1,0.4c0.1,0.8,0.9,1.3,1.7,1.2c0,0,0,0,0,0
				l6.6,8c0,0.4,0.2,0.8,0.5,1c0.2,0.1,0.5,0.2,0.5,0.5c0,0.1,0,0.2-0.1,0.3c-0.1,0.3,0,0.8,0.3,1c0.3,0.2,0.7,0.3,1,0.1
				c0,0.7,0.7,1.4,1.4,1.5l6.8,8.2c0.5,0.6,1.3,1,2.1,1c0.1,0,0.2,0,0.3,0v-6.5l-4.9-5.9c0.1-0.1,0.1-0.1,0.2-0.2
				c0.3-0.3,0.5-0.5,0.9-0.8l0.1,0.3c0,0,1.5-0.5,3.7-1.3v-4.9c-2.8,1.7-5,3.1-5,3.1l0,0.1c-0.1,0-0.1,0-0.2,0.1
				c-0.3,0.1-1.5,0-2.6,0l-6.7-8c1.2-0.3,2.9-0.8,4.6-1.4c0,0,0.1,0,0.1,0c0.2-0.1,0.4-0.1,0.7-0.2c0.1,0,0.2-0.1,0.2-0.1
				c0.2-0.1,0.4-0.1,0.5-0.2c0.1,0,0.2-0.1,0.3-0.1c0.2-0.1,0.3-0.1,0.5-0.2c0.1,0,0.2-0.1,0.3-0.1c0.2-0.1,0.3-0.1,0.5-0.2
				c0.1,0,0.2-0.1,0.3-0.1c0.2-0.1,0.3-0.1,0.5-0.2c0.1,0,0.2-0.1,0.3-0.1c0.2-0.1,0.3-0.1,0.5-0.2c0.1,0,0.2-0.1,0.2-0.1
				c0.2-0.1,0.4-0.2,0.7-0.3c0,0,0,0,0.1,0c0.2-0.1,0.5-0.2,0.7-0.3c0.1,0,0.1-0.1,0.2-0.1c0.2-0.1,0.3-0.2,0.5-0.2
				c0.1,0,0.2-0.1,0.2-0.1c0.1-0.1,0.3-0.1,0.4-0.2c0.1,0,0.2-0.1,0.2-0.1c0.1-0.1,0.2-0.1,0.3-0.2c0.1,0,0.2-0.1,0.2-0.1
				c0.1-0.1,0.2-0.1,0.3-0.2c0.1,0,0.1-0.1,0.2-0.1c0.1-0.1,0.2-0.1,0.3-0.2c0.1,0,0.1-0.1,0.2-0.1c0.1-0.1,0.2-0.1,0.3-0.2
				c0,0,0.1-0.1,0.1-0.1c0,0,0,0,0,0v-26.4c-0.1,0.1-0.3,0.2-0.4,0.4c-2.7,2.9-4.6,21.3-4.6,22c-0.1,0.5-7.7,4.9-11.5,7.1
				c0-0.5-0.2-1.1-0.5-1.4c-0.4-0.4-0.9-0.7-1.5-0.9c-0.1,0-0.2,0-0.2,0l-10-12.1c0.7-0.8,1.4-1.6,2-2.5c3.7-5.3,5.1-11.6,4-17.9
				c-1.1-6.3-4.6-11.8-9.9-15.5c-5.3-3.7-11.6-5.1-17.9-4c-6.3,1.1-11.8,4.6-15.5,9.9C236,159,238.6,174,249.5,181.6z M247.9,151.3
				c2.9-4.1,7.1-6.8,12-7.7c1.1-0.2,2.2-0.3,3.3-0.3c3.8,0,7.5,1.2,10.6,3.4c4.1,2.9,6.8,7.1,7.7,12c0.9,4.9-0.2,9.9-3.1,13.9
				c-2.9,4.1-7.1,6.8-12,7.7c-4.9,0.9-9.9-0.2-13.9-3.1C244.1,171.3,242,159.7,247.9,151.3z"/>
		</g>
		<g>
			<path class="st27" d="M120.1,267.9c0,0.9-9.5,1.6-21.1,1.6c-11.7,0-21.1-0.7-21.1-1.6c0-0.9,9.5-1.6,21.1-1.6
				C110.6,266.3,120.1,267,120.1,267.9z"/>
			<g>
				<path class="st28" d="M126.4,185.2c0,0,2.3,2.7,2.8,2.9c0.3,0.1,2.1,0.4,2.6,0.5c0.2,0,0.4,0.1,0.6,0.2c0.2,0.1,0.4,0.3,0.5,0.4
					c0.4,0.5,0.8,1,1.2,1.5c0.1,0.1,0.2,0.3,0.3,0.4c0.1,0.2,0.1,0.4,0.2,0.6c0.3,1.1,0.5,2.3,0.7,3.5c0,0.1,0,0.1,0,0.2
					c-0.1,0.1-0.3,0.1-0.4,0c-0.1-0.1-0.2-0.2-0.3-0.3c0,0.1,0,0.2,0,0.3c-0.2,0.1-0.4,0-0.6-0.1c-0.8-0.5-1.6-1.1-2-2
					c-0.1-0.2-0.2-0.3-0.3-0.5c-0.4-0.4-0.9-0.4-1.4-0.5c-0.4-0.1-0.9-0.2-1.3-0.4c-0.8-0.3-0.9-1.3-0.9-1.4c0-0.1-0.1-0.2-0.2-0.2
					c-0.5-0.4-2.5-1.9-2.5-1.9"/>
			</g>
			<g>
				<path class="st29" d="M99.1,126.9c1.1,0.3,1.7,1.7,2.1,2.7c0.5,1.2,0.7,2.4,0.8,3.7c0.1,0.9,0.2,1.8-0.2,2.6
					c-0.2,0.4-0.4,0.8-0.7,1.1c-0.2,0.2-0.3,0.4-0.5,0.5c-0.2,0.1-0.5,0.2-0.7,0.1c-0.3-0.1-0.5-0.5-0.6-0.9
					c-0.6-2.3-1.3-4.6-2.6-6.7"/>
			</g>
			<g>
				<path class="st30" d="M100.3,134.2c0-0.7,0.8-1.2,1.5-0.5c0.6,0.6,0.7,1.8,0.7,2.7c0,1.1-0.8,1.3-1.5,1.4"/>
			</g>
			<g>
				<path class="st31" d="M108.3,259.8c0,0,0,2.3-0.1,3.1c-0.2,0.8-2.7,0.5-3,0.1c-0.2-0.5,0.1-4.2,0.1-4.2"/>
				<path class="st15" d="M104.4,263.7c-0.1,0.8-0.1,2.4-0.1,2.4l2.6,0.6l0.3-0.5c0,0,0.7,0.6,1.6,0.8c0.6,0.2,1.9,0.3,2.5,0.2
					c2.2-0.1,3.7-0.8,3.8-1.1c0.3-1.3-2.6-1.2-3.2-1.2c-1.7-0.1-2.8-1.4-3.2-2.2c-0.2-0.6-0.1-0.8-0.5-0.7c0,0-0.3,0-0.6,0.4
					c-0.4,0.5-1,0.9-1.7,0.7c-0.4-0.1-0.7-0.3-1-0.6C105.1,262.7,104.5,262.9,104.4,263.7z"/>
			</g>
			<path class="st18" d="M103.2,232.1c0.3-4-3-9.3-3-9.3s8.7-4.8,8.8-6.2c0,0,1.2,8.2,1.6,11c0.7,5-1.8,33.6-1.8,33.6
				s-1.8,0.5-4.2,0.1c0,0-0.4-11-2.3-18.5C101.6,239.2,102.9,233.1,103.2,232.1z"/>
			<path class="st18" d="M102.5,186.3c3.2,7.3,6.8,30.7,7.6,38.7c0.4,3.4-2.5,7.4-5.8,4.3c-4-3.7-9.5-20.6-11.5-23.6
				c-2-3-9.5-5.7-4.4-20.9"/>
			<g>
				<path class="st31" d="M88,260c0,0-0.3,3.2-0.4,4c-0.1,0.8-2.7,0.7-3,0.3c-0.3-0.4-0.2-4.2-0.2-4.2"/>
				<path class="st15" d="M83.8,264.9c-0.1,0.8,0.1,2.2,0.1,2.2l3,0.2l0.2-0.5c0,0,0.9,0.6,1.7,0.6l2.5,0.2c1.8,0.1,2.9,0,3-0.4
					c0.3-1.3-1.9-1.4-2.5-1.5c-1.6-0.1-3.4-1-3.7-1.9c-0.2-0.6-0.1-0.8-0.5-0.7c0,0-0.3,0-0.5,0.4c-0.4,0.6-1,0.9-1.6,0.7
					c-0.4-0.1-0.7-0.3-1-0.6C84.5,263.8,83.9,264,83.8,264.9z"/>
			</g>
			<path class="st18" d="M94.4,231.6c-0.6,2.8-7.9,1.8-7.8-0.7c0.2-3.6-2.3-8.1-3.2-25.1c-0.1-1.9-2-2.2-2.8-7.5
				c-0.8-5.3,2.4-11.1,2.4-11.1l11.3-1.6c0,0,4.4,9.8,3.5,19.6C96.9,215.1,95.1,228.3,94.4,231.6z"/>
			<path class="st18" d="M86.7,230.3c0,0-2.6,5.1-2.9,8.8c-0.4,5.4,0.1,23.2,0.1,23.2s2.8,0.6,4.3,0.2c0,0,6.5-31.5,6.8-34.9
				C95.2,224.1,86.7,230.3,86.7,230.3z"/>
			<path class="st32" d="M106.9,152.1c-1.3-1.5-5.4-3.9-10.8-3.7c-3.7,0.1-14,0.7-15.1,3.2c-0.6,1.3-1.2,14.4-0.4,18.9
				c0.6,3.4,2.3,11.8,2.3,13.9c0,2-1.1,2.9-0.6,3.5c1.1,1.3,9,1.9,12.6,1.9c3.3,0,8.8-0.9,9.1-1.9c0.4-1.6-0.6-1.5-0.8-3.1
				c-0.1-1.6-0.9-12.4,0-13.9c1.5-2.5,3-9,3.1-10.9C106.6,158.1,108.2,153.6,106.9,152.1z"/>
			<path class="st26" d="M83.6,162.7c-0.4,0.8-3,5.1-3,5.1l-0.1,0.5c0.1,0.9,0.2,1.7,0.3,2.3c0.6,3.4,2.3,11.8,2.3,13.9
				c0,2-1.1,2.9-0.6,3.5c0.5,0.5,2,0.9,3.9,1.2c-0.4-0.5-0.8-1-0.9-1.3c-0.2-0.6,0.8-0.4,1-0.9c0.2-0.5-2.3-10.3-2.9-15.1
				C83,167.2,84,161.9,83.6,162.7z"/>
			<path class="st28" d="M99.3,143.8c0,0,0,4.5,0.2,4.7c0.2,0.2,1.1,0.6,1.1,0.6s-0.6,3.9-1.6,3.6c-1-0.3-7.5-3.6-7.5-3.6
				s0.9-0.4,0.9-0.7c0-0.4-0.9-7.5-0.9-7.5"/>
			<path class="st28" d="M94.8,127.4c0.9,0.3,3.4-0.3,4.1,0.8c0.7,1,1.3,3.5,1.6,4.2c0.5,1.4,0.9,2.8,1.2,4.3
				c0.5,1.8,1.3,5.2-0.5,6.8c-0.5,0.4-0.8,0.6-1.4,0.7c-0.9,0.2-1.7,0.3-2.6,0.5c-1.3,0.2-2.8,0.5-4.1,0.1c-1.8-0.6-2.7-3-3.2-4.6
				l-2.6-9.4L94.8,127.4z"/>
			<path class="st33" d="M99.3,153.8c0,0,0.4,16.7,1,26.8l-2.4,3.4l-1.7-4.2c0,0-0.7-12.2,1.6-25.8L99.3,153.8z"/>
			<path class="st33" d="M99.8,152.4l-0.1,0.2c-0.1,0.4-0.3,0.8-0.5,1.2l0,0l-1.5,0.1c0,0-1-0.5-1.2-1.1c-0.1-0.6,1.7-1.5,1.7-1.5
				l0.2,0.1C99,151.6,99.5,151.9,99.8,152.4L99.8,152.4z"/>
			<path class="st34" d="M92.3,146.9c0,0-1.3,0.9-2,2.1c0.8,1.8,3.1,4.8,5,6.2c0.9-2.4,3.1-3.8,3.1-3.8S92.8,150.2,92.3,146.9z"/>
			<path class="st34" d="M98.3,151.3c0,0,1.9,0.7,3,2.8c0,0,0.4-2.8-0.4-5.3c0,0-1-1.7-1.4-1.7C99.6,149.2,98.3,151.3,98.3,151.3z"
				/>
			<path class="st32" d="M105.8,151.2c3.3,1.8,9,20.8,9.6,21c0.6,0.2,13.5,15.3,13.5,15.3l-2,2.8c0,0-13-9.4-16.7-13.6
				c-2.6-2.9-7.6-15.9-7.6-15.9S102.5,149.3,105.8,151.2z"/>
			<path class="st26" d="M111.4,175.9c-1.3-1.1-5.4-13.2-5.4-13.2l-1,4.1c1.6,3.8,3.7,8.3,5.1,9.8c3.7,4.1,16.7,13.6,16.7,13.6
				l0.8-1.1C127.7,189.2,112.7,177.1,111.4,175.9z"/>
			<g>
				<path class="st10" d="M89,182.7l-19.7,3.7c-0.5,0.1-0.9,0.6-0.7,1.2l2.6,13.6c0.1,0.5,0.6,0.8,1.1,0.7l19.7-3.7
					c0.5-0.1,0.9-0.6,0.7-1.2L90,183.4C89.9,182.9,89.4,182.6,89,182.7z"/>
				<polygon class="st35" points="88.7,183.7 69.9,187.3 72.5,200.8 91.3,197.3 				"/>
				<g>
					<line class="st36" x1="89.2" y1="196.6" x2="87.2" y2="185"/>
					<line class="st36" x1="87.5" y1="196.9" x2="85.4" y2="185.4"/>
					<line class="st36" x1="84.9" y1="197.4" x2="82.8" y2="185.9"/>
					<line class="st36" x1="82.3" y1="198" x2="80.3" y2="186.4"/>
					<line class="st36" x1="79.8" y1="198.5" x2="77.5" y2="187"/>
					<line class="st36" x1="77.2" y1="199" x2="74.9" y2="187.5"/>
					<line class="st36" x1="74.7" y1="199.5" x2="72.3" y2="188"/>
				</g>
			</g>
			<g>
				<g>
					<path class="st28" d="M78.5,192.6c0,0,0.8,1.6,1.2,2.4c0.3,0.5,2.3,2.3,3.2,3.7c0.4,0.7,0.8,1.4,0.7,2.2
						c-0.1,0.8-0.8,1.5-1.6,1.4c-0.2,0-0.5-0.2-0.6,0c-0.1,0.1-0.1,0.2-0.2,0.3c-0.2,0.3-0.5,0.5-0.9,0.4c-0.3,0-0.6-0.3-0.7-0.7
						c-0.5,0.5-1.4,0.5-2,0c0.3-0.3,0.5-0.6,0.5-1c-0.1-0.4-0.4-0.7-0.6-1c-0.4-0.5-0.6-1.2-0.6-1.9c0-0.5,0.1-1,0.2-1.4
						c0.1-1-0.1-2-0.6-2.9"/>
				</g>
				<path class="st32" d="M84.5,160.8c-0.6,2.1-9.7,16.1-9.7,16.1l4.9,17.7l-2.8,1.7c0,0-8.6-14.3-8.7-18.4c0-4,6.3-18.9,10.9-24.9
					c1.5-1.9,4.4-2.9,4.4-2.9"/>
			</g>
			<g>
				<path class="st33" d="M89,138.4c0.6-0.3,1.1-0.7,1.4-0.1c0.2,0.3,0.3,0.7,0.7,0.8c0.3,0.1,0.7-0.2,0.8-0.6
					c0.1-0.4,0-0.7-0.1-1.1c-0.2-0.8-0.5-1.5-0.7-2.3c-0.2-0.8-0.5-1.6-0.2-2.3c0.2-0.4,0.4-0.7,0.7-0.9c1-0.8,2.3-1.3,3.5-1.5
					c1.3-0.3,2.6-0.4,3.8-0.8c0.5-0.2,1-0.4,1.5-0.7c0.7-0.6,1-1.5,1-2.4c0-0.9-0.3-1.7-0.7-2.5c-0.1,0.3-0.2,0.6-0.4,0.9
					c-0.2-0.4-0.4-0.8-0.7-1.1c-0.4,2.1-9.1,1.4-11.1,2.3c-1.4,0.6-2.6,1-2.5,3.3c0,0.1-0.2,0.3-0.3,0.4c-1.3,1.1-1.8,2.5-1.9,4.6
					c-0.2,2.5,1.3,5.3,2.7,7.4c0.4,0.5,0.6,0.9,1.1,1.3c0.5,0.4,1.4,0.6,2,0.5s1.9-0.1,1.9-0.7c0-0.5-1-1.3-1.2-1.6"/>
			</g>
			<g>
				<path class="st28" d="M91.3,140.8c0,0,0.1,0.4-0.2,0.8c-0.2,0.3-0.7,0.3-1,0.1c-0.9-0.3-1.6-1.2-1.7-2.1
					c-0.2-1.1,0.4-2.2,1.4-1.9c0.6,0.2,1,0.8,0.9,1.4"/>
			</g>
			<g>
				<path class="st30" d="M99.3,144.2l-2.8,0.5c0,0,0.9,1,2.8,1"/>
			</g>
			<path class="st37" d="M105.6,232c0.5-1.7-0.9-4.2-1.6-6.2c-0.7-1.9-6-17.3-6-17.3l-1.2,6.2c1.1,2.7,2.3,5.5,3.5,8l0,0l0,0
				c0.5,1,0.9,1.9,1.4,2.7c0.8,1.9,1.7,4.4,1.6,6.6c-0.3,1-1.6,7.1-0.8,10.6c1.8,7.5,2.3,18.5,2.3,18.5c0.5,0.1,0.9,0.1,1.3,0.2
				c-0.2-2.7-0.4-7.5-0.4-8.5c0-1.3-1.7-9.1-1.6-12.1C104.1,237.7,105,233.7,105.6,232z"/>
			<g>
				<polygon class="st10" points="92.2,192.9 90.5,193.3 89.3,187 91,186.6 				"/>
				<g>
					<g>
						<path class="st10" d="M94.6,189.2c-0.2-0.8-1-1.4-1.8-1.2l-2,0.4l0.6,3c0,0,1.6-0.3,2-0.4C94.2,190.8,94.7,190,94.6,189.2z
							 M92.2,189.6c-0.1-0.5,0.2-0.9,0.7-1c0.5-0.1,0.9,0.2,1,0.7c0.1,0.5-0.2,0.9-0.7,1C92.7,190.4,92.2,190.1,92.2,189.6z"/>
					</g>
				</g>
			</g>
		</g>
		<g>
			<ellipse class="st27" cx="153.3" cy="280.2" rx="21.9" ry="2"/>
			<g>
				<path class="st26" d="M180.3,161.4l-13.5-1.8v27l7.3,1c0.6,0.1,1.2-0.3,1.4-0.9l5.8-23.9C181.5,162.1,181,161.5,180.3,161.4z"/>
				<path class="st32" d="M163.3,158.3l-4.8,21.3c-0.1,0.6,0.3,1.2,0.8,1.2l15.1,2.2c0.5,0.1,1-0.3,1.1-0.8l4.8-21.3
					c0.1-0.6-0.3-1.2-0.8-1.2l-15.1-2.2C163.9,157.4,163.4,157.8,163.3,158.3z"/>
				<polygon class="st35" points="164.3,159 159.6,179.4 174.6,181.5 179.3,161.1 				"/>
				<g>
					<line class="st36" x1="177.7" y1="162.6" x2="164.9" y2="160.8"/>
					<line class="st36" x1="177.2" y1="164.6" x2="164.5" y2="162.7"/>
					<line class="st36" x1="171.9" y1="166.2" x2="164" y2="165"/>
					<line class="st36" x1="171.4" y1="167.8" x2="163.4" y2="166.7"/>
					<line class="st36" x1="170.8" y1="169.5" x2="162.8" y2="168.3"/>
					<line class="st36" x1="173.7" y1="178.6" x2="165.8" y2="177.5"/>
				</g>
			</g>
			<g>
				<path class="st30" d="M157.5,179.9c0.9-0.4,1.5-1.1,2.1-1.9c0.6-0.7,1.2-1.4,1.8-2.1c0.2-0.3,0.5-0.6,0.5-1
					c-1-0.1-1.7,1.2-2.7,1.3c0.5-1.7,1.1-3.3,2-4.7c0.2-0.4,0.4-0.8,0.3-1.2c-1.1,0.4-2,1.2-2.8,2c-0.6,0.6-1.1,1.2-1.5,1.9
					c-1.3,2-2.1,4.3-2.7,6.7"/>
			</g>
			<g>
				<path class="st28" d="M153.2,197l-10.8-9.1c0,0-5,6.8-3.1,13.4c0.9,3.2,2.1,4.8,2.6,6.4c0.5,1.4,3.7,21.7,3.5,23.2
					c-0.2,1.5-2,5.6-2.6,10c-0.8,5.2-0.7,22.3-1.3,26.8c-0.6,4.5,3.6,5.3,3.8,3.8c2-13.1,7.2-33.5,7.9-40
					C153.8,224.8,153.5,212.8,153.2,197z"/>
				<g>
					<path class="st30" d="M153.2,209.9l-4.7,10.8c2,3.3,3.1,7.3,3.3,11.3c0.1,2.1-0.1,4.2,0,6.2c0,0.1,0,0.3,0.1,0.5
						c0.6-3.1,1.1-5.6,1.3-7.3c0.5-4.6,0.5-12,0.4-21.5C153.4,209.9,153.3,209.9,153.2,209.9z"/>
				</g>
				<path class="st28" d="M145.9,267.2c0,0-1,4.7-0.7,5.4c0.3,0.6,1.2,2.4,2.2,3c1,0.7,3.4,1.5,3.5,1.7c0.2,0.3,0.2,0.7-0.1,1
					c-0.9,0.7-2.3,1-3.3,0.8c-3.1-0.5-3.5-1.9-5.3-2.1c-0.3,0-0.9,0.4-1.8,0c-0.9-0.4-1.3-1.3-1.2-2c0.1-1.3,0.9-2.4,1.4-3.4
					c0.5-1,0.9-5.4,0.9-5.4"/>
				<path class="st33" d="M151.1,278.5c0.2-0.4,0.3-1,0.1-1.1c-0.3-0.2-1.3-0.9-2-1.2c-0.6-0.3-1.6-0.5-1.2-0.3
					c0.3,0.2-0.3,0.9-0.9,0.8c-2-0.1-3.4-1.4-4.5-1.7c-1.6-0.4-2.3-2.3-2.4-2.6c-0.3,0.2-1,1.7-1.2,2.2c-0.1,0.4-0.4,1.2-0.2,1.7
					c0.1,0.3,0.3,0.9,0.2,1.6c0,0,0.3,0.2,1.2,0.4c0.5,0.1,1.2,0,1.2,0l0.1-1c0,0,0.4,0,1,0.1c0.6,0.1,1.5,0.6,1.5,0.7
					c0.2,0.3,0.4,0.8,0.7,0.9c0.8,0.4,1.6,0.6,2.6,0.6C149.5,279.8,150.7,279.1,151.1,278.5z"/>
			</g>
			<g>
				<path class="st28" d="M167.9,278.3c-0.2-0.3-2.7-0.7-3.9-1.2c-1.1-0.5-2.5-2-2.7-2.6c-0.3-0.6-0.2-3.9-0.2-5.2
					c0.2-9.3,2-32.1,2.2-37.5c0.4-9.5-0.8-19.3-4.4-34.5l-13.6-10.4c0,0-3.8,7.1-2.5,13.8c0.7,3.9,4,4.5,4.5,6
					c0.6,1.5,8.8,26.1,8.8,26.1s-1.6,5.3-1.7,11.1c-0.1,5,2.2,20,2.6,25.7c0,1.1,0.2,3.8-0.1,4.6c-0.4,1-1.4,2.3-1.4,3.6
					c0,0.8,0.6,1.5,1.5,1.8c1,0.3,1.5-0.3,1.8-0.3c1.9-0.1,2.4,1.2,5.8,1.2c1,0,2.5-0.6,3.3-1.4C168.2,279,168.1,278.5,167.9,278.3z
					"/>
				<path class="st33" d="M168.2,279.4c0.2-0.4,0.2-1-0.1-1.1c-0.3-0.1-1.5-0.7-2.2-0.8c-0.7-0.2-1.7-0.3-1.3-0.1
					c0.4,0.1-0.2,0.9-0.8,1c-2,0.2-3.7-0.9-4.9-0.9c-1.7-0.1-2.4-1.9-2.5-2.2c-0.3,0.2-1.1,1.9-1.2,2.4c-0.1,0.5-0.2,1.3,0,1.7
					c0.1,0.3,0.4,0.9,0.4,1.6c0,0,0.4,0.2,1.3,0.2c0.6,0,1.3-0.2,1.3-0.2v-1c0,0,0.5-0.1,1-0.1c0.6,0,1.3,0.3,1.7,0.6
					c0.3,0.2,0.6,0.6,0.9,0.7c1,0.2,1.6,0.3,2.7,0.2C166.7,281,167.9,280.2,168.2,279.4z"/>
			</g>
			<path class="st33" d="M142.7,186.8c-0.9,1-4.2,6.5-4.2,10.9c0,4.5,1.5,7.3,1.7,8.2c1,6.8,2,15,2,15.5c0,0.4,3.9,3,9.1,2.7
				c9.6-0.6,13.3-3.1,13.3-3.1s-0.5-16.5-1.9-24.6c-0.7-4.1-4-10.6-4-10.6"/>
			<path class="st28" d="M133.9,169c0,0,1.5,7.7,2,9c0.4,1.4,2.4,10,4.3,9.9c1.9-0.2,12.3-8.8,12.3-8.8l-1.5-2.9l-9.2,4.4
				c0,0-0.8-9.9-1.6-12.3"/>
			<g>
				<path class="st30" d="M137.5,173.7c1,3.4,3,7,3.6,9.7c0.1,0.5,6.5-1.8,6.5-4.2"/>
			</g>
			<path class="st15" d="M140.1,158.3c0,0-3,0.3-4.6,1.5c-3.9,3-0.9,13.9-0.9,13.9s-0.2,0.6,2.4,0.4c2.6-0.1,4.8-0.9,4.8-0.9
				l-0.8-8.9"/>
			<path class="st17" d="M136.7,164.5c0,0-0.3,6.4,0.8,9.7c1.1,0,2.2-0.3,2.2-0.3L136.7,164.5z"/>
			<g>
				<path class="st28" d="M154.7,138.2c1.8,2.4,1.5,5.7,1,8.7c-0.2,1.5-0.5,3-0.7,4.5c-0.1,0.7-0.3,1.5-0.8,1.9
					c-0.6,0.5-1.4,0.5-2.1,0.4c0,1.2,0,2.5,0,3.7c-2.1,0.1-4.2,0.1-6.4,0c0-0.9-0.2-1.7-0.6-2.5c-1,0-1.7-1.1-2.1-2
					c-0.5-1.1-0.8-2.3-1.1-3.4c-0.4-1.5-0.9-3.1-0.9-4.7c0-1.6,0.3-3.2,1.3-4.5c0.7-0.8,1.6-1.4,2.6-1.9c1.3-0.7,2.9-1.2,4.3-0.6"/>
			</g>
			<g>
				<path class="st33" d="M152.5,149.5c-0.3-1.2-0.2-2,0.2-2.8c0.1-0.3,0.3-0.5,0.6-0.7c0.3-0.2,0.8-0.3,1.1-0.1
					c0.2,0.1,0.4,0.3,0.6,0.5c0.4-1.7,0.5-3.5,0.4-5.2c-0.2-2.8-1.9-4.9-4.3-5.9c-4.5-1.8-11,0-12.8,4.4c-1.4,3.3-0.7,8.1,2,10.9
					c2.3,2.5,5.7,2.8,8.8,2.3c1.6-0.3,4-0.1,4.9-2.3c0.1-0.2-0.1-0.3-0.2-0.3C153,150.5,152.5,149.7,152.5,149.5z"/>
			</g>
			<g>
				<path class="st33" d="M152.8,143.6c0.2,0.3,0.1,0.6,0.3,0.9c0.3,0.5,0.6,0.6,1.1,0.8c0.8,0.4,0.6,1.5,0.6,2
					c0.6-0.4,0.7-1.4,0.8-2c0.2-0.6,0.3-1.2,0.4-1.8c0.2-0.6,0.5-1.1,0.5-1.7c0.2-2.1-1.1-4.5-2.7-5.7c-1.2-0.9-2.9-0.8-4.2,0
					c-0.5,0.4-1,0.9-1.2,1.5c-0.1,0.3-0.2,0.6,0,0.8"/>
			</g>
			<g>
				<path class="st17" d="M142.6,158.4c0.1-0.7,0.3-1.6,1-1.9c0.2-0.1,0.4-0.1,0.6-0.1c2.1-0.2,4.2-0.3,6.2-0.3
					c0.9,0,1.8,0.1,2.5,0.4c1.2,0.6,1.9,1.9,2.5,3.1"/>
			</g>
			<g>
				<path class="st15" d="M160.1,185c-0.3-0.4-1-0.9-1.2-1.4c-0.6-1.1-1.1-5.9-0.9-7.1c0.2-1.3,1.4-2,1.9-4.9
					c0.7-3.7-0.9-6.6-1.7-7.9c-1.2-1.8-0.5-1.7-0.9-3.9c-0.1-0.4-0.2-0.8-0.4-1.1c-0.3-0.3-2.1-1.1-2.4-1.1c-3.4-0.5-5.3-0.1-8.7,0
					c-1.7,0.1-3.4,0.3-5,0.6c-1.8,0.4-3.4,0.9-3.8,3.4c-0.6,3.8-0.1,7.7,1.1,11.4c0.8,2.4,5.4,10.8,4.2,12.4c-0.3,0.4-0.9,1.1-1,1.5
					c-0.3,1.7,3.5,2.3,5.2,2.4c2.5,0.2,5.3,0.1,7.8,0c1.9-0.1,6-0.7,6.3-3.1C160.6,185.7,160.4,185.3,160.1,185z"/>
			</g>
			<path class="st17" d="M159.4,172.3c0,0.7-0.4,1.6-0.5,1.9c-0.5,0.2-2.4,0.6-3.4,0.2c-0.2-2.2-1.6-6.6-1.6-6.6
				S159.4,171.7,159.4,172.3z"/>
			<g>
				<path class="st33" d="M143.7,151.5c-1.3-0.4-2.7,0.4-3.6,1.4c-1,1.2-1.4,3-0.5,4.3c0.3,0.5,0.8,0.8,1.4,1.1
					c1.5,0.9,3.4,1.4,5.1,0.9c1.7-0.4,3.2-2,3.2-3.7c0-1.6-1.2-2.9-2.4-4"/>
			</g>
			<g>
				<path class="st28" d="M157,170.7c0,0,6.2,15,8.9,15c2,0,6.8-13.9,6.8-13.9l-3-1.4l-3.4,5.8l-3.4-10.8"/>
				<path class="st28" d="M169.1,171.5c0,0,1-1.6,0.9-2.7c0-0.4-0.3-2.5-0.1-2.9c0.2-0.4,0.7-1.7,1-2c0.3-0.3,1.4-0.7,1.6-0.5
					c0.3,0.2,0.6-0.7,1-0.6c0.4,0.1,0.8,0.4,0.8,0.8c0,0.4,0.6,0.5,0.7,0.8c0.1,0.3,0,0.5,0.1,0.8c0.1,0.2,0.4,0.1,0.5,0.7
					c0.1,0.5,0,0.5,0,0.8c0,0.3,0.3,0.2,0.2,0.7s-0.4,1.1-0.7,1.7c-0.3,0.5-0.9,1.2-1.7,1.7c-0.4,0.2-0.6,0.7-1,1.4"/>
				<path class="st33" d="M170.7,159.9c-0.1-0.1-0.3-0.3-0.5-0.1c-0.2,0.2-0.2,0.5-0.1,0.6c0.1,0.1,1.8,4.2,1.8,4.2s0.1,0.2,0.4-0.1
					c0.3-0.3,0.2-0.4,0.2-0.4S170.8,160,170.7,159.9z"/>
				<g>
					<path class="st30" d="M172.7,163.7c-0.4,0.6-0.8,0.8-1.1,1.2c-0.3,0.3-0.3,0.4-0.6,0.7c0.6,0,0.5-0.4,1.2-0.9
						c0.3-0.2,0.7-0.5,0.7-0.9C172.9,163.7,172.8,163.6,172.7,163.7L172.7,163.7z"/>
				</g>
			</g>
			<g>
				<path class="st15" d="M151.3,157.3c1.6,0.1,6.3-0.7,9,2c2.2,2.3,3.5,8.3,4.3,10.8c-2.2,2.2-4.3,4-7.6,3.3
					c-0.1-0.1-1.8-5.3-3-5.8"/>
			</g>
			<g>
				<path class="st29" d="M153.1,224c-0.6-4-4.4-16.2-4.6-16.6c-2.1-1.6-3.4-3.2-4.1-4.6c-0.5,2.7,0.8,5.3,1.9,7.8
					c2,4.3,3.2,9,4.9,13.5"/>
			</g>
		</g>
		<g>
			<path class="st32" d="M312.9,161.6c-2.7,2.9-4.6,21.3-4.6,22c-0.1,0.7-13.6,8.3-13.6,8.3l1.9,2.2c0,0,14.4-3.6,17-6.8
				c2.2-2.7,7.3-24.4,7.3-24.4S317.4,156.8,312.9,161.6z"/>
			<ellipse class="st27" cx="333.9" cy="286" rx="40.2" ry="2.8"/>
			<g>
				<path class="st28" d="M354.2,271.3c0,0,1.1,2.1,1.7,2.8c0.6,0.7,3-0.8,3-1.4c0-0.5-2.1-3.9-2.1-3.9"/>
				<path class="st33" d="M359.9,272.9c0.5,0.7,1.4,2.2,1.4,2.2l-2.1,1.9l-0.6-0.2c0,0-0.4,1-1,1.6c-0.5,0.5-1.6,1.2-2.2,1.5
					c-2.1,1-3.9,1.1-4.1,0.9c-1-1.1,1.8-2.4,2.3-2.7c1.5-1,1.9-2.7,1.8-3.7c-0.1-0.7-0.3-0.8,0.1-0.9c0,0,0.3-0.1,0.7,0.1
					c0.6,0.3,1.4,0.3,1.9-0.2c0.3-0.3,0.6-0.6,0.6-1C358.7,272.3,359.4,272.2,359.9,272.9z"/>
			</g>
			<g>
				<path class="st28" d="M314.6,278.6c0,0-0.5,1.3-0.5,2.2c0.1,0.9,2.9,0.9,3.3,0.5c0.3-0.4,0.5-4.4,0.5-4.4"/>
				<path class="st33" d="M318.2,282c0,0.9-0.3,2.4-0.3,2.4h-3.3l-0.2-0.5c0,0-1.1,0.5-1.9,0.5h-2.8c-2,0-3.2-0.2-3.2-0.6
					c-0.2-1.4,2.2-1.4,2.8-1.4c1.8,0,3.8-0.8,4.2-1.7c0.3-0.6,0.2-0.8,0.5-0.7c0,0,0.3,0.1,0.6,0.5c0.3,0.6,1,1,1.7,0.9
					c0.4-0.1,0.8-0.2,1.1-0.5C317.5,280.9,318.2,281.1,318.2,282z"/>
			</g>
			<path class="st15" d="M331.4,218.8c0,0.1-2.7-2.9-2.7-2.8c-1.1,5.4-6,23.3-7.6,28v0c-0.2,0.7-1.5,2.1-2.6,2.3
				c-2.4,0.6-6.3-0.2-6.6-4.8c0-0.5,0.1-1.1,0-1.7c-0.7-7.1,6.1-38.4,6.3-40.4c0.2-2,4.1-0.6,5.2-0.9
				C328.9,196.6,332.8,211.3,331.4,218.8z"/>
			<path class="st15" d="M321.4,246.4c-1.1-3.3,0.6-7.2,0.6-7.2s-9.5-7.3-10-2.8c0,0.4-0.4,3.4-0.4,5.1c0,6.1,2.1,25.3,2,37.1v0.8
				c0,0,1.6,0.3,4.4,0.3c0.1,0,0.3,0,0.4,0c0.8-7.3,2.5-17.3,3.3-27.3C321.8,249.8,321.6,247,321.4,246.4z"/>
			<path class="st15" d="M345.5,244.9c-1.9-2.4-3.9-3.4-4.5-5.2c-1.4-4.2-1-21.1-1.1-25.8c0.4-1,4-10.6-3.4-17.6c0,0-6.7,2.9-12,3.2
				c-4.2,0.3-6.3-0.1-6.3-0.1s4,6,4.2,8.6c0.4,4.5,8.8,31.7,9.5,33.2c1.5,3.4,3.1,4.7,3.6,5.4c3.7,4.9,12.5,15.1,19.1,24.9l0.4,0.6
				c0,0,1.3-0.5,3.8-2.2C355.3,263.5,351.6,252.4,345.5,244.9z"/>
			<path class="st32" d="M312.9,161.6c1.3-1.5,7-3.9,12.7-3.7c3.9,0.1,16.2,1.4,17.4,4c0.6,1.3,0.5,14-0.3,18.6
				c-0.7,3.5-2.7,12.6-2.7,14.7s1.1,3,0.6,3.6c-1.2,1.4-10,2-13.8,2c-3.4,0-9.1-0.9-9.4-2c-0.4-1.6,0.7-1.6,0.8-3.2
				c0.1-1.7,0.9-12.8,0-14.4c-1.6-2.6-4-9.8-4.1-11.8C313.9,167.4,311.6,163.1,312.9,161.6z"/>
			<path class="st28" d="M322.3,153.1c0,0,0,4.7-0.2,4.9c-0.2,0.2-1.1,0.6-1.1,0.6s0.7,4.1,1.7,3.8c1-0.3,7.8-3.7,7.8-3.7
				s-1-0.4-1-0.8c0-0.4,0.9-7.8,0.9-7.8"/>
			<g>
				<path class="st29" d="M324.1,137.6c-0.8-0.6-2-0.6-2.9-0.2c-0.9,0.4-1.6,1.3-2,2.3c-0.4,0.9-0.5,2,0,2.9c-0.7,0.2-1.1,1-1.1,1.7
					c0,0.8,0.5,1.5,0.9,2.2c0.4,0.6,1.2,1,1.9,0.8c0.5-0.1,0.9-0.5,1.2-0.9c0.3-0.4,0.5-0.9,0.7-1.4c0.9-2.2,1.5-4.6,1.9-6.9"/>
			</g>
			<path class="st28" d="M327,136c-1,0.3-3.6-0.3-4.3,0.8c-0.7,1.1-1.3,3.7-1.6,4.4c-0.5,1.4-0.9,2.9-1.3,4.4
				c-0.5,1.9-1.8,5.5,0.1,7.1c0.5,0.5,1.2,0.5,1.9,0.6c0.9,0.2,1.8,0.3,2.7,0.5c1.4,0.2,2.9,0.5,4.3,0.1c1.8-0.6,2.8-3.1,3.3-4.8
				l2.7-9.8L327,136z"/>
			<g>
				<path class="st28" d="M331,150.1c0,0-0.1,0.5,0.3,0.8c0.3,0.3,0.8,0.2,1.1,0c0.9-0.4,1.5-1.4,1.5-2.4c0.1-1.2-0.7-2.2-1.7-1.8
					c-0.6,0.2-0.9,1-0.8,1.6"/>
			</g>
			<g>
				<path class="st33" d="M333.5,144.8c-0.3,1-1.1,3.2-2,3c-0.9-0.2,0.4-3.7,1.1-5c-1.1,0-2.5-0.2-2.9-1.2c-0.1-0.2-0.2-0.5-0.4-0.6
					c-0.2,0-0.4,0.1-0.5,0.2c-0.8,0.5-1.8,0-2.5-0.7c-0.1-0.2-0.3-0.3-0.5-0.3c-0.1,0-0.2,0.1-0.3,0.2c-1.3,0.9-4.7,0.9-4.7-0.7
					c-1.1,0.6-1.8-0.8-1.8-1.8c0.1-0.9,0.8-2.5,2.3-2.5c-0.1-1.2,0.8-1.9,1.8-2.6c0.9-0.7,2.1-1,3.3-1.1c1.8-0.1,3.9,0.7,4.6,2.4
					c0,0.1,0.1,0.3,0.2,0.3c0.1,0.1,0.3,0,0.4,0c1.4-0.4,3-0.2,4.1,0.8s1.4,2.7,0.6,3.9c1.1,0.3,1.7,1.5,1.5,2.6
					c-0.2,1.1-0.9,2-1.6,2.8c1.2,0.4,1.6,2,1,3c-0.6,1.1-2.1,1.7-3.3,1.5c0.3-1.1-0.2-2.4-1.3-2.6"/>
			</g>
			<path class="st33" d="M322.4,163.5c0,0-0.4,17.3-1.1,27.8l2.5,3.5l1.7-4.4c0,0,0.7-12.7-1.7-26.8L322.4,163.5z"/>
			<path class="st29" d="M321.8,162l0.1,0.2c0.1,0.4,0.3,0.9,0.5,1.3l0,0l1.6,0.1c0,0,1.1-0.6,1.2-1.2c0.1-0.6-1.7-1.6-1.7-1.6
				l-0.2,0.1C322.7,161.2,322.2,161.5,321.8,162L321.8,162z"/>
			<path class="st34" d="M329.6,156.2c0,0,1.3,1,2.1,2.1c-0.8,1.8-3.2,5-5.2,6.4c-0.9-2.5-3.2-4-3.2-4S329.1,159.7,329.6,156.2z"/>
			<path class="st34" d="M323.4,160.9c0,0-1.9,0.8-3.1,2.9c0,0-0.4-2.9,0.4-5.5c0,0,1-1.8,1.5-1.8
				C322,158.6,323.4,160.9,323.4,160.9z"/>
			<path class="st17" d="M321.4,246.4c-0.3-0.8-0.4-1.6-0.4-2.4c0,0,0-0.1,0.1-0.1v0c1.1-3.2,3.7-12.3,5.6-19.6l-3-10.5
				c0,0-1.8,21.4-2.4,23c-0.6,1.5-2.4,6.5-2.2,7.6c0.2,1.1,1.3,3,1.2,4.7c-0.2,1.7-0.2,16.8-0.2,16.9c0.6-4.4,1.2-9,1.5-13.7
				C321.8,249.8,321.6,247,321.4,246.4z"/>
			<g>
				
					<ellipse transform="matrix(0.844 -0.5363 0.5363 0.844 -44.1617 168.0809)" class="st38" cx="266.9" cy="160" rx="21.3" ry="21.3"/>
				<line class="st39" x1="281.3" y1="176.5" x2="313.1" y2="214.8"/>
			</g>
			<g>
				<g>
					<path class="st28" d="M310.8,200.6c0,0-1.8,0.5-2.7,0.8c-0.6,0.2-3.4-0.1-5,0.2c-0.8,0.2-1.6,0.5-2.1,1.1
						c-0.5,0.6-0.5,1.7,0.1,2.2c0.2,0.1,0.5,0.2,0.5,0.5c0,0.1,0,0.2-0.1,0.3c-0.1,0.3,0,0.8,0.3,1c0.3,0.2,0.7,0.3,1,0.1
						c0,0.8,0.7,1.4,1.4,1.5c0-0.4,0.1-0.9,0.4-1.1c0.3-0.2,0.8-0.2,1.2-0.2c0.7-0.1,1.4-0.4,1.9-0.9c0.4-0.4,0.6-0.8,0.9-1.2
						c0.7-0.8,1.6-1.3,2.6-1.6"/>
				</g>
				<path class="st26" d="M343.1,161.8c-0.1-0.1-0.1-0.2-0.2-0.3l-8.2,8c-1.9,5.2-5.8,18.8-5.8,18.8s-3.7,1.7-6.1,3
					c-0.6,0.3-2.4,1.5-4.5,3c0,0.6-0.1,1.1-0.1,1.4c-0.1,1.7-0.4,1.7,0.1,3.3c0,1.1-0.4,2.7-0.7,4.3c6.1-1.6,18.8-5.5,19.2-5.8
					c0.7-0.4,4.4-15.4,6.6-24.5C343.7,167.4,343.5,162.8,343.1,161.8z"/>
				<path class="st32" d="M334.7,168.6c-0.8,2.2-4.8,21.2-4.8,21.2s-3.9,1-6.4,2.3c-1.9,1-15.2,9.3-15.2,9.3l1.3,3.1
					c0,0,23.7-8.4,24.7-9c1-0.6,10.5-24.6,10.5-28.8c0-2.5-2-5.1-2-5.1"/>
			</g>
			<g>
				<path class="st28" d="M294,195.9c-0.8,0.1-1.6-0.5-1.7-1.2c0-0.2,0-0.3-0.1-0.4c-0.1-0.2-0.5-0.3-0.7-0.4
					c-1-0.3-1.6-1.3-1.9-2.3c-0.1-0.5-0.2-1.1,0-1.6c0.2-0.5,0.6-1,1.1-1.2c0.1,0,0.2,0,0.3,0c0.1,0,0.2,0.1,0.2,0.2
					c0.3,0.4,0.5,0.9,0.7,1.4c0.1,0.4,0.2,0.8,0.5,1c0.2,0.1,0.5,0.2,0.7,0.3c0.5,0.2,0.7,0.7,0.8,1.2
					C294.2,193.5,293.8,195.2,294,195.9"/>
			</g>
			<g>
				<path class="st28" d="M296.8,191c0.1-0.6-0.1-1.3-0.5-1.7c-0.4-0.4-0.9-0.7-1.5-0.9c-0.1-0.1-0.3-0.1-0.4,0
					c-0.1,0.1,0,0.2,0,0.3c0.2,0.4,0.7,0.5,0.9,0.9c0.1,0.1,0.1,0.3,0.2,0.4C295.7,190.5,296.2,190.9,296.8,191"/>
			</g>
			<path class="st26" d="M316.9,178.4c0,0-2.2-5.6-2.7-7.9c-1.1,5.5-0.7,15-1.6,15.8c-0.9,0.8-9.9,6-9.9,6l0,0
				c4.3-1.3,9.5-3.3,10.9-5C314.4,186.3,315.7,182.6,316.9,178.4L316.9,178.4z"/>
			<path class="st30" d="M322.3,153.5c0,0,3.8,0.8,4.5,0.7c0.7-0.1-1.5,1.2-1.9,1.2c-0.4,0-2.6-0.3-2.6-0.3V153.5z"/>
		</g>
		<g>
			<path class="st40" d="M170.1,22.3c0-0.1-5.3,3.2-5.3,3.2l1.4,9l2.6-6.8l6.9-1.3l9.9-9.3L170.1,22.3z"/>
			<polygon class="st41" points="185.6,17.2 166.2,34.5 168.8,27.8 			"/>
			<polygon class="st1" points="185.6,17.2 159.9,22.6 164.8,25.5 185.6,17.2 168.8,27.8 177.1,32.9 			"/>
		</g>
		<path class="st29" d="M91.5,136.4c0.1,0.1,0.5,0.1,0.6,0.1c0.2,0,0.1,0.1,0.9,0.9c0.6,0.6,1.5,0.7,3.1,0c1.2-0.6,0.9-1.5,1-2
			c0-0.5,0.1-0.6,0.3-0.6c0.2-0.1,0.3,0,0.6,0.3c0.3,0.4,0.9,1.3,2.2,1c1-0.2,1.4-0.7,1.4-1.4c0.1-1.2,0.1-1.2,0.2-1.3
			c0.1-0.1,0-0.6-0.1-0.8c-0.1-0.2-0.9-0.1-1.6,0.2c-0.8,0.2-2,0.6-2.3,0.9c-0.4,0.3-0.3,0.5-0.6,0.6c-0.2,0.1-0.3-0.1-0.8-0.2
			c-0.5-0.1-2.6,0.6-3.3,0.8c-0.8,0.2-1.8,0.7-1.8,0.9C91.3,136,91.4,136.2,91.5,136.4z M98.2,134.3c0-0.3,0.3-0.4,1.2-0.7
			s1.3-0.5,1.5-0.4c0.2,0.1,0.4,0.5,0.3,1.2c-0.1,0.8-0.2,1.2-1,1.4c-0.8,0.2-1.3-0.1-1.6-0.5C98.4,134.8,98.2,134.4,98.2,134.3z
			 M92.7,135.7c0.1-0.2,1.3-0.5,2.2-0.7c0.9-0.2,1.2-0.3,1.4,0c0.1,0.1,0.2,0.5,0.2,1c0,0.5,0,1-1.4,1.4c-1,0.3-1.5,0.1-2-0.5
			C92.7,136.3,92.6,135.9,92.7,135.7z"/>
		<g>
			<path class="st1" d="M119.8,77.8h38.7c2.5,0,4.5,2,4.5,4.5v25.1c0,2.5-2,4.5-4.5,4.5h-38.7c-2.5,0-4.5-2-4.5-4.5V82.3
				C115.3,79.8,117.3,77.8,119.8,77.8z"/>
			<polyline class="st1" points="157.7,100.9 169.1,97.7 158.9,95 			"/>
			<g>
				
					<rect x="132.3" y="93" transform="matrix(-1 -1.224647e-16 1.224647e-16 -1 271.7139 187.6891)" class="st21" width="7.1" height="1.6"/>
				
					<rect x="127.3" y="90.6" transform="matrix(-1 -1.224647e-16 1.224647e-16 -1 266.6829 182.8025)" class="st21" width="12.2" height="1.6"/>
				
					<rect x="121.7" y="99.8" transform="matrix(-1 -1.224647e-16 1.224647e-16 -1 278.3015 201.6601)" class="st21" width="34.9" height="2"/>
				
					<rect x="121.7" y="102.8" transform="matrix(-1 -1.224647e-16 1.224647e-16 -1 278.3015 207.6993)" class="st21" width="34.9" height="2"/>
				
					<rect x="127.3" y="88.1" transform="matrix(-1 -1.224647e-16 1.224647e-16 -1 266.6829 177.9161)" class="st21" width="12.2" height="1.6"/>
				
					<rect x="135" y="85.7" transform="matrix(-1 -1.224647e-16 1.224647e-16 -1 274.3748 173.0297)" class="st21" width="4.5" height="1.6"/>
				<path class="st21" d="M142.3,90.8c0,3.9,3.2,7.2,7.2,7.2c3.9,0,7.2-3.2,7.2-7.2c0-3.9-3.2-7.2-7.2-7.2
					C145.5,83.7,142.3,86.9,142.3,90.8z"/>
				<path class="st42" d="M148.1,90.9c-0.7-0.5-1.2-1.3-1.2-2.2c0-1.4,1.2-2.6,2.6-2.6c1.4,0,2.6,1.2,2.6,2.6c0,0.9-0.5,1.7-1.2,2.2
					c1.6,0.4,2.8,1.8,2.8,3.5v2.1c-1.2,0.9-2.6,1.4-4.2,1.4c-1.6,0-3-0.5-4.2-1.4v-2.1C145.3,92.7,146.5,91.3,148.1,90.9z"/>
			</g>
		</g>
		<g>
			<path class="st10" d="M119.8,66.8c-1,2.6-3.9,3.8-6.5,2.8c-2.6-1-3.8-3.9-2.8-6.5c1-2.6,3.9-3.8,6.5-2.8
				C119.6,61.3,120.8,64.2,119.8,66.8z"/>
			<polyline class="st43" points="113.1,64.3 114.2,66.8 117.9,64.5 			"/>
		</g>
		<g>
			<path class="st10" d="M312.5,26.1c1.1,2.5-0.1,5.4-2.6,6.5c-2.5,1.1-5.4-0.1-6.5-2.6c-1.1-2.5,0.1-5.4,2.6-6.5
				C308.5,22.4,311.5,23.6,312.5,26.1z"/>
			<polyline class="st43" points="306,29.1 308.6,30.1 309.6,25.8 			"/>
		</g>
		<g>
			
				<ellipse transform="matrix(0.1609 -0.987 0.987 0.1609 105.5597 524.3443)" class="st44" cx="361.2" cy="200.1" rx="15.3" ry="15.3"/>
			<circle class="st45" cx="361.2" cy="200.1" r="10.7"/>
			<path class="st45" d="M367.2,200.1c0,3.3-2.7,6.1-6.1,6.1c-3.3,0-6.1-2.7-6.1-6.1c0-3.3,2.7-6.1,6.1-6.1
				C364.5,194,367.2,196.7,367.2,200.1z"/>
			<circle class="st10" cx="361.2" cy="200.1" r="2.6"/>
			<g>
				<line class="st46" x1="361.2" y1="200.1" x2="380.9" y2="180.3"/>
				<polyline class="st46" points="384.1,180.7 380.6,180.7 380.6,177.1 				"/>
				<polyline class="st46" points="382.3,182.4 378.8,182.4 378.8,178.9 				"/>
				<polyline class="st46" points="380.5,184.2 377,184.2 377,180.7 				"/>
				<polyline class="st46" points="364.6,200.2 361,200.2 361,196.7 				"/>
			</g>
		</g>
		<path class="st10" d="M40.9,150c0,1-0.8,1.8-1.8,1.8c-1,0-1.8-0.8-1.8-1.8c0-1,0.8-1.8,1.8-1.8C40,148.2,40.9,149,40.9,150z"/>
		<path class="st10" d="M385.9,109.8c0,1-0.8,1.8-1.8,1.8c-1,0-1.8-0.8-1.8-1.8c0-1,0.8-1.8,1.8-1.8
			C385.1,108,385.9,108.8,385.9,109.8z"/>
		<path class="st10" d="M214,41.1c0,1-0.8,1.8-1.8,1.8c-1,0-1.8-0.8-1.8-1.8c0-1,0.8-1.8,1.8-1.8C213.2,39.3,214,40.1,214,41.1z"/>
		<g>
			<g>
				<path class="st10" d="M153.1,76.4c-0.3,0-0.6-0.3-0.6-0.6v-4.1c0-0.3,0.3-0.6,0.6-0.6c0.3,0,0.6,0.3,0.6,0.6v4.1
					C153.7,76.1,153.5,76.4,153.1,76.4z"/>
			</g>
			<g>
				<path class="st10" d="M155.2,74.3h-4.1c-0.3,0-0.6-0.3-0.6-0.6c0-0.3,0.3-0.6,0.6-0.6h4.1c0.3,0,0.6,0.3,0.6,0.6
					C155.8,74.1,155.5,74.3,155.2,74.3z"/>
			</g>
		</g>
		<g>
			<g>
				<path class="st10" d="M52.4,233.1c-0.3,0-0.6-0.3-0.6-0.6v-4.1c0-0.3,0.3-0.6,0.6-0.6c0.3,0,0.6,0.3,0.6,0.6v4.1
					C53,232.8,52.7,233.1,52.4,233.1z"/>
			</g>
			<g>
				<path class="st10" d="M54.4,231h-4.1c-0.3,0-0.6-0.3-0.6-0.6c0-0.3,0.3-0.6,0.6-0.6h4.1c0.3,0,0.6,0.3,0.6,0.6
					C55,230.8,54.8,231,54.4,231z"/>
			</g>
		</g>
		<g>
			<g>
				<path class="st10" d="M401.2,171.6c-0.3,0-0.6-0.3-0.6-0.6v-4.1c0-0.3,0.3-0.6,0.6-0.6c0.3,0,0.6,0.3,0.6,0.6v4.1
					C401.8,171.3,401.5,171.6,401.2,171.6z"/>
			</g>
			<g>
				<path class="st10" d="M403.3,169.5h-4.1c-0.3,0-0.6-0.3-0.6-0.6c0-0.3,0.3-0.6,0.6-0.6h4.1c0.3,0,0.6,0.3,0.6,0.6
					C403.8,169.2,403.6,169.5,403.3,169.5z"/>
			</g>
		</g>
		<g>
			<g>
				<rect x="261.7" y="10" transform="matrix(0.9487 0.3162 -0.3162 0.9487 20.011 -86)" class="st6" width="26.7" height="17.4"/>
				<polygon class="st6" points="290.5,14.6 265.1,6.2 281.2,0 				"/>
				
					<rect x="264.6" y="8.7" transform="matrix(0.9487 0.3162 -0.3162 0.9487 19.717 -86.1303)" class="st19" width="21.4" height="18.1"/>
				<polygon class="st47" points="265.1,6.2 259.6,22.7 274.8,19.2 				"/>
				<polygon class="st47" points="290.5,14.6 285,31.1 274.8,19.2 				"/>
				<polygon class="st47" points="285,31.1 259.6,22.7 275.8,16.5 				"/>
			</g>
			<g>
				<path class="st6" d="M259.6,22.7c1.3-0.6,2.6-1.2,3.9-1.8c1.3-0.6,2.6-1.1,4-1.7c2.7-1.1,5.3-2.2,8-3.2l0.4-0.2l0.2,0.4
					c1.5,2.4,3,4.9,4.5,7.4c0.7,1.2,1.5,2.5,2.2,3.7c0.7,1.3,1.4,2.5,2.1,3.8c-0.9-1.2-1.7-2.4-2.5-3.5c-0.8-1.2-1.6-2.4-2.4-3.6
					c-1.6-2.4-3.2-4.8-4.7-7.3l0.6,0.2c-2.7,1-5.4,2-8.1,3c-1.4,0.5-2.7,0.9-4.1,1.4C262.4,21.8,261,22.3,259.6,22.7z"/>
			</g>
		</g>
	</g>
</g>
</svg>
