<svg viewBox="0 0 315 280" version="1.1" xmlns="http://www.w3.org/2000/svg" xmlns:xlink="http://www.w3.org/1999/xlink">
    <defs>
        <polygon id="path-1" points="0.752782621 0.575744887 157.069497 0.575744887 157.069497 148 0.752782621 148"></polygon>
        <polygon id="path-3" points="0.286649856 0.743 26.9009001 0.743 26.9009001 27.3571001 0.286649856 27.3571001"></polygon>
        <polygon id="path-5" points="0.57975 0.0349 44.611 0.0349 44.611 44.05965 0.57975 44.05965"></polygon>
    </defs>
    <g id="Page-1" stroke="none" stroke-width="1" fill="none" fill-rule="evenodd">
        <g id="Desktop-HD" transform="translate(-927.000000, -646.000000)">
            <g id="Group-208" transform="translate(927.000000, 645.000000)">
                <path d="M148.4906,104.3112 C155.9966,131.9342 139.3996,151.0502 113.0116,158.2212 C86.6236,165.3912 57.4256,152.4592 49.9196,124.8372 C42.4136,97.2142 65.1186,63.7072 92.4606,64.1332 C122.6136,64.6032 140.9846,76.6892 148.4906,104.3112" id="Fill-1" fill="#F0F6F7"></path>
                <g id="Group-5" transform="translate(74.000000, 132.257000)">
                    <mask id="mask-2" fill="white">
                        <use xlink:href="#path-1"></use>
                    </mask>
                    <g id="Clip-4"></g>
                    <path d="M154.2894,62.2559 C165.8104,104.6559 140.3354,133.9989 99.8294,145.0069 C59.3224,156.0129 14.5034,136.1619 2.9814,93.7629 C-8.5396,51.3619 26.3124,-0.0711 68.2824,0.5819 C114.5684,1.3029 142.7684,19.8559 154.2894,62.2559" id="Fill-3" fill="#7CB1E5" mask="url(#mask-2)"></path>
                </g>
                <path d="M299.5736,70.0427 C309.9856,108.3567 286.9646,134.8737 250.3616,144.8197 C213.7586,154.7647 173.2586,136.8287 162.8466,98.5137 C152.4346,60.1997 183.9286,13.7217 221.8546,14.3127 C263.6796,14.9637 289.1626,31.7287 299.5736,70.0427" id="Fill-6" fill="#F0F6F7"></path>
                <path d="M134.2353,34.716 C127.0633,38.822 124.3253,46.408 121.4273,54.44 C118.1433,63.542 114.7463,72.955 104.3413,76.893 C102.5683,77.562 93.2703,80.726 84.1253,77.139 C78.7243,75.021 75.5273,72.471 72.3293,67.731 C47.6013,31.08 22.5153,42.55 15.4143,46.936 C7.8933,51.584 2.9383,58.776 1.4613,67.188 C-0.4917,78.314 3.7813,90.896 13.8193,103.572 C17.5573,108.291 22.4643,112.821 27.2103,117.203 C34.7763,124.189 41.9243,130.786 42.6183,136.824 C43.3963,143.59 40.4743,147.574 36.4313,153.09 C32.8603,157.96 28.4163,164.023 24.9433,174.313 C22.1213,182.675 18.2563,194.127 21.4303,204.881 C24.3983,214.94 33.6213,224.316 46.7333,230.604 C62.5373,238.184 80.4973,239.551 93.6063,234.171 C103.6373,230.056 106.7533,223.934 111.9163,213.79 C116.1933,205.387 121.5173,194.928 132.9843,181.067 C146.0153,165.315 156.5413,157.801 165.8293,151.171 C176.2933,143.701 184.5583,137.802 192.0233,122.856 C203.7363,99.407 205.3463,79.161 196.8083,62.679 C189.9183,49.379 175.9533,38.263 160.3643,33.67 C155.8123,32.329 151.3943,31.663 147.3263,31.663 C142.2853,31.663 137.7833,32.686 134.2353,34.716 L134.2353,34.716 Z M46.3013,231.505 C32.9353,225.095 23.5203,215.493 20.4713,205.164 C17.2073,194.107 21.1313,182.482 23.9963,173.992 C27.5183,163.556 32.0133,157.425 35.6243,152.499 C39.5333,147.167 42.3573,143.315 41.6243,136.938 C40.9733,131.27 33.9583,124.794 26.5313,117.938 C21.7583,113.53 16.8213,108.973 13.0363,104.194 C2.8153,91.286 -1.5267,78.43 0.4763,67.015 C2.0033,58.319 7.1213,50.885 14.8893,46.086 C20.7883,42.44 30.2473,38.713 41.8083,41.649 C53.1253,44.526 63.6733,53.112 73.1573,67.171 C76.2303,71.724 79.3013,74.173 84.4903,76.209 C93.2933,79.662 102.2753,76.605 103.9873,75.957 C113.9623,72.182 117.2783,62.99 120.4863,54.1 C123.3183,46.252 126.2463,38.136 133.7393,33.848 C140.4813,29.989 150.0383,29.584 160.6473,32.711 C176.4883,37.378 190.6853,48.685 197.6963,62.219 C206.3893,79.001 204.7813,99.552 192.9183,123.303 C185.3413,138.471 176.9863,144.435 166.4103,151.985 C157.1723,158.579 146.7023,166.053 133.7553,181.703 C122.3573,195.48 117.0623,205.884 112.8073,214.244 C107.7213,224.237 104.3603,230.84 93.9853,235.097 C88.5583,237.323 82.3223,238.419 75.7523,238.419 C66.1473,238.419 55.8313,236.076 46.3013,231.505 L46.3013,231.505 Z" id="Fill-8" fill="#E8ECEF"></path>
                <path d="M166.4671,15.7395 C167.3631,15.7395 168.2571,16.0815 168.9401,16.7645 L185.7911,33.6185 C187.1571,34.9845 187.1571,37.1985 185.7911,38.5645 C184.4251,39.9295 182.2121,39.9295 180.8461,38.5645 L163.9941,21.7095 C162.6281,20.3435 162.6281,18.1305 163.9941,16.7645 C164.6781,16.0815 165.5721,15.7395 166.4671,15.7395" id="Fill-10" fill="#7CB1E5"></path>
                <path d="M74.3714,13.8649 C77.8854,10.3519 83.5804,10.3519 87.0934,13.8649 C90.6054,17.3779 90.6054,23.0729 87.0934,26.5859 C83.5804,30.0979 77.8854,30.0979 74.3714,26.5859 C70.8584,23.0729 70.8584,17.3779 74.3714,13.8649" id="Fill-12" fill="#7CB1E5"></path>
                <g id="Group-16" transform="translate(233.000000, 0.257000)">
                    <mask id="mask-4" fill="white">
                        <use xlink:href="#path-3"></use>
                    </mask>
                    <g id="Clip-15"></g>
                    <path d="M8.3529,8.8101 C11.2449,5.9191 15.9469,5.9191 18.8349,8.8081 C21.7239,11.6971 21.7239,16.3991 18.8329,19.2901 C15.9429,22.1811 11.2409,22.1811 8.3509,19.2921 C5.4619,16.4031 5.4619,11.7011 8.3529,8.8101 M4.1809,4.6371 C-1.0101,9.8291 -1.0121,18.2731 4.1789,23.4641 C9.3699,28.6561 17.8149,28.6541 23.0059,23.4621 C28.1979,18.2711 28.1999,9.8271 23.0079,4.6351 C17.8169,-0.5559 9.3729,-0.5539 4.1809,4.6371" id="Fill-14" fill="#7CB1E5" mask="url(#mask-4)"></path>
                </g>
                <g id="Group-19" transform="translate(270.000000, 25.257000)">
                    <mask id="mask-6" fill="white">
                        <use xlink:href="#path-5"></use>
                    </mask>
                    <g id="Clip-18"></g>
                    <path d="M3.096,14.6534 L10.487,22.0444 L3.09,29.4404 C-0.257,32.7874 -0.257,38.2034 3.09,41.5494 C6.437,44.8964 11.853,44.8964 15.2,41.5494 L22.596,34.1534 L29.992,41.5494 C33.339,44.8964 38.754,44.8964 42.101,41.5494 C45.448,38.2034 45.448,32.7874 42.101,29.4404 L34.704,22.0444 L42.095,14.6534 C45.442,11.3074 45.442,5.8914 42.095,2.5444 C38.748,-0.8016 33.333,-0.8016 29.987,2.5444 L22.596,9.9344 L15.205,2.5444 C11.859,-0.8016 6.443,-0.8016 3.096,2.5444 C-0.25,5.8914 -0.25,11.3074 3.096,14.6534" id="Fill-17" fill="#7CB1E5" mask="url(#mask-6)"></path>
                </g>
                <path d="M232.1732,212.4836 C237.2102,207.4466 245.4022,207.4466 250.4432,212.4866 C255.4772,217.5206 255.4772,225.7126 250.4402,230.7506 C245.4022,235.7876 237.2102,235.7876 232.1762,230.7536 C227.1362,225.7126 227.1362,217.5206 232.1732,212.4836 M226.0582,206.3696 C217.6512,214.7766 217.6532,228.4606 226.0612,236.8686 C234.4692,245.2766 248.1472,245.2726 256.5552,236.8656 C264.9622,228.4576 264.9652,214.7796 256.5582,206.3726 C248.1502,197.9636 234.4662,197.9616 226.0582,206.3696" id="Fill-20" fill="#7CB1E5"></path>
                <path d="M193.8109,34.8752 C193.8109,43.6712 200.9419,50.8012 209.7379,50.8012 C218.5339,50.8012 225.6649,43.6712 225.6649,34.8752 C225.6649,26.0792 218.5339,18.9482 209.7379,18.9482 C200.9419,18.9482 193.8109,26.0792 193.8109,34.8752" id="Fill-22" fill="#C0D0D8"></path>
                <path d="M195.0911,34.8718 C195.0911,39.7208 197.4371,44.0068 201.0591,46.6738 C202.1361,47.4718 203.3341,48.1218 204.6041,48.5988 C205.1741,48.8128 205.7661,48.9908 206.3641,49.1338 C206.7291,49.2188 207.0921,49.2898 207.4631,49.3478 C208.2041,49.4688 208.9601,49.5258 209.7371,49.5258 C211.2491,49.5258 212.7111,49.2898 214.0871,48.8698 C220.0561,47.0158 224.3841,41.4468 224.3841,34.8718 C224.3841,32.5828 223.8571,30.4218 222.9221,28.4968 C221.7811,26.1298 220.0201,24.1188 217.8451,22.6778 C217.3391,22.3358 216.8041,22.0298 216.2551,21.7508 C215.0641,21.1598 213.7801,20.7248 212.4331,20.4748 C211.5561,20.3108 210.6571,20.2258 209.7371,20.2258 C203.5201,20.2258 198.1991,24.1038 196.0891,29.5738 C195.4401,31.2138 195.0911,33.0038 195.0911,34.8718" id="Fill-24" fill="#EFF4F4"></path>
                <path d="M209.7376,35.6135 C209.9516,35.6135 210.1656,35.5205 210.3106,35.3405 L215.1546,29.3695 C215.4116,29.0525 215.3626,28.5885 215.0466,28.3315 C214.7306,28.0765 214.2636,28.1215 214.0086,28.4395 L209.1646,34.4105 C208.9076,34.7265 208.9566,35.1915 209.2726,35.4485 C209.4096,35.5595 209.5736,35.6135 209.7376,35.6135" id="Fill-26" fill="#808791"></path>
                <path d="M206.8626,34.8752 C206.8626,36.4622 208.1496,37.7492 209.7376,37.7492 C211.3246,37.7492 212.6116,36.4622 212.6116,34.8752 C212.6116,33.2872 211.3246,32.0002 209.7376,32.0002 C208.1496,32.0002 206.8626,33.2872 206.8626,34.8752" id="Fill-28" fill="#C0D0D8"></path>
                <path d="M217.137,44.1482 C217.309,44.1482 217.481,44.0882 217.62,43.9672 C217.929,43.7002 217.962,43.2342 217.695,42.9262 L210.295,34.3922 C210.029,34.0822 209.562,34.0502 209.254,34.3172 C208.946,34.5852 208.912,35.0502 209.18,35.3582 L216.579,43.8932 C216.725,44.0622 216.931,44.1482 217.137,44.1482" id="Fill-30" fill="#C0D0D8"></path>
                <path d="M91.7884,56.9162 L118.0964,133.4402 C118.5384,134.7292 119.9434,135.4162 121.2334,134.9732 L164.0244,120.2622 C165.3134,119.8182 166.0004,118.4132 165.5574,117.1242 L139.2494,40.6002 C138.8064,39.3102 137.3984,38.6172 136.1094,39.0602 L93.3174,53.7712 C92.0284,54.2142 91.3454,55.6272 91.7884,56.9162" id="Fill-32" fill="#C7D8E2"></path>
                <path d="M89.8626,57.5783 L116.1706,134.1023 C116.6136,135.3913 118.0186,136.0783 119.3076,135.6353 L162.0986,120.9243 C163.3886,120.4803 164.0746,119.0753 163.6316,117.7863 L137.3246,41.2623 C136.8816,39.9723 135.4726,39.2793 134.1836,39.7223 L91.3916,54.4333 C90.1026,54.8763 89.4196,56.2883 89.8626,57.5783" id="Fill-34" fill="#DCE8EF"></path>
                <path d="M95.3079,59.3459 L105.3069,88.4119 L105.3089,88.4219 L113.4569,112.1499 L113.4589,112.1599 L117.1729,122.9359 L118.0449,125.4779 C118.2789,126.1739 119.0459,126.5489 119.7409,126.3059 L140.1809,119.2749 L156.0149,113.8329 C156.7209,113.5969 157.0859,112.8309 156.8519,112.1349 L147.1489,83.9049 L134.1159,46.0029 C133.8879,45.3359 133.1809,44.9579 132.4959,45.1479 C132.4669,45.1549 132.4379,45.1609 132.4109,45.1779 L126.2319,47.3039 L112.4749,52.0369 L96.1459,57.6479 C95.4399,57.8839 95.0649,58.6519 95.3079,59.3459" id="Fill-36" fill="#F0F7F7"></path>
                <path d="M140.013,126.2707 L140.013,126.2707 C141.226,125.8537 141.871,124.5317 141.454,123.3187 C141.037,122.1047 139.716,121.4597 138.502,121.8767 C137.289,122.2937 136.644,123.6157 137.061,124.8297 C137.478,126.0417 138.799,126.6877 140.013,126.2707" id="Fill-38" fill="#C7D8E2"></path>
                <path d="M129.5218,44.7507 L129.5218,44.7507 C130.0138,44.5817 130.2768,44.0437 130.1078,43.5507 C129.9378,43.0577 129.4008,42.7957 128.9078,42.9647 C128.4148,43.1347 128.1528,43.6717 128.3218,44.1647 C128.4918,44.6577 129.0288,44.9197 129.5218,44.7507" id="Fill-40" fill="#C7D8E2"></path>
                <path d="M120.9564,108.467 L122.0094,108.105 L120.4344,103.521 C119.6934,101.368 119.8364,99.056 120.8344,97.011 L123.7344,91.073 C124.6534,89.191 123.8704,86.913 121.9884,85.994 L116.0504,83.094 C114.0054,82.095 112.4714,80.36 111.7304,78.207 L110.1554,73.623 L109.1024,73.986 L110.6784,78.57 C111.5154,81.003 113.2494,82.966 115.5614,84.095 L121.5004,86.995 C122.8294,87.644 123.3834,89.255 122.7344,90.584 L119.8344,96.523 C118.7044,98.835 118.5434,101.449 119.3814,103.883 L120.9564,108.467 Z" id="Fill-42" fill="#CEE8EF"></path>
                <path d="M143.0413,100.8752 L144.0943,100.5132 L142.5183,95.9282 C141.6813,93.4952 139.9463,91.5322 137.6343,90.4032 L131.6953,87.5032 C130.3663,86.8542 129.8123,85.2432 130.4613,83.9142 L133.3613,77.9762 C134.4913,75.6642 134.6523,73.0492 133.8153,70.6152 L132.2393,66.0312 L131.1873,66.3932 L132.7633,70.9772 C133.5023,73.1302 133.3593,75.4422 132.3613,77.4872 L129.4613,83.4252 C128.5423,85.3072 129.3253,87.5852 131.2073,88.5042 L137.1453,91.4042 C139.1903,92.4032 140.7253,94.1382 141.4653,96.2912 L143.0413,100.8752 Z" id="Fill-44" fill="#CEE8EF"></path>
                <path d="M108.9534,75.1506 C109.0734,75.1506 109.1954,75.1306 109.3154,75.0896 L132.7504,67.0336 C133.3314,66.8336 133.6404,66.1996 133.4414,65.6176 C133.2414,65.0366 132.6104,64.7286 132.0254,64.9266 L108.5914,72.9836 C108.0104,73.1836 107.7004,73.8166 107.8994,74.3986 C108.0584,74.8596 108.4904,75.1506 108.9534,75.1506" id="Fill-46" fill="#B2CAD3"></path>
                <path d="M120.8079,109.632 C120.9279,109.632 121.0499,109.612 121.1699,109.571 L144.6049,101.515 C145.1859,101.315 145.4949,100.681 145.2959,100.099 C145.0959,99.518 144.4649,99.209 143.8799,99.408 L120.4459,107.465 C119.8649,107.665 119.5549,108.298 119.7539,108.88 C119.9129,109.341 120.3449,109.632 120.8079,109.632" id="Fill-48" fill="#B2CAD3"></path>
                <path d="M130.5277,75.219 L126.1607,84.164 C125.9587,84.577 125.4597,84.749 125.0467,84.547 L116.1017,80.179 C115.4347,79.853 115.4947,78.885 116.1967,78.643 L129.5087,74.067 C130.2117,73.825 130.8537,74.552 130.5277,75.219" id="Fill-50" fill="#799DD3"></path>
                <path d="M134.5062,99.2082 L130.6922,97.3462 C130.2782,97.1442 129.7792,97.3152 129.5782,97.7292 L127.7152,101.5422 C127.3902,102.2092 128.0322,102.9372 128.7352,102.6952 L134.4112,100.7442 C135.1122,100.5032 135.1722,99.5342 134.5062,99.2082" id="Fill-52" fill="#799DD3"></path>
                <path d="M128.3011,94.9851 C128.4631,95.4581 128.9781,95.7091 129.4501,95.5471 C129.9231,95.3841 130.1741,94.8691 130.0121,94.3971 C129.8501,93.9241 129.3341,93.6731 128.8621,93.8351 C128.3901,93.9971 128.1381,94.5121 128.3011,94.9851" id="Fill-54" fill="#799DD3"></path>
                <path d="M127.013,91.2404 C127.176,91.7134 127.691,91.9644 128.163,91.8024 C128.636,91.6394 128.887,91.1244 128.725,90.6524 C128.563,90.1794 128.047,89.9284 127.575,90.0904 C127.102,90.2534 126.851,90.7674 127.013,91.2404" id="Fill-56" fill="#799DD3"></path>
                <path d="M125.7259,87.4958 C125.8889,87.9688 126.4039,88.2198 126.8759,88.0578 C127.3489,87.8948 127.5999,87.3798 127.4379,86.9078 C127.2749,86.4348 126.7599,86.1838 126.2879,86.3458 C125.8149,86.5088 125.5639,87.0228 125.7259,87.4958" id="Fill-58" fill="#799DD3"></path>
                <path d="M117.1732,122.9358 L118.0452,125.4778 C118.2782,126.1738 119.0462,126.5488 119.7402,126.3058 L140.1812,119.2748 L147.1492,83.9048 L134.1152,46.0028 C133.8882,45.3358 133.1812,44.9578 132.4962,45.1478 L117.1732,122.9358 Z" id="Fill-60" fill="#FFFFFF"></path>
                <polygon id="Fill-62" fill="#FFFFFF" points="105.307 88.4123 105.309 88.4213 113.457 112.1503 126.232 47.3043 112.475 52.0373"></polygon>
                <path d="M95.9105,124.8625 L93.7465,147.1785 C93.6295,148.3885 94.5125,149.4625 95.7225,149.5795 L126.3025,152.5455 C127.5115,152.6625 128.5845,151.7785 128.7015,150.5695 L130.8665,128.2525 C130.9835,127.0435 130.0995,125.9695 128.8905,125.8525 L98.3105,122.8865 C97.1005,122.7695 96.0275,123.6525 95.9105,124.8625" id="Fill-64" fill="#CAD3DB"></path>
                <path d="M95.4271,121.05 L91.8451,143.184 C91.6521,144.383 92.4641,145.511 93.6641,145.704 L123.9921,150.612 C125.1931,150.806 126.3201,149.993 126.5141,148.793 L130.0951,126.659 C130.2891,125.46 129.4761,124.332 128.2771,124.139 L97.9481,119.231 C96.7481,119.037 95.6201,119.85 95.4271,121.05" id="Fill-66" fill="#D8E1EA"></path>
                <path d="M95.4271,121.05 L94.6321,125.96 L129.3011,131.571 L130.0951,126.659 C130.2891,125.46 129.4761,124.332 128.2771,124.139 L97.9481,119.231 C96.7481,119.037 95.6201,119.85 95.4271,121.05" id="Fill-68" fill="#ED9558"></path>
                <polygon id="Fill-70" fill="#FFFFFF" points="94.3734 127.5569 129.0424 133.1659 129.3014 131.5709 94.6324 125.9599"></polygon>
                <path d="M119.2904,125.386 C119.0584,126.82 120.0324,128.17 121.4664,128.402 C122.8994,128.634 124.2494,127.659 124.4814,126.226 C124.7134,124.792 123.7394,123.443 122.3064,123.21 C120.8724,122.979 119.5214,123.952 119.2904,125.386" id="Fill-72" fill="#C97841"></path>
                <path d="M100.8909,122.4094 C100.6589,123.8434 101.6329,125.1924 103.0669,125.4254 C104.4999,125.6564 105.8499,124.6824 106.0819,123.2494 C106.3149,121.8154 105.3399,120.4654 103.9069,120.2334 C102.4729,120.0014 101.1219,120.9754 100.8909,122.4094" id="Fill-74" fill="#C97841"></path>
                <path d="M121.888,127.6037 C122.755,127.6037 123.518,126.9757 123.66,126.0927 L124.283,122.2477 C124.442,121.2677 123.776,120.3447 122.795,120.1857 C121.799,120.0287 120.892,120.6947 120.734,121.6737 L120.112,125.5187 C119.952,126.4997 120.618,127.4217 121.599,127.5807 C121.697,127.5967 121.793,127.6037 121.888,127.6037" id="Fill-76" fill="#5C81B7"></path>
                <path d="M103.4886,124.6272 C104.3556,124.6272 105.1186,123.9992 105.2606,123.1162 L105.8836,119.2712 C106.0426,118.2902 105.3766,117.3672 104.3956,117.2092 C103.4036,117.0542 102.4926,117.7172 102.3346,118.6962 L101.7126,122.5422 C101.5526,123.5232 102.2186,124.4452 103.1996,124.6042 C103.2976,124.6202 103.3936,124.6272 103.4886,124.6272" id="Fill-78" fill="#5C81B7"></path>
                <polygon id="Fill-80" fill="#A5BDD6" points="120.7611 137.5861 124.1331 138.1321 124.5971 135.2681 121.2241 134.7221"></polygon>
                <polygon id="Fill-82" fill="#A5BDD6" points="97.4661 133.8166 100.8391 134.3626 101.3031 131.4986 97.9301 130.9526"></polygon>
                <polygon id="Fill-84" fill="#A5BDD6" points="103.2904 134.759 106.6634 135.305 107.1264 132.441 103.7534 131.895"></polygon>
                <polygon id="Fill-86" fill="#A5BDD6" points="109.1136 135.7014 112.4866 136.2474 112.9496 133.3834 109.5776 132.8374"></polygon>
                <polygon id="Fill-88" fill="#A5BDD6" points="114.9368 136.6438 118.3098 137.1898 118.7738 134.3258 115.4008 133.7798"></polygon>
                <polygon id="Fill-90" fill="#A5BDD6" points="120.0072 142.2404 123.3802 142.7864 123.8442 139.9224 120.4712 139.3764"></polygon>
                <polygon id="Fill-92" fill="#A5BDD6" points="96.7132 138.4709 100.0862 139.0169 100.5502 136.1529 97.1772 135.6069"></polygon>
                <polygon id="Fill-94" fill="#A5BDD6" points="102.5374 139.4133 105.9094 139.9593 106.3734 137.0953 103.0004 136.5493"></polygon>
                <polygon id="Fill-96" fill="#A5BDD6" points="108.3607 140.3557 111.7337 140.9017 112.1967 138.0377 108.8237 137.4917"></polygon>
                <polygon id="Fill-98" fill="#A5BDD6" points="114.1839 141.2981 117.5569 141.8441 118.0199 138.9801 114.6479 138.4341"></polygon>
                <polygon id="Fill-100" fill="#A5BDD6" points="119.2542 146.8947 122.6272 147.4407 123.0912 144.5767 119.7182 144.0307"></polygon>
                <polygon id="Fill-102" fill="#A5BDD6" points="95.9603 143.1252 99.3333 143.6712 99.7963 140.8072 96.4243 140.2612"></polygon>
                <polygon id="Fill-104" fill="#A5BDD6" points="101.7835 144.0676 105.1565 144.6136 105.6205 141.7496 102.2475 141.2036"></polygon>
                <polygon id="Fill-106" fill="#A5BDD6" points="107.6077 145.01 110.9807 145.556 111.4437 142.692 108.0707 142.146"></polygon>
                <polygon id="Fill-108" fill="#A5BDD6" points="113.431 145.9524 116.804 146.4984 117.267 143.6344 113.895 143.0884"></polygon>
                <path d="M259.8792,109.0339 C259.8792,112.8869 263.0022,116.0099 266.8552,116.0099 C270.7072,116.0099 273.8302,112.8869 273.8302,109.0339 C273.8302,105.1809 270.7072,102.0579 266.8552,102.0579 C263.0022,102.0579 259.8792,105.1809 259.8792,109.0339" id="Fill-110" fill="#C4CBD6"></path>
                <path d="M233.4593,65.9626 C233.4593,66.9726 234.2813,67.7956 235.2913,67.7956 C236.3023,67.7956 237.1243,66.9726 237.1243,65.9626 C237.1243,64.9526 236.3023,64.1306 235.2913,64.1306 C234.2813,64.1306 233.4593,64.9526 233.4593,65.9626 M231.4593,65.9626 C231.4593,63.8496 233.1783,62.1306 235.2913,62.1306 C237.4043,62.1306 239.1243,63.8496 239.1243,65.9626 C239.1243,68.0756 237.4043,69.7956 235.2913,69.7956 C233.1783,69.7956 231.4593,68.0756 231.4593,65.9626" id="Fill-112" fill="#C4CBD6"></path>
                <path d="M261.1556,70.3337 L270.3576,88.3557 C270.8676,89.3537 270.4706,90.5767 269.4726,91.0867 L234.7596,108.8117 C233.7616,109.3207 232.5386,108.9247 232.0296,107.9267 L222.8266,89.9047 C222.5566,89.3767 222.5456,88.7817 222.7366,88.2647 C222.9146,87.8087 223.2416,87.4137 223.7126,87.1737 L258.4256,69.4487 C258.8946,69.2087 259.4066,69.1757 259.8796,69.2987 C260.4116,69.4467 260.8856,69.8057 261.1556,70.3337" id="Fill-114" fill="#6F7475"></path>
                <path d="M259.8792,69.2985 L251.1912,88.4595 C249.8292,91.4525 246.5752,93.1145 243.3522,92.4625 L222.7362,88.2645 C222.9142,87.8085 223.2412,87.4135 223.7122,87.1735 L258.4252,69.4485 C258.8952,69.2095 259.4062,69.1755 259.8792,69.2985" id="Fill-116" fill="#8A9596"></path>
                <path d="M237.432,57.8547 L231.906,70.8407 C231.6,71.5607 230.768,71.8957 230.048,71.5897 L205.035,60.9447 C204.316,60.6387 203.98,59.8067 204.286,59.0867 L209.813,46.1007 C209.975,45.7207 210.287,45.4477 210.651,45.3187 C210.974,45.2097 211.331,45.2087 211.67,45.3527 L236.684,55.9977 C237.023,56.1417 237.27,56.4007 237.415,56.7087 C237.574,57.0597 237.594,57.4747 237.432,57.8547" id="Fill-118" fill="#ED9558"></path>
                <path d="M237.4154,56.7087 L223.2754,60.6317 C221.0644,61.2427 218.7204,60.2447 217.6264,58.2277 L210.6504,45.3187 C210.9744,45.2097 211.3314,45.2087 211.6704,45.3527 L236.6844,55.9977 C237.0224,56.1417 237.2694,56.4007 237.4154,56.7087" id="Fill-120" fill="#FFC197"></path>
                <path d="M215.7943,79.9045 L217.0813,79.9045 L217.0813,81.1925 C217.0813,81.7755 217.5533,82.2465 218.1363,82.2465 C218.7193,82.2465 219.1903,81.7755 219.1903,81.1925 L219.1903,79.9045 L220.4793,79.9045 C221.0613,79.9045 221.5323,79.4325 221.5323,78.8495 C221.5323,78.2675 221.0613,77.7955 220.4793,77.7955 L219.1903,77.7955 L219.1903,76.5085 C219.1903,75.9255 218.7193,75.4535 218.1363,75.4535 C217.5533,75.4535 217.0813,75.9255 217.0813,76.5085 L217.0813,77.7955 L215.7943,77.7955 C215.2113,77.7955 214.7393,78.2675 214.7393,78.8495 C214.7393,79.4325 215.2113,79.9045 215.7943,79.9045" id="Fill-122" fill="#B5B5B5"></path>
                <path d="M252.097,193.3469 C252.097,199.1119 256.785,203.7989 262.553,203.7989 C268.314,203.7989 273.002,199.1119 273.002,193.3469 C273.002,187.5819 268.314,182.8949 262.553,182.8949 C256.785,182.8949 252.097,187.5819 252.097,193.3469 M245.1,193.3469 C245.1,183.7249 252.931,175.8969 262.553,175.8969 C272.175,175.8969 279.999,183.7249 279.999,193.3469 C279.999,202.9689 272.175,210.7969 262.553,210.7969 C252.931,210.7969 245.1,202.9689 245.1,193.3469" id="Fill-124" fill="#F0F6F7"></path>
                <path d="M275.7865,157.8303 C276.0625,157.8303 276.2865,157.6063 276.2865,157.3303 C276.2865,152.2103 275.7295,147.1043 274.6335,142.1533 C273.1475,135.4513 270.6785,129.0163 267.2945,123.0253 C267.1585,122.7853 266.8525,122.6993 266.6125,122.8363 C266.3725,122.9723 266.2875,123.2773 266.4235,123.5173 C269.7595,129.4213 272.1915,135.7643 273.6565,142.3703 C274.7375,147.2503 275.2865,152.2833 275.2865,157.3303 C275.2865,157.6063 275.5105,157.8303 275.7865,157.8303" id="Fill-126" fill="#C8CDCE"></path>
                <path d="M273.5003,175.5549 C273.7223,175.5549 273.9243,175.4069 273.9833,175.1829 C274.5103,173.1889 274.9523,171.1409 275.2993,169.0979 C275.3453,168.8259 275.1623,168.5679 274.8903,168.5209 C274.6203,168.4719 274.3593,168.6589 274.3123,168.9299 C273.9713,170.9449 273.5353,172.9619 273.0173,174.9269 C272.9463,175.1949 273.1053,175.4679 273.3723,175.5379 C273.4153,175.5499 273.4583,175.5549 273.5003,175.5549" id="Fill-128" fill="#C8CDCE"></path>
                <path d="M141.72,157.3303 C141.72,193.0813 170.701,222.0623 206.453,222.0623 C242.204,222.0623 271.186,193.0813 271.186,157.3303 C271.186,121.5793 242.204,92.5973 206.453,92.5973 C170.701,92.5973 141.72,121.5793 141.72,157.3303" id="Fill-130" fill="#C8CDCE"></path>
                <path d="M148.0159,157.3264 C148.0159,176.6504 157.3899,193.7774 171.8369,204.4154 C176.1389,207.5874 180.8929,210.1754 185.9759,212.0744 C188.2549,212.9364 190.5959,213.6454 192.9989,214.2104 C197.3219,215.2374 201.8189,215.7704 206.4499,215.7704 C212.4969,215.7704 218.3289,214.8574 223.8129,213.1524 C247.6139,205.7604 264.8939,183.5604 264.8939,157.3264 C264.8939,148.1984 262.7989,139.5734 259.0729,131.8834 C254.5029,122.4474 247.4689,114.4284 238.8039,108.6574 C236.7709,107.3024 234.6559,106.0704 232.4479,104.9814 C227.7039,102.6194 222.5799,100.8744 217.2009,99.8784 C213.7189,99.2314 210.1249,98.8924 206.4499,98.8924 C174.1779,98.8924 148.0159,125.0554 148.0159,157.3264" id="Fill-132" fill="#B5B5B5"></path>
                <path d="M149.5394,157.3274 C149.5394,176.1464 158.6704,192.8274 172.7394,203.1864 C176.9304,206.2764 181.5604,208.7974 186.5104,210.6464 C188.7294,211.4864 191.0104,212.1774 193.3504,212.7264 C197.5604,213.7264 201.9394,214.2474 206.4494,214.2474 C212.3404,214.2474 218.0194,213.3564 223.3594,211.6964 C246.5394,204.4974 263.3694,182.8774 263.3694,157.3274 C263.3694,148.4364 261.3294,140.0374 257.6994,132.5474 C253.2504,123.3564 246.3994,115.5474 237.9604,109.9274 C235.9794,108.6064 233.9204,107.4074 231.7694,106.3474 C227.1494,104.0474 222.1594,102.3474 216.9204,101.3764 C213.5294,100.7464 210.0294,100.4164 206.4494,100.4164 C175.0194,100.4164 149.5394,125.8964 149.5394,157.3274" id="Fill-134" fill="#EFF4F4"></path>
                <path d="M193.3499,212.7268 C197.5599,213.7268 201.9399,214.2478 206.4499,214.2478 C212.3399,214.2478 218.0199,213.3568 223.3599,211.6968 L257.6999,132.5468 C253.2499,123.3568 246.3999,115.5468 237.9599,109.9268 L193.3499,212.7268 Z" id="Fill-136" fill="#FFFFFF"></path>
                <path d="M172.7396,203.1867 C176.9296,206.2767 181.5596,208.7967 186.5106,210.6467 L231.7696,106.3467 C227.1496,104.0467 222.1596,102.3467 216.9206,101.3767 L172.7396,203.1867 Z" id="Fill-138" fill="#FFFFFF"></path>
                <path d="M206.4505,160.3313 C207.5315,160.3313 208.5765,159.7453 209.1115,158.7213 C209.8795,157.2523 209.3115,155.4393 207.8445,154.6723 L177.2855,138.6883 C175.8145,137.9183 174.0045,138.4873 173.2365,139.9563 C172.4695,141.4253 173.0365,143.2373 174.5045,144.0053 L205.0625,159.9883 C205.5075,160.2213 205.9825,160.3313 206.4505,160.3313" id="Fill-140" fill="#ED9558"></path>
                <path d="M194.7699,157.3303 C194.7699,163.7823 199.9999,169.0133 206.4539,169.0133 C212.9059,169.0133 218.1359,163.7823 218.1359,157.3303 C218.1359,150.8773 212.9059,145.6463 206.4539,145.6463 C199.9999,145.6463 194.7699,150.8773 194.7699,157.3303" id="Fill-142" fill="#6F7475"></path>
                <path d="M206.4505,160.3303 C207.4565,160.3303 208.4385,159.8253 209.0065,158.9063 L233.0725,119.9223 C233.9425,118.5133 233.5055,116.6643 232.0965,115.7943 C230.6835,114.9223 228.8375,115.3613 227.9675,116.7713 L203.9005,155.7543 C203.0305,157.1643 203.4685,159.0133 204.8775,159.8833 C205.3685,160.1853 205.9135,160.3303 206.4505,160.3303" id="Fill-144" fill="#6F7475"></path>
                <path d="M141.72,157.3274 C141.72,178.6864 152.07,197.6374 168.02,209.4274 L196.821,96.0634 C197.052,95.1494 197.17,94.2094 197.17,93.2664 C165.82,97.7574 141.72,124.7264 141.72,157.3274" id="Fill-146" fill="#C8CDCE"></path>
                <path d="M233.4329,225.1975 L179.4769,225.1975 C178.6109,225.1975 177.9099,224.4965 177.9099,223.6305 C177.9099,222.7645 178.6109,222.0625 179.4769,222.0625 L233.4329,222.0625 C234.2989,222.0625 234.9999,222.7645 234.9999,223.6305 C234.9999,224.4965 234.2989,225.1975 233.4329,225.1975" id="Fill-148" fill="#E2E2E2"></path>
                <path d="M157.5413,227.5315 L128.8963,227.5315 C128.0313,227.5315 127.3293,226.8295 127.3293,225.9645 C127.3293,225.0975 128.0313,224.3965 128.8963,224.3965 L157.5413,224.3965 C158.4073,224.3965 159.1083,225.0975 159.1083,225.9645 C159.1083,226.8295 158.4073,227.5315 157.5413,227.5315" id="Fill-150" fill="#E2E2E2"></path>
                <polygon id="Fill-152" fill="#D6DDEA" points="148.0902 220.8703 149.4242 212.5763 145.6942 211.4483 145.1002 220.2373"></polygon>
                <path d="M144.9583,219.3498 C144.7093,219.3848 144.4733,219.4768 144.2843,219.6328 C142.9643,220.7288 138.9523,222.6878 136.8933,222.9858 C134.6863,223.3038 134.5723,224.3968 137.6793,224.3968 C140.7843,224.3968 143.0623,224.1198 144.4453,224.1548 C145.8303,224.1898 145.4713,224.3968 148.8753,224.3968 C151.4893,224.3968 150.6713,221.0638 149.7363,219.5138 C149.4513,219.0418 149.0683,218.7748 148.5003,218.8558 L144.9583,219.3498 Z" id="Fill-154" fill="#ED9558"></path>
                <polygon id="Fill-156" fill="#D6DDEA" points="160.1009 213.1379 154.8939 206.5449 151.5399 208.5319 157.6129 214.9119"></polygon>
                <path d="M156.8626,214.4162 C156.7206,214.6232 156.6286,214.8592 156.6166,215.1042 C156.5306,216.8172 155.2046,221.1942 153.6676,222.5972 C152.0826,224.0442 153.1046,224.3962 155.6576,223.1912 C158.4666,221.8662 159.0936,219.0392 160.0556,218.0432 C161.0176,217.0472 160.9266,217.4522 163.2296,214.9432 C164.9976,213.0192 161.9896,211.3672 160.2156,211.0082 C159.6756,210.8982 159.2186,211.0002 158.8946,211.4732 L156.8626,214.4162 Z" id="Fill-158" fill="#ED9558"></path>
                <path d="M162.4017,73.2854 C162.4017,73.2854 163.4207,80.0774 161.4507,83.2014 C159.4807,86.3264 159.1977,86.8014 159.1977,86.8014" id="Fill-160" fill="#ED8C62"></path>
                <path d="M157.3968,89.8371 C157.9568,90.1671 158.5858,90.3271 159.1968,90.3271 C160.3968,90.3271 161.5668,89.7171 162.2268,88.6071 C162.2668,88.5571 162.6168,87.9671 164.4368,85.0871 C165.7168,83.0571 166.1258,80.2871 166.1868,77.8571 C166.2668,75.4771 165.9968,73.4271 165.8968,72.7571 C165.6068,70.8271 163.7968,69.4971 161.8758,69.7971 C159.9468,70.0771 158.6168,71.8771 158.9068,73.8071 C159.0568,74.8271 159.1368,75.9971 159.1368,77.1171 C159.1368,78.2571 159.0568,79.3471 158.8668,80.1771 C158.7668,80.6571 158.6368,81.0471 158.4668,81.3171 C156.4568,84.5071 156.1668,84.9971 156.1668,84.9971 C155.1668,86.6671 155.7168,88.8371 157.3968,89.8371" id="Fill-162" fill="#FFAF84"></path>
                <path d="M170.4368,128.7072 C169.6968,118.5772 173.1068,93.4072 174.8568,83.3872 C175.1168,81.8672 173.9468,80.4772 172.4068,80.4772 L151.5858,80.4772 C150.4668,80.4772 149.4768,81.2272 149.1868,82.3172 C146.8068,91.4072 145.2868,128.7072 145.2868,128.7072 L170.4368,128.7072 Z" id="Fill-164" fill="#E8E8E8"></path>
                <path d="M136.0365,107.5969 C136.3875,105.7069 138.7065,100.8269 141.3165,95.7269 C144.0865,90.3169 147.1775,84.6569 148.6065,82.0869 C149.4065,80.6469 151.2175,80.1169 152.6665,80.9169 C154.1065,81.7169 154.6375,83.5369 153.8365,84.9769 C151.6375,88.9469 149.3665,93.1769 147.4065,96.9569 C145.1665,101.2669 142.9845,103.9349 142.1045,106.0549 C143.7295,107.4719 147.7295,107.5629 150.9295,107.3719 C151.8045,107.2699 155.1935,107.0299 157.4505,109.1019 C158.3335,109.9109 159.3625,111.3719 159.2575,113.7309 C159.1845,115.3339 158.9505,115.9949 157.5215,116.6909 C156.9435,116.9719 156.1625,117.0499 155.5215,116.9719 C153.8835,116.7719 153.7405,115.8779 153.7245,113.9559 C153.7145,112.6089 153.0215,111.2259 153.0215,111.2219 C153.0215,111.2219 148.1905,112.4049 144.1465,112.9089 C140.1025,113.4139 138.4765,112.6269 136.9965,110.9569 C136.1665,110.0269 135.8165,108.8069 136.0365,107.5969" id="Fill-166" fill="#FFAF84"></path>
                <path d="M169.3411,145.0754 C169.3411,145.0754 172.4041,139.4594 170.4341,128.7074 L145.2881,128.7074 C145.2881,128.7074 144.9321,136.8904 145.5081,145.0754 L169.3411,145.0754 Z" id="Fill-168" fill="#3962A8"></path>
                <path d="M141.3167,95.7268 L144.2467,96.3168 L147.4067,96.9568 C149.3667,93.1768 151.6367,88.9468 153.8367,84.9768 C154.6367,83.5368 154.1067,81.7168 152.6667,80.9168 C151.2167,80.1168 149.4067,80.6468 148.6067,82.0868 C147.1767,84.6568 144.0867,90.3168 141.3167,95.7268" id="Fill-170" fill="#ED8C62"></path>
                <path d="M169.637,82.8171 C170.027,81.2171 171.657,80.2371 173.256,80.6371 C180.467,82.4071 185.477,84.0471 188.967,85.5071 C196.987,88.8871 196.916,91.3871 196.887,92.6771 C196.848,94.1361 196.564,96.9571 179.259,103.2631 C179.247,103.7601 179.807,105.7421 180.152,106.3791 C180.938,107.8301 180.12,109.2211 179.259,110.6281 C178.965,111.1081 178.303,111.6911 177.459,111.6911 C176.398,111.6911 175.077,110.3461 174.896,109.2251 C174.241,105.1911 174.354,102.8191 174.553,102.3471 C174.554,102.3441 174.555,102.3411 174.557,102.3381 C174.558,102.3351 174.561,102.3281 174.562,102.3251 C174.579,102.2841 174.607,102.2491 174.625,102.2091 C174.691,102.0741 174.758,101.9401 174.843,101.8151 C174.895,101.7391 174.958,101.6741 175.017,101.6031 C175.081,101.5251 175.14,101.4431 175.213,101.3711 C175.328,101.2571 175.455,101.1581 175.586,101.0651 C175.609,101.0481 175.627,101.0281 175.651,101.0131 C175.855,100.8751 176.074,100.7661 176.305,100.6811 C182.16,98.2721 187.634,94.3751 190.036,92.6471 C189.197,92.1671 187.996,91.6071 186.527,91.0171 C182.817,89.5271 177.387,87.8071 171.826,86.4371 C170.227,86.0371 169.246,84.4271 169.637,82.8171" id="Fill-172" fill="#FFAF84"></path>
                <path d="M140.847,94.427 L144.857,95.197 L148.006,95.797 L148.017,95.797 L150.677,96.307 C154.107,89.577 154.927,88.037 155.057,85.737 C155.197,83.137 154.496,81.847 152.807,80.917 C151.117,79.977 148.987,80.587 148.047,82.277 C148.006,82.357 144.326,87.587 140.847,94.427" id="Fill-174" fill="#E8E8E8"></path>
                <path d="M129.8968,178.3469 C130.2668,180.8169 131.6068,183.4669 133.4768,186.7369 C136.6168,192.1869 141.4168,198.2169 145.7268,203.2869 C148.7268,206.8169 151.4768,209.8769 153.2468,211.9569 C154.0168,212.8469 154.5968,213.5569 154.9468,214.0469 L158.4968,209.4469 C157.1768,207.5869 155.9468,205.0769 154.4068,202.7369 C154.3668,202.6769 154.3268,202.6169 154.2868,202.5569 C151.3868,198.1869 148.3168,193.2569 145.8268,188.7769 C145.7268,188.6269 145.6468,188.4769 145.5668,188.3269 C142.9368,183.5869 140.9868,179.3869 140.6168,176.9269 C139.9568,172.5369 146.5058,158.8769 152.9868,146.8269 C153.7268,145.4469 154.4668,144.0869 155.1968,142.7669 C155.4468,142.3169 155.5858,141.8169 155.6168,141.3069 C155.8068,139.0869 154.1768,136.5369 152.1968,135.4469 C149.7668,134.1069 146.6258,133.4169 145.2868,135.8469 C142.5468,140.8169 128.2768,167.6069 129.8968,178.3469" id="Fill-176" fill="#3962A8"></path>
                <path d="M145.7269,203.2873 C148.7269,206.8163 151.4769,209.8773 153.2469,211.9573 C153.5269,209.4973 153.8269,206.8273 154.1259,204.1273 C154.1869,203.6063 154.2369,203.0873 154.2869,202.5573 C151.3869,198.1863 148.3169,193.2573 145.8269,188.7763 C145.7169,193.2073 145.7059,198.3873 145.7269,203.2873" id="Fill-178" fill="#2D548C"></path>
                <path d="M146.3763,179.6965 C147.6073,169.6365 156.0553,142.6085 157.3653,139.6285 C158.4763,137.0885 164.5763,136.5475 167.1263,137.6675 C169.6663,138.7765 170.8263,141.7475 169.7063,144.2875 C166.3163,152.0165 156.6693,172.6625 155.7093,179.9715 C155.1483,184.3425 154.3973,193.1275 153.0173,200.6165 C152.0473,205.8465 151.0763,210.9365 150.3563,214.6365 C149.7363,217.8465 149.7333,217.2595 149.6743,217.5795 L143.6473,216.6595 C143.6473,216.6595 144.9253,191.5605 146.3763,179.6965" id="Fill-180" fill="#3962A8"></path>
                <path d="M171.8265,86.4367 C177.3875,87.8067 182.8165,89.5267 186.5265,91.0167 L188.9675,85.5067 C185.4765,84.0467 180.4675,82.4067 173.2565,80.6367 C171.6565,80.2367 170.0265,81.2167 169.6375,82.8167 C169.2465,84.4267 170.2265,86.0367 171.8265,86.4367" id="Fill-182" fill="#ED8C62"></path>
                <path d="M173.2113,80.552 C171.2973,80.276 169.9183,81.181 169.4043,83.045 C168.8903,84.907 170.1793,86.371 171.8463,87.35 C173.8973,88.555 174.5863,88.782 183.2183,91.753 L188.0163,85.097 C176.9823,80.832 176.4143,81.015 173.2113,80.552" id="Fill-184" fill="#E8E8E8"></path>
                <path d="M158.8665,80.177 C159.0265,80.187 159.1865,80.187 159.3465,80.187 C161.9165,80.187 164.2975,79.317 166.1865,77.857 C166.2665,75.477 165.9965,73.427 165.8965,72.757 C165.6065,70.827 163.7975,69.497 161.8765,69.797 C159.9465,70.077 158.6165,71.877 158.9065,73.807 C159.0565,74.827 159.1375,75.997 159.1375,77.117 C159.1375,78.257 159.0565,79.347 158.8665,80.177" id="Fill-186" fill="#ED8C62"></path>
                <path d="M148.8616,67.6213 C150.2716,74.0973 153.8886,78.8503 160.0906,78.8503 C166.2926,78.8503 170.2096,74.1593 171.3196,67.6213 C172.3586,61.5073 166.2626,55.5133 160.0606,55.5133 C153.8596,55.5133 147.5426,61.5613 148.8616,67.6213" id="Fill-188" fill="#FFAF84"></path>
                <path d="M148.0189,217.6145 L148.0469,217.4355 C149.7479,206.9185 152.3179,191.0235 153.6199,181.0285 C154.5689,173.7505 163.5759,152.1095 166.9659,144.3855 C166.9919,144.3285 167.0089,144.2695 167.0249,144.2125 C167.0339,144.1815 167.0409,144.1515 167.0529,144.1225 C167.6029,142.6335 169.2739,137.1045 167.6849,128.4265 L167.1929,128.5165 C168.7589,137.0695 167.1229,142.4905 166.5839,143.9475 C166.5689,143.9895 166.5559,144.0335 166.5429,144.0765 C166.5339,144.1125 166.5249,144.1485 166.5089,144.1835 C163.1099,151.9265 154.0809,173.6275 153.1229,180.9645 C151.8229,190.9515 149.2539,206.8415 147.5539,217.3565 L147.5249,217.5345 L148.0189,217.6145 Z" id="Fill-190" fill="#658BC1"></path>
                <path d="M156.097,80.4768 C156.097,81.9868 156.697,84.5368 160.677,84.5368 C163.576,84.5368 167.217,83.3068 168.557,80.9768 L168.847,80.4768 L156.097,80.4768 Z" id="Fill-192" fill="#C8D6DB"></path>
                <path d="M167.6888,80.4753 C166.6268,82.3263 163.4388,83.5343 160.6778,83.5343 C157.9168,83.5343 157.0998,82.1643 157.0998,80.4753 L167.6888,80.4753 Z" id="Fill-194" fill="#FFAF84"></path>
                <path d="M152.5677,111.8469 C152.5687,111.8159 152.4177,110.1179 154.1697,107.6369 L152.5347,106.6659 C150.4597,109.7429 150.6677,111.9729 150.6677,112.1179 L152.5677,111.8469 Z" id="Fill-196" fill="#82AACE"></path>
                <path d="M153.8626,106.695 C152.9236,106.259 151.6786,106.463 151.0836,107.149 C150.4866,107.835 150.7646,108.744 151.7036,109.18 C152.6426,109.616 153.8866,109.413 154.4826,108.726 C155.0796,108.04 154.8006,107.131 153.8626,106.695" id="Fill-198" fill="#4E7CAF"></path>
                <path d="M149.1468,59.3054 C152.5218,53.8474 160.8868,53.3884 162.5178,53.4724 C163.3788,53.5154 165.2268,54.0084 166.0488,55.3004 C166.1048,54.3974 166.0428,53.6184 166.0428,53.6184 C166.7798,54.5224 166.8988,55.2704 166.7618,55.8504 C167.2638,55.1874 167.6228,54.4464 167.6228,54.4464 C167.7698,55.4004 167.4958,55.9304 167.1338,56.2404 C169.4168,56.7734 172.3338,60.0034 171.3338,66.6284 C170.8978,69.5164 164.3898,67.3074 162.5428,64.4134 C161.3048,66.3964 158.8488,66.8144 158.8488,66.8144 C159.7128,65.9574 160.4468,64.6814 161.0348,63.4014 C157.5668,65.5244 152.9268,67.8094 152.3978,69.2224 C152.3978,69.2224 151.3978,66.9544 152.1478,65.5134 C152.1478,65.5134 149.3958,66.1984 149.0478,68.9484 C149.0478,68.9484 145.5328,65.1504 149.1468,59.3054" id="Fill-200" fill="#424344"></path>
                <polygon id="Fill-202" fill="#658BC1" points="155.0042 145.5197 157.7522 128.5117 157.2582 128.4317 154.5102 145.4397"></polygon>
                <path d="M155.2747,142.2893 L155.3517,141.7953 C155.3407,141.7933 154.2967,141.6203 153.7267,140.8323 C153.3927,140.3723 153.2817,139.7833 153.3947,139.0833 L155.1357,128.3073 L154.6417,128.2263 L152.9007,139.0033 C152.7657,139.8423 152.9087,140.5573 153.3247,141.1303 C154.0207,142.0863 155.2237,142.2813 155.2747,142.2893" id="Fill-204" fill="#658BC1"></path>
                <path d="M171.7191,66.9743 C172.2121,68.0713 172.1591,69.2753 171.6771,70.2813 C171.1121,71.4593 169.4001,71.3933 168.8651,70.2013 L167.4101,66.9623 C166.8751,65.7703 167.9651,64.4473 169.2211,64.8083 C170.2921,65.1163 171.2271,65.8773 171.7191,66.9743" id="Fill-206" fill="#FFAF84"></path>
            </g>
        </g>
    </g>
</svg>