<svg xmlns="http://www.w3.org/2000/svg" viewBox="0 0 32.52 32.52"><defs><style>.cls-1{fill:#32c5d2;}</style></defs><title>check-icon</title><g id="Calque_2" data-name="Calque 2"><g id="Calque_1-2" data-name="Calque 1"><path class="cls-1" d="M16.26,0A16.26,16.26,0,1,0,32.52,16.26,16.29,16.29,0,0,0,16.26,0Zm0,31.27a15,15,0,1,1,15-15,15,15,0,0,1-15,15Z"/><path class="cls-1" d="M23.92,9.59,14.31,20.4,8.52,15.77a.62.62,0,0,0-.88.1.63.63,0,0,0,.1.88l6.25,5a.67.67,0,0,0,.39.14.61.61,0,0,0,.47-.21l10-11.26a.63.63,0,0,0-.94-.83Z"/></g></g></svg>