<svg xmlns="http://www.w3.org/2000/svg" viewBox="0 0 21 21"><defs><style>.cls-1{fill:#88cc2a;}.cls-2{fill:#7fb335;}.cls-3{fill:#73a62a;}</style></defs><title>leaf-icon</title><g id="Calque_2" data-name="Calque 2"><g id="Calque_1-2" data-name="Calque 1"><path class="cls-1" d="M11.09,18.13a8.19,8.19,0,0,1-5.82-2.41h0a8.23,8.23,0,0,1,0-11.62C9.8-.43,19.9,0,20.33,0A.69.69,0,0,1,21,.67c0,.43.44,10.53-4.08,15.05A8.17,8.17,0,0,1,11.09,18.13Z"/><path class="cls-2" d="M11.09,18.13a8.17,8.17,0,0,0,5.81-2.41C21.42,11.2,21,1.1,21,.67a.72.72,0,0,0-.2-.45L5.27,15.72A8.19,8.19,0,0,0,11.09,18.13Z"/><path class="cls-2" d="M12.06,9.63a.69.69,0,0,1-.69-.69V4.09a.69.69,0,0,1,.69-.68.68.68,0,0,1,.68.68V8.94A.68.68,0,0,1,12.06,9.63Z"/><path class="cls-3" d="M16.9,9.63H12.06a.69.69,0,0,1,0-1.38H16.9a.69.69,0,0,1,0,1.38Z"/><path class="cls-2" d="M7.7,14A.69.69,0,0,1,7,13.3V8.46a.69.69,0,1,1,1.37,0V13.3A.69.69,0,0,1,7.7,14Z"/><path class="cls-3" d="M12.54,14H7.7A.69.69,0,0,1,7,13.3a.68.68,0,0,1,.69-.68h4.84a.68.68,0,0,1,.69.68A.69.69,0,0,1,12.54,14Z"/><path class="cls-2" d="M.69,21a.7.7,0,0,1-.49-.2.68.68,0,0,1,0-1L15.93,4.1a.68.68,0,0,1,1,0,.67.67,0,0,1,0,1L1.17,20.8A.69.69,0,0,1,.69,21Z"/><path class="cls-3" d="M.69,21a.69.69,0,0,0,.48-.2L16.9,5.06a.67.67,0,0,0,0-1h0L.2,20.8A.7.7,0,0,0,.69,21Z"/></g></g></svg>