<svg xmlns="http://www.w3.org/2000/svg" viewBox="0 0 663.13 447.86"><defs><style>.cls-1{opacity:0.4;}.cls-2{fill:#d5e6db;}.cls-3{fill:#6f9aac;}.cls-4{fill:#fff;}.cls-5{fill:none;stroke:#fff;stroke-miterlimit:10;stroke-width:2px;stroke-dasharray:5;}</style></defs><title>pplane</title><g id="Calque_2" data-name="Calque 2"><g id="Calque_1-2" data-name="Calque 1"><g class="cls-1"><polygon class="cls-2" points="535.59 377.15 563.43 347.16 663.13 447.86 535.59 377.15"/><polygon class="cls-3" points="661.49 446.6 535.59 377.15 564.18 381.86 661.49 446.6"/><polygon class="cls-4" points="663.13 447.86 564.18 381.86 562.18 422.12 663.13 447.86"/><polygon class="cls-4" points="563.43 347.16 561.26 310.96 663.13 447.86 563.43 347.16"/><path class="cls-5" d="M.93.36c14.15,36.5,53.42,77.15,96.73,71.7,17.47-2.2,33.24-12.27,40-29.4,8.58-21.65-11.62-34-30.52-21.82C76.14,40.91,67,91.75,78.67,123.22c6.76,18.2,22,31.85,42.22,31.54,32.32-.49,43.48-25.8,60.47-48.66,21.14-28.42,55.56-91.49,98.94-81.75,30.46,6.84,44.28,47.12,43.44,74.62-1,32.35-16.77,64.12-39.06,87.12-33.12,34.18-84,44.48-103,93.31-8.21,21.06-1.36,39.92,18.73,50.64,18.29,9.75,36.4,2.24,54.51-3.36a628.73,628.73,0,0,0,71.83-27.29c22.39-10.07,37.82-34.18,30.14-59.28-2-6.51-8-12.35-14.76-11.83-5.12.4-9.44,4.29-11.8,8.86-17.13,33.27,4.63,59.8,36.47,70.45,28.66,9.58,62.17,9.37,88-7.69,8.33-5.5,20.49-14.87,30.06-5.47,7,6.9,3.71,19.56-.95,26.74-10.49,16.12-31.89,38.4-2.45,50.2,7.48,3,15.74,3.31,23.8,3.3,9.54,0,20.08-.48,29.34,2.09"/></g></g></g></svg>