<svg xmlns="http://www.w3.org/2000/svg" viewBox="0 0 22.25 22.25"><defs><style>.cls-1{fill:#8e8e8e;}</style></defs><title>scope-icon</title><g id="Calque_2" data-name="Calque 2"><g id="Calque_1-2" data-name="Calque 1"><path class="cls-1" d="M11.12,22.25A11.13,11.13,0,1,1,22.25,11.12,11.14,11.14,0,0,1,11.12,22.25Zm0-20.83a9.71,9.71,0,1,0,9.71,9.7A9.71,9.71,0,0,0,11.12,1.42Z"/><path class="cls-1" d="M11.12,16.57a5.45,5.45,0,1,1,5.45-5.45A5.45,5.45,0,0,1,11.12,16.57Zm0-9.47a4,4,0,1,0,4,4A4,4,0,0,0,11.12,7.1Z"/><path class="cls-1" d="M13,10.65A1.41,1.41,0,0,1,11.6,9.23a1.68,1.68,0,0,1,.06-.4,1.9,1.9,0,0,0-.54-.07,2.37,2.37,0,1,0,2.37,2.36,1.88,1.88,0,0,0-.07-.53A1.68,1.68,0,0,1,13,10.65Z"/></g></g></svg>