<svg xmlns="http://www.w3.org/2000/svg" viewBox="0 0 22.53 19.41"><defs><style>.cls-1{fill:#5b5b5b;}</style></defs><title>send</title><g id="Calque_2" data-name="Calque 2"><g id="Calque_1-2" data-name="Calque 1"><path class="cls-1" d="M0,9.71a1.09,1.09,0,0,0,.78,1L9,13.19l.3,5.69a.56.56,0,0,0,.38.49.43.43,0,0,0,.19,0,.57.57,0,0,0,.42-.19L13.25,16l4.13,2.86a1.1,1.1,0,0,0,.63.2,1.11,1.11,0,0,0,1.08-.88L22.52.67a.58.58,0,0,0-.19-.54A.56.56,0,0,0,21.76,0L.66,8.63A1.11,1.11,0,0,0,0,9.71Zm10.39,7.76-.19-3.59,2.11,1.46Zm7.6.43-7.53-5.21L21,2.48ZM19.86,2,9.42,12.13,1.18,9.64Z"/></g></g></svg>