<svg xmlns="http://www.w3.org/2000/svg" viewBox="0 0 39.57 38"><defs><style>.cls-1{fill:#dfc6f4;}</style></defs><title>testimon-up</title><g id="Calque_2" data-name="Calque 2"><g id="Calque_1-2" data-name="Calque 1"><path class="cls-1" d="M23.22,38V21.65a34.76,34.76,0,0,1,1-8.32,21.26,21.26,0,0,1,2.94-6.85,15.33,15.33,0,0,1,5-4.71A14.16,14.16,0,0,1,39.42,0V7.37A6.5,6.5,0,0,0,35.3,8.62a9.36,9.36,0,0,0-2.65,3.31,14.89,14.89,0,0,0-1.4,4.64,35.24,35.24,0,0,0-.37,5.08h8.69V38Z"/><path class="cls-1" d="M0,38V21.65a34.76,34.76,0,0,1,1-8.32A21.26,21.26,0,0,1,3.9,6.48a15.33,15.33,0,0,1,5-4.71A14.16,14.16,0,0,1,16.2,0V7.37a6.5,6.5,0,0,0-4.12,1.25,9.25,9.25,0,0,0-2.65,3.31A14.89,14.89,0,0,0,8,16.57a35.24,35.24,0,0,0-.37,5.08h8.69V38Z"/></g></g></svg>