<svg xmlns="http://www.w3.org/2000/svg" viewBox="0 0 183.85 50.22"><defs><style>.cls-1{fill:#f2f3f7;}.cls-2{fill:none;stroke:#a984bf;stroke-miterlimit:10;stroke-width:4px;}</style></defs><title>Fichier 2</title><g id="Calque_2" data-name="Calque 2"><g id="Calque_1-2" data-name="Calque 1"><path class="cls-1" d="M8.77,30.66.34,0H4.07l6.25,24.75h.09L16.81,0h3.55l6.38,24.75h.11L33.11,0h3.73L28.37,30.66h-3L18.65,5.75h-.11L11.78,30.66Z"/><path class="cls-1" d="M41.53,30.66V0h3.35V30.66Z"/><path class="cls-1" d="M50.42,28.23l17-25.11V3H51V0H71.56V2.38L54.67,27.54v.09H71.92v3H50.42Z"/><path class="cls-1" d="M77.17,30.66V0h6.64l8.47,19h.2L101,0h6.61V30.66h-5.87V10.8h-.27l-7,15.77H90.31L83.23,10.8H83V30.66Z"/><path class="cls-1" d="M133.72,30.66h-20V0h20V5.26H120.15v7.45h12.76v4.9H120.15V25.4h13.57Z"/><path class="cls-1" d="M138.43,28.61a1.13,1.13,0,1,1-1.13,1.12A1.13,1.13,0,0,1,138.43,28.61Z"/><path class="cls-1" d="M152.23,30.66h-9.18v-16h1.49V29.3h7.69Z"/><path class="cls-1" d="M154.68,30.66v-16h1.48v16Z"/><path class="cls-1" d="M164.56,30.66l-5.81-16h1.69l4.87,14h.05l4.89-14h1.69l-5.86,16Z"/><path class="cls-1" d="M183.85,30.66h-9.32v-16h9.32v1.37H176v5.75h7.42v1.35H176V29.3h7.83Z"/><line class="cls-2" y1="48.22" x2="144" y2="48.22"/></g></g></svg>